<svg width="24" height="24" viewBox="0 0 28 28" fill="none" xmlns="http://www.w3.org/2000/svg" class="wAxY5ae1" aria-hidden="true">
<path fill-rule="evenodd" clip-rule="evenodd" d="M14 0.292969L0 6.66341V7.65566H28V6.66341L14 0.292969ZM1 10.2969C1 9.74459 1.44772 9.29688 2 9.29688H25C25.5523 9.29688 26 9.74459 26 10.2969C26 10.8492 25.5523 11.2969 25 11.2969H2C1.44772 11.2969 1 10.8492 1 10.2969ZM13.0859 13C12.5337 13 12.0859 13.4477 12.0859 14V23.2707C12.0859 23.8229 12.5337 24.2707 13.0859 24.2707H14.9141C15.4663 24.2707 15.9141 23.8229 15.9141 23.2707V14C15.9141 13.4477 15.4663 13 14.9141 13H13.0859ZM2 26C1.44772 26 1 26.4477 1 27C1 27.5523 1.44772 28 2 28H25C25.5523 28 26 27.5523 26 27C26 26.4477 25.5523 26 25 26H2ZM20.1163 13C19.564 13 19.1163 13.4477 19.1163 14V23.2707C19.1163 23.8229 19.564 24.2707 20.1163 24.2707H21.9445C22.4967 24.2707 22.9445 23.8229 22.9445 23.2707V14C22.9445 13.4477 22.4967 13 21.9445 13H20.1163ZM6.05554 13C5.50326 13 5.05554 13.4477 5.05554 14V23.2707C5.05554 23.8229 5.50326 24.2707 6.05554 24.2707H7.88367C8.43595 24.2707 8.88367 23.8229 8.88367 23.2707V14C8.88367 13.4477 8.43595 13 7.88367 13H6.05554Z" fill="var(--main-font-color)"></path><defs><linearGradient id="paint0_linear" x1="14" y1="0.292969" x2="14" y2="28" gradientUnits="userSpaceOnUse"><stop stop-color="var(--main-font-color)"></stop><stop offset="1" stop-color="#1E1F45"></stop></linearGradient></defs></svg>