<svg xmlns="http://www.w3.org/2000/svg" width="52" height="24" viewBox="0 0 65 30" fill="none"><script xmlns=""/>
<path d="M46.4 0H20C11.75 0 5 6.75 5 15C5 23.25 11.75 30 20 30H46.4C54.65 30 61.4 23.25 61.4 15C61.4 6.75 54.65 0 46.4 0Z" fill="white"/>
<path d="M46.4 1.215C48.2525 1.215 50.0525 1.5825 51.7475 2.3025C53.39 3 54.86 3.9975 56.135 5.265C57.4025 6.5325 58.4 8.01 59.0975 9.6525C59.8175 11.3475 60.185 13.1475 60.185 15C60.185 16.8525 59.8175 18.6525 59.0975 20.3475C58.4 21.99 57.4025 23.46 56.135 24.735C54.8675 26.0025 53.39 27 51.7475 27.6975C50.0525 28.4175 48.2525 28.785 46.4 28.785H20C18.1475 28.785 16.3475 28.4175 14.6525 27.6975C13.01 27 11.54 26.0025 10.265 24.735C8.9975 23.4675 8 21.99 7.3025 20.3475C6.5825 18.6525 6.215 16.8525 6.215 15C6.215 13.1475 6.5825 11.3475 7.3025 9.6525C8 8.01 8.9975 6.54 10.265 5.265C11.5325 3.9975 13.01 3 14.6525 2.3025C16.3475 1.5825 18.1475 1.215 20 1.215H46.4ZM46.4 0H20C11.75 0 5 6.75 5 15C5 23.25 11.75 30 20 30H46.4C54.65 30 61.4 23.25 61.4 15C61.4 6.75 54.65 0 46.4 0Z" fill="#3C4043"/>
<path d="M31.895 16.0649V20.6024H30.455V9.39743H34.2725C35.24 9.39743 36.065 9.71993 36.74 10.3649C37.43 11.0099 37.775 11.7974 37.775 12.7274C37.775 13.6799 37.43 14.4674 36.74 15.1049C36.0725 15.7424 35.2475 16.0574 34.2725 16.0574H31.895V16.0649ZM31.895 10.7774V14.6849H34.3025C34.8725 14.6849 35.3525 14.4899 35.7275 14.1074C36.11 13.7249 36.305 13.2599 36.305 12.7349C36.305 12.2174 36.11 11.7599 35.7275 11.3774C35.3525 10.9799 34.88 10.7849 34.3025 10.7849H31.895V10.7774Z" fill="#3C4043"/>
<path d="M41.54 12.6825C42.605 12.6825 43.445 12.9675 44.06 13.5375C44.675 14.1075 44.9825 14.8875 44.9825 15.8775V20.6025H43.61V19.5375H43.55C42.9575 20.415 42.1625 20.85 41.1725 20.85C40.325 20.85 39.62 20.6025 39.05 20.1C38.48 19.5975 38.195 18.975 38.195 18.225C38.195 17.43 38.495 16.8 39.095 16.335C39.695 15.8625 40.4975 15.63 41.495 15.63C42.35 15.63 43.055 15.7875 43.6025 16.1025V15.7725C43.6025 15.27 43.4075 14.85 43.01 14.4975C42.6125 14.145 42.1475 13.9725 41.615 13.9725C40.8125 13.9725 40.175 14.31 39.71 14.9925L38.4425 14.1975C39.14 13.185 40.175 12.6825 41.54 12.6825ZM39.68 18.2475C39.68 18.6225 39.8375 18.9375 40.16 19.185C40.475 19.4325 40.85 19.56 41.2775 19.56C41.885 19.56 42.425 19.335 42.8975 18.885C43.37 18.435 43.61 17.91 43.61 17.3025C43.16 16.95 42.5375 16.77 41.735 16.77C41.15 16.77 40.6625 16.9125 40.2725 17.19C39.875 17.4825 39.68 17.835 39.68 18.2475Z" fill="#3C4043"/>
<path d="M52.8125 12.93L48.0125 23.97H46.5275L48.3125 20.1075L45.1475 12.93H46.715L48.995 18.435H49.025L51.245 12.93H52.8125Z" fill="#3C4043"/>
<path d="M26.1673 15.15C26.1673 14.6805 26.1253 14.2313 26.0473 13.7993H20.0113V16.2743L23.4875 16.275C23.3465 17.0985 22.8928 17.8005 22.1975 18.2685V19.8743H24.2668C25.475 18.756 26.1673 17.103 26.1673 15.15Z" fill="#4285F4"/>
<path d="M22.1983 18.2685C21.6223 18.657 20.8805 18.8842 20.0128 18.8842C18.3365 18.8842 16.9145 17.7547 16.4053 16.2322H14.2708V17.8882C15.3283 19.9867 17.5018 21.4267 20.0128 21.4267C21.7483 21.4267 23.2063 20.856 24.2675 19.8735L22.1983 18.2685Z" fill="#34A853"/>
<path d="M16.2042 15.0037C16.2042 14.5762 16.2755 14.1629 16.4052 13.7744V12.1184H14.2707C13.8335 12.9862 13.5875 13.9657 13.5875 15.0037C13.5875 16.0417 13.8342 17.0212 14.2707 17.8889L16.4052 16.2329C16.2755 15.8444 16.2042 15.4312 16.2042 15.0037Z" fill="#FABB05"/>
<path d="M20.0128 11.1225C20.96 11.1225 21.8083 11.4487 22.478 12.0862L24.3118 10.254C23.198 9.21671 21.746 8.57996 20.0128 8.57996C17.5025 8.57996 15.3283 10.02 14.2708 12.1185L16.4053 13.7745C16.9145 12.252 18.3365 11.1225 20.0128 11.1225Z" fill="#E94235"/>
</svg>