<svg width="48" height="32" viewBox="0 0 48 32" fill="none" xmlns="http://www.w3.org/2000/svg" class="wAxY5ae1 Kwn5srOn" aria-hidden="true">
<path d="M30.1067 21.6529C29.2699 21.6529 28.4828 21.327 27.8909 20.7354L24.6916 17.5356C24.4669 17.3103 24.0754 17.311 23.8509 17.5356L20.6398 20.7471C20.048 21.3387 19.2609 21.6646 18.424 21.6646H17.7935L21.8456 25.7171C23.1111 26.9827 25.1629 26.9827 26.4285 25.7171L30.4921 21.6529H30.1067Z" fill="var(--main-font-color)"></path>
<path d="M18.424 10.3347C19.2608 10.3347 20.048 10.6606 20.6398 11.2522L23.8508 14.4642C24.0821 14.6956 24.4597 14.6964 24.6915 14.4639L27.8909 11.2639C28.4827 10.6723 29.2698 10.3464 30.1067 10.3464H30.4921L26.4285 6.28228C25.1629 5.01658 23.1111 5.01658 21.8456 6.28228L17.7936 10.3347L18.424 10.3347Z" fill="var(--main-font-color)"></path>
<path d="M33.8533 13.708L31.3977 11.252C31.3436 11.2737 31.285 11.2872 31.2232 11.2872H30.1067C29.5295 11.2872 28.9644 11.5214 28.5565 11.9296L25.3572 15.1293C25.0578 15.4288 24.6644 15.5786 24.2714 15.5786C23.878 15.5786 23.4848 15.4288 23.1855 15.1296L19.9742 11.9179C19.5663 11.5096 19.0012 11.2755 18.424 11.2755H17.0511C16.9925 11.2755 16.9378 11.2617 16.8862 11.2422L14.4207 13.708C13.1552 14.9737 13.1552 17.0256 14.4207 18.2913L16.8861 20.757C16.9378 20.7375 16.9925 20.7237 17.0511 20.7237H18.424C19.0012 20.7237 19.5663 20.4896 19.9742 20.0814L23.1852 16.87C23.7656 16.29 24.7774 16.2898 25.3572 16.8702L28.5565 20.0697C28.9644 20.4779 29.5295 20.7121 30.1067 20.7121H31.2232C31.285 20.7121 31.3436 20.7256 31.3977 20.7473L33.8533 18.2913C35.1188 17.0256 35.1188 14.9737 33.8533 13.708Z" fill="var(--main-font-color)"></path>
</svg>