<?xml version="1.0" encoding="UTF-8" standalone="no"?>
<!-- Created with Inkscape (http://www.inkscape.org/) -->

<svg
   xmlns:dc="http://purl.org/dc/elements/1.1/"
   xmlns:cc="http://creativecommons.org/ns#"
   xmlns:rdf="http://www.w3.org/1999/02/22-rdf-syntax-ns#"
   xmlns:svg="http://www.w3.org/2000/svg"
   xmlns="http://www.w3.org/2000/svg"
   xmlns:sodipodi="http://sodipodi.sourceforge.net/DTD/sodipodi-0.dtd"
   xmlns:inkscape="http://www.inkscape.org/namespaces/inkscape"
   width="103.8676"
   height="103.86761"
   viewBox="0 0 103.8676 103.86761"
   id="svg4362"
   version="1.1"
   inkscape:version="0.91 r13725"
   sodipodi:docname="blocktrades-icon.svg">
  <defs
     id="defs4364" />
  <sodipodi:namedview
     id="base"
     pagecolor="#ffffff"
     bordercolor="#666666"
     borderopacity="1.0"
     inkscape:pageopacity="0.0"
     inkscape:pageshadow="2"
     inkscape:zoom="2"
     inkscape:cx="-108.04262"
     inkscape:cy="5.1649787"
     inkscape:document-units="px"
     inkscape:current-layer="g4402"
     showgrid="false"
     inkscape:window-width="1376"
     inkscape:window-height="910"
     inkscape:window-x="2746"
     inkscape:window-y="279"
     inkscape:window-maximized="0"
     units="px"
     fit-margin-top="0"
     fit-margin-left="0"
     fit-margin-right="0"
     fit-margin-bottom="0" />
  <metadata
     id="metadata4367">
    <rdf:RDF>
      <cc:Work
         rdf:about="">
        <dc:format>image/svg+xml</dc:format>
        <dc:type
           rdf:resource="http://purl.org/dc/dcmitype/StillImage" />
        <dc:title></dc:title>
      </cc:Work>
    </rdf:RDF>
  </metadata>
  <g
     inkscape:label="Layer 1"
     inkscape:groupmode="layer"
     id="layer1"
     transform="translate(-13.78049,-17.57126)">
    <g
       id="g4402"
       transform="translate(-280,-200)">
      <path
         inkscape:connector-curvature="0"
         id="path4190"
         d="m 293.78049,282.97845 0,-38.46041 38.46041,0 38.46041,0 0,38.46041 0,38.46042 -38.46041,0 -38.46041,0 0,-38.46042 z"
         style="fill:#0d497b;fill-opacity:1" />
      <path
         inkscape:connector-curvature="0"
         id="path4192"
         d="m 307.98879,230.55471 12.97652,-12.98345 37.97047,0 37.97047,0 -12.97652,12.98345 -12.97652,12.98345 -37.97047,0 -37.97047,0 12.97652,-12.98345 z"
         style="fill:#1b5f98;fill-opacity:1" />
      <path
         inkscape:connector-curvature="0"
         id="path4194"
         d="m 371.19125,282.72667 0,-37.97046 13.22842,-13.22162 13.22842,-13.22162 0,37.97047 0,37.97047 -13.22842,13.22161 -13.22842,13.22163 0,-37.97048 z"
         style="fill:#3a719e;fill-opacity:1" />
      <g
         style="fill:#ffffff"
         transform="translate(308.40231,249.42936)"
         id="g4280">
        <path
           style="fill:#ffffff"
           inkscape:connector-curvature="0"
           d="M 19.4,40.7 6.5,27.9 c 0,6.5 0,11.1 0,15.4 l 11.8,0 c 0.2,-1 0.6,-1.8 1.1,-2.6 z"
           id="path4282" />
        <path
           style="fill:#ffffff"
           inkscape:connector-curvature="0"
           d="m 18.3,45.8 -11.8,0 c 0.3,4.1 1.9,7.9 4.5,10.9 l 8.4,-8.4 c -0.6,-0.7 -0.9,-1.6 -1.1,-2.5 z"
           id="path4284" />
        <path
           style="fill:#ffffff"
           inkscape:connector-curvature="0"
           d="M 37,30.6 C 34.1,28 30.3,26.4 26.1,26.1 l 0,11.8 c 0.9,0.2 1.8,0.5 2.5,1 L 37,30.6 Z"
           id="path4286" />
        <path
           style="fill:#ffffff"
           inkscape:connector-curvature="0"
           d="m 30.6,48.1 8.4,8.4 c 2.5,-2.9 4.1,-6.6 4.4,-10.7 l -11.9,0 c -0.2,0.8 -0.5,1.6 -0.9,2.3 z"
           id="path4288" />
        <path
           style="fill:#ffffff"
           inkscape:connector-curvature="0"
           d="m 31.5,43.3 11.8,0 C 43,39.2 41.4,35.4 38.8,32.4 l -8.4,8.4 c 0.6,0.7 0.9,1.6 1.1,2.5 z"
           id="path4290" />
        <path
           style="fill:#ffffff"
           inkscape:connector-curvature="0"
           d="m 12.8,58.4 c 2.9,2.6 6.7,4.2 10.9,4.5 l 0,-11.8 c -0.9,-0.2 -1.8,-0.5 -2.5,-1 l -8.4,8.3 z"
           id="path4292" />
        <path
           style="fill:#ffffff"
           inkscape:connector-curvature="0"
           d="m 26.2,51.1 0,11.8 c 4.2,-0.3 7.9,-1.9 10.9,-4.5 l -8.3,-8.3 c -0.9,0.5 -1.7,0.8 -2.6,1 z"
           id="path4294" />
        <path
           style="fill:#ffffff"
           inkscape:connector-curvature="0"
           d="m 6.5,24 c 3.1,3.5 12.9,13.8 14.8,14.8 0.7,0.4 1.5,-0.8 2.3,-0.9 0,-3.3 0,-19.3 0,-19.3 L 6.5,3.4 c 0,0 0,20.1 0,20.6 z"
           id="path4296" />
      </g>
      <path
         style="fill:#ececec"
         inkscape:connector-curvature="0"
         d="m 393.45349,249.12976 q 0.30409,6.42898 -2.213,11.86452 1.9765,-1.01865 2.9563,0.74162 0.97981,1.76027 0.7602,7.14041 -0.11825,2.75445 -0.54903,5.20399 -0.43078,2.44955 -1.08961,4.43219 -0.65883,1.98264 -1.63864,3.873 -0.97981,1.89036 -2.05252,3.41411 -1.07272,1.52375 -2.45796,3.11323 l 0,9.45088 -2.60155,2.70667 0,-9.30262 q -1.35146,1.40607 -2.06097,2.10716 l 0,9.33968 -2.60155,2.70668 0,-9.45087 q -0.30408,0.31637 -0.91224,0.9306 -0.60815,0.61423 -0.92912,0.94817 l -3.37864,3.51519 0.52369,-7.32725 1.87515,-1.95091 q 0.84466,-0.8788 0.9798,-2.90959 l 0,-14.89902 0.27029,-0.28121 q -0.10136,0.0683 -0.27029,0.24411 l 0,-10.63686 q -0.21961,-2.29175 -1.50349,-0.95598 l -1.87515,1.95092 0,-6.0782 3.58136,-3.68898 q 1.08116,-1.12486 1.63864,-1.74196 l 0,-9.33969 2.60155,-2.70669 0,9.15438 q 1.38524,-1.51532 2.06097,-2.21836 l 0,-9.08025 2.60155,-2.70668 0,9.33969 q 1.33456,-1.12907 2.36505,-1.62673 1.03047,-0.49767 1.90893,-0.31827 0.87845,0.17938 1.39368,1.44084 0.51524,1.26145 0.6166,3.6021 z m -3.63203,23.97775 q 0,-1.33424 -0.2534,-2.10835 -0.2534,-0.77411 -0.62505,-1.05456 -0.37165,-0.28045 -0.97136,-0.11978 -0.5997,0.16067 -1.1065,0.46557 -0.50679,0.3049 -1.25009,0.96705 -0.7433,0.66216 -1.16564,1.10156 -0.42232,0.4394 -1.0896,1.17074 -0.66729,0.73135 -0.80243,0.87196 l 0,12.52704 q 0.13514,-0.14061 0.62504,-0.63181 0.48991,-0.4912 0.81088,-0.82514 0.32097,-0.33394 0.89533,-0.98713 0.57438,-0.65317 0.98826,-1.17643 0.41389,-0.52332 0.96291,-1.31686 0.54903,-0.79359 0.93757,-1.49433 0.38855,-0.70075 0.80243,-1.61316 0.41388,-0.91243 0.66728,-1.80612 0.2534,-0.89369 0.41388,-1.9131 0.16049,-1.0194 0.16049,-2.05714 z m -1.19941,-16.39375 q 0,-1.22305 -0.21117,-1.94844 -0.21117,-0.72538 -0.51524,-1.02054 -0.30408,-0.29517 -0.81088,-0.1941 -0.50679,0.10106 -0.92912,0.35514 -0.42233,0.2541 -1.03894,0.78441 -0.6166,0.53035 -0.9798,0.92681 -0.3632,0.39638 -0.91223,0.9862 -0.54903,0.58972 -0.66728,0.71275 l 0,11.37811 q 0.0845,-0.0879 0.58281,-0.58787 0.49836,-0.49999 0.78554,-0.81727 0.28718,-0.3173 0.84466,-0.95291 0.55747,-0.6356 0.92912,-1.17051 0.37165,-0.53492 0.87,-1.31283 0.49835,-0.77793 0.81932,-1.53809 0.32096,-0.76016 0.62505,-1.651 0.30408,-0.89082 0.45612,-1.90144 0.15204,-1.01061 0.15204,-2.04836 z"
         id="path4315" />
      <path
         style="fill:#ececec;fill-opacity:1"
         inkscape:connector-curvature="0"
         d="m 358.81401,230.5534 c -1.10071,-0.51755 -3.17155,-0.94381 -6.2126,-1.27869 l -2.42558,-0.22833 5.31267,-4.42973 c 0.0418,0.0305 0.10162,0.0457 0.17996,0.0457 0.0782,0 0.099,0.0152 0.0625,0.0457 1.75797,0.42621 2.09452,1.15689 1.00938,2.19203 l 9.0372,0 c 2.03442,-1.82669 1.95348,-3.22717 -0.24264,-4.20139 -1.42411,-0.63934 -3.49499,-1.06556 -6.21262,-1.27868 l 2.95758,-2.46604 -8.33297,0 -2.84804,2.3747 c -4.13125,0.18267 -7.8062,0.6698 -11.02457,1.46135 -4.21469,1.03514 -7.27146,2.34429 -9.17011,3.92739 -2.04472,1.7049 -2.03431,2.96838 0.0314,3.79039 1.09544,0.45667 3.63577,0.88288 7.62101,1.27868 l -5.69608,4.74941 c -1.42403,-0.18268 -2.32914,-0.47189 -2.71508,-0.86769 -0.42778,-0.42621 -0.32085,-1.00468 0.32075,-1.73535 l -8.91982,0 c -2.15427,1.79623 -2.16991,3.21192 -0.0469,4.24706 1.54928,0.73067 4.11303,1.20255 7.69142,1.41568 l -2.1908,1.8267 8.33297,0 2.13604,-1.78103 c 4.32433,-0.21313 8.17387,-0.71547 11.5488,-1.50702 4.40775,-1.06556 7.5792,-2.40516 9.51439,-4.01872 1.86218,-1.55269 1.95608,-2.74004 0.2816,-3.56205 z m -16.04007,-2.28337 c -1.14758,-0.15221 -1.92218,-0.28921 -2.32388,-0.411 -1.12151,-0.30446 -1.29885,-0.77635 -0.53203,-1.41569 0.83978,-0.70022 2.22207,-1.23301 4.14689,-1.59835 1.00157,-0.18267 2.12304,-0.33488 3.3645,-0.45668 l -4.65548,3.88172 z m -0.0624,8.17445 c -0.46419,0.0609 -0.98843,0.10654 -1.57272,0.137 l 4.87453,-4.06439 c 1.26761,0.18267 2.18299,0.36534 2.74638,0.54801 0.92848,0.33488 1.04588,0.79155 0.35212,1.37002 -1.16841,0.97422 -3.30182,1.64403 -6.40031,2.00936 z"
         id="path4331" />
    </g>
  </g>
</svg>
