<svg fill="#FFFFFF" id="Capa_1" enable-background="new 0 0 512 512" height="512" viewBox="0 0 512 512" width="512" xmlns="http://www.w3.org/2000/svg"><g><path d="m497 401.667c-415.684 0-397.149.077-397.175-.139-4.556-36.483-4.373-34.149-4.076-34.193 199.47-1.037-277.492.065 368.071.065 26.896 0 47.18-20.377 47.18-47.4v-203.25c0-19.7-16.025-35.755-35.725-35.79l-124.179-.214v-31.746c0-17.645-14.355-32-32-32h-29.972c-17.64 0-31.99 14.351-31.99 31.99v31.594l-133.21-.232-9.985-54.992c-2.667-14.694-15.443-25.36-30.378-25.36h-68.561c-8.284 0-15 6.716-15 15s6.716 15 15 15c72.595 0 69.219-.399 69.422.719 16.275 89.632 5.917 26.988 49.58 306.416l-38.389.2c-18.027.069-32.06 15.893-29.81 33.899l4.252 34.016c1.883 15.06 14.748 26.417 29.925 26.417h26.62c-18.8 36.504 7.827 80.333 49.067 80.333 41.221 0 67.876-43.813 49.067-80.333h142.866c-18.801 36.504 7.827 80.333 49.067 80.333 41.22 0 67.875-43.811 49.066-80.333h31.267c8.284 0 15-6.716 15-15s-6.716-15-15-15zm-209.865-352.677c0-1.097.893-1.99 1.99-1.99h29.972c1.103 0 2 .897 2 2v111c0 8.284 6.716 15 15 15h22.276l-46.75 46.779c-4.149 4.151-10.866 4.151-15.015 0l-46.751-46.779h22.277c8.284 0 15-6.716 15-15v-111.01zm-30 61.594v34.416h-25.039c-20.126 0-30.252 24.394-16.014 38.644l59.308 59.342c15.874 15.883 41.576 15.885 57.452 0l59.307-59.342c14.229-14.237 4.13-38.644-16.013-38.644h-25.039v-34.254l124.127.214c3.186.005 5.776 2.603 5.776 5.79v203.25c0 10.407-6.904 17.4-17.18 17.4h-299.412l-35.477-227.039zm-56.302 346.249c0 13.877-11.29 25.167-25.167 25.167s-25.166-11.29-25.166-25.167 11.29-25.167 25.167-25.167 25.166 11.291 25.166 25.167zm241 0c0 13.877-11.289 25.167-25.166 25.167s-25.167-11.29-25.167-25.167 11.29-25.167 25.167-25.167 25.166 11.291 25.166 25.167z"/></g></svg>