<svg xmlns="http://www.w3.org/2000/svg" width="129" height="25" viewBox="0 0 129 25" fill="none">
<script xmlns=""/><path d="M18.0709 4.54606L11.6282 0L13.0882 15.2167L19.3749 18.077L18.0709 4.54606Z" fill="#FEFEFE"/>
<path d="M0.727241 14.0454L0 21.8824L12.475 12.996L11.8149 6.14148L0.727241 14.0454Z" fill="#FEFEFE"/>
<path d="M17.633 24.2715L24.8047 20.9782L10.8641 14.6483L5.24756 18.6449L17.633 24.2715Z" fill="#FEFEFE"/>
<path fill-rule="evenodd" clip-rule="evenodd" d="M116.02 0.461005C115.765 0.528638 115.342 0.680812 115.104 0.79917L114.681 1.00207V1.71222C114.681 2.0842 114.715 2.38855 114.749 2.37164C115.85 1.79676 116.358 1.66149 117.274 1.66149C118.426 1.6784 119.121 2.06729 119.324 2.81125C119.51 3.47067 119.104 4.58662 118.273 5.70256C117.748 6.42962 116.291 7.88372 115.291 8.69532L114.545 9.30402V9.8789V10.4538H117.731H120.9V9.72672V8.99967H119.019H117.138L118.087 8.06971C118.595 7.54556 119.188 6.86923 119.409 6.58179C120.476 5.14459 120.968 3.75811 120.781 2.7098C120.561 1.50932 119.815 0.731537 118.595 0.427189C118.002 0.275015 116.663 0.291923 116.02 0.461005Z" fill="white"/>
<path fill-rule="evenodd" clip-rule="evenodd" d="M123.747 3.21699L121.527 6.04066V6.70009V7.35951H123.849H126.153V8.89816V10.4537H126.882H127.611V8.89816V7.35951H128.305H129V6.70009V6.04066H128.305H127.611V3.21699V0.393311H126.797H125.967L123.747 3.21699ZM126.136 6.02376C126.119 6.04066 125.492 6.04066 124.73 6.02376L123.34 6.00685L124.73 4.28221L126.119 2.55757L126.153 4.28221C126.153 5.22907 126.153 6.00685 126.136 6.02376Z" fill="white"/>
<path fill-rule="evenodd" clip-rule="evenodd" d="M80.6037 4.31595V6.10823H79.5022H78.4008V7.00436V7.9005H79.5022H80.6037V11.9585C80.6206 16.4053 80.6376 16.7266 81.0104 17.5213C81.129 17.758 81.3493 18.0962 81.5018 18.2652C81.8407 18.6203 82.5524 19.0092 83.0946 19.1445C83.7894 19.3136 85.0603 19.2459 85.6873 19.0092L85.8567 18.9416V18.0285C85.8567 17.2 85.8567 17.1324 85.7551 17.1831C84.9586 17.4875 83.7555 17.5044 83.2472 17.2169C83.0099 17.0817 82.8913 16.9464 82.7557 16.6928L82.5863 16.3546L82.5524 12.1276L82.5354 7.9005H84.213H85.8567V7.00436V6.10823H84.213H82.5524V4.31595V2.52368H81.5865H80.6037V4.31595Z" fill="white"/>
<path fill-rule="evenodd" clip-rule="evenodd" d="M36.2405 5.93919C36.1388 5.9561 35.8507 6.00683 35.5796 6.04064C32.665 6.51407 31.0552 8.8305 31.0552 12.5672C31.0552 15.0527 31.7499 16.9296 33.0886 18.0286C34.6984 19.3474 37.5453 19.6349 40.4091 18.7556L41.0021 18.5696V17.6059C41.0021 16.7097 41.0021 16.6421 40.8835 16.6928C39.5957 17.217 38.7992 17.3692 37.3758 17.3861C36.1388 17.3861 35.6982 17.3015 34.9187 16.9296C34.0715 16.5068 33.5123 15.746 33.1903 14.5624C32.97 13.8015 32.9531 11.6035 33.1564 10.758C33.5123 9.21939 34.3426 8.32326 35.766 7.91746C36.1049 7.83292 36.4777 7.7991 37.3758 7.7991C38.6637 7.7991 39.2229 7.88364 40.2904 8.25562C40.6293 8.37398 40.9174 8.45852 40.9513 8.45852C40.9852 8.45852 41.0021 8.03582 41.0021 7.54548V6.61552L40.3921 6.42953C39.3076 6.09137 38.5451 5.97301 37.4436 5.93919C36.8844 5.92229 36.3422 5.92229 36.2405 5.93919Z" fill="white"/>
<path fill-rule="evenodd" clip-rule="evenodd" d="M49.3392 5.95606C47.7124 6.02369 45.7807 6.42949 44.2217 7.00437L43.8489 7.15654V13.1251V19.0768H44.8148H45.7807L45.7976 13.7508L45.8145 8.42466L46.4754 8.27249C47.1702 8.1034 48.7292 7.86669 49.5934 7.79906L50.1356 7.74833V6.83529V5.90533L49.9492 5.92224C49.8306 5.92224 49.5595 5.93915 49.3392 5.95606Z" fill="white"/>
<path fill-rule="evenodd" clip-rule="evenodd" d="M69.5384 6.00679C67.2677 6.36186 65.929 7.57926 65.6748 9.5068C65.6409 9.79424 65.6071 13.0575 65.6071 16.9126V23.8281H66.5729H67.5558V21.3088V18.7894L67.7083 18.8232C68.8606 19.1614 70.3857 19.3305 71.5041 19.229C73.08 19.0769 74.0798 18.6373 75.0118 17.7073C75.4862 17.2339 75.6557 16.9802 75.8929 16.5237C76.9774 14.3257 76.8927 10.5044 75.6896 8.39085C75.3507 7.78216 74.5881 7.00438 74.0289 6.66621C72.8936 6.00679 71.1991 5.75317 69.5384 6.00679ZM72.0633 7.79907C73.6731 8.22177 74.4695 9.45607 74.6898 11.857C74.7745 12.8377 74.6898 14.072 74.4865 14.8329C74.0289 16.6421 72.8597 17.4368 70.7246 17.4368C69.7587 17.4368 68.9114 17.3015 68.098 17.0141L67.5897 16.8281V13.2097C67.5897 9.11791 67.5727 9.15173 68.0811 8.59375C68.4369 8.20486 68.9453 7.93433 69.6231 7.79907C70.2501 7.68071 71.5719 7.6638 72.0633 7.79907Z" fill="white"/>
<path fill-rule="evenodd" clip-rule="evenodd" d="M92.5503 5.97297C90.4491 6.31114 89.1612 7.32563 88.4834 9.15172C88.1276 10.1324 88.0767 10.5213 88.0259 12.1614C87.9751 14.3256 88.1276 15.2556 88.7546 16.5237C89.0087 17.0479 89.1782 17.2846 89.6357 17.7411C90.5169 18.6203 91.5167 19.043 93.0926 19.2121C94.5838 19.3812 96.6003 19.1107 97.9729 18.5865L98.5151 18.3836V17.386C98.5151 16.8281 98.4982 16.3884 98.4812 16.3884C98.4643 16.3884 98.2271 16.4899 97.939 16.6252C97.2442 16.9633 96.2953 17.1831 95.1938 17.2846C92.6181 17.5213 91.11 16.9464 90.3983 15.4754C90.1949 15.0358 89.9407 14.1397 89.9407 13.8015C89.9407 13.7169 90.4491 13.7 94.6516 13.7H99.3624L99.3285 12.3643C99.2946 11.1807 99.2607 10.944 99.0743 10.2338C98.7185 8.84737 98.0576 7.69761 97.2103 7.03819C96.7359 6.6493 95.8716 6.2266 95.2616 6.07442C94.7363 5.93916 93.1265 5.88843 92.5503 5.97297ZM94.6007 7.84979C96.1089 8.17104 97.1426 9.57443 97.3798 11.6034L97.4137 12.043H93.6857H89.9407V11.857C89.9577 11.1807 90.2119 10.0479 90.4999 9.42225C91.1439 8.05269 92.7198 7.44399 94.6007 7.84979Z" fill="white"/>
<path fill-rule="evenodd" clip-rule="evenodd" d="M52.1354 6.19282C52.1354 6.26045 53.186 9.11794 54.4908 12.5672L56.8462 18.8233L56.592 19.4658C56.0837 20.7508 55.3381 21.7653 54.6602 22.0866C54.2536 22.2726 53.9146 22.2895 53.3724 22.1373C53.169 22.0866 52.9657 22.0358 52.9488 22.0358C52.9149 22.0358 52.8979 22.4416 52.9149 22.9151L52.9318 23.7943L53.2368 23.8957C53.6944 24.031 54.7111 24.031 55.1686 23.8788C56.2701 23.5238 57.219 22.5769 57.8629 21.2073C58.0832 20.7677 63.5397 6.26045 63.5397 6.14209C63.5397 6.12518 63.0821 6.10828 62.506 6.10828H61.4723L61.4045 6.29427C60.642 8.42471 57.846 16.0165 57.8121 16.0841C57.7952 16.1349 56.9648 13.903 55.965 11.1638L54.1688 6.14209L53.1521 6.12518C52.3218 6.10828 52.1354 6.12518 52.1354 6.19282Z" fill="white"/>
<path fill-rule="evenodd" clip-rule="evenodd" d="M101.209 6.159C101.209 6.19282 102.107 7.47784 103.192 8.99958C104.276 10.5382 105.259 11.9585 105.395 12.1614L105.649 12.5165L103.361 15.7629C102.107 17.5382 101.074 19.0262 101.074 19.0431C101.074 19.06 101.599 19.0769 102.243 19.0769H103.412L104.226 17.9102C107.022 13.9706 107.987 12.5841 107.987 12.5165C107.987 12.4827 107.581 11.8909 107.089 11.2146C106.615 10.5551 105.598 9.13485 104.836 8.06963L103.446 6.10828H102.328C101.718 6.10828 101.209 6.12518 101.209 6.159Z" fill="white"/>
<path fill-rule="evenodd" clip-rule="evenodd" d="M109.868 6.78461C108.851 8.22181 107.394 10.2846 107.343 10.3692C107.276 10.4706 108.394 11.9754 108.496 11.9416C108.597 11.9247 112.529 6.31118 112.529 6.19282C112.546 6.12518 112.274 6.10828 111.444 6.10828H110.343L109.868 6.78461Z" fill="white"/>
<path fill-rule="evenodd" clip-rule="evenodd" d="M107.886 13.7677C107.581 14.1904 107.344 14.5793 107.327 14.63C107.327 14.6977 108.005 15.7122 108.852 16.8957L110.36 19.0769H111.529C112.444 19.0769 112.682 19.06 112.665 18.9923C112.648 18.8909 108.513 13.0068 108.462 13.0068C108.445 13.0068 108.191 13.345 107.886 13.7677Z" fill="white"/>
</svg>