<svg width="48" height="48" viewBox="0 0 48 48" fill="none" xmlns="http://www.w3.org/2000/svg">
<g clip-path="url(#clip0_2_12)">
<path d="M11.58 48L0 33.525L5.79 26.2875L11.58 19.05L14.1 22.2L6.84 31.275H25.8V35.775H6.84L14.1 44.85L11.58 48ZM36.42 28.95L33.9 25.8L41.16 16.725H22.2V12.225H41.16L33.9 3.15L36.42 0L48 14.475L36.42 28.95Z" fill="white"/>
<path d="M34.8438 40.7051V42.085H27.918V40.7051H34.8438ZM28.1816 35.2031V48H26.4854V35.2031H28.1816ZM36.3203 35.2031V48H34.6328V35.2031H36.3203ZM44.0547 42.9814H40.6357V41.6016H44.0547C44.7168 41.6016 45.2529 41.4961 45.6631 41.2852C46.0732 41.0742 46.3721 40.7812 46.5596 40.4062C46.7529 40.0312 46.8496 39.6035 46.8496 39.123C46.8496 38.6836 46.7529 38.2705 46.5596 37.8838C46.3721 37.4971 46.0732 37.1865 45.6631 36.9521C45.2529 36.7119 44.7168 36.5918 44.0547 36.5918H41.0312V48H39.335V35.2031H44.0547C45.0215 35.2031 45.8389 35.3701 46.5068 35.7041C47.1748 36.0381 47.6816 36.501 48.0273 37.0928C48.373 37.6787 48.5459 38.3496 48.5459 39.1055C48.5459 39.9258 48.373 40.626 48.0273 41.2061C47.6816 41.7861 47.1748 42.2285 46.5068 42.5332C45.8389 42.832 45.0215 42.9814 44.0547 42.9814Z" fill="white"/>
</g>
<defs>
<clipPath id="clip0_2_12">
<rect width="48" height="48" fill="white"/>
</clipPath>
</defs>
</svg>
