<svg width="146" height="22" viewBox="0 0 146 22" fill="none" xmlns="http://www.w3.org/2000/svg">
<path d="M9.81397 7.13113C9.5437 10.1838 6.49467 12.9458 5.46395 14.6902C4.44818 16.4092 4.11269 18.0314 4.91683 21.2547C4.9312 21.3123 4.8754 21.364 4.82107 21.3401C3.76831 20.8779 1.26686e-06 19.16 0 14.6206C-1.68633e-06 8.57819 6.75312 8.42269 6.29261 0.0783011C6.28942 0.0203818 6.35279 -0.0207611 6.40126 0.0111051C8.68992 1.51574 10.0797 4.12935 9.81397 7.13113Z" fill="#0CA28B"/>
<path d="M5.41557 21.4489C5.38806 21.44 5.36867 21.4146 5.36711 21.3857C5.25704 19.3529 6.33799 18.0328 7.55217 17.057C10.3294 14.8251 11.9935 11.7756 11.0962 8.24596C11.0785 8.17596 11.1618 8.12561 11.2117 8.17782C11.9271 8.92642 12.726 10.1589 13.1373 11.0183C14.8366 14.6687 13.9297 18.852 9.86355 20.9631C8.5684 21.606 7.02633 21.9704 5.41557 21.4489Z" fill="#3BBEAA"/>
<path fill-rule="evenodd" clip-rule="evenodd" d="M27.1993 5.53906V11.8425H21.1481V6.35009C21.1481 5.9021 20.7948 5.53906 20.3587 5.53906H18.3164V20.5605C18.3164 21.0082 18.67 21.3715 19.1058 21.3715H21.1481V14.385H27.1993V20.5605C27.1993 21.0082 27.5526 21.3715 27.9887 21.3715H30.031V6.35009C30.031 5.9021 29.6774 5.53906 29.2414 5.53906H27.1993Z" fill="white"/>
<path fill-rule="evenodd" clip-rule="evenodd" d="M39.3187 9.26584V16.777C39.3187 17.4595 38.9732 18.1065 38.3873 18.4478C36.751 19.4009 35.0581 18.2105 35.0581 16.6407V10.0776C35.0581 9.62908 34.6976 9.26562 34.2527 9.26562H32.1604H32.1602V16.9087C32.1602 19.3676 34.1561 21.3795 36.5952 21.3795H37.7812C40.2206 21.3795 42.2163 19.3676 42.2163 16.9085V10.0776C42.2163 9.62908 41.8558 9.26562 41.4111 9.26562H39.3187V9.26584Z" fill="white"/>
<path fill-rule="evenodd" clip-rule="evenodd" d="M71.4674 21.3723H73.5157V10.7194C73.5157 10.2703 73.1611 9.90625 72.724 9.90625H70.6758V20.5589C70.6758 21.0081 71.0301 21.3723 71.4674 21.3723Z" fill="white"/>
<path fill-rule="evenodd" clip-rule="evenodd" d="M72.115 8.69845C72.9873 8.69845 73.6945 7.99125 73.6945 7.11876C73.6945 6.24626 72.9873 5.53906 72.115 5.53906C71.2424 5.53906 70.5352 6.24626 70.5352 7.11876C70.5352 7.99125 71.2424 8.69845 72.115 8.69845Z" fill="white"/>
<path fill-rule="evenodd" clip-rule="evenodd" d="M52.3884 16.3479C52.3884 17.791 51.225 18.7518 49.8028 18.7518C48.3807 18.7518 47.2173 17.791 47.2173 16.3479V14.2884C47.2173 12.8453 48.3807 11.8845 49.8028 11.8845C51.225 11.8845 52.3884 12.8453 52.3884 14.2884V16.3479ZM49.8028 9.26562C46.7963 9.26562 44.3359 11.4483 44.3359 14.4994V16.1497C44.3359 19.201 46.7963 21.3707 49.8028 21.3707C52.8096 21.3707 55.2695 19.201 55.2695 16.1497V14.4994C55.2695 11.4483 52.8096 9.26562 49.8028 9.26562Z" fill="white"/>
<path fill-rule="evenodd" clip-rule="evenodd" d="M65.5071 16.3521C65.5071 17.7942 64.3359 18.7544 62.9048 18.7544C61.4734 18.7544 60.3024 17.7942 60.3024 16.3521V14.294C60.3024 12.8518 61.4734 11.8917 62.9048 11.8917C64.3359 11.8917 65.5071 12.8518 65.5071 14.294V16.3521ZM62.9048 9.27459C61.9588 9.27459 61.067 9.48755 60.2874 9.87367V6.34918C60.2874 5.90179 59.9272 5.53906 59.4832 5.53906H57.4023V16.154C57.4023 19.2032 59.8784 21.3715 62.9048 21.3715C65.9309 21.3715 68.407 19.2032 68.407 16.154V14.5048C68.407 11.4558 65.9309 9.27459 62.9048 9.27459Z" fill="white"/>
<path d="M145.992 21.3172V19.4905C145.992 19.3878 145.972 19.2861 145.933 19.1912C145.894 19.0964 145.837 19.0103 145.765 18.9379C145.693 18.8655 145.607 18.8082 145.513 18.7693C145.419 18.7304 145.319 18.7108 145.217 18.7114H143.796C142.628 18.7114 142.682 18.1193 142.682 16.5898V6.344C142.682 6.13715 142.601 5.93874 142.457 5.79225C142.313 5.64575 142.117 5.56313 141.912 5.5625H139.809V16.9446C139.809 19.6991 140.519 21.3196 143.45 21.3196C144.585 21.3196 145.409 21.286 146.001 21.3196L145.992 21.3172Z" fill="white"/>
<path d="M90.825 11.9203H85.2975V13.4538C85.2975 13.5633 85.3187 13.6717 85.3598 13.7729C85.4009 13.8741 85.4612 13.966 85.5371 14.0434C85.6131 14.1209 85.7033 14.1823 85.8026 14.2242C85.9019 14.2661 86.0082 14.2877 86.1157 14.2877H88.7349V15.6415C88.7349 16.6407 88.4997 17.3787 87.9848 17.8986C87.3412 18.5146 86.4988 18.8695 85.6162 18.8964C84.7337 18.9233 83.8719 18.6204 83.1932 18.0448C82.4456 17.2972 82.2833 16.4849 82.2833 13.4754C82.2833 10.4658 82.4456 9.6751 83.1932 8.92271C83.7458 8.37399 84.8202 7.96425 85.7137 7.96425C88.7302 7.96425 89.7411 9.05449 90.4982 10.0489H90.5969V7.82767C90.5951 7.66541 90.5577 7.50563 90.4873 7.36008C90.4169 7.21453 90.3154 7.08691 90.1902 6.98662C88.9276 5.95629 87.6674 5.58009 85.4879 5.58009C83.8479 5.53912 82.2546 6.13925 81.0349 7.25739C79.375 8.78373 79.375 10.509 79.375 13.3628V13.6024C79.375 16.4562 79.375 18.1814 81.0349 19.7077C82.3072 20.8065 83.9269 21.3986 85.5945 21.3743C87.262 21.3501 88.8645 20.7113 90.1056 19.5759C91.1824 18.5216 91.622 16.5041 91.622 14.4051V12.7589C91.6234 12.5406 91.5406 12.3305 91.3916 12.1737C91.2425 12.0169 91.0391 11.9259 90.825 11.9203Z" fill="white"/>
<path d="M99.9724 21.3172V19.4905C99.9724 19.3878 99.9523 19.2861 99.9133 19.1912C99.8744 19.0964 99.8172 19.0103 99.7452 18.9379C99.6732 18.8655 99.5878 18.8082 99.4938 18.7693C99.3999 18.7304 99.2992 18.7108 99.1977 18.7114H97.7763C96.6084 18.7114 96.6629 18.1193 96.6629 16.5898V6.344C96.6629 6.13674 96.5815 5.93796 96.4366 5.7914C96.2918 5.64484 96.0954 5.5625 95.8905 5.5625H93.7773V16.9446C93.7773 19.6991 94.4881 21.3196 97.4209 21.3196C98.5557 21.3196 99.3801 21.286 99.9724 21.3196V21.3172Z" fill="white"/>
<path d="M107.455 9.27344C104.467 9.27344 102.023 11.4545 102.023 14.5081V16.1584C102.023 19.2095 104.467 21.3785 107.455 21.3785C110.442 21.3785 112.886 19.2095 112.886 16.1584V14.5081C112.886 11.4569 110.444 9.27344 107.455 9.27344ZM110.022 16.3668C110.022 17.8209 108.867 18.7709 107.452 18.7709C106.038 18.7709 104.885 17.8015 104.885 16.3668V14.3069C104.885 12.8529 106.041 11.9029 107.452 11.9029C108.864 11.9029 110.022 12.8722 110.022 14.3069V16.3668Z" fill="white"/>
<path d="M136.425 10.3484C135.574 9.6542 134.328 9.30469 132.721 9.30469C132.097 9.30631 131.474 9.34979 130.856 9.43485C130.342 9.50475 129.615 9.60599 129.11 9.72411C128.904 9.77231 128.873 9.93382 128.873 10.1315V11.6934C128.873 11.9706 128.873 12.2238 129.164 12.1514C129.705 12.0189 130.752 11.7826 131.039 11.7344C131.52 11.6571 132.007 11.6192 132.494 11.6211C133.299 11.6211 133.916 11.7682 134.318 12.055C134.721 12.3419 134.892 12.8432 134.892 13.5881V13.6797C134.75 13.6652 134.591 13.6532 134.418 13.6411C134.096 13.6194 133.686 13.6074 133.186 13.6074C132.521 13.6065 131.859 13.6874 131.214 13.8484C130.616 13.9913 130.045 14.2358 129.527 14.5715C129.042 14.8895 128.636 15.3177 128.342 15.8226C128.043 16.355 127.892 16.9597 127.904 17.5726C127.888 18.1714 128.017 18.765 128.28 19.3009C128.532 19.7889 128.901 20.2036 129.354 20.5061C129.859 20.8355 130.423 21.0623 131.013 21.1738C131.706 21.3131 132.412 21.3801 133.119 21.3739C133.683 21.3739 137.735 21.316 137.735 19.3539V13.67C137.728 12.1659 137.29 11.045 136.425 10.3484ZM134.887 15.9142V18.9369C134.664 18.9803 134.42 19.014 134.155 19.0381C133.519 19.1049 132.879 19.1089 132.243 19.0502C131.99 19.0283 131.743 18.9597 131.515 18.8477C131.304 18.7406 131.124 18.5804 130.991 18.3825C130.837 18.1267 130.765 17.8285 130.785 17.5292C130.768 17.2801 130.816 17.0307 130.926 16.8072C131.035 16.5837 131.202 16.3943 131.408 16.2589C131.854 15.9672 132.527 15.8177 133.413 15.8177C133.65 15.8177 133.942 15.8322 134.288 15.8611C134.513 15.8732 134.712 15.8925 134.887 15.9093V15.9142Z" fill="white"/>
<path fill-rule="evenodd" clip-rule="evenodd" d="M123.085 16.3521C123.085 17.7942 121.914 18.7544 120.483 18.7544C119.052 18.7544 117.881 17.7942 117.881 16.3521V14.294C117.881 12.8518 119.052 11.8917 120.483 11.8917C121.914 11.8917 123.085 12.8518 123.085 14.294V16.3521ZM120.483 9.27459C119.537 9.27459 118.645 9.48755 117.866 9.87367V6.34918C117.866 5.90179 117.505 5.53906 117.061 5.53906H114.98V16.154C114.98 19.2032 117.457 21.3715 120.483 21.3715C123.509 21.3715 125.985 19.2032 125.985 16.154V14.5048C125.985 11.4558 123.509 9.27459 120.483 9.27459Z" fill="white"/>
</svg>
