<svg  height="100%" viewBox="0 0 116 31"><g  name="icon" class="ng-star-inserted"><path  d="M16.81,9,14.29,7.53a1.69,1.69,0,0,0-1.52,0L10.25,9c-.54.32-.55.84,0,1.15l2.52,1.49a1.63,1.63,0,0,0,1.52,0l2.52-1.49A.61.61,0,0,0,16.81,9Z" class="cls-1"></path><path  d="M26.64,7.18,14.46.18a1.69,1.69,0,0,0-1.52,0L.76,7.18A1.71,1.71,0,0,0,0,8.5v14a1.71,1.71,0,0,0,.76,1.32l12.18,7a1.69,1.69,0,0,0,1.52,0l12.18-7a1.71,1.71,0,0,0,.76-1.32V8.5A1.71,1.71,0,0,0,26.64,7.18Zm-5.42,3.25-6.93,4.08a1.63,1.63,0,0,1-1.52,0l-4.4-2.58c-.54-.33-1-.07-1,.56V20.3a.63.63,0,0,1-1,.6l-.75-.39a1.62,1.62,0,0,1-.78-1.3V10.73a1.71,1.71,0,0,1,.76-1.32l7.16-4.16a1.69,1.69,0,0,1,1.52,0l6.93,4A.61.61,0,0,1,21.22,10.43Z" class="cls-1"></path></g><!----><g  name="lettering" class="ng-star-inserted"><g  name="probit.com"><path  d="M41.78,25.4a.19.19,0,0,1,.22-.21h.41a.21.21,0,0,1,.22.21v2.18a.25.25,0,0,1-.13.2l0,0a3.75,3.75,0,1,1-.89-6.51c.34.13,1,.43,1,.68a.17.17,0,0,1,0,.1l-.21.36a.2.2,0,0,1-.17.11.29.29,0,0,1-.18-.07,3,3,0,0,0-1.74-.57,2.88,2.88,0,1,0,0,5.75,2.7,2.7,0,0,0,1.53-.44Z" class="cls-1"></path><path  d="M49.34,27.57a.2.2,0,0,1,.21.22v.39a.21.21,0,0,1-.21.22H45.18a.19.19,0,0,1-.22-.22V21.35a.21.21,0,0,1,.23-.22h.4a.2.2,0,0,1,.21.22v6.22Z" class="cls-1"></path><path  d="M58.25,24.79A3.74,3.74,0,1,1,54.51,21,3.73,3.73,0,0,1,58.25,24.79Zm-3.74,2.87a2.89,2.89,0,1,0-2.88-2.89A2.88,2.88,0,0,0,54.51,27.66Z" class="cls-1"></path><path  d="M64.88,24.51a2.09,2.09,0,0,1-1,3.89H60.69a.21.21,0,0,1-.23-.22V21.37a.21.21,0,0,1,.23-.24h2.89a1.89,1.89,0,0,1,2,1.9A2,2,0,0,1,64.88,24.51ZM63.57,22H61.3v2.25h2.27A1.14,1.14,0,0,0,64.68,23,1,1,0,0,0,63.57,22ZM61.3,25.05v2.52h2.6a1.26,1.26,0,0,0,0-2.52Z" class="cls-1"></path><path  d="M68.42,28.2a.27.27,0,0,1-.27.2h-.43c-.13,0-.2,0-.2-.16a.46.46,0,0,1,0-.13c2.83-6.79,2.84-6.79,2.84-6.8a.24.24,0,0,1,.24-.18h.29a.24.24,0,0,1,.24.18L74,28.12a.5.5,0,0,1,0,.12c0,.11-.09.16-.22.16h-.42a.28.28,0,0,1-.26-.19l-.57-1.4H69Zm.9-2.22h2.87L70.76,22.4Z" class="cls-1"></path><path  d="M80.44,27.57a.2.2,0,0,1,.21.22v.39a.21.21,0,0,1-.21.22H76.28a.19.19,0,0,1-.22-.22V21.35a.21.21,0,0,1,.23-.22h.4a.2.2,0,0,1,.21.22v6.22Z" class="cls-1"></path><path  d="M36.36,3.09a.36.36,0,0,1,.38-.4h5.8a4.32,4.32,0,0,1,4.18,4.4,4.24,4.24,0,0,1-4.12,4.34H39.83v4.29c0,.27-.14.4-.42.4H36.74c-.27,0-.38-.13-.38-.4Zm3.47,2.46v3h2a1.42,1.42,0,0,0,1.4-1.5,1.47,1.47,0,0,0-1.4-1.52Z" class="cls-1"></path><path  d="M49.93,3.09a.37.37,0,0,1,.38-.4h6A4.43,4.43,0,0,1,60.6,7.2a4.58,4.58,0,0,1-2.21,3.71L61,15.72a.25.25,0,0,1-.22.4H57.51c-.26,0-.35-.07-.49-.38l-2.16-4.09H53.42v4.07a.36.36,0,0,1-.4.4H50.31c-.26,0-.38-.13-.38-.4Zm3.49,2.39V8.75h2A1.62,1.62,0,0,0,57,7.13a1.68,1.68,0,0,0-1.61-1.65Z" class="cls-1"></path><path  d="M70.37,2.49a6.92,6.92,0,1,1-6.91,6.93A6.92,6.92,0,0,1,70.37,2.49Zm0,10.5a3.43,3.43,0,0,0,3.42-3.58,3.42,3.42,0,1,0-6.84,0A3.43,3.43,0,0,0,70.37,13Z" class="cls-1"></path><path  d="M80.92,3.11a.38.38,0,0,1,.39-.42h5.74a3.88,3.88,0,0,1,3.87,3.89,3.54,3.54,0,0,1-.81,2.32,4.41,4.41,0,0,1,1.41,3.17,4.07,4.07,0,0,1-4,4.05H81.31a.35.35,0,0,1-.39-.38Zm5.17,2.24H84.43V8h1.63a1.29,1.29,0,0,0,1.39-1.31A1.32,1.32,0,0,0,86.09,5.35Zm.45,5.07H84.43v3h2.11a1.48,1.48,0,0,0,1.4-1.52A1.51,1.51,0,0,0,86.54,10.42Z" class="cls-1"></path><path  d="M95.72,3.09c0-.27.12-.4.38-.4h2.71a.36.36,0,0,1,.4.4V15.72a.36.36,0,0,1-.4.4H96.1c-.26,0-.38-.13-.38-.4Z" class="cls-1"></path><path  d="M103.71,3.09a.35.35,0,0,1,.4-.4h9.81a.35.35,0,0,1,.39.4v2.3a.36.36,0,0,1-.39.4h-3.21v9.93a.36.36,0,0,1-.41.4h-2.61a.36.36,0,0,1-.4-.4V5.79h-3.18a.36.36,0,0,1-.4-.4Z" class="cls-1"></path></g></g><!----></svg>