<svg width="48" height="48" viewBox="0 0 48 48" fill="none" xmlns="http://www.w3.org/2000/svg">
<g clip-path="url(#clip0_1_2)">
<path d="M11.58 48L0 33.525L5.79 26.2875L11.58 19.05L14.1 22.2L6.84 31.275H25.8V35.775H6.84L14.1 44.85L11.58 48ZM36.42 28.95L33.9 25.8L41.16 16.725H22.2V12.225H41.16L33.9 3.15L36.42 0L48 14.475L36.42 28.95Z" fill="white"/>
<path d="M27.4854 35.2031H31.7217C32.6826 35.2031 33.4941 35.3496 34.1562 35.6426C34.8242 35.9355 35.3311 36.3691 35.6768 36.9434C36.0283 37.5117 36.2041 38.2119 36.2041 39.0439C36.2041 39.6299 36.084 40.166 35.8438 40.6523C35.6094 41.1328 35.2695 41.543 34.8242 41.8828C34.3848 42.2168 33.8574 42.4658 33.2422 42.6299L32.7676 42.8145H28.7861L28.7686 41.4346H31.7744C32.3838 41.4346 32.8906 41.3291 33.2949 41.1182C33.6992 40.9014 34.0039 40.6113 34.209 40.248C34.4141 39.8848 34.5166 39.4834 34.5166 39.0439C34.5166 38.5518 34.4199 38.1211 34.2266 37.752C34.0332 37.3828 33.7285 37.0986 33.3125 36.8994C32.9023 36.6943 32.3721 36.5918 31.7217 36.5918H29.1816V48H27.4854V35.2031ZM34.9648 48L31.8535 42.1992L33.6201 42.1904L36.7754 47.8945V48H34.9648ZM46.3027 43.9307H47.9902C47.9023 44.7393 47.6709 45.4629 47.2959 46.1016C46.9209 46.7402 46.3906 47.2471 45.7051 47.6221C45.0195 47.9912 44.1641 48.1758 43.1387 48.1758C42.3887 48.1758 41.7061 48.0352 41.0908 47.7539C40.4814 47.4727 39.957 47.0742 39.5176 46.5586C39.0781 46.0371 38.7383 45.4131 38.498 44.6865C38.2637 43.9541 38.1465 43.1396 38.1465 42.2432V40.9688C38.1465 40.0723 38.2637 39.2607 38.498 38.5342C38.7383 37.8018 39.0811 37.1748 39.5264 36.6533C39.9775 36.1318 40.5195 35.7305 41.1523 35.4492C41.7852 35.168 42.4971 35.0273 43.2881 35.0273C44.2549 35.0273 45.0723 35.209 45.7402 35.5723C46.4082 35.9355 46.9268 36.4395 47.2959 37.084C47.6709 37.7227 47.9023 38.4639 47.9902 39.3076H46.3027C46.2207 38.71 46.0684 38.1973 45.8457 37.7695C45.623 37.3359 45.3066 37.002 44.8965 36.7676C44.4863 36.5332 43.9502 36.416 43.2881 36.416C42.7197 36.416 42.2188 36.5244 41.7852 36.7412C41.3574 36.958 40.9971 37.2656 40.7041 37.6641C40.417 38.0625 40.2002 38.54 40.0537 39.0967C39.9072 39.6533 39.834 40.2715 39.834 40.9512V42.2432C39.834 42.8701 39.8984 43.459 40.0273 44.0098C40.1621 44.5605 40.3643 45.0439 40.6338 45.46C40.9033 45.876 41.2461 46.2041 41.6621 46.4443C42.0781 46.6787 42.5703 46.7959 43.1387 46.7959C43.8594 46.7959 44.4336 46.6816 44.8613 46.4531C45.2891 46.2246 45.6113 45.8965 45.8281 45.4688C46.0508 45.041 46.209 44.5283 46.3027 43.9307Z" fill="white"/>
</g>
<defs>
<clipPath id="clip0_1_2">
<rect width="48" height="48" fill="white"/>
</clipPath>
</defs>
</svg>
