<svg width="48" height="48" viewBox="0 0 48 48" fill="none" xmlns="http://www.w3.org/2000/svg">
<path d="M46.9122 8.88594C46.1581 9.22035 45.3828 9.50263 44.5906 9.73185C45.5285 8.67116 46.2435 7.42317 46.68 6.05752C46.7779 5.75143 46.6765 5.41636 46.4249 5.21612C46.1735 5.01577 45.8244 4.99177 45.5477 5.15574C43.8654 6.15352 42.0504 6.87061 40.1473 7.28986C38.2302 5.41665 35.6265 4.35052 32.9348 4.35052C27.253 4.35052 22.6305 8.97294 22.6305 14.6545C22.6305 15.102 22.6588 15.547 22.7148 15.9859C15.6643 15.3669 9.1095 11.9014 4.6084 6.38002C4.44799 6.18324 4.20087 6.07711 3.94784 6.09746C3.69471 6.11724 3.46718 6.26002 3.33931 6.47949C2.42637 8.04595 1.94375 9.8376 1.94375 11.6606C1.94375 14.1434 2.83015 16.4991 4.39605 18.3398C3.9199 18.1749 3.4579 17.9689 3.0169 17.7241C2.78019 17.5923 2.49125 17.5943 2.25603 17.7292C2.02072 17.8641 1.87316 18.112 1.86688 18.3832C1.86575 18.4288 1.86575 18.4745 1.86575 18.5208C1.86575 22.2268 3.86037 25.5634 6.90995 27.382C6.64792 27.3558 6.38617 27.3179 6.12602 27.2682C5.8578 27.2169 5.58208 27.3109 5.40124 27.5155C5.22011 27.7199 5.16011 28.0048 5.24364 28.2649C6.37239 31.7891 9.27854 34.3812 12.7918 35.1715C9.87788 36.9966 6.54564 37.9526 3.04756 37.9526C2.31763 37.9526 1.58357 37.9097 0.865162 37.8247C0.508257 37.7822 0.167009 37.993 0.0454153 38.3324C-0.076178 38.672 0.0527277 39.0505 0.356289 39.2452C4.85018 42.1266 10.0463 43.6495 15.3829 43.6495C25.8737 43.6495 32.4366 38.7025 36.0946 34.5523C40.6562 29.3775 43.2722 22.5279 43.2722 15.7601C43.2722 15.4774 43.2679 15.1919 43.2592 14.9073C45.0589 13.5514 46.6083 11.9104 47.8692 10.0243C48.0607 9.73794 48.04 9.35929 47.8181 9.09566C47.5967 8.83157 47.2274 8.74626 46.9122 8.88594Z" fill="white"/>
</svg>
