<svg width="20" height="20" viewBox="0 0 20 20" fill="none" xmlns="http://www.w3.org/2000/svg">
<path d="M9.99984 18.3337C14.5832 18.3337 18.3332 14.5837 18.3332 10.0003C18.3332 5.41699 14.5832 1.66699 9.99984 1.66699C5.4165 1.66699 1.6665 5.41699 1.6665 10.0003C1.6665 14.5837 5.4165 18.3337 9.99984 18.3337Z" stroke="#E31337" stroke-width="0.7" stroke-linecap="round" stroke-linejoin="round"/>
<g clip-path="url(#clip0_6213_11097)">
<path d="M11.3332 10.2998V11.6998C11.3332 12.8665 10.8665 13.3332 9.69984 13.3332H8.29984C7.13317 13.3332 6.6665 12.8665 6.6665 11.6998V10.2998C6.6665 9.13317 7.13317 8.6665 8.29984 8.6665H9.69984C10.8665 8.6665 11.3332 9.13317 11.3332 10.2998Z" stroke="#E31337" stroke-width="0.7" stroke-linecap="round" stroke-linejoin="round"/>
<path d="M13.3332 8.29984V9.69984C13.3332 10.8665 12.8665 11.3332 11.6998 11.3332H11.3332V10.2998C11.3332 9.13317 10.8665 8.6665 9.69984 8.6665H8.6665V8.29984C8.6665 7.13317 9.13317 6.6665 10.2998 6.6665H11.6998C12.8665 6.6665 13.3332 7.13317 13.3332 8.29984Z" stroke="#E31337" stroke-width="0.7" stroke-linecap="round" stroke-linejoin="round"/>
</g>
<defs>
<clipPath id="clip0_6213_11097">
<rect width="8" height="8" fill="white" transform="translate(6 6)"/>
</clipPath>
</defs>
</svg>
