<svg width="18" height="18" viewBox="0 0 18 18" fill="none" xmlns="http://www.w3.org/2000/svg">
<path d="M8.99984 17.3337C13.5832 17.3337 17.3332 13.5837 17.3332 9.0003C17.3332 4.41699 13.5832 0.666992 8.99984 0.666992C4.4165 0.666992 0.666504 4.41699 0.666504 9.0003C0.666504 13.5837 4.4165 17.3337 8.99984 17.3337Z" stroke="#E31337" stroke-width="0.7" stroke-linecap="round" stroke-linejoin="round"/>
<g clip-path="url(#clip0_0_1)">
<path d="M11.6568 8.33282H6.32344V10.9995C6.32344 11.9995 6.65678 12.3328 7.65678 12.3328H10.3234C11.3234 12.3328 11.6568 11.9995 11.6568 10.9995V8.33282Z" stroke="#E31337" stroke-width="0.7" stroke-miterlimit="10" stroke-linecap="round" stroke-linejoin="round"/>
<path d="M12.1665 7.33384V7.66718C12.1665 8.03384 11.9899 8.33384 11.4999 8.33384H6.49987C5.98987 8.33384 5.83321 8.03384 5.83321 7.66718V7.33384C5.83321 6.96718 5.98987 6.66718 6.49987 6.66718H11.4999C11.9899 6.66718 12.1665 6.96718 12.1665 7.33384Z" stroke="#E31337" stroke-width="0.7" stroke-miterlimit="10" stroke-linecap="round" stroke-linejoin="round"/>
<path d="M7.83321 6.50032L7.85655 5.76047C7.97988 5.63714 9.87652 5.63714 9.99988 5.76047V6.50032" stroke="#E31337" stroke-width="0.7" stroke-miterlimit="10" stroke-linecap="round" stroke-linejoin="round"/>
<path d="M9.66712 9.66638L8.33379 10.6664" stroke="#E31337" stroke-width="0.7" stroke-linecap="round"/>
<path d="M8.33379 9.66638L9.66712 10.6664" stroke="#E31337" stroke-width="0.7" stroke-linecap="round"/>
</g>
<defs>
<clipPath id="clip0_0_1">
<rect width="8" height="8" fill="white" transform="translate(5 5)"/>
</clipPath>
</defs>
</svg>
