<svg xmlns="http://www.w3.org/2000/svg" width="50" height="50" viewBox="0 0 50 50" fill="none">
<rect x="0.550955" y="49.449" width="48.8981" height="48.8981" rx="24.449" transform="rotate(-90 0.550955 49.449)" fill="var(--swap-history-button-background)" stroke="var(--swap-history-button-border-color)" stroke-width="1.10191"/>
<path d="M16.9746 16.2043L16.7702 16.4086V18.0994V19.7902L16.9887 19.9734L17.2071 20.1566H18.8209C19.8004 20.1566 20.4981 20.1284 20.5826 20.0861C20.9561 19.8818 21.0125 19.2689 20.6742 18.9519C20.5122 18.7969 20.4135 18.7828 19.7088 18.7476L18.9195 18.7123L19.3071 18.4164C19.8638 17.9937 20.6672 17.6344 21.3366 17.5076C21.8158 17.416 22.4642 17.402 25.3111 17.4231C29.1235 17.4513 28.9685 17.4372 30.0537 17.9937C30.8289 18.3953 31.6393 19.2055 32.041 19.9804C32.6047 21.0795 32.5906 20.9386 32.5906 25.0176C32.5906 29.0967 32.6047 28.9558 32.041 30.0548C31.6393 30.8297 30.8289 31.6399 30.0537 32.0415C28.9544 32.6051 29.0953 32.591 25.0152 32.591C20.935 32.591 21.0759 32.6051 19.9766 32.0415C19.2014 31.6399 18.391 30.8297 17.9894 30.0548C17.4749 29.0544 17.4538 28.9417 17.4256 26.8141C17.4115 25.6728 17.3692 24.8344 17.3199 24.7147C17.2353 24.5033 16.9394 24.3131 16.6998 24.3131C16.4531 24.3131 16.1642 24.5033 16.0655 24.7288C16.0021 24.8838 15.988 25.4474 16.0092 26.8986C16.0374 28.7796 16.0514 28.8853 16.2276 29.4771C16.5588 30.555 16.9816 31.2806 17.7498 32.0908C18.5531 32.9221 19.3987 33.4434 20.5544 33.8027L21.1746 34H25.0152H28.8557L29.4759 33.8027C30.6316 33.4434 31.4772 32.9221 32.2805 32.0908C33.0416 31.2877 33.4644 30.5691 33.8027 29.4771L34 28.8571V25.0176V21.1781L33.8027 20.5581C33.1332 18.4023 31.6322 16.9018 29.4759 16.2325L28.8557 16.0352H25.0152H21.1746L20.5544 16.2325C19.8216 16.4579 19.2226 16.7468 18.6236 17.1695L18.1796 17.4724V17.0849C18.1796 16.4016 17.8977 16 17.4186 16C17.2494 16 17.1226 16.0634 16.9746 16.2043Z" fill="var(--swap-history-button-icon-color)"/>
<path d="M24.264 20.5811C23.8903 20.7615 23.8826 20.8418 23.875 23.1144C23.875 24.8189 23.8979 25.2735 23.9818 25.4205C24.0428 25.5208 24.8131 26.2226 25.6903 26.9847C27.2614 28.3549 27.2919 28.375 27.6047 28.375C28.0623 28.375 28.375 28.1009 28.375 27.6999C28.375 27.4258 28.3521 27.3991 26.8877 26.109L25.4004 24.7922V22.9072C25.4004 21.5904 25.3699 20.9754 25.3089 20.8551C25.1411 20.5343 24.6377 20.4006 24.264 20.5811Z" fill="var(--swap-history-button-icon-color)"/>
</svg>