<svg xmlns="http://www.w3.org/2000/svg" width="170" height="49" fill="none" viewBox="0 0 183 49">
  <rect width="181.143" height="49" x=".5" y=".5" fill="transparent" stroke="var(--buy-card-border)" rx="9.5"/>
  <path fill="#F0B90B" d="m48.26 24.435-2.167 2.357-2.164-2.357 2.164-2.357 2.167 2.357Zm5.252-5.723 3.71 4.041 2.164-2.357L53.512 14l-5.874 6.396 2.165 2.357 3.71-4.041Zm7.42 3.366-2.164 2.357 2.165 2.357 2.163-2.357-2.163-2.357Zm-7.42 8.08-3.71-4.039-2.164 2.355 5.874 6.397 5.874-6.397-2.164-2.355-3.71 4.04Zm0-3.366 2.165-2.357-2.165-2.357-2.164 2.357 2.164 2.357Zm22.845.227v-.033c0-1.537-.75-2.306-1.968-2.812.749-.458 1.382-1.178 1.382-2.469v-.032c0-1.799-1.322-2.961-3.47-2.961h-4.876v11.447h5c2.372 0 3.935-1.046 3.935-3.14h-.003Zm-2.884-4.894c0 .85-.646 1.211-1.666 1.211h-2.13V20.92h2.283c.976 0 1.517.424 1.517 1.177l-.004.028Zm.586 4.58c0 .85-.616 1.241-1.638 1.241h-2.744v-2.514h2.672c1.188 0 1.714.475 1.714 1.244l-.004.029Zm7.157 3.454V18.712h-2.32v11.447h2.32Zm12.431 0V18.712h-2.29v7.049l-4.924-7.049H84.3v11.447h2.282v-7.277l5.09 7.277h1.975Zm12.81 0-4.513-11.529h-2.132l-4.504 11.53h2.358l.964-2.567h4.445l.961 2.567h2.421Zm-4.204-4.792h-2.8l1.396-3.71 1.404 3.71Zm15.228 4.792V18.712h-2.29v7.049l-4.927-7.049h-2.131v11.447h2.281v-7.277l5.091 7.277h1.976Zm11.937-1.848-1.47-1.619c-.826.816-1.562 1.34-2.764 1.34-1.801 0-3.048-1.631-3.048-3.597v-.032c0-1.962 1.277-3.564 3.048-3.564 1.051 0 1.873.489 2.689 1.29l1.466-1.847c-.975-1.046-2.161-1.766-4.144-1.766-3.228 0-5.481 2.665-5.481 5.913v.033c0 3.287 2.298 5.886 5.391 5.886 2.025.006 3.225-.779 4.305-2.037h.008Zm9.868 1.848v-2.243h-5.715v-2.408h4.956v-2.243h-4.956v-2.312h5.632V18.71h-7.93v11.447l8.013.002Z"/>
</svg>
