<?xml version="1.0" encoding="utf-8"?>
<!-- Generator: Adobe Illustrator 19.2.1, SVG Export Plug-In . SVG Version: 6.00 Build 0)  -->
<svg version="1.1" id="layer" xmlns="http://www.w3.org/2000/svg" xmlns:xlink="http://www.w3.org/1999/xlink" x="0px" y="0px"
	 viewBox="0 0 652 652" style="enable-background:new 0 0 652 652;" xml:space="preserve">
<style type="text/css">
	.st0{fill:#10D078;}
</style>
<g>
	<path d="M190.8,322.4c0-14.4,11.2-26.7,26.2-26.7c9.7,0,15.7,4.1,20.4,9.1l-4.8,5.1c-4-4.3-8.8-7.5-15.7-7.5
		c-10.4,0-18.3,8.8-18.3,20c0,11.1,8.1,19.9,18.7,19.9c6.5,0,11.3-3.4,15.4-7.7l5,4.6c-5.1,5.7-11.2,9.9-20.8,9.9
		C202.1,349.1,190.8,336.9,190.8,322.4 M246.3,279.5l7.6-3.7v30c3.4-5.5,8.7-10,17.5-10c12.3,0,19.5,8.3,19.5,20.5v31.7h-7.6V318
		c0-9.5-5.1-15.4-14.1-15.4c-8.8,0-15.3,6.4-15.3,16v29.3h-7.6C246.3,347.9,246.3,279.5,246.3,279.5z M337.3,329.1v-4.7
		c-4.8-1.4-9.9-2.2-14.9-2.2c-9.5,0-14.9,4.2-14.9,10.5c0,6.4,5.9,10.2,12.8,10.2C329.7,342.8,337.3,337.2,337.3,329.1 M299.8,332.9
		c0-11,8.9-16.7,21.8-16.7c6.5,0,11.1,0.9,15.6,2.2v-1.6c0-9.1-5.5-13.8-15.1-13.8c-6,0-10.8,1.5-15.5,3.7l-2.3-6.2
		c5.6-2.6,11.1-4.4,18.6-4.4c7.2,0,12.8,2,16.5,5.6c3.6,3.6,5.3,8.5,5.3,15v31.2h-7.5v-7.6c-3.6,4.5-9.4,8.7-18.4,8.7
		C309.3,349,299.8,343.5,299.8,332.9 M357.6,296.8h7.6v8.9c3.4-5.5,8.7-10,17.5-10c12.3,0,19.5,8.3,19.5,20.5v31.7h-7.6V318
		c0-9.5-5.1-15.4-14.1-15.4c-8.8,0-15.3,6.4-15.3,16v29.3h-7.6L357.6,296.8L357.6,296.8z M455.9,319.7c0-10.5-9.1-17.3-18.8-17.3
		c-9.7,0-17.7,6.7-17.7,17.4c0,10.3,8.2,17.4,17.7,17.4C446.8,337.2,455.9,330.2,455.9,319.7 M414,356.8l3.5-5.9
		c5.8,4.3,12.3,6.5,19.6,6.5c11.2,0,18.6-6.2,18.6-18.2v-6c-4.4,5.9-10.7,10.8-20,10.8c-12.2,0-24-9.2-24-24.1s11.8-24.1,24-24.1
		c9.6,0,15.8,4.7,19.9,10.3v-9.2h7.6V339c0,7.9-2.4,13.9-6.5,18.1c-4.5,4.6-11.3,6.8-19.4,6.8C428.7,363.9,420.9,361.5,414,356.8
		 M514.2,319.3c-0.9-9.3-6.2-17.2-16.3-17.2c-8.8,0-15.5,7.3-16.6,17.2L514.2,319.3L514.2,319.3z M499.3,342.4
		c7,0,11.9-2.9,16.1-7.2l4.7,4.3c-5.1,5.7-11.4,9.6-21,9.6c-14,0-25.5-10.8-25.5-26.7c0-14.8,10.4-26.7,24.5-26.7
		c15.1,0,23.8,12.1,23.8,27.1c0,0.7,0,1.5-0.1,2.7h-40.5C482.4,336.2,490.3,342.4,499.3,342.4L499.3,342.4z M532.5,282.7l7.6-3.8
		v68.9h-7.6V282.7z M554,279.5l7.6-3.7v72.2H554V279.5z M571.7,361.4l2.6-6c2.5,1.3,4.7,1.9,8,1.9c4.5,0,7.4-2.4,10.5-9.6
		l-23.2-50.9h8.4l18.5,42.6l16.4-42.6h8.1l-21.4,52.8c-4.3,10.6-9.3,14.4-17,14.4C578.3,364,575.1,363.1,571.7,361.4" fill="var(--main-font-color)" stroke="var(--main-font-color)"/>
	<path class="st0" d="M92.5,369.7c-1.1,1.1-2.3,2.1-3.6,3c-2.5,1.9-5.1,3.5-7.9,5c-5.5,2.8-11.3,4.9-17.4,6.1
		c-1.5,0.3-3,0.6-4.5,0.8l-2.3,0.3l-1.1,0.1l-1.1,0.1l-2.3,0.2l-2.3,0.1c-1.5,0.1-3.1,0.1-4.6,0.2c-4.5,0-9-0.2-13.5-0.6
		c0.5-0.7,1-1.5,1.5-2.3c1.4-2.2,2.7-4.6,3.9-7c2.2-4.8,3.9-9.8,5.3-14.8c1.3-4.9,2.9-9.6,4.7-14.4c1.8-4.8,3.9-9.4,6.3-13.9
		c-1.7,1.9-3.2,4-4.6,6.2c-1.4,2.1-2.8,4.4-4,6.6c-2.5,4.5-4.7,9.3-6.4,14.1c-1.8,4.7-3.7,9.4-6,13.7c-2.3,4.3-5.1,8.3-8.3,12.1
		l-3.3,4l5.2,0.7c6.4,0.9,12.9,1.4,19.4,1.2c1.6-0.1,3.3-0.1,4.9-0.3l2.4-0.2l2.4-0.3c1.6-0.2,3.2-0.6,4.8-0.8
		c1.6-0.4,3.2-0.7,4.8-1.2c1.6-0.4,3.1-1,4.7-1.5c1.5-0.6,3.1-1.2,4.6-1.9c3-1.3,5.9-3,8.6-4.8c2.7-1.8,5.2-3.9,7.5-6.3
		c2.2-2.4,4.2-4.9,5.6-7.8C94.8,367.5,93.7,368.7,92.5,369.7 M128.3,283.4c1.8-1.8,4.2-2.8,6.8-2.8c2.5,0,4.9,0.9,6.8,2.8
		c3.7,3.8,3.7,9.8,0,13.6c-3.7,3.7-9.8,3.7-13.6,0c-1.8-1.8-2.8-4.2-2.8-6.8C125.5,287.6,126.5,285.2,128.3,283.4 M135.1,305.6
		c4,0,7.9-1.5,10.9-4.5c6-6.1,6-15.8,0-21.9c-6-6-15.8-6-21.8,0c-2.9,2.9-4.5,6.8-4.5,10.9c0,4.1,1.6,8,4.5,10.9
		C127.1,304,131,305.6,135.1,305.6 M139.6,327.8c-22.1,19.5-31.3,21.3-40.5,17.1l10-12.6c1.5-1.8,2.5-4,3.1-6.3l4-16.9l-16.8,4
		c-2.3,0.6-4.5,1.6-6.3,3.1l-12.6,10c-4.3-9.2-2.4-18.4,17-40.5c18.4-20.9,57.2-25.7,68.7-26.7C165.3,270.5,160.5,309.4,139.6,327.8
		L139.6,327.8z M124.9,358c-0.2,0.9-0.7,1.8-1.5,2.3c-2.3,1.6-5.9,3.8-9.1,5.8l0.2-0.6c1.5-6.1,1.5-10.8,0-14
		c4.2-1.3,8.7-3.6,13.8-7.1C127,349.1,125.6,354.7,124.9,358z M90,347.1c-1.3,1.7-3.4,2.6-5.5,2.5l-0.1,0l-5,0l17.4-21l-21,17.4
		l0-4.9l0-0.2c-0.1-2.1,0.8-4.2,2.5-5.5l18.4-14.6c1.2-0.9,2.6-1.6,4-2l7.5-1.8l-1.8,7.5c-0.4,1.5-1,2.9-2,4.1L90,347.1L90,347.1z
		 M60,310.9l-0.6,0.2c1.9-3.2,4.1-6.8,5.7-9.1c0.5-0.8,1.4-1.3,2.3-1.5c3.3-0.7,8.9-2.1,13.6-3.3c-3.5,5.1-5.8,9.7-7.1,13.9
		C70.8,309.3,66.1,309.3,60,310.9L60,310.9z M169.3,252.9c-2.1,0.1-52.9,2.4-76.2,28.9c-2.2,2.5-4.3,5.1-6.4,7.7
		c-3.4,0.9-15.2,4.1-20.4,5.2c-2.4,0.5-4.6,1.9-6,4c-3.6,5.2-9.8,15.9-10,16.3l-4.5,7.7l8.2-3.6c5.4-2.3,14.4-4.7,17.6-2.8
		c0.5,0.3,1.1,0.9,1.2,2.4h0c0.1,3.8,1.1,7.5,3,11.2l-1.1,0.9c-3.1,2.5-4.9,6.3-4.7,10.3l0,14.3l14.3,0c4,0.2,7.8-1.6,10.3-4.7
		l0.9-1.1c3.7,1.9,7.4,3,11.2,3v0c1.5,0.1,2,0.6,2.4,1.2c2,3.2-0.4,12.3-2.8,17.7l-3.6,8.2l7.7-4.5c0.5-0.3,11.1-6.5,16.3-10.1
		c2-1.4,3.4-3.5,3.9-6c1.1-5.2,4.3-17.1,5.2-20.5c2.4-1.9,4.9-4.1,7.6-6.5c26.4-23.3,28.8-74.2,28.9-76.3l0.1-3.2L169.3,252.9z" fill="var(--main-font-color)" stroke="var(--main-font-color)"/>
</g>
</svg>
