<svg xmlns="http://www.w3.org/2000/svg" width="170" height="49" fill="none" viewBox="0 0 183 49">
  <rect width="181.143" height="48" x=".5" y=".5" fill="transparent" stroke="var(--buy-card-border)" rx="9.5"/>
  <path fill="#00003E" d="M59.736 30.665c.055-5.055 5.43-6.123 4.828-11.648-.173-1.59-.942-3.476-2.497-4.983-.081-.078-.217-.014-.208.101.47 5.075-3.11 7.48-4.718 9.594-3.571 4.69-.947 10.7 4.34 11.495.119.018.19-.124.105-.207-1.084-1.074-1.85-2.443-1.85-4.352Z"/>
  <path fill="#0173E5" d="M66.657 22.574a.121.121 0 0 0-.198.07c-.13.656-.536 1.736-1.847 3.634-3.39 4.914-1.75 7.094-.27 8.739.325.389.164-.086.858-.567.933-.646 1.328-.726 2.212-1.513 1.008-1.01 1.826-2.597 1.904-4.207.17-3.503-1.89-5.502-2.659-6.156Z"/>
  <path fill="#fff" fill-rule="evenodd" d="M81.94 24.58v-6.178h2.002c.426 0 .772.355.772.795v14.721h-2a.787.787 0 0 1-.774-.795v-6.051h-5.93v6.846h-2.002a.787.787 0 0 1-.775-.795V18.405h2.002c.426 0 .775.354.775.795v5.383h5.93v-.002Zm11.875 4.836v-7.361h2.05c.436 0 .79.357.79.794v6.694c0 2.41-1.956 4.381-4.346 4.381h-1.164c-2.39 0-4.346-1.973-4.346-4.38v-7.49h2.05c.435 0 .79.358.79.795v6.432c0 1.538 1.659 2.705 3.263 1.771.576-.334.913-.967.913-1.636Zm31.504 4.5h2.008v-10.44a.788.788 0 0 0-.775-.797h-2.007v10.438c0 .443.345.797.774.797Zm2.181-13.967a1.547 1.547 0 1 1-3.094 0 1.547 1.547 0 0 1 3.094 0Zm-20.876 9.047c0 1.414-1.141 2.356-2.535 2.356-1.394 0-2.535-.942-2.535-2.356v-2.02c0-1.413 1.141-2.355 2.535-2.355 1.394 0 2.535.942 2.535 2.356v2.019Zm-2.535-6.941c-2.946 0-5.357 2.14-5.357 5.13V28.8c0 2.99 2.411 5.115 5.357 5.115 2.947 0 5.357-2.125 5.357-5.115v-1.616c0-2.99-2.41-5.13-5.357-5.13Zm12.837 9.297c1.403 0 2.549-.942 2.549-2.353v-2.016c0-1.415-1.146-2.354-2.549-2.354-1.402 0-2.549.942-2.549 2.354v2.016c-.003 1.414 1.147 2.353 2.549 2.353Zm-2.566-8.701a5.782 5.782 0 0 1 2.563-.588c2.964 0 5.392 2.137 5.392 5.124v1.616c0 2.987-2.425 5.112-5.392 5.112-2.963 0-5.391-2.125-5.391-5.112v-10.4h2.039a.79.79 0 0 1 .789.791v3.457Z" clip-rule="evenodd"/>
</svg>
