<svg xmlns="http://www.w3.org/2000/svg" width="170" height="49" fill="none" viewBox="0 0 183 49">
  <rect width="181.143" height="48" x=".5" y=".5" fill="transparent" stroke="var(--buy-card-border)" rx="9.5"/>
  <path fill="var(--buy-logo-font-color)" d="M58.546 13.556a1.53 1.53 0 0 1-1.523 1.523 1.53 1.53 0 0 1-1.523-1.523c0-.841.682-1.538 1.523-1.556a1.563 1.563 0 0 1 1.523 1.556Zm-.432 16.837h-2.223V18.826h2.223v11.567ZM76.268 20.39h.062c.7-1.235 2.08-1.894 3.479-1.894 3.252 0 4.096 2.203 4.096 5.023v6.874h-2.223v-6.628c0-1.976-.268-3.314-2.553-3.314-2.86 0-2.86 2.512-2.86 4.611v5.331h-2.224V18.825h2.223v1.565Zm21.14 4.241v.02c0 3.388-2.788 6.176-6.175 6.176-3.388 0-6.175-2.788-6.175-6.175 0-3.388 2.787-6.175 6.175-6.175 3.458.02 6.175 2.675 6.175 6.154Zm-10.127 0c0 2.182 1.75 4.034 3.952 4.034s3.952-1.844 3.952-4.034c.02-2.19-1.763-4.01-3.952-4.034-2.203 0-3.952 1.852-3.952 4.034Zm13.4-4.343h.041c.638-1.009 1.811-1.811 3.067-1.811 1.502 0 2.593.761 3.334 2.058a4.19 4.19 0 0 1 3.561-2.058c3.046 0 3.829 2.367 3.829 4.98v6.937h-2.223V23.85c0-1.482-.206-3.376-2.141-3.376-2.367 0-2.552 2.47-2.552 4.24v5.681h-2.223v-6.133c0-1.503-.083-3.808-2.121-3.808-2.367 0-2.572 2.449-2.572 4.24v5.701h-2.224V18.827h2.224v1.46Zm14.058-1.462h2.594l3.911 7.328 3.622-7.328h2.491l-9.366 18.175h-2.511l4.549-8.603-5.29-9.572Z"/>
  <path fill="#1D94FF" d="M66.432 29.783a5.267 5.267 0 1 0 0-10.535 5.267 5.267 0 0 0 0 10.535Z"/>
  <path fill="var(--buy-logo-font-color)" d="M66.354 26.22a1.61 1.61 0 1 0 0-3.22 1.61 1.61 0 0 0 0 3.22Zm-4.814 0a1.61 1.61 0 1 0 0-3.22 1.61 1.61 0 0 0 0 3.22Zm7.24 4.286a1.61 1.61 0 1 0 0-3.219 1.61 1.61 0 0 0 0 3.22Zm0-8.572a1.61 1.61 0 1 0 0-3.22 1.61 1.61 0 0 0 0 3.22Z"/>
  <path fill="var(--buy-logo-font-color)" d="M71.925 24.61v.001c0 3.06-2.518 5.578-5.578 5.578-3.06 0-5.578-2.517-5.578-5.578 0-3.06 2.518-5.578 5.578-5.578h.006c3.056.008 5.567 2.521 5.572 5.576Zm-9.919 0v.001c0 2.383 1.96 4.343 4.343 4.343s4.343-1.96 4.343-4.343c0-2.382-1.96-4.343-4.343-4.343-2.38.001-4.339 1.96-4.339 4.341h-.004Z"/>
</svg>
