<svg xmlns="http://www.w3.org/2000/svg" width="170" height="49" fill="none" viewBox="0 0 183 49">
  <rect width="181.143" height="48" x=".5" y=".5" fill="transparent" stroke="var(--buy-card-border)" rx="9.5"/>
  <path fill="#3156AA" d="m48.17 26.998-4.985-8.645c-1.093-1.8-3.755-1.822-4.811.074l-5.228 8.988c-.977 1.648.232 3.718 2.186 3.718h10.483c1.97 0 3.448-2.123 2.355-4.135Z"/>
  <path fill="#1972E2" d="m40.983 27.667-.306-.538c-.286-.497-.92-1.574-.92-1.574l-4.219-7.32c-1.088-1.626-3.675-1.763-4.768.291l-4.906 8.486c-1.014 1.785.19 4.104 2.397 4.12h17.517c-2.704.02-3.57-1.379-4.795-3.465Z"/>
  <path fill="url(#a)" d="m40.983 27.67-.306-.54c-.286-.496-.92-1.573-.92-1.573l-2.75-4.774-3.882 6.654c-.977 1.648.232 3.718 2.186 3.718h10.462c-2.72-.021-3.565-1.4-4.79-3.486Z"/>
  <path fill="#326AD5" d="M156.533 30.446c-.829 0-1.478-.18-1.975-.491-.517-.338-.787-.83-.787-1.505v-9.786h1.3c.47 0 .876.38.876.877v8.618c0 .021 0 .428.338.76.201.201.449.312.787.312h.248c.09 0 .18.09.18.18v1.056l-.967-.021Zm-28.052 0c-1.346 0-2.445-.36-3.274-1.077a3.073 3.073 0 0 1-.898-1.21c-.179-.449-.269-1.098-.269-1.975 0-.85.09-1.526.269-1.975.159-.427.449-.808.877-1.167.829-.718 1.933-1.077 3.274-1.077 1.347 0 2.445.359 3.274 1.077.428.36.718.76.877 1.167.179.47.269 1.125.269 1.975 0 .877-.09 1.526-.269 1.975-.18.45-.47.85-.898 1.21-.787.718-1.885 1.077-3.232 1.077Zm0-7.245c-1.478 0-2.223 1.008-2.223 3.004 0 2.023.739 3.032 2.223 3.032s2.224-1.009 2.224-3.005c0-2.023-.766-3.031-2.224-3.031Zm9.295 7.245c-1.167 0-2.245-.312-3.163-.92-.09-.089-.27-.2-.497-.337a.194.194 0 0 1-.09-.159V18.664h1.326c.47 0 .876.407.876.877v3.03l.407-.226c.47-.248 1.099-.36 1.907-.36 1.415 0 2.492.428 3.21 1.258.629.739.946 1.726.946 2.941 0 1.215-.36 2.202-1.078 2.915-.839.898-2.138 1.347-3.844 1.347Zm.222-7.246c-.497 0-1.057.18-1.685.56l-.09.048v4.869l.09.068c.491.312 1.077.47 1.685.47.808 0 1.436-.338 1.864-1.008.359-.539.559-1.236.559-2.023 0-1.975-.829-2.984-2.423-2.984Zm9.875 7.225c-2.466 0-4.019-1.616-4.019-4.24 0-2.604 1.526-4.22 3.971-4.22.94 0 1.748.248 2.403.718l.132.09v-.65h1.727c.111 0 .179.09.179.18v7.969h-1.927v-.718l-.132.11c-.539.491-1.394.76-2.334.76Zm.449-7.024c-1.548 0-2.467 1.188-2.467 2.783s.919 2.825 2.467 2.825c.491 0 1.346-.047 2.022-.718l.021-.02v-4.083l-.021-.021c-.475-.544-1.172-.766-2.022-.766Z"/>
  <path fill="#fff" d="M68.137 30.332v-11.69h9.717v.739c0 .586-.47 1.056-1.056 1.056H70.56v3.142h6.237v1.796H70.56v3.142h6.237c.58 0 1.056.47 1.056 1.056v.74l-9.717.02ZM91.811 18.64h-2.286c-.428 0-.808.18-1.078.518l-2.762 3.48-2.761-3.453a1.346 1.346 0 0 0-1.078-.518H79.56l4.647 5.835-4.647 5.836h2.286c.428 0 .808-.18 1.078-.518l2.761-3.454 2.783 3.48c.27.312.65.518 1.078.518h2.286l-4.647-5.835 4.626-5.888ZM60.527 29.1l3.185-5.566v6.775h2.424V18.622H64.63c-.47 0-.92.249-1.146.676l-3.813 6.955-3.813-6.96a1.292 1.292 0 0 0-1.146-.676h-1.5V30.31h2.424v-6.775l3.185 5.566h1.705Zm37.616 1.367c-3.364.042-6.105-2.604-6.126-5.968 0-1.843.56-3.369 1.616-4.42 1.056-1.035 2.582-1.595 4.399-1.595 2.133 0 3.813.74 5.027 2.176l-.76.65a1.357 1.357 0 0 1-1.685.047c-.676-.517-1.526-.766-2.492-.766-2.377 0-3.792 1.437-3.792 3.86 0 2.446 1.458 3.95 3.792 3.95.987 0 1.816-.268 2.492-.76a1.352 1.352 0 0 1 1.685.048l.76.65c-1.214 1.41-2.83 2.128-4.916 2.128Z"/>
  <path fill="#326AD5" d="M113.067 30.468c-3.771 0-6.105-2.287-6.105-5.967 0-3.681 2.334-5.968 6.057-5.968 1.796 0 3.301.518 4.468 1.574l-.56.628a1.33 1.33 0 0 1-.966.428c-.201 0-.407-.047-.581-.137-.697-.36-1.505-.539-2.356-.539-2.424 0-3.929 1.547-3.929 4.04 0 2.514 1.569 4.061 4.083 4.061 1.214 0 2.154-.227 2.851-.718l.042-.021v-2.403h-2.672v-.787c0-.58.47-1.056 1.056-1.056h3.301c.09 0 .18.09.18.18v5.185c-1.146.988-2.783 1.5-4.869 1.5Zm9.199-.022c-.829 0-1.484-.18-1.975-.491-.518-.338-.787-.83-.787-1.505v-9.786h1.299c.47 0 .877.38.877.877v8.618c0 .021 0 .428.338.76.2.201.448.312.786.312h.249c.089 0 .179.09.179.18v1.056l-.966-.021Z"/>
  <defs>
    <linearGradient id="a" x1="31.983" x2="43.338" y1="24.428" y2="28.886" gradientUnits="userSpaceOnUse">
      <stop stop-color="#264CA2" stop-opacity="0"/>
      <stop offset="1" stop-color="#234588"/>
    </linearGradient>
  </defs>
</svg>
