<svg width="145" height="33" viewBox="0 0 145 33" fill="none" xmlns="http://www.w3.org/2000/svg">
<path d="M5.85944 24.4004C5.83356 24.4568 5.80858 24.5136 5.78451 24.5708C5.48901 25.2738 5.33691 26.0272 5.33691 26.7881C5.33691 27.549 5.48901 28.3024 5.78451 29.0054C6.08001 29.7083 6.51313 30.347 7.05914 30.885C7.60508 31.4231 8.25322 31.8499 8.96656 32.1411C9.6799 32.4323 10.4445 32.5822 11.2166 32.5822C11.9887 32.5822 12.7533 32.4323 13.4666 32.1411C14.1799 31.8499 14.8281 31.4231 15.374 30.885L26.1936 20.2238C27.3207 19.1129 27.954 17.6064 27.954 16.0355C27.954 14.6245 27.5108 13.265 26.543 12.1982C26.0653 11.9949 25.5373 11.9325 25.0261 12.0271C24.5688 12.1117 24.1497 12.3792 23.8007 12.6934L13.5224 23.0882C13.3316 23.2822 13.1124 23.4432 12.8737 23.5668C12.9998 23.4903 13.1242 23.4105 13.2466 23.3274C13.2362 23.3315 13.2257 23.3357 13.2152 23.3397C13.2254 23.3329 13.2356 23.3261 13.2458 23.3193C13.2563 23.3123 13.2668 23.3053 13.2772 23.2982C13.2566 23.3121 13.236 23.326 13.2152 23.3397C11.6574 24.3731 9.79837 24.8757 7.92222 24.7695C7.21742 24.7296 6.525 24.6046 5.85944 24.4004Z" fill="#104ADE"/>
<path d="M13.2146 23.3397C13.2353 23.3259 13.256 23.3121 13.2766 23.2982C12.8818 23.4559 12.4531 23.5137 12.0298 23.4664C11.6064 23.4191 11.2018 23.2681 10.8528 23.0273C10.5433 22.8124 10.285 22.5337 10.0959 22.2105C9.90671 21.8873 9.79124 21.5274 9.75747 21.1559C9.72369 20.7843 9.77243 20.4099 9.9003 20.0587C10.0282 19.7076 10.2321 19.3881 10.4979 19.1224L13.9192 15.7216L18.9158 10.7977C18.9229 10.7919 18.9299 10.7859 18.9369 10.7799C18.9508 10.768 18.9648 10.7561 18.9796 10.7449L19.7316 10.0034C20.0994 9.92854 20.4884 9.89636 20.8941 9.89636C21.7728 9.89636 22.5203 9.98094 23.2654 10.1933C24.3491 10.4239 25.3461 10.9593 26.1342 11.7391C26.2829 11.8871 26.4231 12.0446 26.553 12.2027C26.0726 11.9958 25.5405 11.9318 25.0255 12.0271C24.5682 12.1117 24.149 12.3792 23.8001 12.6934L13.5218 23.0882C13.331 23.2822 13.1118 23.4431 12.8731 23.5667C12.9992 23.4903 13.1235 23.4105 13.246 23.3273C13.2356 23.3315 13.2251 23.3356 13.2146 23.3397Z" fill="#0038C7"/>
<path d="M21.5075 3.56417C21.2335 2.91256 20.8318 2.32062 20.3253 1.82224C19.7396 1.24455 19.0441 0.786274 18.2785 0.473604C17.5129 0.160934 16.6923 0 15.8636 0C15.0349 0 14.2143 0.160934 13.4488 0.473604C12.6832 0.786274 11.9877 1.24455 11.4019 1.82224L2.49384 10.5981C0.929697 12.1396 0.0356736 14.2203 0.00104465 16.3999C-0.0335843 18.5795 0.793899 20.6869 2.30831 22.2758L2.40108 22.3647L2.49725 22.4628C2.5849 22.5477 2.67694 22.628 2.77299 22.7035C4.20967 23.9352 6.0207 24.6619 7.92181 24.7695C9.82292 24.8771 11.7065 24.3596 13.2768 23.2982C12.882 23.4559 12.4533 23.5137 12.03 23.4664C11.6066 23.4191 11.202 23.2681 10.853 23.0273C10.5435 22.8124 10.2852 22.5337 10.0961 22.2105C9.90691 21.8873 9.79144 21.5274 9.75766 21.1558C9.72389 20.7843 9.77263 20.4099 9.9005 20.0587C10.0284 19.7076 10.2323 19.3881 10.4981 19.1224L13.9194 15.7216L18.916 10.7977C18.9372 10.7801 18.9577 10.7617 18.9798 10.7449L20.3253 9.41811C21.0879 8.66737 21.6073 7.71055 21.8177 6.66877C22.0281 5.627 21.9202 4.54712 21.5075 3.56584V3.56417Z" fill="#0F75FC"/>
<path d="M38.6038 30H37.2821L40.252 21.747H41.6906L44.6606 30H43.3388L41.0056 23.2461H40.9411L38.6038 30ZM38.8255 26.7681H43.1132V27.8159H38.8255V26.7681ZM48.7249 23.8103V24.7774H45.2271V23.8103H48.7249ZM46.1862 30V23.093C46.1862 22.7061 46.2708 22.3851 46.4401 22.1299C46.6093 21.872 46.8336 21.6799 47.113 21.5536C47.3924 21.4247 47.696 21.3602 48.0238 21.3602C48.2655 21.3602 48.4724 21.3803 48.6443 21.4206C48.8163 21.4582 48.9439 21.4932 49.0272 21.5254L48.7451 22.5006C48.6887 22.4845 48.6161 22.4657 48.5275 22.4442C48.4388 22.42 48.3314 22.4079 48.2051 22.4079C47.9123 22.4079 47.7027 22.4805 47.5764 22.6255C47.4529 22.7706 47.3911 22.9801 47.3911 23.2542V30H46.1862ZM52.9706 23.8103V24.7774H49.4728V23.8103H52.9706ZM50.4319 30V23.093C50.4319 22.7061 50.5165 22.3851 50.6857 22.1299C50.855 21.872 51.0793 21.6799 51.3587 21.5536C51.6381 21.4247 51.9417 21.3602 52.2694 21.3602C52.5112 21.3602 52.7181 21.3803 52.89 21.4206C53.062 21.4582 53.1896 21.4932 53.2728 21.5254L52.9908 22.5006C52.9343 22.4845 52.8618 22.4657 52.7732 22.4442C52.6845 22.42 52.577 22.4079 52.4508 22.4079C52.1579 22.4079 51.9484 22.4805 51.8221 22.6255C51.6986 22.7706 51.6368 22.9801 51.6368 23.2542V30H50.4319ZM54.2705 30V23.8103H55.4754V30H54.2705ZM54.879 22.8552C54.6695 22.8552 54.4895 22.7854 54.339 22.6457C54.1913 22.5033 54.1174 22.334 54.1174 22.1379C54.1174 21.9391 54.1913 21.7699 54.339 21.6302C54.4895 21.4878 54.6695 21.4166 54.879 21.4166C55.0886 21.4166 55.2672 21.4878 55.415 21.6302C55.5654 21.7699 55.6407 21.9391 55.6407 22.1379C55.6407 22.334 55.5654 22.5033 55.415 22.6457C55.2672 22.7854 55.0886 22.8552 54.879 22.8552ZM58.3581 21.747V30H57.1531V21.747H58.3581ZM60.0358 30V23.8103H61.2407V30H60.0358ZM60.6443 22.8552C60.4347 22.8552 60.2547 22.7854 60.1043 22.6457C59.9565 22.5033 59.8826 22.334 59.8826 22.1379C59.8826 21.9391 59.9565 21.7699 60.1043 21.6302C60.2547 21.4878 60.4347 21.4166 60.6443 21.4166C60.8538 21.4166 61.0325 21.4878 61.1802 21.6302C61.3307 21.7699 61.4059 21.9391 61.4059 22.1379C61.4059 22.334 61.3307 22.5033 61.1802 22.6457C61.0325 22.7854 60.8538 22.8552 60.6443 22.8552ZM64.7197 30.137C64.3275 30.137 63.9728 30.0645 63.6558 29.9194C63.3388 29.7716 63.0876 29.5581 62.9023 29.2787C62.7196 28.9993 62.6282 28.6567 62.6282 28.2511C62.6282 27.9018 62.6954 27.6144 62.8297 27.3887C62.964 27.163 63.1454 26.9844 63.3737 26.8528C63.6021 26.7211 63.8573 26.6217 64.1394 26.5545C64.4215 26.4874 64.7089 26.4363 65.0018 26.4014C65.3725 26.3584 65.6734 26.3235 65.9044 26.2966C66.1355 26.2671 66.3034 26.2201 66.4082 26.1556C66.5129 26.0911 66.5653 25.9864 66.5653 25.8413V25.8131C66.5653 25.4611 66.4659 25.1885 66.2671 24.995C66.071 24.8016 65.7782 24.7049 65.3886 24.7049C64.983 24.7049 64.6633 24.7949 64.4295 24.9749C64.1985 25.1522 64.0387 25.3496 63.95 25.5673L62.8176 25.3094C62.952 24.9332 63.1481 24.6297 63.406 24.3986C63.6666 24.1649 63.9661 23.9956 64.3046 23.8909C64.6431 23.7834 64.9991 23.7297 65.3725 23.7297C65.6197 23.7297 65.8816 23.7592 66.1583 23.8183C66.4377 23.8748 66.6983 23.9795 66.9401 24.1327C67.1846 24.2858 67.3847 24.5047 67.5405 24.7895C67.6963 25.0716 67.7742 25.4383 67.7742 25.8896V30H66.5976V29.1537H66.5492C66.4713 29.3096 66.3544 29.4627 66.1986 29.6131C66.0428 29.7636 65.8426 29.8885 65.5982 29.9879C65.3537 30.0873 65.0609 30.137 64.7197 30.137ZM64.9816 29.1699C65.3147 29.1699 65.5995 29.104 65.8359 28.9724C66.075 28.8408 66.2564 28.6688 66.3799 28.4566C66.5062 28.2417 66.5693 28.012 66.5693 27.7675V26.9696C66.5264 27.0126 66.4431 27.0529 66.3195 27.0905C66.1986 27.1254 66.0603 27.1563 65.9044 27.1832C65.7486 27.2074 65.5968 27.2302 65.4491 27.2517C65.3013 27.2705 65.1777 27.2866 65.0783 27.3001C64.8446 27.3296 64.631 27.3793 64.4376 27.4492C64.2469 27.519 64.0937 27.6198 63.9782 27.7514C63.8654 27.8803 63.809 28.0523 63.809 28.2672C63.809 28.5654 63.9191 28.7911 64.1394 28.9442C64.3597 29.0946 64.6404 29.1699 64.9816 29.1699ZM72.3252 23.8103V24.7774H68.9442V23.8103H72.3252ZM69.8509 22.3273H71.0558V28.1826C71.0558 28.4163 71.0907 28.5923 71.1606 28.7105C71.2304 28.826 71.3204 28.9052 71.4306 28.9482C71.5434 28.9885 71.6656 29.0087 71.7973 29.0087C71.894 29.0087 71.9786 29.002 72.0512 28.9885C72.1237 28.9751 72.1801 28.9643 72.2204 28.9563L72.438 29.9516C72.3682 29.9785 72.2688 30.0054 72.1398 30.0322C72.0109 30.0618 71.8497 30.0779 71.6562 30.0806C71.3392 30.086 71.0437 30.0296 70.7697 29.9113C70.4957 29.7931 70.274 29.6105 70.1048 29.3633C69.9355 29.1161 69.8509 28.8058 69.8509 28.4324V22.3273ZM76.316 30.1249C75.7061 30.1249 75.1809 29.9946 74.7403 29.734C74.3024 29.4708 73.9639 29.1014 73.7248 28.6258C73.4884 28.1477 73.3702 27.5875 73.3702 26.9454C73.3702 26.3114 73.4884 25.7526 73.7248 25.2691C73.9639 24.7855 74.2971 24.408 74.7242 24.1367C75.1541 23.8654 75.6564 23.7297 76.2314 23.7297C76.5806 23.7297 76.9191 23.7874 77.2469 23.903C77.5746 24.0185 77.8688 24.1998 78.1294 24.447C78.39 24.6941 78.5955 25.0152 78.7459 25.4101C78.8964 25.8023 78.9716 26.2792 78.9716 26.8407V27.2678H74.0513V26.3651H77.7909C77.7909 26.0481 77.7264 25.7674 77.5975 25.5229C77.4685 25.2758 77.2872 25.081 77.0534 24.9386C76.8224 24.7962 76.5511 24.725 76.2394 24.725C75.9009 24.725 75.6054 24.8083 75.3529 24.9749C75.103 25.1388 74.9096 25.3537 74.7726 25.6196C74.6383 25.8829 74.5711 26.169 74.5711 26.478V27.1832C74.5711 27.5969 74.6436 27.9488 74.7887 28.239C74.9365 28.5291 75.142 28.7508 75.4053 28.9039C75.6685 29.0543 75.9761 29.1296 76.3281 29.1296C76.5564 29.1296 76.7646 29.0973 76.9527 29.0329C77.1407 28.9657 77.3033 28.8663 77.4403 28.7347C77.5773 28.603 77.6821 28.4405 77.7546 28.2471L78.895 28.4526C78.8037 28.7884 78.6398 29.0826 78.4034 29.3351C78.1697 29.5849 77.8755 29.7797 77.5209 29.9194C77.169 30.0564 76.7673 30.1249 76.316 30.1249ZM83.5219 30V21.747H86.4636C87.1057 21.747 87.6376 21.8639 88.0594 22.0976C88.4812 22.3314 88.7968 22.651 89.0064 23.0567C89.2159 23.4597 89.3207 23.9137 89.3207 24.4188C89.3207 24.9265 89.2146 25.3832 89.0023 25.7889C88.7928 26.1919 88.4758 26.5116 88.0513 26.748C87.6295 26.9817 87.0989 27.0986 86.4596 27.0986H84.4366V26.0428H86.3467C86.7524 26.0428 87.0815 25.9729 87.334 25.8332C87.5865 25.6908 87.7719 25.4974 87.8901 25.2529C88.0083 25.0085 88.0674 24.7304 88.0674 24.4188C88.0674 24.1071 88.0083 23.8304 87.8901 23.5886C87.7719 23.3469 87.5852 23.1575 87.33 23.0204C87.0775 22.8834 86.7443 22.8149 86.3306 22.8149H84.7671V30H83.5219ZM90.7405 30V23.8103H91.9051V24.7935H91.9696C92.0824 24.4604 92.2812 24.1985 92.566 24.0077C92.8534 23.8143 93.1785 23.7176 93.5412 23.7176C93.6164 23.7176 93.7051 23.7203 93.8072 23.7257C93.9119 23.731 93.9939 23.7377 94.053 23.7458V24.8983C94.0046 24.8849 93.9186 24.8701 93.7951 24.854C93.6715 24.8352 93.5479 24.8258 93.4243 24.8258C93.1396 24.8258 92.8857 24.8862 92.6627 25.0071C92.4424 25.1253 92.2678 25.2905 92.1388 25.5028C92.0099 25.7123 91.9454 25.9514 91.9454 26.2201V30H90.7405ZM97.538 30.1249C96.9577 30.1249 96.4513 29.9919 96.0188 29.726C95.5863 29.46 95.2505 29.0879 95.0114 28.6097C94.7723 28.1315 94.6527 27.5727 94.6527 26.9333C94.6527 26.2913 94.7723 25.7298 95.0114 25.2489C95.2505 24.768 95.5863 24.3946 96.0188 24.1286C96.4513 23.8627 96.9577 23.7297 97.538 23.7297C98.1183 23.7297 98.6247 23.8627 99.0573 24.1286C99.4898 24.3946 99.8256 24.768 100.065 25.2489C100.304 25.7298 100.423 26.2913 100.423 26.9333C100.423 27.5727 100.304 28.1315 100.065 28.6097C99.8256 29.0879 99.4898 29.46 99.0573 29.726C98.6247 29.9919 98.1183 30.1249 97.538 30.1249ZM97.5421 29.1135C97.9182 29.1135 98.2298 29.0141 98.477 28.8152C98.7241 28.6164 98.9068 28.3518 99.025 28.0214C99.1459 27.6909 99.2064 27.3269 99.2064 26.9293C99.2064 26.5344 99.1459 26.1717 99.025 25.8413C98.9068 25.5082 98.7241 25.2408 98.477 25.0394C98.2298 24.8379 97.9182 24.7371 97.5421 24.7371C97.1633 24.7371 96.8489 24.8379 96.5991 25.0394C96.3519 25.2408 96.1679 25.5082 96.047 25.8413C95.9288 26.1717 95.8697 26.5344 95.8697 26.9293C95.8697 27.3269 95.9288 27.6909 96.047 28.0214C96.1679 28.3518 96.3519 28.6164 96.5991 28.8152C96.8489 29.0141 97.1633 29.1135 97.5421 29.1135ZM104.42 32.4501C103.929 32.4501 103.505 32.3856 103.151 32.2567C102.799 32.1277 102.511 31.9571 102.288 31.7449C102.065 31.5327 101.899 31.3003 101.789 31.0477L102.824 30.6206C102.897 30.7388 102.994 30.8637 103.115 30.9954C103.238 31.1297 103.405 31.2439 103.614 31.3379C103.826 31.4319 104.099 31.4789 104.432 31.4789C104.889 31.4789 105.266 31.3674 105.565 31.1445C105.863 30.9242 106.012 30.5722 106.012 30.0887V28.8717H105.935C105.863 29.0033 105.758 29.1497 105.621 29.3109C105.487 29.4721 105.301 29.6118 105.065 29.73C104.829 29.8482 104.521 29.9073 104.142 29.9073C103.653 29.9073 103.213 29.7931 102.82 29.5648C102.431 29.3337 102.122 28.9939 101.894 28.5453C101.668 28.0939 101.555 27.5392 101.555 26.881C101.555 26.2228 101.667 25.6586 101.889 25.1885C102.115 24.7183 102.424 24.3583 102.816 24.1085C103.209 23.8559 103.653 23.7297 104.15 23.7297C104.534 23.7297 104.845 23.7942 105.081 23.9231C105.317 24.0494 105.502 24.1971 105.633 24.3664C105.767 24.5356 105.871 24.6847 105.943 24.8137H106.032V23.8103H107.213V30.137C107.213 30.6689 107.089 31.1055 106.842 31.4467C106.595 31.7879 106.26 32.0404 105.839 32.2043C105.42 32.3682 104.947 32.4501 104.42 32.4501ZM104.408 28.9079C104.755 28.9079 105.047 28.8273 105.287 28.6661C105.528 28.5023 105.711 28.2685 105.835 27.965C105.961 27.6587 106.024 27.292 106.024 26.8648C106.024 26.4484 105.962 26.0817 105.839 25.7647C105.715 25.4477 105.534 25.2005 105.295 25.0232C105.056 24.8432 104.76 24.7532 104.408 24.7532C104.045 24.7532 103.743 24.8473 103.501 25.0353C103.26 25.2207 103.077 25.4732 102.953 25.7929C102.832 26.1126 102.772 26.4699 102.772 26.8648C102.772 27.2705 102.834 27.6265 102.957 27.9327C103.081 28.239 103.264 28.4781 103.505 28.65C103.75 28.822 104.051 28.9079 104.408 28.9079ZM108.885 30V23.8103H110.05V24.7935H110.115C110.227 24.4604 110.426 24.1985 110.711 24.0077C110.998 23.8143 111.324 23.7176 111.686 23.7176C111.761 23.7176 111.85 23.7203 111.952 23.7257C112.057 23.731 112.139 23.7377 112.198 23.7458V24.8983C112.15 24.8849 112.064 24.8701 111.94 24.854C111.816 24.8352 111.693 24.8258 111.569 24.8258C111.285 24.8258 111.031 24.8862 110.808 25.0071C110.587 25.1253 110.413 25.2905 110.284 25.5028C110.155 25.7123 110.09 25.9514 110.09 26.2201V30H108.885ZM115.043 30.137C114.651 30.137 114.296 30.0645 113.979 29.9194C113.662 29.7716 113.411 29.5581 113.226 29.2787C113.043 28.9993 112.952 28.6567 112.952 28.2511C112.952 27.9018 113.019 27.6144 113.153 27.3887C113.288 27.163 113.469 26.9844 113.697 26.8528C113.926 26.7211 114.181 26.6217 114.463 26.5545C114.745 26.4874 115.033 26.4363 115.325 26.4014C115.696 26.3584 115.997 26.3235 116.228 26.2966C116.459 26.2671 116.627 26.2201 116.732 26.1556C116.837 26.0911 116.889 25.9864 116.889 25.8413V25.8131C116.889 25.4611 116.79 25.1885 116.591 24.995C116.395 24.8016 116.102 24.7049 115.712 24.7049C115.307 24.7049 114.987 24.7949 114.753 24.9749C114.522 25.1522 114.362 25.3496 114.274 25.5673L113.141 25.3094C113.276 24.9332 113.472 24.6297 113.73 24.3986C113.99 24.1649 114.29 23.9956 114.628 23.8909C114.967 23.7834 115.323 23.7297 115.696 23.7297C115.943 23.7297 116.205 23.7592 116.482 23.8183C116.761 23.8748 117.022 23.9795 117.264 24.1327C117.508 24.2858 117.708 24.5047 117.864 24.7895C118.02 25.0716 118.098 25.4383 118.098 25.8896V30H116.921V29.1537H116.873C116.795 29.3096 116.678 29.4627 116.522 29.6131C116.366 29.7636 116.166 29.8885 115.922 29.9879C115.677 30.0873 115.384 30.137 115.043 30.137ZM115.305 29.1699C115.638 29.1699 115.923 29.104 116.16 28.9724C116.399 28.8408 116.58 28.6688 116.704 28.4566C116.83 28.2417 116.893 28.012 116.893 27.7675V26.9696C116.85 27.0126 116.767 27.0529 116.643 27.0905C116.522 27.1254 116.384 27.1563 116.228 27.1832C116.072 27.2074 115.92 27.2302 115.773 27.2517C115.625 27.2705 115.501 27.2866 115.402 27.3001C115.168 27.3296 114.955 27.3793 114.761 27.4492C114.57 27.519 114.417 27.6198 114.302 27.7514C114.189 27.8803 114.133 28.0523 114.133 28.2672C114.133 28.5654 114.243 28.7911 114.463 28.9442C114.683 29.0946 114.964 29.1699 115.305 29.1699ZM119.759 30V23.8103H120.916V24.8177H120.993C121.122 24.4765 121.332 24.2106 121.625 24.0198C121.918 23.8264 122.269 23.7297 122.677 23.7297C123.091 23.7297 123.437 23.8264 123.717 24.0198C123.999 24.2133 124.207 24.4792 124.341 24.8177H124.406C124.554 24.4873 124.789 24.224 125.111 24.0279C125.433 23.8291 125.818 23.7297 126.264 23.7297C126.825 23.7297 127.283 23.9056 127.638 24.2576C127.995 24.6095 128.174 25.1401 128.174 25.8493V30H126.969V25.9622C126.969 25.5431 126.855 25.2395 126.626 25.0514C126.398 24.8634 126.125 24.7694 125.808 24.7694C125.416 24.7694 125.111 24.8903 124.893 25.132C124.676 25.3711 124.567 25.6787 124.567 26.0549V30H123.366V25.8856C123.366 25.5498 123.261 25.2798 123.052 25.0756C122.842 24.8714 122.57 24.7694 122.234 24.7694C122.005 24.7694 121.794 24.8298 121.601 24.9507C121.41 25.0689 121.256 25.2341 121.138 25.4464C121.022 25.6586 120.964 25.9044 120.964 26.1838V30H119.759Z" fill="#859AB5"/>
<path d="M101.816 15.2767C100.999 15.2767 100.261 15.1369 99.6004 14.8571C98.9514 14.5774 98.4367 14.1745 98.0562 13.6486C97.6758 13.1227 97.4799 12.5017 97.4688 11.7855H99.9865C100.02 12.2667 100.188 12.6471 100.49 12.9269C100.803 13.2066 101.229 13.3465 101.766 13.3465C102.314 13.3465 102.745 13.2178 103.058 12.9604C103.371 12.6919 103.528 12.345 103.528 11.9198C103.528 11.5729 103.422 11.2876 103.209 11.0638C102.997 10.84 102.728 10.6665 102.403 10.5434C102.09 10.4092 101.654 10.2637 101.094 10.107C100.333 9.88324 99.7123 9.66503 99.2311 9.45243C98.7612 9.22863 98.3527 8.89853 98.0059 8.46213C97.6702 8.01453 97.5023 7.42147 97.5023 6.68294C97.5023 5.98917 97.6758 5.38492 98.0226 4.87019C98.3695 4.35545 98.8563 3.96381 99.4829 3.69525C100.11 3.41551 100.826 3.27563 101.631 3.27563C102.84 3.27563 103.819 3.57217 104.569 4.16523C105.33 4.7471 105.749 5.56396 105.828 6.6158H103.243C103.22 6.21297 103.047 5.88287 102.722 5.6255C102.409 5.35695 101.989 5.22267 101.464 5.22267C101.005 5.22267 100.635 5.34016 100.356 5.57515C100.087 5.81013 99.9529 6.15142 99.9529 6.59902C99.9529 6.91233 100.054 7.17529 100.255 7.3879C100.468 7.58932 100.725 7.75716 101.027 7.89144C101.34 8.01453 101.777 8.16 102.336 8.32785C103.097 8.55164 103.718 8.77544 104.199 8.99924C104.681 9.22303 105.095 9.55873 105.442 10.0063C105.788 10.4539 105.962 11.0414 105.962 11.7687C105.962 12.3954 105.8 12.9772 105.475 13.5143C105.151 14.0515 104.675 14.4823 104.048 14.8068C103.422 15.1201 102.678 15.2767 101.816 15.2767Z" fill="#3F5878"/>
<path d="M120.89 5.86049L118.171 15.1592H115.636L113.941 8.66354L112.246 15.1592H109.694L106.958 5.86049H109.342L110.987 12.9437L112.766 5.86049H115.25L116.996 12.9269L118.641 5.86049H120.89Z" fill="#3F5878"/>
<path d="M121.557 10.4763C121.557 9.53635 121.742 8.70271 122.111 7.97537C122.491 7.24803 123 6.68854 123.638 6.29689C124.287 5.90525 125.009 5.70942 125.804 5.70942C126.497 5.70942 127.102 5.8493 127.616 6.12904C128.142 6.40879 128.562 6.76127 128.875 7.18648V5.86049H131.242V15.1592H128.875V13.7997C128.573 14.2361 128.153 14.5998 127.616 14.8907C127.09 15.1704 126.481 15.3103 125.787 15.3103C125.003 15.3103 124.287 15.1089 123.638 14.7061C123 14.3032 122.491 13.7381 122.111 13.0108C121.742 12.2723 121.557 11.4274 121.557 10.4763ZM128.875 10.5099C128.875 9.93918 128.763 9.45243 128.539 9.04959C128.316 8.63557 128.014 8.32225 127.633 8.10965C127.253 7.88585 126.844 7.77395 126.408 7.77395C125.971 7.77395 125.569 7.88025 125.199 8.09286C124.83 8.30547 124.528 8.61878 124.293 9.03281C124.069 9.43564 123.957 9.9168 123.957 10.4763C123.957 11.0358 124.069 11.5281 124.293 11.9534C124.528 12.3674 124.83 12.6863 125.199 12.9101C125.58 13.1339 125.983 13.2458 126.408 13.2458C126.844 13.2458 127.253 13.1395 127.633 12.9269C128.014 12.7031 128.316 12.3898 128.539 11.9869C128.763 11.5729 128.875 11.0805 128.875 10.5099Z" fill="#3F5878"/>
<path d="M135.887 7.20327C136.189 6.77805 136.603 6.42557 137.129 6.14583C137.666 5.85489 138.276 5.70942 138.958 5.70942C139.753 5.70942 140.469 5.90525 141.107 6.29689C141.756 6.68854 142.265 7.24803 142.634 7.97537C143.015 8.69152 143.205 9.52516 143.205 10.4763C143.205 11.4274 143.015 12.2723 142.634 13.0108C142.265 13.7381 141.756 14.3032 141.107 14.7061C140.469 15.1089 139.753 15.3103 138.958 15.3103C138.276 15.3103 137.671 15.1704 137.146 14.8907C136.631 14.6109 136.211 14.2585 135.887 13.8332V19.5904H133.537V5.86049H135.887V7.20327ZM140.805 10.4763C140.805 9.9168 140.687 9.43564 140.452 9.03281C140.228 8.61878 139.926 8.30547 139.546 8.09286C139.177 7.88025 138.774 7.77395 138.337 7.77395C137.912 7.77395 137.509 7.88585 137.129 8.10965C136.76 8.32225 136.457 8.63557 136.222 9.04959C135.999 9.46362 135.887 9.95037 135.887 10.5099C135.887 11.0694 135.999 11.5561 136.222 11.9701C136.457 12.3842 136.76 12.7031 137.129 12.9269C137.509 13.1395 137.912 13.2458 138.337 13.2458C138.774 13.2458 139.177 13.1339 139.546 12.9101C139.926 12.6863 140.228 12.3674 140.452 11.9534C140.687 11.5393 140.805 11.047 140.805 10.4763Z" fill="#3F5878"/>
<path d="M42.2144 15.2767C41.3976 15.2767 40.6591 15.1369 39.9989 14.8571C39.3498 14.5774 38.8351 14.1745 38.4547 13.6486C38.0742 13.1227 37.8784 12.5017 37.8672 11.7855H40.3849C40.4185 12.2667 40.5863 12.6471 40.8884 12.9269C41.2018 13.2066 41.627 13.3465 42.1641 13.3465C42.7124 13.3465 43.1432 13.2178 43.4565 12.9604C43.7698 12.6919 43.9265 12.345 43.9265 11.9198C43.9265 11.5729 43.8202 11.2876 43.6076 11.0638C43.395 10.84 43.1264 10.6665 42.8019 10.5434C42.4886 10.4092 42.0522 10.2637 41.4927 10.107C40.7318 9.88324 40.1108 9.66504 39.6296 9.45243C39.1596 9.22864 38.7512 8.89854 38.4043 8.46213C38.0686 8.01454 37.9008 7.42148 37.9008 6.68295C37.9008 5.98918 38.0742 5.38493 38.4211 4.87019C38.768 4.35546 39.2547 3.96382 39.8814 3.69526C40.508 3.41552 41.2241 3.27564 42.0298 3.27564C43.2383 3.27564 44.2174 3.57217 44.9671 4.16523C45.7281 4.74711 46.1477 5.56396 46.226 6.61581H43.6411C43.6188 6.21298 43.4453 5.88287 43.1208 5.62551C42.8075 5.35695 42.3879 5.22267 41.862 5.22267C41.4032 5.22267 41.0339 5.34017 40.7542 5.57515C40.4856 5.81014 40.3513 6.15143 40.3513 6.59902C40.3513 6.91234 40.452 7.1753 40.6535 7.38791C40.8661 7.58932 41.1234 7.75717 41.4256 7.89145C41.7389 8.01454 42.1753 8.16001 42.7348 8.32785C43.4957 8.55165 44.1167 8.77545 44.5979 8.99924C45.079 9.22304 45.4931 9.55874 45.84 10.0063C46.1868 10.4539 46.3603 11.0414 46.3603 11.7687C46.3603 12.3954 46.198 12.9772 45.8735 13.5143C45.549 14.0515 45.0734 14.4823 44.4468 14.8068C43.8202 15.1201 43.0761 15.2767 42.2144 15.2767Z" fill="#3F5878"/>
<path d="M49.5892 4.7527C49.1752 4.7527 48.8283 4.62402 48.5486 4.36665C48.28 4.09809 48.1458 3.76799 48.1458 3.37635C48.1458 2.98471 48.28 2.6602 48.5486 2.40283C48.8283 2.13428 49.1752 2 49.5892 2C50.0033 2 50.3446 2.13428 50.6131 2.40283C50.8929 2.6602 51.0327 2.98471 51.0327 3.37635C51.0327 3.76799 50.8929 4.09809 50.6131 4.36665C50.3446 4.62402 50.0033 4.7527 49.5892 4.7527ZM50.7474 5.86049V15.1593H48.3975V5.86049H50.7474Z" fill="#3F5878"/>
<path d="M64.617 5.72622C65.7583 5.72622 66.6759 6.0787 67.3697 6.78366C68.0746 7.47743 68.4271 8.45094 68.4271 9.70421V15.1593H66.0773V10.0231C66.0773 9.29578 65.8926 8.74188 65.5234 8.36142C65.1541 7.96978 64.6506 7.77396 64.0127 7.77396C63.3749 7.77396 62.8658 7.96978 62.4853 8.36142C62.1161 8.74188 61.9314 9.29578 61.9314 10.0231V15.1593H59.5816V10.0231C59.5816 9.29578 59.3969 8.74188 59.0277 8.36142C58.6584 7.96978 58.1549 7.77396 57.517 7.77396C56.868 7.77396 56.3533 7.96978 55.9728 8.36142C55.6036 8.74188 55.4189 9.29578 55.4189 10.0231V15.1593H53.0691V5.86049H55.4189V6.98507C55.7211 6.59343 56.1071 6.28571 56.5771 6.06191C57.0582 5.83811 57.5842 5.72622 58.1549 5.72622C58.8822 5.72622 59.5312 5.88287 60.1019 6.19619C60.6726 6.49832 61.1146 6.93472 61.4279 7.5054C61.73 6.96829 62.1664 6.53748 62.7371 6.21297C63.319 5.88847 63.9456 5.72622 64.617 5.72622Z" fill="#3F5878"/>
<path d="M73.0069 7.20328C73.309 6.77806 73.723 6.42558 74.2489 6.14584C74.7861 5.8549 75.3959 5.70943 76.0785 5.70943C76.873 5.70943 77.5891 5.90525 78.2269 6.2969C78.8759 6.68854 79.3851 7.24803 79.7543 7.97537C80.1348 8.69152 80.325 9.52517 80.325 10.4763C80.325 11.4274 80.1348 12.2723 79.7543 13.0108C79.3851 13.7381 78.8759 14.3032 78.2269 14.7061C77.5891 15.1089 76.873 15.3103 76.0785 15.3103C75.3959 15.3103 74.7916 15.1704 74.2657 14.8907C73.751 14.6109 73.3314 14.2585 73.0069 13.8333V19.5904H70.657V5.86049H73.0069V7.20328ZM77.9248 10.4763C77.9248 9.91681 77.8073 9.43565 77.5723 9.03281C77.3485 8.61879 77.0464 8.30547 76.666 8.09287C76.2967 7.88026 75.8939 7.77396 75.4574 7.77396C75.0322 7.77396 74.6294 7.88586 74.2489 8.10965C73.8797 8.32226 73.5776 8.63558 73.3426 9.0496C73.1188 9.46362 73.0069 9.95038 73.0069 10.5099C73.0069 11.0694 73.1188 11.5561 73.3426 11.9701C73.5776 12.3842 73.8797 12.7031 74.2489 12.9269C74.6294 13.1395 75.0322 13.2458 75.4574 13.2458C75.8939 13.2458 76.2967 13.1339 76.666 12.9101C77.0464 12.6863 77.3485 12.3674 77.5723 11.9534C77.8073 11.5393 77.9248 11.047 77.9248 10.4763Z" fill="#3F5878"/>
<path d="M84.3825 2.73853V15.1593H82.0326V2.73853H84.3825Z" fill="#3F5878"/>
<path d="M95.3483 10.3085C95.3483 10.6442 95.3259 10.9463 95.2812 11.2148H88.4833C88.5393 11.8862 88.7743 12.4121 89.1883 12.7926C89.6023 13.1731 90.1115 13.3633 90.7157 13.3633C91.5885 13.3633 92.2096 12.9884 92.5788 12.2387H95.1133C94.8448 13.1339 94.33 13.8724 93.5691 14.4543C92.8082 15.025 91.8739 15.3103 90.7661 15.3103C89.8709 15.3103 89.0652 15.1145 88.3491 14.7228C87.6441 14.32 87.0902 13.7549 86.6874 13.0276C86.2957 12.3002 86.0999 11.461 86.0999 10.5099C86.0999 9.54755 86.2957 8.70271 86.6874 7.97537C87.079 7.24803 87.6273 6.68854 88.3323 6.2969C89.0372 5.90525 89.8485 5.70943 90.7661 5.70943C91.6501 5.70943 92.4389 5.89966 93.1327 6.28011C93.8377 6.66057 94.3804 7.20328 94.7608 7.90824C95.1525 8.60201 95.3483 9.40208 95.3483 10.3085ZM92.9145 9.63707C92.9033 9.03281 92.6851 8.55165 92.2599 8.19358C91.8347 7.82431 91.3144 7.63968 90.6989 7.63968C90.1171 7.63968 89.6247 7.81872 89.2219 8.17679C88.8302 8.52368 88.5896 9.01043 88.5001 9.63707H92.9145Z" fill="#3F5878"/>
</svg>
