<?xml version="1.0" encoding="UTF-8"?> <svg xmlns="http://www.w3.org/2000/svg" width="1000" height="186" viewBox="0 0 1000 186" fill="none">
<path d="M997.407 87.0302L933.042 3.9052C931.363 1.67366 928.005 0 925.207 0H628.57V185.715H928.565C931.363 185.715 933.602 184.599 935.281 182.368L997.966 102.093C1000.76 97.6301 1000.76 91.4933 997.407 87.0302ZM769.053 152.861H668.308V31.7995H766.814V62.4833H708.606V76.4304H760.098V105.998H708.606V121.619H769.053V152.861ZM866.439 152.861L845.73 120.503L825.022 152.861H778.568L822.223 92.0512L779.687 32.3574H825.582L846.29 63.0411L866.439 32.3574H910.655L868.678 90.9354L913.453 153.419H866.439V152.861Z" fill="black"></path>
<path fill-rule="evenodd" clip-rule="evenodd" d="M668.152 152.856H768.897V121.615H708.45V105.994H759.942V76.4258H708.45V62.4787H766.658V31.7949H668.152V152.856ZM845.574 120.499L866.283 152.856V153.414H913.297L868.522 90.9309L910.499 32.3528H866.283L846.134 63.0365L825.425 32.3528H779.531L822.067 92.0466L778.411 152.856H824.866L845.574 120.499Z" fill="white"></path>
<path opacity="0.95" fill-rule="evenodd" clip-rule="evenodd" d="M26.5669 114.54C27.4103 120.624 29.0669 125.173 31.5367 128.184C36.055 133.667 43.7959 136.407 54.7598 136.407C61.3262 136.407 66.6577 135.684 70.7544 134.239C78.5255 131.468 82.4114 126.317 82.4114 118.787C82.4114 114.389 80.4833 110.986 76.628 108.576C72.7722 106.227 66.7181 104.148 58.4649 102.341L44.3683 99.178C30.5125 96.0456 20.9341 92.6418 15.6328 88.9669C6.65664 82.8221 2.16853 73.2136 2.16853 60.1412C2.16853 48.2131 6.50597 38.3037 15.1809 30.4117C23.8558 22.5202 36.5968 18.5742 53.4045 18.5742C67.4412 18.5742 79.4142 22.294 89.3218 29.7341C99.2321 37.1741 104.429 47.9722 104.912 62.1293H78.1642C77.682 54.1169 74.188 48.4241 67.682 45.0505C63.3445 42.8216 57.953 41.7071 51.507 41.7071C44.3381 41.7071 38.6151 43.153 34.338 46.0445C30.0605 48.936 27.9223 52.9722 27.9223 58.1531C27.9223 62.9123 30.0308 66.4668 34.2474 68.8161C36.9585 70.3825 42.7415 72.2195 51.5972 74.3281L74.5497 79.8404C84.6084 82.2502 92.2008 85.4728 97.32 89.5094C105.275 95.7746 109.25 104.841 109.25 116.709C109.25 128.877 104.597 138.983 95.287 147.025C85.981 155.068 72.8327 159.089 55.8445 159.089C38.4946 159.089 24.8499 155.128 14.9098 147.206C4.96981 139.284 0 128.396 0 114.54H26.5669ZM117.654 76.4064V58.0629H131.389V30.5926H156.872V58.0629H172.864V76.4064H156.872V128.456C156.872 132.492 157.382 135.007 158.404 136.001C159.432 136.995 162.561 137.492 167.805 137.492C168.587 137.492 169.415 137.477 170.287 137.447C171.164 137.417 172.022 137.371 172.864 137.311V156.559L160.666 157.011C148.499 157.432 140.185 155.324 135.727 150.685C132.835 147.733 131.389 143.185 131.389 137.04V76.4064H117.654ZM228.255 75.774C222.295 75.774 217.668 77.6417 214.387 81.3766C211.102 85.1115 209.039 90.172 208.197 96.5575H248.227C247.804 89.7503 245.741 84.5845 242.037 81.0602C238.334 77.536 233.737 75.774 228.255 75.774ZM228.255 54.5386C236.448 54.5386 243.829 56.0748 250.394 59.1472C256.963 62.2195 262.385 67.0689 266.662 73.6957C270.516 79.5392 273.016 86.3162 274.159 94.0273C274.824 98.5456 275.096 105.052 274.975 113.546H207.563C207.926 123.425 211.029 130.353 216.873 134.329C220.426 136.799 224.703 138.034 229.701 138.034C235.006 138.034 239.309 136.528 242.624 133.516C244.433 131.89 246.03 129.63 247.416 126.739H273.711C273.046 132.582 270.003 138.516 264.582 144.54C256.147 154.119 244.342 158.908 229.162 158.908C216.632 158.908 205.577 154.872 195.995 146.799C186.417 138.727 181.631 125.594 181.631 107.401C181.631 90.3524 185.951 77.28 194.597 68.1834C203.242 59.0867 214.46 54.5386 228.255 54.5386ZM346.63 107.763C345.007 108.787 343.363 109.615 341.71 110.248C340.052 110.88 337.778 111.467 334.886 112.009L329.102 113.094C323.681 114.058 319.796 115.232 317.443 116.618C313.468 118.967 311.483 122.612 311.483 127.552C311.483 131.95 312.7 135.127 315.143 137.085C317.582 139.043 320.547 140.022 324.043 140.022C329.585 140.022 334.691 138.396 339.357 135.142C344.028 131.89 346.453 125.956 346.63 117.341V107.763ZM331.001 95.7443C335.758 95.1418 339.163 94.389 341.209 93.4852C344.887 91.9188 346.721 89.4792 346.721 86.1656C346.721 82.1294 345.323 79.3432 342.521 77.807C339.72 76.2708 335.606 75.503 330.185 75.503C324.103 75.503 319.796 77.0089 317.266 80.0213C315.458 82.2502 314.254 85.2622 313.649 89.0575H288.8C289.344 80.4426 291.753 73.3642 296.03 67.8221C302.837 59.1471 314.521 54.8097 331.092 54.8097C341.874 54.8097 351.452 56.9484 359.825 61.2255C368.199 65.5029 372.386 73.5753 372.386 85.443V130.624C372.386 133.757 372.446 137.552 372.567 142.01C372.748 145.384 373.258 147.673 374.104 148.878C374.945 150.082 376.21 151.076 377.898 151.86V155.655H349.885C349.104 153.667 348.56 151.799 348.258 150.052C347.96 148.305 347.718 146.317 347.537 144.088C343.98 147.944 339.884 151.227 335.248 153.938C329.706 157.131 323.439 158.727 316.451 158.727C307.538 158.727 300.17 156.182 294.355 151.092C288.546 146.001 285.637 138.787 285.637 129.45C285.637 117.341 290.307 108.576 299.643 103.154C304.766 100.202 312.294 98.0937 322.235 96.8286L331.001 95.7443ZM421.544 155.655H395.789V22.4598H421.544V155.655ZM436.544 76.4064V58.0629H450.278V30.5926H475.762V58.0629H491.754V76.4064H475.762V128.456C475.762 132.492 476.275 135.007 477.298 136.001C478.321 136.995 481.455 137.492 486.695 137.492C487.48 137.492 488.305 137.477 489.181 137.447C490.053 137.417 490.912 137.371 491.754 137.311V156.559L479.556 157.011C467.388 157.432 459.075 155.324 454.616 150.685C451.724 147.733 450.278 143.185 450.278 137.04V76.4064H436.544ZM562.602 54.6293C568.683 54.6293 574.212 55.6833 579.181 57.7918C584.153 59.9003 588.232 63.1233 591.426 67.4608C594.137 71.1353 595.794 74.9155 596.394 78.8011C596.998 82.6866 597.3 89.0273 597.3 97.8226V155.655H571.005V95.7443C571.005 90.443 570.099 86.166 568.295 82.9128C565.942 78.3345 561.484 76.0451 554.919 76.0451C548.112 76.0451 542.945 78.3194 539.423 82.8675C535.897 87.416 534.135 93.9069 534.135 102.341V155.655H508.471V22.9117H534.135V69.9906C537.869 64.2676 542.194 60.2767 547.102 58.0176C552.014 55.7584 557.18 54.6293 562.602 54.6293Z" fill="var(--main-font-color)"></path>
</svg> 