<svg width="201" height="64" viewBox="0 0 201 64" fill="none" xmlns="http://www.w3.org/2000/svg">
<g clip-path="url(#clip0_3242_544)">
<path d="M31.9434 0.0947266C14.3018 0.0947266 0 14.3965 0 32.0397C0 49.6828 14.3018 63.9831 31.9434 63.9831C49.5851 63.9831 63.8869 49.6813 63.8869 32.0397C63.8869 14.398 49.5851 0.0947266 31.9434 0.0947266ZM52.1139 33.592C51.6492 34.0565 51.0191 34.3174 50.362 34.3174C49.7051 34.3174 49.0749 34.0565 48.6102 33.592L43.8013 28.7816V41.2839C43.8013 41.9412 43.5402 42.5715 43.0755 43.0362C42.6107 43.501 41.9804 43.7621 41.3232 43.7621C40.6659 43.7621 40.0356 43.501 39.5709 43.0362C39.1061 42.5715 38.845 41.9412 38.845 41.2839V28.8143L24.6296 43.0298C24.579 43.0804 24.5269 43.125 24.4807 43.1697L24.4554 43.192C24.3707 43.2617 24.2811 43.3253 24.1875 43.3825L24.131 43.4153C24.0354 43.4719 23.936 43.5217 23.8333 43.5641C23.7604 43.5939 23.6845 43.6207 23.613 43.643H23.6011C23.5327 43.6638 23.4627 43.6802 23.3927 43.6951H23.3645C23.302 43.7085 23.238 43.7159 23.174 43.7234H23.1248C23.0574 43.7293 22.9904 43.7323 22.9239 43.7323H22.8867C22.8063 43.7323 22.726 43.7323 22.6456 43.7204H22.6233C22.2239 43.6799 21.8403 43.543 21.5055 43.3215C21.44 43.2769 21.3745 43.2292 21.312 43.1727C21.2468 43.1202 21.1847 43.064 21.126 43.0045L11.773 33.6769C11.3265 33.2086 11.0808 32.5842 11.0885 31.9373C11.0962 31.2903 11.3567 30.6719 11.8142 30.2144C12.2717 29.7569 12.89 29.4964 13.537 29.4887C14.184 29.4811 14.8084 29.7267 15.2767 30.1732L20.3996 35.2962V22.7939C20.3996 22.1366 20.6607 21.5063 21.1255 21.0416C21.5902 20.5768 22.2205 20.3157 22.8778 20.3157C23.535 20.3157 24.1653 20.5768 24.6301 21.0416C25.0948 21.5063 25.3559 22.1366 25.3559 22.7939V35.2962L39.3883 21.2624C39.7663 20.7774 40.3129 20.4523 40.9195 20.3517C41.5261 20.2511 42.1483 20.3822 42.6627 20.7191C42.685 20.7325 42.7059 20.7444 42.7267 20.7593C42.7743 20.7905 42.819 20.8248 42.8636 20.8605C42.9272 20.9069 42.9883 20.9566 43.0467 21.0093L43.0824 21.0406L43.0988 21.057L52.1213 30.0795C52.352 30.3103 52.5348 30.5844 52.6593 30.8861C52.7837 31.1877 52.8475 31.511 52.8468 31.8373C52.8461 32.1636 52.781 32.4866 52.6552 32.7877C52.5294 33.0888 52.3455 33.3622 52.1139 33.592Z" fill="black"/>
<path d="M75.0469 24.5836H82.3994V43.7895H86.8035V24.5836H94.1561V20.4697H75.0469V24.5836Z" fill="black"/>
<path d="M103.807 26.2598C103.285 26.296 102.769 26.3883 102.268 26.5352C101.785 26.6757 101.322 26.8794 100.892 27.1409C100.352 27.4565 99.8784 27.8752 99.4993 28.3733C99.3204 28.6097 99.1582 28.8584 99.0141 29.1175V26.3H95.1279V43.7899H99.5722V34.8507C99.5604 34.2373 99.6505 33.6262 99.8386 33.0423C100.009 32.5255 100.286 32.0503 100.652 31.6473C101.017 31.2442 101.463 30.9224 101.961 30.7026C102.508 30.4465 103.098 30.2951 103.701 30.2561C104.27 30.1997 104.844 30.2502 105.395 30.4049V26.3C104.868 26.2346 104.336 26.2211 103.807 26.2598Z" fill="black"/>
<path d="M122.106 28.9872C121.533 27.86 120.564 26.9839 119.385 26.5269C118.187 26.0506 116.816 25.8125 115.271 25.8125C113.166 25.8125 111.504 26.2665 110.283 27.1744C109.088 28.0458 108.212 29.2863 107.79 30.7048L111.773 31.9669C112.055 31.1672 112.546 30.6115 113.247 30.2999C113.881 30.0017 114.571 29.8414 115.271 29.8296C116.438 29.8296 117.269 30.0727 117.765 30.5589C118.154 30.9385 118.386 31.4936 118.469 32.211C117.725 32.3226 117.018 32.4283 116.356 32.5251C115.224 32.6928 114.209 32.8684 113.312 33.0519C112.526 33.206 111.752 33.4169 110.996 33.683C110.172 33.9644 109.41 34.4037 108.753 34.9764C108.215 35.4629 107.801 36.0713 107.546 36.7505C107.292 37.4618 107.166 38.2128 107.174 38.9682C107.164 39.8996 107.396 40.8176 107.847 41.6324C108.307 42.4529 108.992 43.1244 109.822 43.5673C110.691 44.0485 111.752 44.2887 113.004 44.2877C114.516 44.2877 115.766 44.0257 116.753 43.5018C117.601 43.0292 118.351 42.3993 118.964 41.6458V43.8025H122.819V33.0996C122.822 32.3755 122.789 31.6518 122.72 30.931C122.645 30.2489 122.437 29.5883 122.106 28.9872ZM117.992 38.4771C117.81 38.8132 117.584 39.1236 117.32 39.3998C116.941 39.8045 116.491 40.1364 115.993 40.3792C115.354 40.6837 114.651 40.8307 113.943 40.8078C113.496 40.8189 113.05 40.7421 112.632 40.5816C112.291 40.4513 111.995 40.2236 111.782 39.9267C111.578 39.6236 111.474 39.2638 111.485 38.8983C111.481 38.6224 111.545 38.35 111.672 38.105C111.815 37.8456 112.014 37.6213 112.254 37.4486C112.576 37.2182 112.926 37.0306 113.296 36.8905C113.725 36.7347 114.163 36.605 114.607 36.502C115.103 36.3829 115.757 36.2505 116.567 36.1046C117.084 36.0123 117.715 35.9022 118.435 35.7801C118.426 36.0912 118.413 36.4261 118.389 36.822C118.365 37.3942 118.23 37.9564 117.992 38.4771Z" fill="black"/>
<path d="M142.979 30.4702C142.764 29.6737 142.417 28.919 141.952 28.2376C141.434 27.4935 140.742 26.8875 139.935 26.4724C139.072 26.009 137.955 25.7773 136.584 25.7773C134.867 25.7773 133.445 26.1494 132.317 26.8936C131.799 27.2356 131.328 27.6434 130.916 28.1066V26.2998H126.997V43.7896H131.462V34.916C131.462 33.8245 131.583 32.9498 131.825 32.292C132.067 31.6341 132.38 31.135 132.763 30.7946C133.108 30.4727 133.524 30.2366 133.978 30.1055C134.373 29.9917 134.781 29.9317 135.192 29.9269C136.131 29.9269 136.857 30.1378 137.37 30.5595C137.877 30.9711 138.261 31.5144 138.48 32.1297C138.701 32.7315 138.837 33.3612 138.885 34.0006C138.928 34.6208 138.95 35.1308 138.949 35.5306V43.7896H143.414V33.9753C143.414 33.6776 143.393 33.2207 143.35 32.5822C143.294 31.868 143.17 31.1608 142.979 30.4702Z" fill="black"/>
<path d="M159.473 34.5306C158.667 34.0741 157.601 33.6723 156.275 33.325C154.914 32.9797 153.902 32.6989 153.238 32.4825C152.575 32.2662 152.137 32.0559 151.927 31.8515C151.824 31.7536 151.742 31.6353 151.688 31.504C151.633 31.3728 151.607 31.2315 151.61 31.0894C151.61 30.5819 151.856 30.1964 152.347 29.924C152.838 29.6517 153.49 29.5475 154.298 29.6011C155.13 29.6656 155.788 29.8868 156.275 30.2649C156.514 30.4495 156.712 30.6814 156.857 30.9463C157.002 31.2111 157.09 31.5031 157.117 31.8039L161.619 30.9927C161.487 29.9788 161.068 29.0237 160.412 28.2392C159.72 27.4351 158.837 26.8174 157.845 26.4427C156.682 26.0025 155.445 25.7878 154.201 25.8102C152.787 25.8102 151.559 26.0344 150.518 26.4829C149.543 26.8766 148.702 27.5407 148.093 28.397C147.511 29.2587 147.211 30.2804 147.236 31.3201C147.212 32.121 147.407 32.913 147.801 33.6107C148.179 34.2438 148.795 34.7866 149.648 35.239C150.502 35.6915 151.643 36.1018 153.072 36.4699C154.334 36.8053 155.265 37.0752 155.864 37.2796C156.459 37.485 156.849 37.6918 157.022 37.9032C157.204 38.1418 157.296 38.437 157.281 38.7367C157.291 38.9886 157.236 39.2388 157.123 39.464C157.01 39.6892 156.841 39.8819 156.633 40.0241C156.199 40.3307 155.585 40.484 154.791 40.484C153.818 40.484 153.017 40.2519 152.386 39.7875C151.75 39.3186 151.314 38.628 151.164 37.8526L146.655 38.5492C146.947 40.3739 147.77 41.7859 149.124 42.7851C150.479 43.7843 152.258 44.2834 154.46 44.2824C156.749 44.2824 158.541 43.7694 159.836 42.7434C161.131 41.7174 161.781 40.3064 161.786 38.5105C161.81 37.7006 161.62 36.8988 161.235 36.1856C160.865 35.5446 160.278 34.9929 159.473 34.5306Z" fill="black"/>
<path d="M179.303 28.9872C178.73 27.8603 177.761 26.9843 176.582 26.5269C175.384 26.0506 174.012 25.8125 172.468 25.8125C170.364 25.8125 168.701 26.2665 167.481 27.1744C166.285 28.0461 165.409 29.2865 164.986 30.7048L168.971 31.9669C169.252 31.1672 169.744 30.6115 170.444 30.2999C171.078 30.0017 171.768 29.8414 172.468 29.8296C173.635 29.8296 174.467 30.0727 174.963 30.5589C175.351 30.9385 175.582 31.4936 175.667 32.211C174.923 32.3226 174.216 32.4283 173.553 32.5251C172.421 32.6928 171.407 32.8684 170.51 33.0519C169.723 33.206 168.949 33.4169 168.194 33.683C167.255 34.0303 166.507 34.4594 165.951 34.9705C165.412 35.457 164.999 36.0653 164.744 36.7446C164.488 37.4557 164.362 38.2068 164.372 38.9623C164.361 39.8936 164.593 40.8117 165.044 41.6265C165.504 42.4472 166.189 43.1188 167.019 43.5613C167.889 44.0426 168.949 44.2827 170.202 44.2817C171.714 44.2817 172.963 44.0198 173.951 43.4958C174.799 43.0232 175.549 42.3933 176.161 41.6399V43.7965H180.016V33.0996C180.019 32.3755 179.987 31.6518 179.918 30.931C179.843 30.2489 179.634 29.5883 179.303 28.9872ZM175.189 38.4771C175.007 38.8132 174.782 39.1236 174.518 39.3998C174.139 39.8045 173.689 40.1364 173.19 40.3792C172.551 40.6837 171.848 40.8307 171.141 40.8078C170.693 40.8189 170.248 40.7421 169.829 40.5816C169.488 40.4513 169.193 40.2236 168.98 39.9267C168.775 39.6236 168.671 39.2638 168.682 38.8983C168.678 38.6224 168.743 38.35 168.869 38.105C169.012 37.8452 169.211 37.6208 169.451 37.4486C169.773 37.2182 170.123 37.0306 170.493 36.8905C170.922 36.7345 171.36 36.6048 171.805 36.502C172.301 36.3829 172.954 36.2505 173.765 36.1046C174.281 36.0123 174.912 35.9022 175.633 35.7801C175.624 36.0912 175.609 36.4261 175.586 36.822C175.561 37.3941 175.426 37.956 175.189 38.4771Z" fill="black"/>
<path d="M193.748 35.0439L200.063 26.2997H194.621L188.695 34.7209V20.4697H184.225L184.192 43.7895H188.695V35.3683L194.751 43.7895H200.484L193.748 35.0439Z" fill="black"/>
</g>
<defs>
<clipPath id="clip0_3242_544">
<rect width="200.484" height="64" fill="white"/>
</clipPath>
</defs>
</svg>
