<svg xmlns="http://www.w3.org/2000/svg" width="170" height="49" fill="none" viewBox="0 0 183 49">
  <rect width="181.143" height="48" x=".5" y=".5" fill="transparent" stroke="var(--buy-card-border)" rx="9.5"/>
  <g clip-path="url(#a)">
    <path fill="#3564AF" d="M70.078 17.031a9242.5 9242.5 0 0 1-4.122 13.06h-2.373a.809.809 0 0 1-.382-.097.85.85 0 0 1-.298-.268.903.903 0 0 1-.116-.791v-.018l3.782-11.91h-5.082l-3.839 12.168a3.039 3.039 0 0 0-.11 1.344c.064.45.228.88.48 1.251.25.372.581.677.966.89.384.214.811.33 1.246.339h9.905l3.804-12.075-2.048.56 4.03-4.453h-5.843Zm17.902.012-10.88.02 1.3 4.422-1.752-.558-3.8 12.005H77.9l1.632-5.007h5.07a5.488 5.488 0 0 0 3.322-1.13 5.921 5.921 0 0 0 2.057-2.957l.528-1.69c1.528-4.837-1.714-5.105-2.53-5.105Zm-3.035 2.825a.81.81 0 0 1 .382.097.85.85 0 0 1 .298.268.904.904 0 0 1 .116.791l-.915 2.875a1.761 1.761 0 0 1-.613.873 1.633 1.633 0 0 1-.984.333h-2.83l1.666-5.237h2.88Z"/>
    <path fill="#253D83" d="M103.38 22.17h-5.25l1.624-5.13h-5.149l-5.022 15.937h10.068a5.65 5.65 0 0 0 3.412-1.156 6.094 6.094 0 0 0 2.12-3.029l.764-2.415c.379-1.184.57-4.207-2.567-4.207Zm-2.444 3.966-.906 2.836a1.745 1.745 0 0 1-.607.861 1.615 1.615 0 0 1-.972.328h-2.844l1.632-5.211 3.011-.008c.439 0 1.001.189.686 1.194Zm10.12-9.087h5.118l-1.289 4.08-5.117.014 1.288-4.094Zm-1.998 6.318h5.125l-3.019 9.605h-5.125l3.019-9.605Zm11.067 5.273 1.156-3.659h2.323l.894-2.782h-2.33l1.66-5.193-5.171.046-3.771 12.085a3.08 3.08 0 0 0 .405 2.656c.264.378.609.684 1.008.894.399.21.84.317 1.286.314l4.767-.043.889-2.825h-2.09c-.171 0-.34-.042-.493-.124a1.093 1.093 0 0 1-.385-.347 1.172 1.172 0 0 1-.148-1.022Z"/>
  </g>
  <defs>
    <clipPath id="a">
      <path fill="#fff" d="M57.5 17h67v16h-67z"/>
    </clipPath>
  </defs>
</svg>
