<svg width="24" height="24" viewBox="0 0 24 24" fill="none" xmlns="http://www.w3.org/2000/svg">
<circle cx="12" cy="12" r="7.5" stroke="var(--main-font-color)"/>
<path d="M14.5 12C14.5 14.1651 14.1701 16.1029 13.6532 17.4813C13.394 18.1723 13.0975 18.6969 12.7936 19.0396C12.4892 19.383 12.2199 19.5 12 19.5C11.7801 19.5 11.5108 19.383 11.2064 19.0396C10.9025 18.6969 10.606 18.1723 10.3468 17.4813C9.82994 16.1029 9.5 14.1651 9.5 12C9.5 9.83494 9.82994 7.89713 10.3468 6.51871C10.606 5.82765 10.9025 5.30314 11.2064 4.96038C11.5108 4.61704 11.7801 4.5 12 4.5C12.2199 4.5 12.4892 4.61704 12.7936 4.96038C13.0975 5.30314 13.394 5.82765 13.6532 6.51871C14.1701 7.89713 14.5 9.83494 14.5 12Z" stroke="var(--main-font-color)"/>
<path d="M4.5 12H19.5" stroke="var(--main-font-color)" stroke-linecap="round"/>
<path d="M16.9546 17.8339C16.4177 16.9823 15.7014 16.2814 14.8651 15.7889C14.0287 15.2965 13.0962 15.0267 12.1446 15.0019C11.1929 14.977 10.2495 15.1978 9.39221 15.646C8.53491 16.0943 7.78836 16.757 7.21422 17.5795" stroke="var(--main-font-color)"/>
<path d="M16.929 6.20637C16.3862 7.05353 15.6651 7.74862 14.8254 8.23422C13.9856 8.71983 13.0513 8.98201 12.0995 8.99911C11.1477 9.01621 10.2058 8.78773 9.35168 8.33256C8.49751 7.87739 7.75558 7.20858 7.18716 6.38139" stroke="var(--main-font-color)"/>
</svg>
