<svg width="20" height="20" viewBox="0 0 20 20" fill="none" xmlns="http://www.w3.org/2000/svg">
<path d="M17.2444 14.4411C17.5422 13.3299 17.5803 12.1651 17.3559 11.0368C17.1315 9.90852 16.6505 8.84697 15.9502 7.93429C15.2498 7.02161 14.3489 6.28227 13.3172 5.77345C12.2854 5.26464 11.1504 5 10 5C8.84959 5 7.7146 5.26464 6.68283 5.77345C5.65107 6.28227 4.75017 7.02161 4.04985 7.93429C3.34953 8.84697 2.86854 9.90852 2.64411 11.0368C2.41968 12.1651 2.45781 13.3299 2.75556 14.4411" stroke="#E37E13" stroke-linecap="round"/>
<path d="M11.6667 13.7467C11.6667 14.4639 10.9205 15.0454 9.99999 15.0454C9.07952 15.0454 8.33333 14.4639 8.33333 13.7467C8.33333 13.0218 9.02991 9.59745 9.52241 7.26697C9.63323 6.74255 10.3668 6.74255 10.4776 7.26697C10.9701 9.59745 11.6667 13.0218 11.6667 13.7467Z" stroke="#E37E13"/>
<path d="M10 5V6.66667" stroke="#E37E13" stroke-linecap="round"/>
<path d="M4.69666 7.19645L5.87517 8.37496" stroke="#E37E13" stroke-linecap="round"/>
<path d="M15.3033 7.19645L14.1248 8.37496" stroke="#E37E13" stroke-linecap="round"/>
</svg>
