<svg width="20" height="20" viewBox="0 0 20 20" fill="none" xmlns="http://www.w3.org/2000/svg">
<path d="M17.2444 14.4411C17.5422 13.3299 17.5803 12.1651 17.3559 11.0368C17.1315 9.90852 16.6505 8.84697 15.9502 7.93429C15.2498 7.02161 14.3489 6.28227 13.3172 5.77345C12.2854 5.26464 11.1504 5 10 5C8.84959 5 7.7146 5.26464 6.68283 5.77345C5.65107 6.28227 4.75017 7.02161 4.04985 7.93429C3.34953 8.84697 2.86854 9.90852 2.64411 11.0368C2.41968 12.1651 2.45781 13.3299 2.75556 14.4411" stroke="#2AA034" stroke-linecap="round"/>
<path d="M10.0362 12.5454C10.7535 12.5454 11.3349 13.2916 11.3349 14.212C11.3349 15.1325 10.7535 15.8787 10.0362 15.8787C9.31129 15.8787 5.88697 15.1821 3.5565 14.6896C3.03208 14.5788 3.03208 13.8453 3.5565 13.7345C5.88697 13.242 9.31129 12.5454 10.0362 12.5454Z" stroke="#2AA034"/>
<path d="M10 5V6.66667" stroke="#2AA034" stroke-linecap="round"/>
<path d="M4.69666 7.19645L5.87517 8.37496" stroke="#2AA034" stroke-linecap="round"/>
<path d="M15.3033 7.19645L14.1248 8.37496" stroke="#2AA034" stroke-linecap="round"/>
</svg>
