<svg width="20" height="20" viewBox="0 0 20 20" fill="none" xmlns="http://www.w3.org/2000/svg">
<path d="M10 12.5C11.3807 12.5 12.5 11.3807 12.5 10C12.5 8.61929 11.3807 7.5 10 7.5C8.61929 7.5 7.5 8.61929 7.5 10C7.5 11.3807 8.61929 12.5 10 12.5Z" stroke="var(--main-font-color)" stroke-width="1.27" stroke-miterlimit="10" stroke-linecap="round" stroke-linejoin="round"/>
<path d="M1.66699 10.7329V9.26621C1.66699 8.39954 2.37533 7.68287 3.25033 7.68287C4.75866 7.68287 5.37533 6.61621 4.61699 5.30787C4.18366 4.55787 4.44199 3.58287 5.20033 3.14954L6.64199 2.32454C7.30033 1.93287 8.15033 2.16621 8.54199 2.82454L8.63366 2.98287C9.38366 4.29121 10.617 4.29121 11.3753 2.98287L11.467 2.82454C11.8587 2.16621 12.7087 1.93287 13.367 2.32454L14.8087 3.14954C15.567 3.58287 15.8253 4.55787 15.392 5.30787C14.6337 6.61621 15.2503 7.68287 16.7587 7.68287C17.6253 7.68287 18.342 8.39121 18.342 9.26621V10.7329C18.342 11.5995 17.6337 12.3162 16.7587 12.3162C15.2503 12.3162 14.6337 13.3829 15.392 14.6912C15.8253 15.4495 15.567 16.4162 14.8087 16.8495L13.367 17.6745C12.7087 18.0662 11.8587 17.8329 11.467 17.1745L11.3753 17.0162C10.6253 15.7079 9.39199 15.7079 8.63366 17.0162L8.54199 17.1745C8.15033 17.8329 7.30033 18.0662 6.64199 17.6745L5.20033 16.8495C4.44199 16.4162 4.18366 15.4412 4.61699 14.6912C5.37533 13.3829 4.75866 12.3162 3.25033 12.3162C2.37533 12.3162 1.66699 11.5995 1.66699 10.7329Z" stroke="var(--main-font-color)" stroke-width="1.27" stroke-miterlimit="10" stroke-linecap="round" stroke-linejoin="round"/>
</svg>
