<svg width="20" height="20" viewBox="0 0 20 20" fill="none" xmlns="http://www.w3.org/2000/svg">
<circle cx="10" cy="10" r="9.5" stroke="#FF0000"/>
<path d="M12.7071 7.23C12.7804 7.31667 12.8171 7.40667 12.8171 7.5C12.8171 7.54 12.8138 7.58333 12.8071 7.63C12.8071 7.67 12.8038 7.70667 12.7971 7.74C12.7771 7.81333 12.7338 7.88333 12.6671 7.95C12.6138 7.99 12.5404 8.02 12.4471 8.04C12.4004 8.05333 12.3538 8.06333 12.3071 8.07C12.2604 8.07667 12.2104 8.08667 12.1571 8.1C12.1104 8.10667 12.0638 8.11 12.0171 8.11C11.9704 8.11 11.9204 8.11 11.8671 8.11H11.3571C11.2371 8.11667 11.1171 8.12 10.9971 8.12C10.8838 8.12 10.7704 8.12 10.6571 8.12C10.6638 8.32667 10.6671 8.55 10.6671 8.79C10.6671 9.02333 10.6638 9.29667 10.6571 9.61C10.6571 9.92333 10.6538 10.2867 10.6471 10.7C10.6471 11.1133 10.6471 11.5933 10.6471 12.14V12.9C10.6471 12.9667 10.6504 13.0167 10.6571 13.05C10.6571 13.0767 10.6571 13.1033 10.6571 13.13C10.6571 13.15 10.6538 13.1767 10.6471 13.21C10.6338 13.27 10.6238 13.34 10.6171 13.42C10.6171 13.4533 10.6138 13.4867 10.6071 13.52C10.6004 13.5467 10.5904 13.5767 10.5771 13.61C10.5504 13.6367 10.5371 13.6567 10.5371 13.67L10.5071 13.73C10.4738 13.7967 10.4104 13.86 10.3171 13.92C10.1704 13.9933 10.0071 14.01 9.82711 13.97C9.71378 13.9567 9.62711 13.9267 9.56711 13.88C9.50711 13.82 9.46378 13.76 9.43711 13.7C9.39711 13.6267 9.37378 13.5567 9.36711 13.49C9.34711 13.43 9.33711 13.3667 9.33711 13.3V8.16C9.29711 8.16 9.21378 8.16 9.08711 8.16C8.96044 8.16 8.82378 8.16 8.67711 8.16C8.53711 8.15333 8.40378 8.14667 8.27711 8.14C8.15044 8.13333 8.06378 8.12667 8.01711 8.12C7.97711 8.11333 7.91378 8.10333 7.82711 8.09C7.74711 8.07667 7.68044 8.06333 7.62711 8.05C7.48711 8.01 7.37711 7.94667 7.29711 7.86C7.22378 7.77333 7.18711 7.67667 7.18711 7.57C7.18711 7.53 7.18711 7.49 7.18711 7.45C7.18711 7.41 7.19378 7.37333 7.20711 7.34C7.22711 7.26 7.28044 7.19333 7.36711 7.14C7.39378 7.12 7.43378 7.09667 7.48711 7.07C7.54711 7.03667 7.60378 7.01333 7.65711 7C7.73711 6.97333 7.83711 6.95333 7.95711 6.94C8.01044 6.93333 8.06378 6.93 8.11711 6.93C8.17044 6.93 8.22711 6.93 8.28711 6.93C8.52044 6.93 8.74044 6.93 8.94711 6.93C9.16044 6.93 9.38378 6.92667 9.61711 6.92C10.0038 6.91333 10.3871 6.91333 10.7671 6.92C11.1538 6.92 11.5371 6.92667 11.9171 6.94C12.0038 6.94667 12.0871 6.95667 12.1671 6.97C12.2471 6.98333 12.3271 7.00667 12.4071 7.04C12.4671 7.06 12.5238 7.08667 12.5771 7.12C12.6304 7.14667 12.6738 7.18333 12.7071 7.23Z" fill="#FF0000"/>
</svg>
