<svg xmlns="http://www.w3.org/2000/svg" width="45" height="40" fill="none" viewBox="0 0 45 40">
  <path stroke="var(--menu-icon-color)" stroke-linecap="round" stroke-linejoin="round" stroke-miterlimit="10" d="M27.843 22.198a5.681 5.681 0 0 1-5.7 1.402l-3.533 3.525c-.255.263-.758.42-1.117.368l-1.635-.225c-.54-.075-1.043-.585-1.126-1.125l-.224-1.635c-.053-.36.12-.863.367-1.118l3.525-3.525a5.677 5.677 0 0 1 9.435-5.7 5.683 5.683 0 0 1 .008 8.033Zm-9.675 1.92 1.724 1.725"/>
  <path stroke="var(--menu-icon-color)" stroke-linecap="round" stroke-linejoin="round" d="M23.875 19.25a1.125 1.125 0 1 0 0-2.25 1.125 1.125 0 0 0 0 2.25Z"/>
  <rect width="43.37" height="38.948" x=".423" y="-.423" stroke="var(--menu-icon-border-color)" stroke-width="var(--menu-icon-border-width)" rx="19.474" transform="matrix(1 0 0 -1 0 38.948)"/>
</svg>
