<svg xmlns="http://www.w3.org/2000/svg" width="45" height="40" fill="none" viewBox="0 0 45 40">
  <path stroke="var(--menu-icon-color)" stroke-linecap="round" stroke-linejoin="round" d="M18.25 17H16c-.825 0-1.5-.674-1.5-1.5V14c0-.825.675-1.5 1.5-1.5h2.25c.825 0 1.5.675 1.5 1.5v1.5c0 .826-.675 1.5-1.5 1.5Zm10.35-.75h-2.7a.903.903 0 0 1-.9-.9v-1.2c0-.495.405-.9.9-.9h2.7c.495 0 .9.405.9.9v1.2c0 .495-.405.9-.9.9Zm0 5.625h-2.7a.903.903 0 0 1-.9-.9v-1.2c0-.495.405-.9.9-.9h2.7c.495 0 .9.405.9.9v1.2c0 .495-.405.9-.9.9Z"/>
  <path stroke="var(--menu-icon-color)" stroke-linecap="round" stroke-linejoin="round" stroke-miterlimit="10" d="M19.75 14.75H25"/>
  <path fill="#fff" d="M22.375 14.75v9.75c0 .826.675 1.5 1.5 1.5H25"/>
  <path stroke="var(--menu-icon-color)" stroke-linecap="round" stroke-linejoin="round" stroke-miterlimit="10" d="M22.375 14.75v9.75c0 .826.675 1.5 1.5 1.5H25m-2.625-5.625H25"/>
  <path stroke="var(--menu-icon-color)" stroke-linecap="round" stroke-linejoin="round" d="M28.6 27.5h-2.7a.903.903 0 0 1-.9-.9v-1.2c0-.495.405-.9.9-.9h2.7c.495 0 .9.405.9.9v1.2c0 .495-.405.9-.9.9Z"/>
  <rect width="43.37" height="38.948" x=".423" y="-.423" stroke="var(--menu-icon-border-color)" stroke-width="var(--menu-icon-border-width)" rx="19.474" transform="matrix(1 0 0 -1 0 38.948)"/>
</svg>
