<svg xmlns="http://www.w3.org/2000/svg" width="20" height="25" fill="none" viewBox="0 0 20 20">
  <path fill="#E31337" d="M2.27 1.148c-.493.19-.944.659-1.13 1.162-.107.306-.14.544-.14 1.067 0 .796.133 1.244.498 1.686.552.66 1.588.863 2.372.47.426-.218.738-.545.944-.993.12-.265.14-.442.14-1.163 0-.795-.014-.877-.187-1.237a1.962 1.962 0 0 0-2.498-.992Zm1.049 1.305c.252.136.339.374.339.924s-.087.789-.34.925c-.345.183-.763.054-.91-.279-.106-.238-.1-1.115.014-1.319.173-.32.558-.428.897-.251ZM7.85 1.092c-.312.177-.418.571-.246.918.127.245.366.347.838.347h.398v2.04h-.398c-.472 0-.711.101-.838.346-.179.353-.053.781.273.931.266.122 3.036.116 3.282-.014.313-.17.419-.564.246-.917-.126-.245-.365-.347-.837-.347h-.399V2.97c0-1.557-.033-1.734-.365-1.89-.246-.116-1.748-.102-1.954.013Zm7.44.056c-.491.19-.943.659-1.129 1.162-.106.306-.14.544-.14 1.067 0 .796.133 1.244.499 1.686.551.66 1.588.863 2.372.47a2.03 2.03 0 0 0 .943-.993c.12-.265.14-.442.14-1.163 0-.795-.013-.877-.186-1.237a1.962 1.962 0 0 0-2.498-.992Zm1.05 1.305c.253.136.34.374.34.924s-.087.789-.34.925c-.345.183-.764.054-.91-.279-.106-.238-.1-1.115.013-1.319.173-.32.559-.428.897-.251ZM1.338 7.214c-.313.176-.419.57-.246.917.126.245.365.347.837.347h.399v2.04h-.399c-.472 0-.711.101-.837.346-.18.353-.053.782.272.931.266.123 3.037.116 3.283-.014.312-.17.418-.564.245-.917-.126-.245-.365-.347-.837-.347h-.398V9.09c0-1.557-.034-1.734-.366-1.89-.246-.116-1.747-.102-1.953.014Zm7.444.053c-.492.19-.944.66-1.13 1.162-.106.306-.14.544-.14 1.067 0 .796.134 1.244.499 1.686.552.66 1.588.864 2.372.47.425-.218.738-.545.944-.993.12-.265.14-.442.14-1.163 0-.795-.014-.877-.187-1.237a1.962 1.962 0 0 0-2.498-.992Zm1.05 1.305c.252.136.338.374.338.924 0 .551-.086.789-.338.925-.346.183-.765.054-.91-.279-.107-.238-.1-1.115.013-1.319.172-.32.558-.428.897-.251Zm4.531-1.358c-.312.176-.419.57-.246.917.126.245.366.347.837.347h.399v2.04h-.399c-.471 0-.71.101-.837.346-.18.353-.053.782.273.931.265.123 3.036.116 3.282-.014.312-.17.419-.564.246-.917-.126-.245-.366-.347-.837-.347h-.4V9.09c0-1.557-.032-1.734-.364-1.89-.246-.116-1.748-.102-1.954.014ZM2.27 13.386c-.493.19-.944.66-1.13 1.162-.107.306-.14.544-.14 1.068 0 .795.133 1.244.498 1.685.552.66 1.588.864 2.372.47.426-.218.738-.544.944-.993.12-.265.14-.442.14-1.162 0-.796-.014-.877-.187-1.238a1.962 1.962 0 0 0-2.498-.992Zm1.049 1.305c.252.136.339.374.339.925 0 .55-.087.788-.34.924-.345.184-.763.054-.91-.279-.106-.238-.1-1.114.014-1.318.173-.32.558-.429.897-.252ZM7.85 13.33c-.312.178-.418.572-.246.918.127.245.366.347.838.347h.398v2.04h-.398c-.472 0-.711.101-.838.346-.179.353-.053.782.273.931.266.123 3.036.116 3.282-.013.313-.17.419-.565.246-.918-.126-.245-.365-.347-.837-.347h-.399v-1.427c0-1.557-.033-1.734-.365-1.89-.246-.115-1.748-.102-1.954.014Zm7.44.056c-.491.19-.943.66-1.129 1.162-.106.306-.14.544-.14 1.068 0 .795.133 1.244.499 1.685.551.66 1.588.864 2.372.47.425-.218.737-.544.943-.993.12-.265.14-.442.14-1.162 0-.796-.013-.877-.186-1.238a1.962 1.962 0 0 0-2.498-.992Zm1.05 1.305c.253.136.34.374.34.925 0 .55-.087.788-.34.924-.345.184-.764.054-.91-.279-.106-.238-.1-1.114.013-1.318.173-.32.559-.429.897-.252Z"/>
  <path stroke="#E31337" stroke-linecap="round" d="m1 1 17 17"/>
</svg>
