<svg xmlns="http://www.w3.org/2000/svg" width="21" height="22" fill="none" viewBox="0 0 21 22">
  <path fill="#E31337" d="M1.568.669C.96.899.402 1.465.172 2.072.041 2.442 0 2.73 0 3.362c0 .96.164 1.501.616 2.035.68.796 1.961 1.042 2.93.566a2.47 2.47 0 0 0 1.166-1.198c.147-.32.172-.534.172-1.404 0-.96-.017-1.059-.23-1.494A2.446 2.446 0 0 0 1.568.67Zm1.297 1.576c.312.164.418.451.418 1.116s-.106.952-.418 1.116c-.427.222-.944.066-1.125-.336-.131-.287-.123-1.346.017-1.592.213-.386.689-.518 1.108-.304ZM8.463.602c-.386.213-.517.69-.304 1.108.156.296.452.419 1.034.419h.493V4.59h-.493c-.582 0-.878.123-1.034.419-.222.427-.066.944.337 1.124.328.148 3.75.14 4.054-.016.386-.205.518-.681.304-1.108-.156-.296-.451-.419-1.034-.419h-.493V2.868c0-1.88-.04-2.094-.451-2.282-.304-.14-2.159-.123-2.413.016Zm9.193.067c-.608.23-1.166.796-1.396 1.403-.131.37-.172.657-.172 1.29 0 .96.164 1.501.615 2.035.682.796 1.962 1.042 2.93.566A2.469 2.469 0 0 0 20.8 4.765c.148-.32.173-.534.173-1.404 0-.96-.017-1.059-.23-1.494A2.446 2.446 0 0 0 17.656.67Zm1.297 1.576c.312.164.418.451.418 1.116s-.106.952-.418 1.116c-.427.222-.944.066-1.125-.336-.131-.287-.123-1.346.016-1.592.214-.386.69-.518 1.109-.304ZM.418 7.99c-.385.214-.517.69-.303 1.109.156.295.451.418 1.034.418h.492v2.463H1.15c-.583 0-.878.124-1.034.42-.222.426-.066.944.336 1.124.328.148 3.751.14 4.055-.016.386-.206.517-.682.304-1.108-.156-.296-.452-.42-1.035-.42h-.492v-1.723c0-1.88-.041-2.093-.451-2.282-.304-.14-2.16-.123-2.414.017Zm9.194.066c-.608.23-1.166.796-1.396 1.403-.131.37-.172.657-.172 1.289 0 .96.164 1.502.616 2.036.68.796 1.961 1.042 2.93.566a2.47 2.47 0 0 0 1.165-1.198c.148-.32.173-.534.173-1.404 0-.96-.017-1.059-.23-1.494a2.446 2.446 0 0 0-3.086-1.198Zm1.297 1.576c.311.164.418.451.418 1.116s-.107.952-.418 1.116c-.427.222-.944.066-1.125-.336-.131-.288-.123-1.347.016-1.593.214-.385.69-.517 1.109-.303Zm5.598-1.642c-.386.214-.517.69-.304 1.109.156.295.451.418 1.034.418h.493v2.463h-.493c-.582 0-.878.124-1.034.42-.222.426-.066.944.337 1.124.328.148 3.75.14 4.054-.016.386-.206.517-.682.304-1.108-.156-.296-.451-.42-1.034-.42h-.493v-1.723c0-1.88-.04-2.093-.451-2.282-.304-.14-2.159-.123-2.413.017ZM1.568 15.442c-.608.23-1.166.796-1.396 1.404-.131.37-.172.657-.172 1.289 0 .96.164 1.502.616 2.035.68.796 1.961 1.043 2.93.567a2.469 2.469 0 0 0 1.166-1.199c.147-.32.172-.533.172-1.403 0-.96-.017-1.06-.23-1.494a2.446 2.446 0 0 0-3.086-1.199Zm1.297 1.576c.312.165.418.452.418 1.117 0 .664-.106.952-.418 1.116-.427.222-.944.066-1.125-.337-.131-.287-.123-1.346.017-1.592.213-.386.689-.517 1.108-.304Zm5.598-1.641c-.386.214-.517.69-.304 1.108.156.296.452.42 1.034.42h.493v2.461h-.493c-.582 0-.878.123-1.034.418-.222.427-.066.944.337 1.125.328.148 3.75.14 4.054-.017.386-.205.518-.68.304-1.108-.156-.295-.451-.418-1.034-.418h-.493v-1.724c0-1.88-.04-2.093-.451-2.282-.304-.14-2.159-.123-2.413.016Zm9.193.065c-.608.23-1.166.796-1.396 1.404-.131.37-.172.657-.172 1.289 0 .96.164 1.502.615 2.035.682.796 1.962 1.043 2.93.567a2.469 2.469 0 0 0 1.166-1.199c.148-.32.173-.533.173-1.403 0-.96-.017-1.06-.23-1.494a2.446 2.446 0 0 0-3.086-1.199Zm1.297 1.576c.312.165.418.452.418 1.117 0 .664-.106.952-.418 1.116-.427.222-.944.066-1.125-.337-.131-.287-.123-1.346.016-1.592.214-.386.69-.517 1.109-.304Z"/>
</svg>
