<svg xmlns="http://www.w3.org/2000/svg" width="20" height="20" fill="none" viewBox="0 0 20 20">
  <path stroke="#E31337" stroke-linecap="round" stroke-linejoin="round" stroke-width="1.5" d="m12.108 7.893-4.216 4.216a2.98 2.98 0 1 1 4.217-4.217Z"/>
  <path stroke="#E31337" stroke-linecap="round" stroke-linejoin="round" stroke-width="1.5" d="M14.85 4.807c-1.458-1.1-3.125-1.7-4.85-1.7-2.942 0-5.683 1.734-7.592 4.734-.75 1.175-.75 3.15 0 4.325a11.938 11.938 0 0 0 2.259 2.641m2.35 1.467c.95.4 1.958.617 2.983.617 2.942 0 5.683-1.734 7.592-4.734.75-1.175.75-3.15 0-4.325a13.526 13.526 0 0 0-.884-1.225"/>
  <path stroke="#E31337" stroke-linecap="round" stroke-linejoin="round" stroke-width="1.5" d="M12.925 10.584a2.97 2.97 0 0 1-2.35 2.35m-2.683-.827-6.225 6.225M18.333 1.666l-6.225 6.225"/>
</svg>
