<svg xmlns="http://www.w3.org/2000/svg" width="27" height="25" fill="none" viewBox="0 0 27 10">
  <path fill="#E31337" d="M9.192.076v8.996H8.009V2.364l-2.99 6.708h-.832l-3.003-6.72v6.72H.001V.076h1.274l3.328 7.436L7.931.076h1.261Zm7.362 6.981h-3.952l-.728 2.015h-1.248L13.902.063h1.365l3.263 9.01h-1.248l-.728-2.016Zm-.338-.962L14.578 1.52 12.94 6.095h3.276Zm7.447-1.547 2.782 4.524h-1.339l-2.171-3.536-2.067 3.536h-1.313l2.769-4.524L19.542.011h1.326l2.184 3.55 2.08-3.55h1.326l-2.795 4.537Z"/>
</svg>
