<svg width="36" height="36" viewBox="0 0 48 48" fill="none" xmlns="http://www.w3.org/2000/svg">
<g clip-path="url(#clip0_3_2)">
<path d="M35.9281 10.2794C33.622 9.0461 31.1719 8.14917 28.5968 7.62223C28.5487 7.62223 28.5007 7.62223 28.4815 7.6895C28.1644 8.35098 27.8089 9.20306 27.5687 9.87575C24.7822 9.39366 22.0438 9.39366 19.3342 9.87575C19.0844 9.18064 18.7288 8.33977 18.3733 7.6895C18.3445 7.64465 18.3061 7.61102 18.258 7.62223C16.0481 8.13796 13.2232 9.07973 10.9556 10.2794C10.9364 10.2794 10.9171 10.3018 10.9075 10.3242C6.19937 18.5087 4.95026 26.3568 5.62286 34.2049C5.62286 34.2385 5.64208 34.2833 5.6709 34.317C8.74562 36.9629 11.7243 38.5774 14.6645 39.6201C14.7125 39.6201 14.7605 39.6201 14.7894 39.5752C15.4812 38.4765 16.0961 37.3105 16.6342 36.0772C16.663 36.0099 16.6342 35.9202 16.5669 35.8978C15.6061 35.4493 14.6452 34.9336 13.7516 34.3282C13.6844 34.2833 13.6748 34.16 13.7516 34.104C13.9438 33.9358 14.136 33.7676 14.3089 33.5994C14.3378 33.5658 14.3858 33.5658 14.4242 33.577C20.3239 36.7163 26.7231 36.7163 32.4882 33.577C32.5267 33.5546 32.5747 33.5658 32.6035 33.5882C32.7861 33.7676 32.9686 33.9358 33.1608 34.104C33.2281 34.16 33.2185 34.2833 33.1608 34.3282C32.2672 34.9448 31.3352 35.4493 30.3455 35.8978C30.2783 35.9314 30.2494 36.0099 30.2879 36.0884C30.8259 37.3217 31.4505 38.4765 32.1135 39.564C32.1423 39.6088 32.1904 39.6313 32.2384 39.6088C35.1786 38.5437 38.1668 36.9405 41.2512 34.3058C41.28 34.2833 41.2992 34.2497 41.2992 34.1937C42.0487 25.1235 40.0405 17.2642 35.9761 10.313C35.9761 10.2906 35.9473 10.2682 35.9281 10.2682V10.2794ZM17.4797 29.4512C15.6541 29.4512 14.2129 27.5452 14.2129 25.1908C14.2129 22.8363 15.6541 20.9304 17.4797 20.9304C19.3054 20.9304 20.7466 22.8363 20.7466 25.1908C20.7466 27.5452 19.3054 29.4512 17.4797 29.4512ZM29.4904 29.4512C27.6648 29.4512 26.2235 27.5452 26.2235 25.1908C26.2235 22.8363 27.6648 20.9304 29.4904 20.9304C31.316 20.9304 32.7573 22.8363 32.7573 25.1908C32.7573 27.5452 31.316 29.4512 29.4904 29.4512Z" fill="var(--menu-bottom-bar-icon-color)"/>
</g>
<defs>
<clipPath id="clip0_3_2">
<rect width="48" height="48" fill="var(--menu-bottom-bar-icon-color)"/>
</clipPath>
</defs>
</svg>
