<svg width="45" height="46" viewBox="0 0 45 46" fill="none" xmlns="http://www.w3.org/2000/svg">
<path fill-rule="evenodd" clip-rule="evenodd" d="M44.9847 22.9496C44.9847 35.3596 34.9179 45.4196 22.4997 45.4196C10.0815 45.4196 0.0146484 35.3596 0.0146484 22.9496C0.0146484 10.5397 10.0815 0.479492 22.4997 0.479492C34.9179 0.479492 44.9847 10.5397 44.9847 22.9496ZM16.1281 31.8915H11.7643C10.8474 31.8915 10.3945 31.8915 10.1183 31.715C9.82001 31.5217 9.63773 31.2016 9.61564 30.8482C9.59905 30.5227 9.82555 30.1251 10.2785 29.3302L21.053 10.3512C21.5115 9.54529 21.7435 9.14232 22.0362 8.99329C22.3511 8.83321 22.7267 8.83321 23.0416 8.99329C23.3343 9.14232 23.5663 9.54529 24.0248 10.3512L26.2398 14.2152L26.2511 14.2349C26.7463 15.0996 26.9974 15.538 27.107 15.9982C27.2285 16.5005 27.2285 17.0304 27.107 17.5328C26.9965 17.9964 26.748 18.4381 26.2453 19.3157L20.5857 29.3137L20.5711 29.3393C20.0726 30.211 19.82 30.6528 19.4699 30.9861C19.0888 31.3506 18.6303 31.6154 18.1276 31.7647C17.6692 31.8915 17.1555 31.8915 16.1281 31.8915ZM27.1479 31.8915H33.4006C34.323 31.8915 34.7871 31.8915 35.0635 31.7096C35.3617 31.5163 35.5494 31.1905 35.5661 30.8374C35.582 30.5224 35.3605 30.1403 34.9263 29.3916C34.9114 29.3661 34.8964 29.3402 34.8811 29.3138L31.7491 23.9594L31.7135 23.8991C31.2733 23.1553 31.0512 22.7797 30.7658 22.6346C30.4512 22.4745 30.0808 22.4745 29.7661 22.6346C29.4789 22.7836 29.2469 23.1755 28.7884 23.9649L25.6675 29.3193L25.6568 29.3377C25.2 30.1258 24.9717 30.5197 24.9881 30.8428C25.0102 31.1962 25.1925 31.5217 25.4908 31.715C25.7614 31.8915 26.2254 31.8915 27.1479 31.8915Z" fill="#E84142"/>
</svg>
