<svg width="45" height="46" viewBox="0 0 45 46" fill="none" xmlns="http://www.w3.org/2000/svg">
<g clip-path="url(#clip0_2013_13571)">
<path fill-rule="evenodd" clip-rule="evenodd" d="M22.5 0.450195C34.9273 0.450195 45 10.5229 45 22.9502C45 35.3775 34.9273 45.4502 22.5 45.4502C10.0727 45.4502 0 35.3775 0 22.9502C0 10.5229 10.0727 0.450195 22.5 0.450195Z" fill="#F0B90B"/>
<path d="M12.366 22.9503L12.3822 28.8998L17.4375 31.8745V35.3577L9.42368 30.6576V21.2105L12.366 22.9503ZM12.366 17.0008V20.4677L9.42188 18.7261V15.2592L12.366 13.5176L15.3245 15.2592L12.366 17.0008ZM19.5487 15.2592L22.4928 13.5176L25.4513 15.2592L22.4928 17.0008L19.5487 15.2592Z" fill="white"/>
<path d="M14.4932 27.6666V24.1834L17.4373 25.925V29.392L14.4932 27.6666ZM19.5485 33.1221L22.4926 34.8637L25.4511 33.1221V36.5891L22.4926 38.3307L19.5485 36.5891V33.1221ZM29.6735 15.2592L32.6176 13.5176L35.5761 15.2592V18.7261L32.6176 20.4677V17.0008L29.6735 15.2592ZM32.6176 28.8998L32.6338 22.9503L35.5779 21.2087V30.6558L27.5641 35.3559V31.8727L32.6176 28.8998Z" fill="white"/>
<path d="M30.5066 27.6668L27.5625 29.3921V25.9252L30.5066 24.1836V27.6668Z" fill="white"/>
<path d="M30.5064 18.2334L30.5226 21.7166L25.4529 24.6913V30.6553L22.5088 32.3806L19.5647 30.6553V24.6913L14.495 21.7166V18.2334L17.4517 16.4918L22.4908 19.481L27.5605 16.4918L30.519 18.2334H30.5064ZM14.4932 12.2857L22.4926 7.56934L30.5064 12.2857L27.5623 14.0273L22.4926 11.0381L17.4373 14.0273L14.4932 12.2857Z" fill="white"/>
</g>
<defs>
<clipPath id="clip0_2013_13571">
<rect width="45" height="45" fill="white" transform="translate(0 0.450195)"/>
</clipPath>
</defs>
</svg>
