<svg width="45" height="46" viewBox="0 0 45 46" fill="none" xmlns="http://www.w3.org/2000/svg">
<path d="M22.5 45.4502C34.9264 45.4502 45 35.3766 45 22.9502C45 10.5238 34.9264 0.450195 22.5 0.450195C10.0736 0.450195 0 10.5238 0 22.9502C0 35.3766 10.0736 45.4502 22.5 45.4502Z" fill="#627EEA"/>
<path d="M23.2012 6.07227V18.5463L33.7438 23.2579L23.2012 6.07227Z" fill="white" fill-opacity="0.602"/>
<path d="M23.2009 6.07227L12.6582 23.2579L23.2009 18.5463V6.07227Z" fill="white"/>
<path d="M23.2012 31.3399V39.8158L33.75 25.2197L23.2012 31.3399Z" fill="white" fill-opacity="0.602"/>
<path d="M23.2009 39.8158V31.3399L12.6582 25.2197L23.2009 39.8158Z" fill="white"/>
<path d="M23.2012 29.3776L33.7438 23.2575L23.2012 18.5459V29.3776Z" fill="white" fill-opacity="0.2"/>
<path d="M12.6582 23.2575L23.2009 29.3776V18.5459L12.6582 23.2575Z" fill="white" fill-opacity="0.602"/>
</svg>
