<svg width="45" height="46" viewBox="0 0 45 46" fill="none" xmlns="http://www.w3.org/2000/svg">
<g clip-path="url(#clip0_2013_13597)">
<path d="M22.5 45.4502C34.884 45.4502 45 35.3162 45 22.9502C45 10.5662 34.866 0.450195 22.5 0.450195C10.116 0.450195 0 10.5842 0 22.9502C0 35.3342 10.134 45.4502 22.5 45.4502Z" fill="url(#paint0_linear_2013_13597)"/>
<path d="M29.0164 27.8099L35.3884 24.1379C35.7304 23.9399 35.9284 23.5799 35.9284 23.1839V15.8399C35.9284 15.4439 35.7124 15.0839 35.3884 14.8859L29.0164 11.2139C28.6744 11.0159 28.2604 11.0159 27.9184 11.2139L21.5464 14.8859C21.2044 15.0839 21.0064 15.4439 21.0064 15.8399V28.9799L16.5424 31.5539L12.0784 28.9799V23.8319L16.5424 21.2579L19.4944 22.9499V19.4939L17.1004 18.1079C16.9384 18.0179 16.7404 17.9639 16.5604 17.9639C16.3624 17.9639 16.1824 18.0179 16.0204 18.1079L9.6484 21.7799C9.3064 21.9779 9.1084 22.3379 9.1084 22.7339V30.0779C9.1084 30.4739 9.3244 30.8339 9.6484 31.0319L16.0204 34.7039C16.3624 34.9019 16.7764 34.9019 17.1184 34.7039L23.4904 31.0319C23.8324 30.8339 24.0304 30.4739 24.0304 30.0779V16.9379L24.1024 16.8839L28.4944 14.3459L32.9584 16.9199V22.0679L28.4944 24.6419L25.5604 22.9499V26.4059L27.9544 27.7919C28.2964 27.9899 28.7104 27.9899 29.0524 27.7919L29.0164 27.8099Z" fill="white"/>
</g>
<defs>
<linearGradient id="paint0_linear_2013_13597" x1="-8.23021" y1="4.1044" x2="38.1738" y2="32.5624" gradientUnits="userSpaceOnUse">
<stop stop-color="#A229C5"/>
<stop offset="1" stop-color="#7B3FE4"/>
</linearGradient>
<clipPath id="clip0_2013_13597">
<rect width="45" height="45" fill="white" transform="translate(0 0.450195)"/>
</clipPath>
</defs>
</svg>
