<svg xmlns="http://www.w3.org/2000/svg" width="18" height="12" viewBox="0 0 18 12" fill="none">
<path d="M13.4453 0.130926C12.9293 0.295438 12.4432 0.624463 12.0394 1.08061C11.7553 1.40216 11.3589 2.12003 11.3589 2.2995C11.3589 2.35932 9.71382 2.38175 5.93752 2.38175H0.839023C0.631195 2.38175 0.430796 2.45905 0.276798 2.59861C0.0674185 2.78556 0.0300293 2.86781 0.0300293 3.16693C0.0300293 3.46604 0.0674185 3.5483 0.276798 3.73524C0.430796 3.8748 0.631195 3.9521 0.839024 3.9521H5.93004H11.0531C11.2265 3.9521 11.3802 4.06382 11.4337 4.22878C11.673 4.96908 12.3385 5.69443 13.1387 6.06833C13.6023 6.29266 13.6995 6.30762 14.4249 6.30762C15.1502 6.30762 15.2474 6.29266 15.7185 6.06833C17.7375 5.11116 18.246 2.59861 16.7355 0.998354C16.5261 0.774019 16.2121 0.512295 16.0401 0.407606C15.3222 -0.0111532 14.2529 -0.130799 13.4453 0.130926ZM14.896 1.64145C16.055 1.963 16.3766 3.60064 15.4344 4.38581C14.3949 5.23829 12.862 4.50546 12.8545 3.14449C12.8545 2.08264 13.8416 1.34981 14.896 1.64145Z" fill="#E31337"/>
<path d="M8.39025 5.61264C7.38074 5.72481 6.35628 6.5025 5.93752 7.4821C5.80601 7.79048 5.50312 7.99059 5.16786 7.99059H3.08847H0.72834C0.558216 7.99059 0.394332 8.05466 0.269324 8.17006C-0.0821343 8.4916 -0.0896121 8.92532 0.24689 9.31417C0.360991 9.44728 0.526792 9.52495 0.7021 9.52741L3.09595 9.56093L5.39619 9.59315C5.61953 9.59628 5.81874 9.7343 5.90013 9.9423C6.18429 10.7125 6.73765 11.2659 7.60508 11.6772C8.06123 11.894 8.16592 11.9165 8.81649 11.909C9.36985 11.909 9.62409 11.8716 9.9606 11.737C10.7607 11.4229 11.501 10.6826 11.7852 9.91239C11.8615 9.70146 12.0617 9.56093 12.2861 9.56093H14.4398C17.2739 9.56093 17.3337 9.55346 17.5356 9.05992C17.6852 8.71594 17.6104 8.41683 17.3263 8.17753C17.1813 8.05674 16.9986 7.99059 16.8099 7.99059H14.537H12.5668C12.1995 7.99059 11.8655 7.77768 11.7104 7.44471C11.1122 6.15104 9.83347 5.44813 8.39025 5.61264ZM9.69887 7.4148C11.0075 8.27475 10.4093 10.3162 8.8464 10.3162C7.1265 10.3162 6.62548 8.04293 8.18087 7.30263C8.61459 7.10073 9.29507 7.14559 9.69887 7.4148Z" fill="#E31337"/>
</svg>