
<svg width="234" height="309" viewBox="0 0 234 309" fill="none" xmlns="http://www.w3.org/2000/svg">
<path d="M118.685 15.3905L121.205 11.7615L108.378 4.47102C108.149 4.34025 107.887 4.17679 107.658 4.04601C96.3356 -2.06756 79.9088 -0.563687 61.6168 9.99613C27.5852 29.6119 0 73.0608 0 107.061C0 121.316 4.87568 131.646 13.0236 137.4C14.2344 138.25 15.5106 139.002 16.8522 139.656L27.9779 146.162L30.4321 142.631C39.5617 142.729 50.1966 139.656 61.5841 133.118C95.6157 113.502 123.201 70.0203 123.201 36.0524C123.201 27.7811 121.598 20.8829 118.685 15.3905Z" fill="#FF9D4D"/>
<path d="M92.3435 1.43098C97.9063 1.43098 102.88 2.60793 107.134 4.92913L107.2 4.96182C107.429 5.09259 107.625 5.22336 107.854 5.35413L119.765 12.0889L117.867 14.8351L117.54 15.3255L117.834 15.8486C120.779 21.341 122.252 28.1084 122.252 35.9874C122.252 69.5957 94.8304 112.783 61.1587 132.203C50.4911 138.349 40.0199 141.586 30.8902 141.586C30.7593 141.586 30.6284 141.586 30.4976 141.586H29.974L29.6795 142.011L27.7488 144.822L17.4085 138.774L17.3758 138.741L17.343 138.709C16.0341 138.087 14.7907 137.368 13.6454 136.551L13.5799 136.518C6.67543 131.712 2.4542 123.637 1.30891 113.175C1.27619 112.783 1.21074 112.391 1.17802 111.998C1.04713 110.429 0.981681 108.762 0.981681 107.062C0.981681 104.185 1.17802 101.144 1.60341 98.0713C1.63613 97.7116 1.70158 97.3847 1.7343 97.0251C2.32331 92.9712 3.27227 88.7538 4.54846 84.471C4.64662 84.1441 4.74479 83.8171 4.84296 83.5229C6.02098 79.6651 7.4935 75.742 9.19508 71.8188C9.32597 71.5246 9.45686 71.2304 9.58775 70.9361C11.2239 67.2418 13.0891 63.5148 15.1506 59.8859C15.3142 59.5917 15.4778 59.3301 15.6414 59.0359C17.6703 55.5051 19.8954 51.9742 22.2514 48.6069C22.4478 48.3453 22.6114 48.0838 22.8077 47.7895C25.1965 44.3895 27.7816 41.0875 30.4321 37.9163C30.6284 37.6547 30.8575 37.4259 31.0866 37.1643C33.868 33.9277 36.7803 30.8219 39.7908 27.9122C40.0199 27.6834 40.2816 27.4545 40.5107 27.193C43.7175 24.1526 47.0552 21.2756 50.4257 18.6602C50.7202 18.4313 50.982 18.2351 51.2765 18.0063C54.8105 15.3255 58.4427 12.9062 62.075 10.8139C62.304 10.6831 62.5331 10.5523 62.7949 10.4215C63.1221 10.2254 63.4493 10.0619 63.7765 9.86576C68.5213 7.28302 73.2007 5.25605 77.7164 3.81757L77.8473 3.78487C78.3381 3.62141 78.7635 3.52333 79.1235 3.39256C83.7701 2.11753 88.1877 1.43098 92.3435 1.43098ZM92.3435 0.450195C88.155 0.450195 83.6392 1.10405 78.8617 2.47716C78.4363 2.60793 78.0109 2.7387 77.5528 2.86947C73.0043 4.27527 68.2268 6.33492 63.2857 9.01574C62.9585 9.2119 62.6312 9.37536 62.2713 9.57152C62.0422 9.70229 61.7805 9.83306 61.5514 9.99653C57.821 12.1543 54.1888 14.5735 50.6547 17.2544C50.3602 17.4832 50.0985 17.6794 49.8039 17.9082C46.3681 20.5563 43.0303 23.4333 39.8235 26.5065C39.5617 26.7353 39.3327 26.9642 39.0709 27.2257C36.0277 30.1681 33.1154 33.2739 30.3339 36.5432C30.1049 36.8047 29.9085 37.0663 29.6795 37.2951C26.9635 40.499 24.4111 43.801 21.9897 47.2338C21.7933 47.4953 21.597 47.7895 21.4334 48.0511C19.0446 51.4838 16.8195 54.982 14.7579 58.5782C14.5943 58.8724 14.4307 59.134 14.2671 59.4282C12.2056 63.0898 10.3077 66.8168 8.67152 70.5438C8.54062 70.8381 8.40973 71.165 8.27884 71.4592C6.57726 75.3824 5.07202 79.3382 3.86128 83.2614C3.76311 83.5883 3.66494 83.9152 3.56677 84.2421C2.29059 88.5249 1.34163 92.775 0.719899 96.9597C0.654454 97.3193 0.621731 97.6789 0.589009 98.0059C0.196336 101.046 0 104.087 0 107.062C0 108.795 0.0654454 110.462 0.229059 112.064C0.261782 112.456 0.294504 112.881 0.35995 113.273C1.53797 124.356 6.08642 132.53 13.0236 137.401C14.2344 138.251 15.5106 139.003 16.8522 139.657L27.9779 146.163L30.4321 142.599C30.563 142.599 30.6939 142.599 30.8248 142.599C39.889 142.599 50.393 139.526 61.5841 133.053C95.6157 113.437 123.168 69.9553 123.168 35.9874C123.168 27.7815 121.565 20.8833 118.653 15.3909L121.172 11.7619L108.345 4.47142C108.116 4.34065 107.854 4.17719 107.625 4.04642C103.24 1.69253 98.1027 0.450195 92.3435 0.450195Z" fill="#FFE840"/>
<path d="M111.111 106.552C138.302 70.4329 143.764 28.6944 123.313 13.326C102.861 -2.04231 64.2391 14.7793 37.0485 50.898C9.85781 87.0168 4.39486 128.755 24.8466 144.124C45.2984 159.492 83.9202 142.67 111.111 106.552Z" fill="#FFD071"/>
<path d="M111.111 106.552C138.302 70.4329 143.764 28.6944 123.313 13.326C102.861 -2.04231 64.2391 14.7793 37.0485 50.898C9.85781 87.0168 4.39486 128.755 24.8466 144.124C45.2984 159.492 83.9202 142.67 111.111 106.552Z" fill="#FFE840"/>
<path d="M75.655 132.496C61.2897 140.8 47.7753 142.991 37.5985 138.708C27.4218 134.425 21.8262 124.127 21.8262 109.775C21.8262 95.4224 27.4218 78.6836 37.5985 62.6641C47.7753 46.6446 61.2897 33.2405 75.655 24.9692C90.0203 16.6652 103.535 14.4747 113.712 18.7575C123.888 23.0403 129.484 33.3385 129.484 47.6907C129.484 62.0429 123.888 78.7817 113.712 94.8012C103.567 110.821 90.053 124.192 75.655 132.496ZM75.655 27.9115C47.6117 44.0945 24.8039 80.0567 24.8039 108.075C24.8039 136.092 47.6117 145.737 75.655 129.554C103.698 113.371 126.506 77.4086 126.506 49.3908C126.506 21.3729 103.731 11.7285 75.655 27.9115Z" fill="#FF9D4D"/>
<path d="M83.2141 69.6279V77.8338C83.0505 77.9319 82.8542 77.9973 82.6905 78.1281L78.1748 80.7108V73.0607L80.6945 71.5895C81.6107 71.0664 82.4615 70.4126 83.2141 69.6279Z" fill="#D1975D"/>
<path d="M80.2362 18.7581L79.7454 19.6081L62.3369 9.5714C62.6641 9.37525 62.9914 9.17909 63.3513 9.01562L80.2362 18.7581Z" fill="#FFE840"/>
<path d="M64.8571 25.3949L64.3663 26.2449L49.8701 17.8755C50.1646 17.6467 50.4264 17.4505 50.7209 17.2217L64.8571 25.3949Z" fill="#FFE840"/>
<path d="M54.1232 34.7122L53.6324 35.5623L39.1035 27.1929C39.3653 26.964 39.5944 26.7025 39.8561 26.4736L54.1232 34.7122Z" fill="#FFE840"/>
<path d="M43.4237 44.0291L42.9329 44.8792L29.7129 37.2617C29.9419 37.0002 30.1383 36.7386 30.3673 36.5098L43.4237 44.0291Z" fill="#FFE840"/>
<path d="M37.37 56.0278L36.8792 56.8778L21.4668 47.9853C21.6631 47.7237 21.8595 47.4295 22.0231 47.168L37.37 56.0278Z" fill="#FFE840"/>
<path d="M33.4753 69.3667L32.9845 70.2168L14.2998 59.3627C14.4634 59.0685 14.627 58.7742 14.7906 58.5127L33.4753 69.3667Z" fill="#FFE840"/>
<path d="M25.8836 80.3835L25.3928 81.2335L8.31152 71.3929C8.44241 71.0987 8.57331 70.7718 8.7042 70.4775L25.8836 80.3835Z" fill="#FFE840"/>
<path d="M22.9714 94.2128L22.4806 95.0628L3.59961 84.1761C3.69778 83.8492 3.79595 83.5222 3.89411 83.1953L22.9714 94.2128Z" fill="#FFE840"/>
<path d="M18.096 106.898L17.6051 107.748L0.62207 97.9397C0.654793 97.5801 0.720238 97.2532 0.752961 96.8936L18.096 106.898Z" fill="#FFE840"/>
<path d="M18.8482 122.819L18.3574 123.669L0.32718 113.273C0.294457 112.881 0.229012 112.456 0.196289 112.063L18.8482 122.819Z" fill="#FFE840"/>
<path d="M95.0271 11.7614L94.5363 12.6114L77.5859 2.86888C78.0113 2.73811 78.4695 2.60733 78.8948 2.47656L95.0271 11.7614Z" fill="#FFE840"/>
<path d="M177.03 308.449C208.494 308.449 234 293.739 234 275.593C234 257.447 208.494 242.736 177.03 242.736C145.566 242.736 120.06 257.447 120.06 275.593C120.06 293.739 145.566 308.449 177.03 308.449Z" fill="#E3DFEA"/>
<path d="M83.8356 86.8244L79.0254 82.7378C78.6327 82.4108 78.3382 82.0185 78.1092 81.5608L77.8474 81.0377C77.4547 80.2531 77.5529 79.305 78.0765 78.6185L79.6471 76.5915C79.6799 76.5261 79.7453 76.4934 79.8108 76.4607L82.4286 75.3165C82.6249 75.2184 82.7231 74.9895 82.6249 74.7934L79.2872 66.9144C79.2217 66.7182 79.2872 66.4894 79.4835 66.3913C79.9744 66.1298 80.5961 66.2932 80.8906 66.7836L85.0137 73.7472C85.0137 73.7799 85.0464 73.8126 85.0791 73.8126L87.5006 76.3627C87.7624 76.6242 88.2205 76.428 88.1878 76.0684L88.0569 72.4722C88.0242 71.6876 88.5477 70.9683 89.3003 70.7068L89.3658 70.6741C89.6276 70.6087 89.8893 70.8049 89.8893 71.0664L89.8566 73.2895C89.8566 73.9434 89.9548 74.5972 90.1511 75.2184L90.8383 77.3434C91.0674 78.03 90.9692 78.7492 90.642 79.3704L89.5621 81.332C89.4967 81.4301 89.4967 81.5281 89.5294 81.6262L90.1511 83.882C90.2166 84.0782 90.1184 84.2743 89.9221 84.3397L84.2938 86.8244C84.1302 86.9552 83.9665 86.9225 83.8356 86.8244Z" fill="#FFD0A6"/>
<path d="M179.157 106.44L183.869 136.354C184.229 138.578 183.673 140.833 182.364 142.664L170.649 158.782L165.119 147.307L173.725 133.085L165.119 106.44H179.157Z" fill="url(#paint0_linear_2017_27293)"/>
<path d="M179.157 106.44L183.869 136.354C184.229 138.578 183.673 140.833 182.364 142.664L170.649 158.782L165.119 147.307L173.725 133.085L165.119 106.44H179.157Z" fill="url(#paint1_linear_2017_27293)"/>
<path d="M160.472 270.787C160.472 270.689 160.472 270.591 160.472 270.493L157.363 259.508H147.546L147.677 260.816L148.135 264.837C145.452 263.987 142.507 264.412 140.184 265.981L139.202 266.766C138.384 267.387 138.188 268.368 138.449 269.218C138.679 269.871 139.202 270.46 139.987 270.689L153.404 275.397C156.676 276.868 160.439 274.514 160.472 270.983V270.95C160.472 270.918 160.472 270.885 160.472 270.787Z" fill="#281A10"/>
<path d="M176.081 255.356V255.389C176.049 258.952 172.318 261.274 169.013 259.802L155.924 255.225C155.662 254.408 155.859 253.395 156.677 252.773L157.658 251.989C160.113 250.321 163.221 249.929 166.035 250.975L175.983 254.637C176.016 254.735 176.016 254.8 176.049 254.898C176.081 255.029 176.081 255.356 176.081 255.356Z" fill="#281A10"/>
<path d="M177.979 256.828C177.979 256.73 177.979 256.632 177.979 256.534L174.87 245.549H165.053L165.184 246.857L165.642 250.878C162.959 250.028 160.014 250.453 157.691 252.022L156.709 252.807C155.891 253.428 155.695 254.409 155.956 255.259C156.185 255.912 156.709 256.501 157.494 256.73L170.911 261.438C174.183 262.909 177.946 260.555 177.979 257.024V256.991C177.979 256.959 177.979 256.893 177.979 256.828Z" fill="#281A10"/>
<path d="M177.979 248.524V248.589L164.399 248.36L156.578 212.529L154.189 169.014L176.31 166.366L176.277 166.824L172.383 210.992C174.052 216.484 175.328 222.075 176.245 227.731C177.161 233.387 177.684 239.075 177.881 244.829L177.979 248.524Z" fill="url(#paint2_linear_2017_27293)"/>
<path d="M177.979 248.524V248.589L164.399 248.36L156.578 212.529L154.189 169.014L176.31 166.366L176.277 166.824L172.383 210.992C174.052 216.484 175.328 222.075 176.245 227.731C177.161 233.387 177.684 239.075 177.881 244.829L177.979 248.524Z" fill="url(#paint3_linear_2017_27293)"/>
<path d="M177.979 248.523L168.13 248.36L160.309 212.528L155.204 169.341L176.278 166.791L172.384 210.959C174.052 216.452 175.329 222.042 176.245 227.698C177.161 233.354 177.685 239.042 177.881 244.796L177.979 248.523Z" fill="url(#paint4_linear_2017_27293)"/>
<path d="M177.979 248.523L168.13 248.36L160.309 212.528L155.204 169.341L176.278 166.791L172.384 210.959C174.052 216.452 175.329 222.042 176.245 227.698C177.161 233.354 177.685 239.042 177.881 244.796L177.979 248.523Z" fill="url(#paint5_linear_2017_27293)"/>
<path d="M160.472 261.764V261.862L145.223 261.601L136.421 221.389L133.737 172.545L158.574 169.57L158.508 170.191L154.189 219.59C156.054 225.769 157.494 232.014 158.508 238.389C159.523 244.731 160.145 251.139 160.341 257.58L160.472 261.764Z" fill="url(#paint6_linear_2017_27293)"/>
<path d="M160.472 261.764V261.862L145.223 261.601L136.421 221.389L133.737 172.545L158.574 169.57L158.508 170.191L154.189 219.59C156.054 225.769 157.494 232.014 158.508 238.389C159.523 244.731 160.145 251.139 160.341 257.58L160.472 261.764Z" fill="url(#paint7_linear_2017_27293)"/>
<path d="M160.472 261.764L150.393 261.601L141.591 221.389L138.94 172.545L158.509 170.191L154.189 219.59C156.054 225.769 157.494 232.014 158.509 238.389C159.523 244.731 160.145 251.139 160.341 257.58L160.472 261.764Z" fill="url(#paint8_linear_2017_27293)"/>
<path d="M147.383 103.661C138.057 105.263 131.153 114.45 130.956 123.931C130.662 139.983 128.797 164.535 131.054 179.966C131.382 182.157 133.149 183.824 135.341 183.955L143.195 184.478C154.778 185.262 161.29 178.56 172.187 174.637C176.474 173.101 179.222 168.883 178.895 164.339L174.478 136.844L179.157 106.473C179.255 99.0839 172.285 93.6569 165.152 95.4877L147.383 103.661Z" fill="url(#paint9_linear_2017_27293)"/>
<path d="M147.383 103.661C138.057 105.263 131.153 114.45 130.956 123.931C130.662 139.983 128.797 164.535 131.054 179.966C131.382 182.157 133.149 183.824 135.341 183.955L143.195 184.478C154.778 185.262 161.29 178.56 172.187 174.637C176.474 173.101 179.222 168.883 178.895 164.339L174.478 136.844L179.157 106.473C179.255 99.0839 172.285 93.6569 165.152 95.4877L147.383 103.661Z" fill="url(#paint10_linear_2017_27293)"/>
<path d="M164.104 96.2402L161.912 90.8786L165.086 81.7573C167.933 76.8533 167.54 70.7071 164.006 66.2608C160.734 62.1088 155.4 60.1799 150.23 61.2588L144.013 62.5665C141.395 63.1223 139.759 65.705 140.38 68.2878L140.413 68.3532C140.675 69.4647 140.74 70.609 140.577 71.7532L139.889 77.0168C139.3 78.8476 139.202 80.8092 139.595 82.7054L140.053 84.8958C141.231 88.492 145.06 90.4536 148.659 89.3093L149.804 102.975L164.104 96.2402Z" fill="#FFD0A6"/>
<path d="M140.609 71.0662L144.928 74.7278C144.928 74.7278 145.648 77.4087 145.19 80.4491C144.732 83.4896 150.622 87.4781 150.622 87.4781L153.993 91.7936C154.713 92.709 155.858 93.1993 157.003 93.1013L160.963 92.7743C163.122 92.6109 165.02 91.2051 165.773 89.2108C166.493 87.38 167.245 85.255 167.376 84.1761C167.507 83.0645 168.489 80.8087 169.405 78.9125C170.616 76.3952 170.943 73.5836 170.289 70.8701C169.896 69.2681 169.34 67.6008 168.522 66.4565C166.46 63.6449 166.035 60.6699 160.57 59.3949C155.138 58.1198 146.434 57.7275 144.241 58.9699C142.016 60.2449 142.343 61.0295 140.315 64.2007C138.286 67.4373 140.609 71.0662 140.609 71.0662Z" fill="#89603E"/>
<path d="M165.086 96.0436L162.926 93.3955L149.412 98.8879L149.052 103.334L165.086 96.0436Z" fill="#7B5BAA"/>
<path d="M165.086 96.0436L162.926 93.3955L149.412 98.8879L149.052 103.334L165.086 96.0436Z" fill="url(#paint11_linear_2017_27293)"/>
<path d="M145.42 83.2608L146.762 81.2992C147.285 80.5146 148.594 80.3511 149.412 80.9396C149.903 81.2992 150.1 81.8223 149.936 82.3454L148.169 87.5436L144.242 85.8762L145.42 83.2608Z" fill="#FFD0A6"/>
<path d="M135.767 127.495L102.422 122.1L101.212 121.904C99.3138 121.61 97.8085 120.269 97.1541 118.602L83.7705 86.6938L90.086 83.6533L105.171 108.761L136.847 107.813C142.311 107.519 146.991 111.704 147.318 117.164C147.612 122.623 143.424 127.298 137.959 127.625C137.174 127.625 136.454 127.593 135.767 127.495Z" fill="url(#paint12_linear_2017_27293)"/>
<defs>
<linearGradient id="paint0_linear_2017_27293" x1="165.102" y1="132.604" x2="183.971" y2="132.604" gradientUnits="userSpaceOnUse">
<stop stop-color="#6A5EBF"/>
<stop offset="1" stop-color="#6E3AA5"/>
</linearGradient>
<linearGradient id="paint1_linear_2017_27293" x1="165.118" y1="132.611" x2="183.976" y2="132.611" gradientUnits="userSpaceOnUse">
<stop stop-color="#212838"/>
<stop offset="1" stop-color="#5D6F98"/>
</linearGradient>
<linearGradient id="paint2_linear_2017_27293" x1="154.178" y1="207.448" x2="177.977" y2="207.448" gradientUnits="userSpaceOnUse">
<stop stop-color="#6A5EBF"/>
<stop offset="1" stop-color="#6E3AA5"/>
</linearGradient>
<linearGradient id="paint3_linear_2017_27293" x1="154.189" y1="207.477" x2="177.979" y2="207.477" gradientUnits="userSpaceOnUse">
<stop stop-color="#212838"/>
<stop offset="1" stop-color="#5D6F98"/>
</linearGradient>
<linearGradient id="paint4_linear_2017_27293" x1="155.191" y1="207.639" x2="177.977" y2="207.639" gradientUnits="userSpaceOnUse">
<stop stop-color="#2E256B"/>
<stop offset="1" stop-color="#5A3087"/>
</linearGradient>
<linearGradient id="paint5_linear_2017_27293" x1="155.205" y1="207.658" x2="177.98" y2="207.658" gradientUnits="userSpaceOnUse">
<stop stop-color="#292D32"/>
<stop offset="1" stop-color="#212838"/>
</linearGradient>
<linearGradient id="paint6_linear_2017_27293" x1="133.759" y1="215.706" x2="160.47" y2="215.706" gradientUnits="userSpaceOnUse">
<stop stop-color="#6A5EBF"/>
<stop offset="1" stop-color="#6E3AA5"/>
</linearGradient>
<linearGradient id="paint7_linear_2017_27293" x1="133.736" y1="215.716" x2="160.471" y2="215.716" gradientUnits="userSpaceOnUse">
<stop stop-color="#212838"/>
<stop offset="1" stop-color="#5D6F98"/>
</linearGradient>
<linearGradient id="paint8_linear_2017_27293" x1="138.941" y1="215.979" x2="160.473" y2="215.979" gradientUnits="userSpaceOnUse">
<stop stop-color="#292D32"/>
<stop offset="1" stop-color="#212838"/>
</linearGradient>
<linearGradient id="paint9_linear_2017_27293" x1="129.971" y1="139.814" x2="179.165" y2="139.814" gradientUnits="userSpaceOnUse">
<stop stop-color="#2E256B"/>
<stop offset="1" stop-color="#5A3087"/>
</linearGradient>
<linearGradient id="paint10_linear_2017_27293" x1="129.954" y1="139.837" x2="179.16" y2="139.837" gradientUnits="userSpaceOnUse">
<stop stop-color="#292D32"/>
<stop offset="1" stop-color="#212838"/>
</linearGradient>
<linearGradient id="paint11_linear_2017_27293" x1="149.051" y1="98.3648" x2="165.086" y2="98.3648" gradientUnits="userSpaceOnUse">
<stop stop-color="#212838"/>
<stop offset="1" stop-color="#5D6F98"/>
</linearGradient>
<linearGradient id="paint12_linear_2017_27293" x1="83.7682" y1="105.639" x2="147.332" y2="105.639" gradientUnits="userSpaceOnUse">
<stop stop-color="#212838"/>
<stop offset="1" stop-color="#5D6F98"/>
</linearGradient>
</defs>
</svg>
