<svg width="18" height="19" viewBox="0 0 18 19" fill="none" xmlns="http://www.w3.org/2000/svg">
<path d="M12 10.1252V13.2752C12 15.9002 10.95 16.9502 8.325 16.9502H5.175C2.55 16.9502 1.5 15.9002 1.5 13.2752V10.1252C1.5 7.5002 2.55 6.4502 5.175 6.4502H8.325C10.95 6.4502 12 7.5002 12 10.1252Z" stroke="#E31337" stroke-width="1.27" stroke-linecap="round" stroke-linejoin="round"/>
<path d="M16.5 5.6252V8.7752C16.5 11.4002 15.45 12.4502 12.825 12.4502H12V10.1252C12 7.5002 10.95 6.4502 8.325 6.4502H6V5.6252C6 3.0002 7.05 1.9502 9.675 1.9502H12.825C15.45 1.9502 16.5 3.0002 16.5 5.6252Z" stroke="#E31337" stroke-width="1.27" stroke-linecap="round" stroke-linejoin="round"/>
</svg>
