<svg width="18" height="19" viewBox="0 0 18 19" fill="none" xmlns="http://www.w3.org/2000/svg">
<path d="M10.8979 7.55313L7.10293 11.3481C6.61543 10.8606 6.31543 10.1931 6.31543 9.45062C6.31543 7.96562 7.51543 6.76562 9.00043 6.76562C9.74293 6.76562 10.4104 7.06563 10.8979 7.55313Z" stroke="#E31337" stroke-width="1.27" stroke-linecap="round" stroke-linejoin="round"/>
<path d="M13.3649 4.77805C12.0524 3.78805 10.5524 3.24805 8.99988 3.24805C6.35238 3.24805 3.88488 4.80805 2.16738 7.50805C1.49238 8.56555 1.49238 10.343 2.16738 11.4005C2.75988 12.3305 3.44988 13.133 4.19988 13.778" stroke="#E31337" stroke-width="1.27" stroke-linecap="round" stroke-linejoin="round"/>
<path d="M6.31543 15.0975C7.17043 15.4575 8.07793 15.6525 9.00043 15.6525C11.6479 15.6525 14.1154 14.0925 15.8329 11.3925C16.5079 10.335 16.5079 8.55746 15.8329 7.49996C15.5854 7.10996 15.3154 6.74246 15.0379 6.39746" stroke="#E31337" stroke-width="1.27" stroke-linecap="round" stroke-linejoin="round"/>
<path d="M11.6326 9.97559C11.4376 11.0331 10.5751 11.8956 9.51758 12.0906" stroke="#E31337" stroke-width="1.27" stroke-linecap="round" stroke-linejoin="round"/>
<path d="M7.1025 11.3477L1.5 16.9502" stroke="#E31337" stroke-width="1.27" stroke-linecap="round" stroke-linejoin="round"/>
<path d="M16.5 1.9502L10.8975 7.55269" stroke="#E31337" stroke-width="1.27" stroke-linecap="round" stroke-linejoin="round"/>
</svg>
