<svg xmlns="http://www.w3.org/2000/svg" width="20" height="20" fill="none" viewBox="0 0 15 16">
  <path stroke="var(--proposal-detail-icon)" stroke-linecap="round" stroke-linejoin="round" d="M5.42 9.406c0 .806.619 1.456 1.387 1.456h1.57c.668 0 1.212-.569 1.212-1.269 0-.762-.332-1.03-.825-1.206l-2.52-.875c-.493-.175-.824-.444-.824-1.206 0-.7.544-1.269 1.212-1.269h1.57c.768 0 1.387.65 1.387 1.456M7.5 4.2v7.5"/>
  <path stroke="var(--proposal-detail-icon)" stroke-linecap="round" stroke-linejoin="round" d="M7.5 14.2a6.25 6.25 0 1 0 0-12.5 6.25 6.25 0 0 0 0 12.5Z"/>
</svg>
