<svg xmlns="http://www.w3.org/2000/svg" width="45" height="40" fill="none" viewBox="0 0 45 40">
  <path stroke="var(--menu-icon-color)" stroke-linecap="round" stroke-linejoin="round" stroke-width="1.4" d="M22.12 19.152a1.363 1.363 0 0 0-.248 0 3.315 3.315 0 0 1-3.202-3.322A3.327 3.327 0 0 1 22 12.5a3.327 3.327 0 0 1 .12 6.652Zm-3.75 2.768c-1.815 1.215-1.815 3.195 0 4.402 2.063 1.38 5.445 1.38 7.508 0 1.814-1.214 1.814-3.194 0-4.402-2.055-1.373-5.438-1.373-7.508 0Z"/>
  <rect width="43.37" height="38.948" x=".423" y="-.423" stroke="var(--menu-icon-border-color)" stroke-width="var(--menu-icon-border-width)" rx="19.474" transform="matrix(1 0 0 -1 0 38.948)"/>
</svg>
