<svg xmlns="http://www.w3.org/2000/svg" width="45" height="41" fill="none" viewBox="0 0 45 41">
  <path stroke="var(--menu-icon-color)" stroke-linecap="round" stroke-linejoin="round" stroke-width="1.27" d="M22.895 21.927c0 .795-.345 1.515-.9 2.01a2.698 2.698 0 1 1-2.512-4.612 2.708 2.708 0 0 0 3.224 1.612c.12.3.188.637.188.99Z"/>
  <path stroke="var(--menu-icon-color)" stroke-linecap="round" stroke-linejoin="round" stroke-width="1.27" d="M24.695 18.327c0 .352-.068.69-.188.997a2.708 2.708 0 0 1-3.225 1.613 2.69 2.69 0 0 1-1.987-2.61c0-1.493 1.207-2.7 2.7-2.7 1.492 0 2.7 1.207 2.7 2.7Z"/>
  <path stroke="var(--menu-icon-color)" stroke-linecap="round" stroke-linejoin="round" stroke-width="1.27" d="M26.495 21.927a2.698 2.698 0 0 1-4.5 2.01c.555-.487.9-1.207.9-2.01 0-.352-.068-.69-.188-.997a2.69 2.69 0 0 0 1.8-1.613 2.715 2.715 0 0 1 1.988 2.61Z"/>
  <path stroke="var(--menu-icon-color)" stroke-linecap="round" stroke-linejoin="round" stroke-width="1.27" d="M19.745 27.627h4.5c3.75 0 5.25-1.5 5.25-5.25v-4.5c0-3.75-1.5-5.25-5.25-5.25h-4.5c-3.75 0-5.25 1.5-5.25 5.25v4.5c0 3.75 1.5 5.25 5.25 5.25Z"/>
  <rect width="43.37" height="38.948" x=".423" y="-.423" stroke="var(--menu-icon-border-color)" stroke-width="var(--menu-icon-border-width)" rx="19.474" transform="matrix(1 0 0 -1 0 38.948)"/>
</svg>
