<svg xmlns="http://www.w3.org/2000/svg" width="45" height="40" fill="none" viewBox="10 10 35 30">
  <path stroke="var(--menu-icon-color)" stroke-linejoin="round" stroke-width=".8" d="M18.758 26.24c.124.205.235.386.328.537a48.3 48.3 0 0 0 .31-.512c.38-.631.89-1.504 1.44-2.464l1.722-2.998a.6.6 0 0 0-.002-.601l-1.736-2.974a211.34 211.34 0 0 0-1.449-2.46 36.3 36.3 0 0 0-.35-.577 347.54 347.54 0 0 0-2.424 4.238c-.373.664-.687 1.229-.905 1.632a21.411 21.411 0 0 0-.252.477l.098.182c.111.203.269.483.457.814.378.661.877 1.522 1.379 2.375.5.854 1.003 1.7 1.384 2.33Zm-3.38-5.827Zm7.597-3.923.001.001 1.44 2.51a.6.6 0 0 0 .521.302h.568c.2 0 .36 0 .488-.003l-.292-.518c-.317-.56-.746-1.312-1.213-2.122v-.001l-1.406-2.456a.6.6 0 0 0-.521-.302h-.54c-.194 0-.366.003-.51.008.067.124.148.269.238.431.313.56.747 1.323 1.226 2.15Z"/>
  <path stroke="var(--menu-icon-color)" stroke-linejoin="round" stroke-width=".8" d="m27.026 26.767.347.2-.347-.2 1.66-2.88c.533-.924 1.019-1.784 1.374-2.424a49.015 49.015 0 0 0 .512-.947 17.054 17.054 0 0 0-.415-.816 98.144 98.144 0 0 0-1.435-2.545l-1.687-2.924a.6.6 0 0 0-.506-.3l-.608-.014a21.468 21.468 0 0 0-.462-.002l1.285 2.254.396.694 1.674 2.932a1.4 1.4 0 0 1 0 1.39l-1.7 2.968a1538.417 1538.417 0 0 0-1.673 2.933c.145 0 .308-.002.48-.005l.6-.014a.6.6 0 0 0 .505-.3Zm3.598-6.359Z"/>
  <path stroke="var(--menu-icon-color)" stroke-linejoin="round" stroke-width=".8" d="M22.941 24.544v.001a166.974 166.974 0 0 0-1.44 2.55c.14.003.313.005.518.005l.544-.004a.6.6 0 0 0 .516-.303l1.39-2.433a186.068 186.068 0 0 0 1.449-2.57 23.492 23.492 0 0 0-.502-.004h-.549a.6.6 0 0 0-.52.302l-1.406 2.456Zm-1.876 2.518Z"/>
</svg>
