<svg xmlns="http://www.w3.org/2000/svg" width="45" height="41" fill="none" viewBox="0 0 45 41">
  <path stroke="var(--menu-icon-color)" stroke-linecap="round" stroke-linejoin="round" stroke-miterlimit="10" stroke-width="1.27" d="M29.5 24.528h-5.25m-7.5 0H14.5m15-8.25h-2.25m-7.5 0H14.5m3.75 6h4.5c.825 0 1.5.375 1.5 1.5v1.5c0 1.125-.675 1.5-1.5 1.5h-4.5c-.825 0-1.5-.375-1.5-1.5v-1.5c0-1.125.675-1.5 1.5-1.5Zm3-8.25h4.5c.825 0 1.5.375 1.5 1.5v1.5c0 1.125-.675 1.5-1.5 1.5h-4.5c-.825 0-1.5-.375-1.5-1.5v-1.5c0-1.125.675-1.5 1.5-1.5Z"/>
  <rect width="43.37" height="38.948" x=".423" y="-.423" stroke="var(--menu-icon-border-color)" stroke-width="var(--menu-icon-border-width)" rx="19.474" transform="matrix(1 0 0 -1 0 38.948)"/>
</svg>
