<svg xmlns="http://www.w3.org/2000/svg" width="20.219" height="20.22" viewBox="0 0 20.219 20.22"><defs><style>.a{fill:#e31337;}</style></defs><g transform="translate(10.11 10.11)"><g transform="translate(-10.11 -10.11)"><path class="a" d="M94.873,98.875l6.356-4.306a6.247,6.247,0,1,0-5.334,11.3l2.819-4.161Z" transform="translate(-88.58 -90.168)"/><path class="a" d="M193.941,112.6l-2.81,4.1,3.813,2.887-6.344,4.3a6.247,6.247,0,0,0,5.341-11.289Z" transform="translate(-180.973 -108.046)"/><path class="a" d="M20.119,8.931a1.516,1.516,0,0,1-.772-2.879A10.036,10.036,0,0,0,18.2,4.063a1.516,1.516,0,0,1-2.111-2.107A10.161,10.161,0,0,0,14.1.808,1.516,1.516,0,0,1,11.228.036a10.036,10.036,0,0,0-2.3,0A1.516,1.516,0,0,1,6.052.808,10.036,10.036,0,0,0,4.063,1.956,1.516,1.516,0,0,1,1.956,4.067,10.165,10.165,0,0,0,.808,6.056,1.516,1.516,0,0,1,.036,8.931a10.036,10.036,0,0,0,0,2.3,1.516,1.516,0,0,1,.772,2.879A10.024,10.024,0,0,0,1.956,16.1,1.516,1.516,0,0,1,4.067,18.2a10.173,10.173,0,0,0,1.989,1.148,1.516,1.516,0,0,1,2.879.772,10.036,10.036,0,0,0,2.3,0,1.516,1.516,0,0,1,2.879-.772A10.032,10.032,0,0,0,16.1,18.2a1.516,1.516,0,0,1,2.107-2.111A10.169,10.169,0,0,0,19.355,14.1a1.516,1.516,0,0,1,.772-2.879A10.032,10.032,0,0,0,20.119,8.931Zm-10.04,8.73a7.581,7.581,0,1,1,7.581-7.581A7.584,7.584,0,0,1,10.08,17.661Z" transform="translate(0.03 0.03)"/></g></g></svg>