<svg xmlns="http://www.w3.org/2000/svg" width="18" height="18" viewBox="0 0 18 18" fill="none">
  <path d="M9.11992 8.15201C9.04492 8.14451 8.95492 8.14451 8.87242 8.15201C7.08742 8.09201 5.66992 6.62951 5.66992 4.82951C5.66992 2.99201 7.15492 1.49951 8.99992 1.49951C10.8374 1.49951 12.3299 2.99201 12.3299 4.82951C12.3224 6.62951 10.9049 8.09201 9.11992 8.15201Z" stroke="#E31337" stroke-width="1.26978" stroke-linecap="round" stroke-linejoin="round"/>
  <path d="M5.37004 10.92C3.55504 12.135 3.55504 14.115 5.37004 15.3225C7.43254 16.7025 10.815 16.7025 12.8775 15.3225C14.6925 14.1075 14.6925 12.1275 12.8775 10.92C10.8225 9.5475 7.44004 9.5475 5.37004 10.92Z" stroke="#E31337" stroke-width="1.26978" stroke-linecap="round" stroke-linejoin="round"/>
</svg>