<svg width="22" height="22" viewBox="0 0 22 22" fill="none" xmlns="http://www.w3.org/2000/svg">
<path d="M11.2433 9.94171C11.1587 9.93325 11.0571 9.93325 10.964 9.94171C8.94928 9.87399 7.34937 8.22328 7.34937 6.19164C7.34937 4.11768 9.02547 2.43311 11.1079 2.43311C13.1819 2.43311 14.8664 4.11768 14.8664 6.19164C14.858 8.22328 13.2581 9.87399 11.2433 9.94171Z" stroke="#E31337" stroke-width="1.26978" stroke-linecap="round" stroke-linejoin="round"/>
<path d="M7.01104 13.0652C4.96247 14.4365 4.96247 16.6713 7.01104 18.0342C9.33896 19.5918 13.1568 19.5918 15.4847 18.0342C17.5333 16.6629 17.5333 14.4281 15.4847 13.0652C13.1652 11.516 9.34743 11.516 7.01104 13.0652Z" stroke="#E31337" stroke-width="1.26978" stroke-linecap="round" stroke-linejoin="round"/>
</svg>
