<svg xmlns="http://www.w3.org/2000/svg" width="20" height="20" viewBox="0 0 20 20" fill="none">
<path d="M8.90414 0.0561562C8.30818 0.118759 7.34366 0.345694 6.70849 0.564802C3.35228 1.7386 0.921388 4.51659 0.152911 8.06147C-0.0509704 8.98486 -0.0509704 11.0351 0.152911 11.9741C1.01549 15.9964 4.00314 18.97 8.04156 19.8464C8.96687 20.0499 11.0292 20.0499 11.9467 19.8542C12.919 19.643 13.8365 19.3065 14.7226 18.8448C15.6087 18.3831 15.8047 18.164 15.8047 17.624C15.8047 17.1858 15.4362 16.7632 14.9971 16.6928C14.7461 16.6537 14.5893 16.7085 13.9149 17.0606C12.1192 17.984 10.4332 18.2735 8.66105 17.9605C4.25407 17.1936 1.30563 13.054 2.05058 8.67967C2.84258 4.0549 7.42992 1.07345 11.978 2.22377C15.7028 3.17064 18.267 6.62161 18.0553 10.4091C18.0082 11.2542 18.0867 11.5359 18.4317 11.802C18.6983 12.0133 19.2864 12.0367 19.553 11.8489C19.9373 11.5829 20 11.3246 20 9.97867C19.9922 8.18667 19.6942 6.95027 18.8787 5.36956C17.028 1.77773 12.9818 -0.382063 8.90414 0.0561562Z" fill="currentColor"/>
<path d="M13.4521 6.46472C13.3423 6.53514 12.1896 7.65416 10.8879 8.95317L8.51187 11.3086L7.5944 10.393C7.0847 9.90003 6.59068 9.44617 6.49658 9.39921C6.03392 9.16445 5.37523 9.42269 5.17135 9.91568C4.9361 10.4791 5.02236 10.62 6.49658 12.1146C7.24153 12.8658 7.93943 13.5232 8.05705 13.5858C8.33151 13.7266 8.70007 13.7266 8.96668 13.5858C9.0843 13.5232 10.4566 12.1929 12.0171 10.6278C15.1145 7.52896 15.091 7.55244 14.8322 6.94206C14.6205 6.41776 13.899 6.17518 13.4521 6.46472Z" fill="currentColor"/>
</svg>