<svg width="20" height="21" viewBox="0 0 20 21" fill="none" xmlns="http://www.w3.org/2000/svg">
<path d="M8.90414 0.57914C8.30818 0.641872 7.34366 0.86928 6.70849 1.08884C3.35228 2.26508 0.921388 5.04885 0.152911 8.6011C-0.0509704 9.52641 -0.0509704 11.5809 0.152911 12.5219C1.01549 16.5525 4.00314 19.5323 8.04156 20.4105C8.96687 20.6144 11.0292 20.6144 11.9467 20.4184C12.919 20.2067 13.8365 19.8695 14.7226 19.4068C15.6087 18.9442 15.8047 18.7246 15.8047 18.1835C15.8047 17.7444 15.4362 17.321 14.9971 17.2504C14.7461 17.2112 14.5893 17.2661 13.9149 17.6189C12.1192 18.5442 10.4332 18.8344 8.66105 18.5207C4.25407 17.7522 1.30563 13.604 2.05058 9.22058C2.84258 4.5862 7.42992 1.59855 11.978 2.75126C15.7028 3.7001 18.267 7.15824 18.0553 10.9536C18.0082 11.8005 18.0867 12.0828 18.4317 12.3494C18.6983 12.5611 19.2864 12.5846 19.553 12.3964C19.9373 12.1298 20 11.871 20 10.5223C19.9922 8.72656 19.6942 7.48759 18.8787 5.90359C17.028 2.30429 12.9818 0.140011 8.90414 0.57914Z" fill="#E31337"/>
<path d="M13.4521 7.00193C13.3423 7.07251 12.1896 8.19386 10.8879 9.49556L8.51187 11.8559L7.5944 10.9384C7.0847 10.4444 6.59068 9.98958 6.49658 9.94253C6.03392 9.70729 5.37523 9.96606 5.17135 10.4601C4.9361 11.0247 5.02236 11.1658 6.49658 12.6636C7.24153 13.4164 7.93943 14.0751 8.05705 14.1378C8.33151 14.2789 8.70007 14.2789 8.96668 14.1378C9.0843 14.0751 10.4566 12.742 12.0171 11.1737C15.1145 8.06839 15.091 8.09192 14.8322 7.48027C14.6205 6.95489 13.899 6.7118 13.4521 7.00193Z" fill="#E31337"/>
</svg>
