<svg width="20" height="20" viewBox="0 0 20 20" fill="none" xmlns="http://www.w3.org/2000/svg">
<path d="M15.4166 16.25H12.0833" stroke="#E31337" stroke-width="1.27" stroke-linecap="round" stroke-linejoin="round"/>
<path d="M13.75 17.9163V14.583" stroke="#E31337" stroke-width="1.27" stroke-linecap="round" stroke-linejoin="round"/>
<path d="M10.1332 9.05866C10.0498 9.05033 9.94984 9.05033 9.85817 9.05866C7.87484 8.99199 6.29984 7.36699 6.29984 5.36699C6.2915 3.32533 7.94984 1.66699 9.9915 1.66699C12.0332 1.66699 13.6915 3.32533 13.6915 5.36699C13.6915 7.36699 12.1082 8.99199 10.1332 9.05866Z" stroke="#E31337" stroke-width="1.27" stroke-linecap="round" stroke-linejoin="round"/>
<path d="M9.9917 18.1751C8.47503 18.1751 6.9667 17.7917 5.8167 17.0251C3.80003 15.6751 3.80003 13.4751 5.8167 12.1334C8.10837 10.6001 11.8667 10.6001 14.1584 12.1334" stroke="#E31337" stroke-width="1.27" stroke-linecap="round" stroke-linejoin="round"/>
</svg>
