<svg xmlns="http://www.w3.org/2000/svg" width="18" height="19" viewBox="0 0 18 19" fill="none">
  <path d="M9 11.665C10.2426 11.665 11.25 10.6577 11.25 9.41504C11.25 8.1724 10.2426 7.16504 9 7.16504C7.75736 7.16504 6.75 8.1724 6.75 9.41504C6.75 10.6577 7.75736 11.665 9 11.665Z" stroke="white" stroke-width="1.26978" stroke-miterlimit="10" stroke-linecap="round" stroke-linejoin="round"/>
  <path d="M1.5 10.0751V8.75511C1.5 7.97511 2.1375 7.33011 2.925 7.33011C4.2825 7.33011 4.8375 6.37011 4.155 5.19261C3.765 4.51761 3.9975 3.64011 4.68 3.25011L5.9775 2.50761C6.57 2.15511 7.335 2.36511 7.6875 2.95761L7.77 3.10011C8.445 4.27761 9.555 4.27761 10.2375 3.10011L10.32 2.95761C10.6725 2.36511 11.4375 2.15511 12.03 2.50761L13.3275 3.25011C14.01 3.64011 14.2425 4.51761 13.8525 5.19261C13.17 6.37011 13.725 7.33011 15.0825 7.33011C15.8625 7.33011 16.5075 7.96761 16.5075 8.75511V10.0751C16.5075 10.8551 15.87 11.5001 15.0825 11.5001C13.725 11.5001 13.17 12.4601 13.8525 13.6376C14.2425 14.3201 14.01 15.1901 13.3275 15.5801L12.03 16.3226C11.4375 16.6751 10.6725 16.4651 10.32 15.8726L10.2375 15.7301C9.5625 14.5526 8.4525 14.5526 7.77 15.7301L7.6875 15.8726C7.335 16.4651 6.57 16.6751 5.9775 16.3226L4.68 15.5801C3.9975 15.1901 3.765 14.3126 4.155 13.6376C4.8375 12.4601 4.2825 11.5001 2.925 11.5001C2.1375 11.5001 1.5 10.8551 1.5 10.0751Z" stroke="white" stroke-width="1.26978" stroke-miterlimit="10" stroke-linecap="round" stroke-linejoin="round"/>
</svg>