<svg width="21" height="22" viewBox="0 0 21 22" fill="none" xmlns="http://www.w3.org/2000/svg">
<path d="M10.3635 13.4424C11.7661 13.4424 12.9031 12.3054 12.9031 10.9028C12.9031 9.50028 11.7661 8.36328 10.3635 8.36328C8.96097 8.36328 7.82397 9.50028 7.82397 10.9028C7.82397 12.3054 8.96097 13.4424 10.3635 13.4424Z" stroke="#E31337" stroke-width="1.26978" stroke-miterlimit="10" stroke-linecap="round" stroke-linejoin="round"/>
<path d="M1.89844 11.6472V10.1574C1.89844 9.27699 2.61798 8.54899 3.50682 8.54899C5.03902 8.54899 5.66544 7.46544 4.89511 6.13641C4.45492 5.37454 4.71734 4.38412 5.48767 3.94393L6.95215 3.10588C7.62089 2.70802 8.48434 2.94504 8.88221 3.61379L8.97532 3.77463C9.73719 5.10366 10.99 5.10366 11.7604 3.77463L11.8535 3.61379C12.2513 2.94504 13.1148 2.70802 13.7835 3.10588L15.248 3.94393C16.0183 4.38412 16.2808 5.37454 15.8406 6.13641C15.0702 7.46544 15.6967 8.54899 17.2289 8.54899C18.1092 8.54899 18.8372 9.26852 18.8372 10.1574V11.6472C18.8372 12.5276 18.1177 13.2556 17.2289 13.2556C15.6967 13.2556 15.0702 14.3392 15.8406 15.6682C16.2808 16.4385 16.0183 17.4205 15.248 17.8607L13.7835 18.6987C13.1148 19.0966 12.2513 18.8596 11.8535 18.1908L11.7604 18.03C10.9985 16.7009 9.74565 16.7009 8.97532 18.03L8.88221 18.1908C8.48434 18.8596 7.62089 19.0966 6.95215 18.6987L5.48767 17.8607C4.71734 17.4205 4.45492 16.4301 4.89511 15.6682C5.66544 14.3392 5.03902 13.2556 3.50682 13.2556C2.61798 13.2556 1.89844 12.5276 1.89844 11.6472Z" stroke="#E31337" stroke-width="1.26978" stroke-miterlimit="10" stroke-linecap="round" stroke-linejoin="round"/>
</svg>
