<svg width="17" height="17" viewBox="0 0 17 17" fill="none" xmlns="http://www.w3.org/2000/svg">
<path d="M12.061 8.49995C12.061 9.49451 11.6659 10.4483 10.9627 11.1516C10.2594 11.8549 9.3056 12.2499 8.31104 12.2499C7.31648 12.2499 6.36265 11.8549 5.65939 11.1516C4.95613 10.4483 4.56104 9.49451 4.56104 8.49995C4.56104 7.50538 4.95613 6.55156 5.65939 5.8483C6.36265 5.14504 7.31648 4.74995 8.31104 4.74995C9.3056 4.74995 10.2594 5.14504 10.9627 5.8483C11.6659 6.55156 12.061 7.50538 12.061 8.49995ZM12.061 8.49995C12.061 9.88078 12.9002 10.9999 13.936 10.9999C14.9719 10.9999 15.811 9.88078 15.811 8.49995C15.811 6.76478 15.2094 5.0833 14.1086 3.74201C13.0078 2.40072 11.476 1.48261 9.77416 1.14411C8.07233 0.80561 6.30578 1.06767 4.77551 1.88563C3.24524 2.70359 2.04593 4.02685 1.38192 5.62994C0.717913 7.23302 0.630297 9.01675 1.134 10.6772C1.6377 12.3376 2.70156 13.7721 4.1443 14.7361C5.58705 15.7001 7.31941 16.134 9.04621 15.9639C10.773 15.7938 12.3874 15.0302 13.6144 13.8033M12.061 8.49995V5.37495" stroke="#212838" stroke-width="1.5" stroke-linecap="round"/>
</svg>
