<svg xmlns="http://www.w3.org/2000/svg" width="18" height="18" viewBox="0 0 18 18" fill="none">
  <path d="M15 7.2C15 4.2 13.8 3 10.8 3H7.2C4.2 3 3 4.2 3 7.2V10.8C3 13.8 4.2 15 7.2 15" stroke="white" stroke-width="1.27" stroke-linecap="round" stroke-linejoin="round"/>
  <path d="M12.2625 6C11.85 5.475 11.16 5.25 10.125 5.25H7.875C6 5.25 5.25 6 5.25 7.875V10.125C5.25 11.16 5.475 11.85 5.9925 12.2625" stroke="white" stroke-width="1.27" stroke-linecap="round" stroke-linejoin="round"/>
  <path d="M6.00757 3V1.5" stroke="white" stroke-width="1.27" stroke-linecap="round" stroke-linejoin="round"/>
  <path d="M9 3V1.5" stroke="white" stroke-width="1.27" stroke-linecap="round" stroke-linejoin="round"/>
  <path d="M12 3V1.5" stroke="white" stroke-width="1.27" stroke-linecap="round" stroke-linejoin="round"/>
  <path d="M15 6H16.5" stroke="white" stroke-width="1.27" stroke-linecap="round" stroke-linejoin="round"/>
  <path d="M6.00757 15V16.5" stroke="white" stroke-width="1.27" stroke-linecap="round" stroke-linejoin="round"/>
  <path d="M1.5 6H3" stroke="white" stroke-width="1.27" stroke-linecap="round" stroke-linejoin="round"/>
  <path d="M1.5 9H3" stroke="white" stroke-width="1.27" stroke-linecap="round" stroke-linejoin="round"/>
  <path d="M1.5 12H3" stroke="white" stroke-width="1.27" stroke-linecap="round" stroke-linejoin="round"/>
  <path d="M12.5326 13.9426C13.1912 13.9426 13.7251 13.4087 13.7251 12.7501C13.7251 12.0915 13.1912 11.5576 12.5326 11.5576C11.874 11.5576 11.3401 12.0915 11.3401 12.7501C11.3401 13.4087 11.874 13.9426 12.5326 13.9426Z" stroke="white" stroke-width="1.27" stroke-miterlimit="10" stroke-linecap="round" stroke-linejoin="round"/>
  <path d="M8.55762 13.0951V12.3976C8.55762 11.9851 8.89512 11.6476 9.30762 11.6476C10.0276 11.6476 10.3201 11.1376 9.96012 10.5151C9.75012 10.1551 9.87762 9.69014 10.2376 9.48764L10.9201 9.09014C11.2351 8.90264 11.6401 9.01514 11.8276 9.33014L11.8726 9.40514C12.2326 10.0276 12.8176 10.0276 13.1776 9.40514L13.2226 9.33014C13.4101 9.01514 13.8151 8.91014 14.1301 9.09014L14.8126 9.48764C15.1726 9.69764 15.3001 10.1551 15.0901 10.5151C14.7301 11.1376 15.0226 11.6476 15.7426 11.6476C16.1551 11.6476 16.4926 11.9851 16.4926 12.3976V13.0951C16.4926 13.5076 16.1551 13.8451 15.7426 13.8451C15.0226 13.8451 14.7301 14.3551 15.0901 14.9776C15.3001 15.3376 15.1726 15.8026 14.8126 16.0051L14.1301 16.4026C13.8151 16.5901 13.4101 16.4776 13.2226 16.1626L13.1776 16.0876C12.8176 15.4651 12.2326 15.4651 11.8726 16.0876L11.8276 16.1626C11.6401 16.4776 11.2351 16.5826 10.9201 16.4026L10.2376 16.0051C9.87762 15.7951 9.75012 15.3376 9.96012 14.9776C10.3201 14.3551 10.0276 13.8451 9.30762 13.8451C8.89512 13.8526 8.55762 13.5151 8.55762 13.0951Z" stroke="white" stroke-width="1.27" stroke-miterlimit="10" stroke-linecap="round" stroke-linejoin="round"/>
</svg>