<svg width="24" height="25" viewBox="0 0 24 25" fill="none" xmlns="http://www.w3.org/2000/svg">
<path d="M18.0395 13.6086C17.6195 14.0186 17.3795 14.6086 17.4395 15.2386C17.5295 16.3186 18.5195 17.1086 19.5995 17.1086H21.4995V18.2986C21.4995 20.3686 19.8095 22.0586 17.7395 22.0586H6.25951C4.18951 22.0586 2.49951 20.3686 2.49951 18.2986V11.5686C2.49951 9.4986 4.18951 7.80859 6.25951 7.80859H17.7395C19.8095 7.80859 21.4995 9.4986 21.4995 11.5686V13.0086H19.4795C18.9195 13.0086 18.4095 13.2286 18.0395 13.6086Z" stroke="white" stroke-width="1.5" stroke-linecap="round" stroke-linejoin="round"/>
<path d="M2.49951 12.4689V7.89894C2.49951 6.70894 3.22951 5.6489 4.33951 5.2289L12.2795 2.2289C13.5195 1.7589 14.8495 2.67893 14.8495 4.00893V7.80892" stroke="white" stroke-width="1.5" stroke-linecap="round" stroke-linejoin="round"/>
<path d="M22.5583 14.0287V16.0888C22.5583 16.6388 22.1183 17.0888 21.5583 17.1088H19.5983C18.5183 17.1088 17.5283 16.3188 17.4383 15.2388C17.3783 14.6088 17.6183 14.0188 18.0383 13.6088C18.4083 13.2288 18.9183 13.0088 19.4783 13.0088H21.5583C22.1183 13.0288 22.5583 13.4787 22.5583 14.0287Z" stroke="white" stroke-width="1.5" stroke-linecap="round" stroke-linejoin="round"/>
<path d="M6.99951 12.0586H13.9995" stroke="white" stroke-width="1.5" stroke-linecap="round" stroke-linejoin="round"/>
</svg>
