<svg width="96" height="21" viewBox="0 0 96 21" fill="none" xmlns="http://www.w3.org/2000/svg">
<path d="M4.75981 10.4343L2.59332 12.7914L0.428711 10.4343L2.59332 8.07733L4.75981 10.4343ZM10.0122 4.71103L13.7216 8.75222L15.8862 6.3952L10.0122 -0.000976543L4.13814 6.3952L6.30275 8.75222L10.0122 4.71103ZM17.4329 8.07733L15.2683 10.4343L17.4329 12.7914L19.5956 10.4343L17.4329 8.07733ZM10.0122 16.1577L6.30275 12.1185L4.13814 14.4735L10.0122 20.8697L15.8862 14.4735L13.7216 12.1185L10.0122 16.1577ZM10.0122 12.7914L12.1768 10.4343L10.0122 8.07733L7.84756 10.4343L10.0122 12.7914ZM32.8567 13.0177L32.8567 12.9851C32.8567 11.4477 32.1077 10.679 30.8887 10.1734C31.6377 9.7146 32.2706 8.99485 32.2706 7.7042L32.2706 7.67158C32.2706 5.87323 30.9486 4.71103 28.8009 4.71103L23.9249 4.71103L23.9249 16.1577L28.9244 16.1577C31.2969 16.1577 32.8604 15.1117 32.8604 13.0177L32.8567 13.0177ZM29.973 8.12422C29.973 8.97446 29.327 9.33536 28.3065 9.33536L26.1775 9.33536L26.1775 6.91921L28.4601 6.91921C29.4356 6.91921 29.9768 7.34331 29.9768 8.09568L29.973 8.12422ZM30.5591 12.7037C30.5591 13.5539 29.9431 13.9454 28.9207 13.9454L26.1775 13.9454L26.1775 11.4314L28.8495 11.4314C30.0367 11.4314 30.5629 11.9065 30.5629 12.6752L30.5591 12.7037ZM37.7158 16.1577L37.7158 4.71103L35.3958 4.71103L35.3958 16.1577L37.7158 16.1577ZM50.1474 16.1577L50.1474 4.71103L47.8573 4.71103L47.8573 11.7597L42.9326 4.71103L40.7998 4.71103L40.7998 16.1577L43.0824 16.1577L43.0824 8.88067L48.1719 16.1577L50.1474 16.1577ZM62.9572 16.1577L58.4444 4.62947L56.3116 4.62947L51.8083 16.1577L54.1658 16.1577L55.1301 13.5906L59.5754 13.5906L60.536 16.1577L62.9572 16.1577ZM58.7534 11.3661L55.9521 11.3661L57.349 7.65527L58.7534 11.3661ZM73.9806 16.1577L73.9806 4.71103L71.6905 4.71103L71.6905 11.7597L66.764 4.71103L64.633 4.71103L64.633 16.1577L66.9137 16.1577L66.9137 8.88067L72.0051 16.1577L73.9806 16.1577ZM85.9178 14.3104L84.4479 12.6915C83.6221 13.507 82.8862 14.031 81.684 14.031C79.8827 14.031 78.6356 12.3999 78.6356 10.4343L78.6356 10.4017C78.6356 8.44026 79.9127 6.83765 81.684 6.83765C82.7345 6.83765 83.5565 7.327 84.373 8.1283L85.8391 6.28102C84.8635 5.23504 83.6783 4.51529 81.6953 4.51529C78.4671 4.51529 76.2145 7.18019 76.2145 10.4282L76.2145 10.4609C76.2145 13.7476 78.512 16.3473 81.6054 16.3473C83.6296 16.3534 84.8298 15.5684 85.9103 14.3104L85.9178 14.3104ZM95.7859 16.1577L95.7859 13.9148L90.071 13.9148L90.071 11.5068L95.0275 11.5068L95.0275 9.26399L90.071 9.26399L90.071 6.95183L95.7035 6.95183L95.7035 4.70899L87.7734 4.70899L87.7734 16.1556L95.7859 16.1577Z" fill="#F0B90B"/>
</svg>
