<svg width="25" height="25" viewBox="0 0 25 25" fill="none" xmlns="http://www.w3.org/2000/svg">
<path d="M20.2489 10.5557H4.69336V18.3334C4.69336 21.2501 5.66558 22.2223 8.58225 22.2223H16.36C19.2767 22.2223 20.2489 21.2501 20.2489 18.3334V10.5557Z" stroke="#E31337" stroke-width="1.14931" stroke-miterlimit="10" stroke-linecap="round" stroke-linejoin="round"/>
<path d="M21.7364 7.63976V8.61198C21.7364 9.68142 21.2211 10.5564 19.7919 10.5564H5.2086C3.7211 10.5564 3.26416 9.68142 3.26416 8.61198V7.63976C3.26416 6.57031 3.7211 5.69531 5.2086 5.69531H19.7919C21.2211 5.69531 21.7364 6.57031 21.7364 7.63976Z" stroke="#E31337" stroke-width="1.14931" stroke-miterlimit="10" stroke-linecap="round" stroke-linejoin="round"/>
<path d="M12.1505 5.69549H6.7838C6.45325 5.33576 6.46297 4.7816 6.81297 4.4316L8.19352 3.05104C8.55325 2.69132 9.1463 2.69132 9.50602 3.05104L12.1505 5.69549Z" stroke="#E31337" stroke-width="1.14931" stroke-miterlimit="10" stroke-linecap="round" stroke-linejoin="round"/>
<path d="M18.2075 5.69549H12.8408L15.4853 3.05104C15.845 2.69132 16.438 2.69132 16.7978 3.05104L18.1783 4.4316C18.5283 4.7816 18.538 5.33576 18.2075 5.69549Z" stroke="#E31337" stroke-width="1.14931" stroke-miterlimit="10" stroke-linecap="round" stroke-linejoin="round"/>
<path d="M9.52539 10.5557V15.5529C9.52539 16.3307 10.3809 16.7876 11.0323 16.3696L11.9462 15.7668C12.2768 15.5529 12.6948 15.5529 13.0157 15.7668L13.8809 16.3501C14.5226 16.7779 15.3879 16.3209 15.3879 15.5432V10.5557H9.52539Z" stroke="#E31337" stroke-width="1.14931" stroke-miterlimit="10" stroke-linecap="round" stroke-linejoin="round"/>
</svg>
