<svg width="19" height="19" viewBox="0 0 19 19" fill="none" xmlns="http://www.w3.org/2000/svg">
<path d="M9.86361 1.2259C14.5195 1.2259 18.3288 5.03523 18.3288 9.69108C18.3288 14.3469 14.5195 18.1562 9.86361 18.1562C5.20777 18.1562 1.39844 14.3469 1.39844 9.69108C1.39844 5.03523 5.20777 1.2259 9.86361 1.2259Z" stroke="#E73050" stroke-width="1.26978" stroke-linecap="round" stroke-linejoin="round"/>
<path d="M10.6619 9.68467L13.7135 6.63305C13.8124 6.52691 13.8662 6.38652 13.8637 6.24146C13.8611 6.0964 13.8024 5.95799 13.6998 5.85541C13.5972 5.75282 13.4588 5.69405 13.3137 5.69149C13.1687 5.68893 13.0283 5.74278 12.9221 5.84169L9.87051 8.8933L6.81889 5.84169C6.71275 5.74278 6.57236 5.68893 6.4273 5.69149C6.28224 5.69405 6.14383 5.75282 6.04124 5.85541C5.93865 5.95799 5.87989 6.0964 5.87733 6.24146C5.87477 6.38652 5.92862 6.52691 6.02752 6.63305L9.07914 9.68467L6.02752 12.7363C5.92267 12.8413 5.86377 12.9836 5.86377 13.132C5.86377 13.2804 5.92267 13.4227 6.02752 13.5277C6.13251 13.6325 6.27482 13.6914 6.42321 13.6914C6.57159 13.6914 6.7139 13.6325 6.81889 13.5277L9.87051 10.476L12.9221 13.5277C13.0283 13.6266 13.1687 13.6804 13.3137 13.6778C13.4588 13.6753 13.5972 13.6165 13.6998 13.5139C13.8024 13.4113 13.8611 13.2729 13.8637 13.1279C13.8662 12.9828 13.8124 12.8424 13.7135 12.7363L10.6619 9.68467Z" fill="#E31337"/>
</svg>
