<svg width="22" height="20" viewBox="0 0 22 20" fill="none" xmlns="http://www.w3.org/2000/svg">
<path fill-rule="evenodd" clip-rule="evenodd" d="M3.26382 7.97826H2.67909C1.75234 7.97826 1 8.73064 1 9.65728V12.1536C1 13.0803 1.75236 13.8327 2.67909 13.8327H3.33789C3.51899 14.6886 3.94455 15.4812 4.57259 16.1093C5.31899 16.8557 6.29785 17.3161 7.33917 17.42C7.45517 18.2563 8.17366 18.9009 9.04157 18.9009L11.2084 18.9009C12.1569 18.9009 12.9271 18.1308 12.9271 17.1821V16.7653C12.9271 15.8168 12.157 15.0466 11.2084 15.0466H9.04157C8.19102 15.0466 7.48398 15.6657 7.34683 16.4776C6.55204 16.3791 5.80774 16.0186 5.23551 15.4463C4.55766 14.7685 4.17685 13.8492 4.17685 12.8906V8.59852C4.17685 4.83273 7.23419 1.77539 10.9999 1.77539C14.7657 1.77539 17.8232 4.83272 17.8232 8.59852C17.8232 8.5985 17.8232 13.3639 17.8232 13.3639C17.8232 13.6226 18.0332 13.8327 18.2919 13.8327C18.3125 13.8327 18.3327 13.8313 18.3525 13.8288C18.3724 13.8313 18.3926 13.8327 18.4132 13.8327H19.3209C20.2477 13.8327 21 13.0803 21 12.1536V9.65726C21 8.73062 20.2477 7.97824 19.3209 7.97824H18.7362C18.42 3.98484 15.0746 0.837891 11 0.837891C6.92535 0.837891 3.57994 3.98485 3.2638 7.97824L3.26382 7.97826ZM11.9896 16.7654V17.1821C11.9896 17.6133 11.6396 17.9634 11.2084 17.9634H9.04159C8.61038 17.9634 8.26032 17.6133 8.26032 17.1821V16.7654C8.26032 16.3342 8.6104 15.9841 9.04159 15.9841H11.2084C11.6396 15.9841 11.9896 16.3342 11.9896 16.7654ZM18.7607 12.8952H19.3209C19.7303 12.8952 20.0625 12.5629 20.0625 12.1536V9.6573C20.0625 9.24805 19.7302 8.91579 19.3209 8.91579H18.7607V12.8952ZM3.23937 8.91579H2.67912C2.26982 8.91579 1.93752 9.24805 1.93752 9.6573V12.1536C1.93752 12.5629 2.26982 12.8952 2.67912 12.8952H3.23939L3.23937 12.8906V8.91579Z" fill="#E31337" stroke="#E31337" stroke-width="0.3"/>
</svg>
