<svg xmlns="http://www.w3.org/2000/svg" width="18" height="18" viewBox="0 0 18 18" fill="none">
<path fill-rule="evenodd" clip-rule="evenodd" d="M2.03744 7.32486H1.51118C0.67711 7.32486 0 7.99131 0 8.81212V11.0233C0 11.8442 0.677126 12.5106 1.51118 12.5106H2.1041C2.26709 13.2688 2.65009 13.9709 3.21533 14.5272C3.88709 15.1884 4.76806 15.5962 5.70525 15.6882C5.80966 16.429 6.4563 17 7.23741 17L9.18755 17C10.0412 17 10.7344 16.3178 10.7344 15.4775V15.1083C10.7344 14.2681 10.0413 13.5859 9.18755 13.5859H7.23741C6.47192 13.5859 5.83558 14.1343 5.71215 14.8535C4.99684 14.7663 4.32697 14.4469 3.81196 13.94C3.20189 13.3396 2.85917 12.5253 2.85917 11.6762V7.87428C2.85917 4.53858 5.61077 1.83042 8.99995 1.83042C12.3892 1.83042 15.1408 4.53858 15.1408 7.87428C15.1408 7.87426 15.1408 12.0954 15.1408 12.0954C15.1408 12.3246 15.3299 12.5106 15.5627 12.5106C15.5812 12.5106 15.5994 12.5094 15.6173 12.5072C15.6352 12.5094 15.6534 12.5106 15.6719 12.5106H16.4888C17.3229 12.5106 18 11.8442 18 11.0233V8.8121C18 7.99129 17.3229 7.32484 16.4888 7.32484H15.9626C15.678 3.78753 12.6671 1 8.99997 1C5.33281 1 2.32195 3.78754 2.03742 7.32484L2.03744 7.32486ZM9.89065 15.1084V15.4775C9.89065 15.8595 9.57561 16.1696 9.18757 16.1696H7.23743C6.84934 16.1696 6.53429 15.8595 6.53429 15.4775V15.1084C6.53429 14.7265 6.84936 14.4164 7.23743 14.4164H9.18757C9.57561 14.4164 9.89065 14.7265 9.89065 15.1084ZM15.9846 11.6802H16.4888C16.8572 11.6802 17.1563 11.3859 17.1563 11.0233V8.81213C17.1563 8.44962 16.8572 8.15531 16.4888 8.15531H15.9846V11.6802ZM2.01543 8.15531H1.51121C1.14283 8.15531 0.843769 8.44962 0.843769 8.81213V11.0233C0.843769 11.3859 1.14283 11.6802 1.51121 11.6802H2.01545L2.01543 11.6762V8.15531Z" fill="white" stroke="white" stroke-width="0.3"/>
</svg>