<svg width="15" height="15" viewBox="0 0 15 15" fill="none" xmlns="http://www.w3.org/2000/svg">
<path d="M13.563 7.50902C13.563 10.8503 10.8512 13.562 7.51 13.562C4.16876 13.562 2.12891 10.1965 2.12891 10.1965M2.12891 10.1965H4.86485M2.12891 10.1965V13.223M1.45703 7.50902C1.45703 4.16779 4.14455 1.45605 7.51 1.45605C11.5473 1.45605 13.563 4.82151 13.563 4.82151M13.563 4.82151V1.79502M13.563 4.82151H10.8755" stroke="black" stroke-width="1.25111" stroke-linecap="round" stroke-linejoin="round"/>
<path d="M6.53125 8.2519C6.53125 8.7302 6.89832 9.11581 7.35438 9.11581L8.28503 9.11581C8.68176 9.11581 9.00434 8.7784 9.00434 8.36313C9.00434 7.91078 8.80783 7.75135 8.51491 7.64753L7.02068 7.12844C6.72776 7.02462 6.53125 6.86519 6.53125 6.41284C6.53125 5.99756 6.85383 5.66016 7.25056 5.66016L8.18121 5.66016C8.63727 5.66016 9.00434 6.04577 9.00434 6.52407" stroke="#A5112C" stroke-width="0.834072" stroke-linecap="round" stroke-linejoin="round"/>
<path d="M7.76562 5.16406L7.76563 9.6134" stroke="#A5112C" stroke-width="0.834072" stroke-linecap="round" stroke-linejoin="round"/>
</svg>
