<svg fill="none" xmlns="http://www.w3.org/2000/svg">
<path d="M10.8503 6.00741C10.8503 8.68041 8.6809 10.8498 6.0079 10.8498C3.33491 10.8498 1.70303 8.15743 1.70303 8.15743M1.70303 8.15743H3.89179M1.70303 8.15743V10.5786M1.16553 6.00741C1.16553 3.33442 3.31554 1.16504 6.0079 1.16504C9.23777 1.16504 10.8503 3.8574 10.8503 3.8574M10.8503 3.8574V1.43621M10.8503 3.8574H8.70026" stroke="currentColor" stroke-width="1.00089" stroke-linecap="round" stroke-linejoin="round"/>
<path d="M5.2251 6.60171C5.2251 6.98436 5.51875 7.29284 5.8836 7.29284L6.62812 7.29284C6.94551 7.29284 7.20357 7.02292 7.20357 6.6907C7.20357 6.32882 7.04636 6.20127 6.81203 6.11822L5.61664 5.70295C5.38231 5.61989 5.2251 5.49234 5.2251 5.13046C5.2251 4.79825 5.48316 4.52832 5.80055 4.52832L6.54507 4.52832C6.90991 4.52832 7.20357 4.83681 7.20357 5.21945" stroke="currentColor" stroke-width="0.667257" stroke-linecap="round" stroke-linejoin="round"/>
<path d="M6.2124 4.13184L6.2124 7.69131" stroke="currentColor" stroke-width="0.667257" stroke-linecap="round" stroke-linejoin="round"/>
</svg>