<svg xmlns="http://www.w3.org/2000/svg" width="18" height="18" viewBox="0 0 18 18" fill="none">
<path d="M13.6851 8.84254C13.6851 11.5156 11.5156 13.6851 8.84254 13.6851C6.16946 13.6851 4.53752 10.9926 4.53752 10.9926M4.53752 10.9926H6.72635M4.53752 10.9926V13.4139M4 8.84254C4 6.16946 6.15009 4 8.84254 4C12.0725 4 13.6851 6.69245 13.6851 6.69245M13.6851 6.69245V4.27118M13.6851 6.69245H11.535" stroke="currentColor" stroke-width="1.00092" stroke-linecap="round" stroke-linejoin="round"/>
<path d="M8.05957 9.43675C8.05957 9.8194 8.35324 10.1279 8.7181 10.1279L9.46264 10.1279C9.78004 10.1279 10.0381 9.85796 10.0381 9.52574C10.0381 9.16384 9.8809 9.03629 9.64656 8.95323L8.45113 8.53795C8.21679 8.45489 8.05957 8.32734 8.05957 7.96545C8.05957 7.63322 8.31764 7.36328 8.63504 7.36328L9.37959 7.36328C9.74445 7.36328 10.0381 7.67178 10.0381 8.05444" stroke="currentColor" stroke-width="0.66728" stroke-linecap="round" stroke-linejoin="round"/>
<path d="M9.04736 6.9668L9.04736 10.5264" stroke="currentColor" stroke-width="0.66728" stroke-linecap="round" stroke-linejoin="round"/>
</svg>