<svg xmlns="http://www.w3.org/2000/svg" width="21" height="20" viewBox="0 0 21 20" fill="none">
<rect x="0.30663" y="-0.30663" width="19.3897" height="19.3874" rx="9.69371" transform="matrix(1 0 0 -1 0 19.3877)" stroke="white" stroke-width="0.61326"/>
<path d="M14.8511 10.0076C14.8511 12.6807 12.6816 14.8501 10.0086 14.8501C7.33547 14.8501 5.70354 12.1577 5.70354 12.1577M5.70354 12.1577H7.89237M5.70354 12.1577V14.5789M5.16602 10.0076C5.16602 7.3345 7.3161 5.16504 10.0086 5.16504C13.2385 5.16504 14.8511 7.85749 14.8511 7.85749M14.8511 7.85749V5.43622M14.8511 7.85749H12.701" stroke="white" stroke-width="1.00092" stroke-linecap="round" stroke-linejoin="round"/>
<path d="M9.22559 10.6018C9.22559 10.9844 9.51925 11.2929 9.88411 11.2929L10.6287 11.2929C10.9461 11.2929 11.2041 11.023 11.2041 10.6908C11.2041 10.3289 11.0469 10.2013 10.8126 10.1183L9.61714 9.70299C9.3828 9.61993 9.22559 9.49238 9.22559 9.13049C9.22559 8.79826 9.48366 8.52832 9.80105 8.52832L10.5456 8.52832C10.9105 8.52832 11.2041 8.83682 11.2041 9.21947" stroke="white" stroke-width="0.66728" stroke-linecap="round" stroke-linejoin="round"/>
<path d="M10.2134 8.13184L10.2134 11.6914" stroke="white" stroke-width="0.66728" stroke-linecap="round" stroke-linejoin="round"/>
</svg>