<svg width="25" height="25" viewBox="0 0 25 25" fill="none" xmlns="http://www.w3.org/2000/svg">
<path d="M22.9168 11.5622V7.18717C22.9168 3.54134 21.4585 2.08301 17.8127 2.08301H13.4377C9.79183 2.08301 8.3335 3.54134 8.3335 7.18717V8.33301H11.5627C15.2085 8.33301 16.6668 9.79134 16.6668 13.4372V16.6663H17.8127C21.4585 16.6663 22.9168 15.208 22.9168 11.5622Z" stroke="#212838" stroke-width="1.5" stroke-linecap="round" stroke-linejoin="round"/>
<path d="M16.6668 17.8122V13.4372C16.6668 9.79134 15.2085 8.33301 11.5627 8.33301H7.18766C3.54183 8.33301 2.0835 9.79134 2.0835 13.4372V17.8122C2.0835 21.458 3.54183 22.9163 7.18766 22.9163H11.5627C15.2085 22.9163 16.6668 21.458 16.6668 17.8122Z" stroke="#212838" stroke-width="1.5" stroke-linecap="round" stroke-linejoin="round"/>
<path d="M6.3335 15.625L8.36475 17.6563L12.4168 13.5938" stroke="#212838" stroke-width="1.5" stroke-linecap="round" stroke-linejoin="round"/>
</svg>
