<svg width="20" height="20" viewBox="0 0 20 20" fill="none" xmlns="http://www.w3.org/2000/svg">
<path d="M7.63338 9.05866C7.55005 9.05033 7.45005 9.05033 7.35838 9.05866C5.37505 8.99199 3.80005 7.36699 3.80005 5.36699C3.80005 3.32533 5.45005 1.66699 7.50005 1.66699C9.54172 1.66699 11.2 3.32533 11.2 5.36699C11.1917 7.36699 9.61672 8.99199 7.63338 9.05866Z" stroke="#E31337" stroke-width="1.27" stroke-linecap="round" stroke-linejoin="round"/>
<path d="M12.8417 3.33301C14.4584 3.33301 15.7584 4.64134 15.7584 6.24967C15.7584 7.82467 14.5084 9.10801 12.9501 9.16634C12.8834 9.15801 12.8084 9.15801 12.7334 9.16634" stroke="#E31337" stroke-width="1.27" stroke-linecap="round" stroke-linejoin="round"/>
<path d="M3.4666 12.133C1.44993 13.483 1.44993 15.683 3.4666 17.0247C5.75827 18.558 9.5166 18.558 11.8083 17.0247C13.8249 15.6747 13.8249 13.4747 11.8083 12.133C9.52494 10.608 5.7666 10.608 3.4666 12.133Z" stroke="#E31337" stroke-width="1.27" stroke-linecap="round" stroke-linejoin="round"/>
<path d="M16.0834 11.5497C15.6251 11.1997 15.0668 10.9663 14.4751 10.833" stroke="#E31337" stroke-width="1.27" stroke-linecap="round" stroke-linejoin="round"/>
<path d="M16.6667 16.6663V13.333" stroke="#E31337" stroke-width="1.27" stroke-linecap="round" stroke-linejoin="round"/>
<path d="M18.3333 15H15" stroke="#E31337" stroke-width="1.27" stroke-linecap="round" stroke-linejoin="round"/>
</svg>
