<svg xmlns="http://www.w3.org/2000/svg" width="18" height="18" viewBox="0 0 18 18" fill="none">
  <path d="M6.86992 8.1525C6.79492 8.145 6.70492 8.145 6.62242 8.1525C4.83742 8.0925 3.41992 6.63 3.41992 4.83C3.41992 2.9925 4.90492 1.5 6.74992 1.5C8.58742 1.5 10.0799 2.9925 10.0799 4.83C10.0724 6.63 8.65492 8.0925 6.86992 8.1525Z" stroke="white" stroke-width="1.27" stroke-linecap="round" stroke-linejoin="round"/>
  <path d="M11.5575 3C13.0125 3 14.1825 4.1775 14.1825 5.625C14.1825 7.0425 13.0575 8.1975 11.655 8.25C11.595 8.2425 11.5275 8.2425 11.46 8.25" stroke="white" stroke-width="1.27" stroke-linecap="round" stroke-linejoin="round"/>
  <path d="M3.12004 10.92C1.30504 12.135 1.30504 14.115 3.12004 15.3225C5.18254 16.7025 8.56504 16.7025 10.6275 15.3225C12.4425 14.1075 12.4425 12.1275 10.6275 10.92C8.57254 9.5475 5.19004 9.5475 3.12004 10.92Z" stroke="white" stroke-width="1.27" stroke-linecap="round" stroke-linejoin="round"/>
  <path d="M14.4751 10.395C14.0626 10.08 13.5601 9.87 13.0276 9.75" stroke="white" stroke-width="1.27" stroke-linecap="round" stroke-linejoin="round"/>
  <path d="M15 15V12" stroke="white" stroke-width="1.27" stroke-linecap="round" stroke-linejoin="round"/>
  <path d="M16.5 13.5H13.5" stroke="white" stroke-width="1.27" stroke-linecap="round" stroke-linejoin="round"/>
</svg>