<svg width="18" height="18" viewBox="0 0 18 18" fill="none" xmlns="http://www.w3.org/2000/svg">
<path d="M14.9774 7.5H2.97742V13.5C2.97742 15.75 3.72742 16.5 5.97742 16.5H11.9774C14.2274 16.5 14.9774 15.75 14.9774 13.5V7.5Z" stroke="#E31337" stroke-width="1.5" stroke-miterlimit="10" stroke-linecap="round" stroke-linejoin="round"/>
<path d="M16.1249 5.25V6C16.1249 6.825 15.7274 7.5 14.6249 7.5H3.37488C2.22738 7.5 1.87488 6.825 1.87488 6V5.25C1.87488 4.425 2.22738 3.75 3.37488 3.75H14.6249C15.7274 3.75 16.1249 4.425 16.1249 5.25Z" stroke="#E31337" stroke-width="1.5" stroke-miterlimit="10" stroke-linecap="round" stroke-linejoin="round"/>
<path d="M6.37488 3.37378L6.4274 1.7091C6.7049 1.4316 10.9724 1.4316 11.2499 1.7091V3.37378" stroke="#E31337" stroke-width="1.5" stroke-miterlimit="10" stroke-linecap="round" stroke-linejoin="round"/>
<path d="M10.5002 10.501L7.50024 12.751" stroke="#E31337" stroke-width="0.5" stroke-linecap="round"/>
<path d="M7.50024 10.501L10.5002 12.751" stroke="#E31337" stroke-width="0.5" stroke-linecap="round"/>
</svg>
