<svg width="21" height="22" viewBox="0 0 21 22" fill="none" xmlns="http://www.w3.org/2000/svg">
<path d="M1.56776 0.666943C0.960359 0.896772 0.402202 1.46314 0.172372 2.07054C0.041041 2.43991 0 2.7272 0 3.35923C0 4.31959 0.164164 4.86133 0.615615 5.39486C1.29689 6.19106 2.57737 6.4373 3.54594 5.96123C4.07126 5.69857 4.45705 5.30457 4.7115 4.76283C4.85925 4.44271 4.88388 4.2293 4.88388 3.35923C4.88388 2.39887 4.86746 2.30037 4.65405 1.86534C4.09589 0.7244 2.75795 0.207284 1.56776 0.666943ZM2.86466 2.24292C3.17657 2.40708 3.28328 2.69437 3.28328 3.35923C3.28328 4.02409 3.17657 4.31138 2.86466 4.47554C2.43783 4.69717 1.92072 4.54121 1.74014 4.13901C1.60881 3.85172 1.61701 2.79287 1.75655 2.54662C1.96997 2.16083 2.44604 2.0295 2.86466 2.24292Z" fill="#E31337"/>
<path d="M8.46228 0.601068C8.0765 0.814481 7.94517 1.29056 8.15858 1.70917C8.31454 2.00467 8.61003 2.12779 9.19281 2.12779H9.6853V3.35902V4.59025H9.19281C8.61003 4.59025 8.31454 4.71337 8.15858 5.00887C7.93696 5.43569 8.09291 5.95281 8.49512 6.13339C8.82344 6.28114 12.2463 6.27293 12.55 6.11697C12.9357 5.91177 13.0671 5.43569 12.8537 5.00887C12.6977 4.71337 12.4022 4.59025 11.8194 4.59025H11.3269V2.86653C11.3269 0.986853 11.2859 0.77344 10.8755 0.584651C10.5718 0.445112 8.71674 0.461528 8.46228 0.601068Z" fill="#E31337"/>
<path d="M17.6557 0.666943C17.0482 0.896772 16.4901 1.46314 16.2603 2.07054C16.1289 2.43991 16.0879 2.7272 16.0879 3.35923C16.0879 4.31959 16.2521 4.86133 16.7035 5.39486C17.3848 6.19106 18.6653 6.4373 19.6338 5.96123C20.1592 5.69857 20.5449 5.30457 20.7994 4.76283C20.9471 4.44271 20.9718 4.2293 20.9718 3.35923C20.9718 2.39887 20.9553 2.30037 20.7419 1.86534C20.1838 0.7244 18.8458 0.207284 17.6557 0.666943ZM18.9526 2.24292C19.2645 2.40708 19.3712 2.69437 19.3712 3.35923C19.3712 4.02409 19.2645 4.31138 18.9526 4.47554C18.5257 4.69717 18.0086 4.54121 17.828 4.13901C17.6967 3.85172 17.7049 2.79287 17.8444 2.54662C18.0579 2.16083 18.5339 2.0295 18.9526 2.24292Z" fill="#E31337"/>
<path d="M0.418338 7.98876C0.0325528 8.20218 -0.0987783 8.67825 0.114635 9.09687C0.27059 9.39236 0.566085 9.51549 1.14887 9.51549H1.64136V10.7467V11.9779H1.14887C0.566085 11.9779 0.27059 12.1011 0.114635 12.3966C-0.106986 12.8234 0.0489692 13.3405 0.451171 13.5211C0.779498 13.6688 4.20232 13.6606 4.50602 13.5047C4.8918 13.2995 5.02313 12.8234 4.80972 12.3966C4.65377 12.1011 4.35827 11.9779 3.77549 11.9779H3.283V10.2542C3.283 8.37455 3.24196 8.16114 2.83155 7.97235C2.52784 7.83281 0.672792 7.84922 0.418338 7.98876Z" fill="#E31337"/>
<path d="M9.61171 8.05464C9.0043 8.28447 8.44615 8.85083 8.21632 9.45824C8.08499 9.82761 8.04395 10.1149 8.04395 10.7469C8.04395 11.7073 8.20811 12.249 8.65956 12.7826C9.34084 13.5788 10.6213 13.825 11.5899 13.3489C12.1152 13.0863 12.501 12.6923 12.7554 12.1505C12.9032 11.8304 12.9278 11.617 12.9278 10.7469C12.9278 9.78657 12.9114 9.68807 12.698 9.25303C12.1398 8.1121 10.8019 7.59498 9.61171 8.05464ZM10.9086 9.63061C11.2205 9.79478 11.3272 10.0821 11.3272 10.7469C11.3272 11.4118 11.2205 11.6991 10.9086 11.8632C10.4818 12.0849 9.96466 11.9289 9.78408 11.5267C9.65275 11.2394 9.66096 10.1806 9.8005 9.93431C10.0139 9.54853 10.49 9.4172 10.9086 9.63061Z" fill="#E31337"/>
<path d="M16.5072 7.98876C16.1214 8.20218 15.9901 8.67825 16.2035 9.09687C16.3595 9.39236 16.655 9.51549 17.2377 9.51549H17.7302V10.7467V11.9779H17.2377C16.655 11.9779 16.3595 12.1011 16.2035 12.3966C15.9819 12.8234 16.1378 13.3405 16.54 13.5211C16.8684 13.6688 20.2912 13.6606 20.5949 13.5047C20.9807 13.2995 21.112 12.8234 20.8986 12.3966C20.7426 12.1011 20.4471 11.9779 19.8644 11.9779H19.3719V10.2542C19.3719 8.37455 19.3308 8.16114 18.9204 7.97235C18.6167 7.83281 16.7617 7.84922 16.5072 7.98876Z" fill="#E31337"/>
<path d="M1.56776 15.4423C0.960359 15.6722 0.402202 16.2385 0.172372 16.8459C0.041041 17.2153 0 17.5026 0 18.1346C0 19.095 0.164164 19.6367 0.615615 20.1703C1.29689 20.9664 2.57737 21.2127 3.54594 20.7366C4.07126 20.474 4.45705 20.08 4.7115 19.5382C4.85925 19.2181 4.88388 19.0047 4.88388 18.1346C4.88388 17.1743 4.86746 17.0758 4.65405 16.6407C4.09589 15.4998 2.75795 14.9827 1.56776 15.4423ZM2.86466 17.0183C3.17657 17.1825 3.28328 17.4698 3.28328 18.1346C3.28328 18.7995 3.17657 19.0868 2.86466 19.2509C2.43783 19.4726 1.92072 19.3166 1.74014 18.9144C1.60881 18.6271 1.61701 17.5683 1.75655 17.322C1.96997 16.9362 2.44604 16.8049 2.86466 17.0183Z" fill="#E31337"/>
<path d="M8.46228 15.3765C8.0765 15.5899 7.94517 16.0659 8.15858 16.4846C8.31454 16.7801 8.61003 16.9032 9.19281 16.9032H9.6853V18.1344V19.3656H9.19281C8.61003 19.3656 8.31454 19.4888 8.15858 19.7843C7.93696 20.2111 8.09291 20.7282 8.49512 20.9088C8.82344 21.0565 12.2463 21.0483 12.55 20.8924C12.9357 20.6872 13.0671 20.2111 12.8537 19.7843C12.6977 19.4888 12.4022 19.3656 11.8194 19.3656H11.3269V17.6419C11.3269 15.7622 11.2859 15.5488 10.8755 15.36C10.5718 15.2205 8.71674 15.2369 8.46228 15.3765Z" fill="#E31337"/>
<path d="M17.6557 15.4423C17.0482 15.6722 16.4901 16.2385 16.2603 16.8459C16.1289 17.2153 16.0879 17.5026 16.0879 18.1346C16.0879 19.095 16.2521 19.6367 16.7035 20.1703C17.3848 20.9664 18.6653 21.2127 19.6338 20.7366C20.1592 20.474 20.5449 20.08 20.7994 19.5382C20.9471 19.2181 20.9718 19.0047 20.9718 18.1346C20.9718 17.1743 20.9553 17.0758 20.7419 16.6407C20.1838 15.4998 18.8458 14.9827 17.6557 15.4423ZM18.9526 17.0183C19.2645 17.1825 19.3712 17.4698 19.3712 18.1346C19.3712 18.7995 19.2645 19.0868 18.9526 19.2509C18.5257 19.4726 18.0086 19.3166 17.828 18.9144C17.6967 18.6271 17.7049 17.5683 17.8444 17.322C18.0579 16.9362 18.5339 16.8049 18.9526 17.0183Z" fill="#E31337"/>
</svg>
