<svg xmlns="http://www.w3.org/2000/svg" width="18" height="18" viewBox="0 0 18 18" fill="none">
  <path d="M9.11995 8.1525C9.04495 8.145 8.95495 8.145 8.87245 8.1525C7.08745 8.0925 5.66995 6.63 5.66995 4.83C5.66245 2.9925 7.15495 1.5 8.99245 1.5C10.83 1.5 12.3225 2.9925 12.3225 4.83C12.3225 6.63 10.8974 8.0925 9.11995 8.1525Z" stroke="#E31337" stroke-width="1.27" stroke-linecap="round" stroke-linejoin="round"/>
  <path d="M8.99253 16.3573C7.62753 16.3573 6.27003 16.0123 5.23503 15.3223C3.42003 14.1073 3.42003 12.1273 5.23503 10.9198C7.29753 9.53977 10.68 9.53977 12.7425 10.9198" stroke="#E31337" stroke-width="1.27" stroke-linecap="round" stroke-linejoin="round"/>
  <path d="M12.6989 13.0208L13.0289 13.6862C13.0739 13.7788 13.1939 13.8676 13.2951 13.8846L13.8932 13.9848C14.2756 14.0491 14.3656 14.3289 14.09 14.6048L13.6251 15.0736C13.5463 15.153 13.5032 15.3061 13.5276 15.4158L13.6607 15.9961C13.7657 16.4554 13.5238 16.6331 13.1208 16.3931L12.5602 16.0585C12.459 15.998 12.2921 15.998 12.189 16.0585L11.6284 16.3931C11.2272 16.6331 10.9835 16.4535 11.0885 15.9961L11.2216 15.4158C11.246 15.3061 11.2028 15.153 11.1241 15.0736L10.6592 14.6048C10.3854 14.3289 10.4736 14.0491 10.856 13.9848L11.4541 13.8846C11.5534 13.8676 11.6734 13.7788 11.7184 13.6862L12.0484 13.0208C12.2284 12.6597 12.5208 12.6597 12.6989 13.0208Z" stroke="#E31337" stroke-linecap="round" stroke-linejoin="round"/>
</svg>