<svg xmlns="http://www.w3.org/2000/svg" width="18" height="18" viewBox="0 0 18 18" fill="none">
  <path d="M12.8169 8.41602H4.15027V12.7493C4.15027 14.3743 4.69194 14.916 6.31694 14.916H10.6503C12.2753 14.916 12.8169 14.3743 12.8169 12.7493V8.41602Z" stroke="#212838" stroke-miterlimit="10" stroke-linecap="round" stroke-linejoin="round"/>
  <path d="M13.6459 6.79232V7.33398C13.6459 7.92982 13.3588 8.41732 12.5625 8.41732H4.43752C3.60877 8.41732 3.35419 7.92982 3.35419 7.33398V6.79232C3.35419 6.19648 3.60877 5.70898 4.43752 5.70898H12.5625C13.3588 5.70898 13.6459 6.19648 13.6459 6.79232Z" stroke="#212838" stroke-miterlimit="10" stroke-linecap="round" stroke-linejoin="round"/>
  <path d="M6.60419 5.43852L6.64212 4.23625C6.84253 4.03583 9.9246 4.03583 10.125 4.23625V5.43852" stroke="#212838" stroke-miterlimit="10" stroke-linecap="round" stroke-linejoin="round"/>
  <path d="M9.5828 10.582L7.41614 12.207" stroke="#212838" stroke-width="0.5" stroke-linecap="round"/>
  <path d="M7.41614 10.582L9.5828 12.207" stroke="#212838" stroke-width="0.5" stroke-linecap="round"/>
</svg>