<svg xmlns="http://www.w3.org/2000/svg" width="55" height="34" viewBox="0 0 55 34" fill="#E31337">
<rect x="0.5" y="0.5" width="54" height="33" rx="16.5" fill="#E31337" stroke="#E31337"/>
<path d="M31.4455 11.1309C30.9295 11.2954 30.4435 11.6245 30.0397 12.0806C29.7555 12.4022 29.3592 13.12 29.3592 13.2995C29.3592 13.3593 27.7141 13.3818 23.9378 13.3818H18.8393C18.6314 13.3818 18.431 13.4591 18.277 13.5986C18.0677 13.7856 18.0303 13.8678 18.0303 14.1669C18.0303 14.466 18.0677 14.5483 18.277 14.7352C18.431 14.8748 18.6314 14.9521 18.8393 14.9521H23.9303H29.0534C29.2268 14.9521 29.3805 15.0638 29.434 15.2288C29.6733 15.9691 30.3388 16.6944 31.1389 17.0683C31.6025 17.2927 31.6998 17.3076 32.4251 17.3076C33.1505 17.3076 33.2477 17.2927 33.7188 17.0683C35.7378 16.1112 36.2463 13.5986 34.7358 11.9984C34.5264 11.774 34.2123 11.5123 34.0403 11.4076C33.3224 10.9888 32.2531 10.8692 31.4455 11.1309ZM32.8962 12.6414C34.0553 12.963 34.3768 14.6006 33.4346 15.3858C32.3952 16.2383 30.8622 15.5055 30.8548 14.1445C30.8548 13.0826 31.8418 12.3498 32.8962 12.6414Z" fill="white"/>
<path d="M26.3903 16.6126C25.3807 16.7248 24.3563 17.5025 23.9375 18.4821C23.806 18.7905 23.5031 18.9906 23.1679 18.9906H21.0885H18.7283C18.5582 18.9906 18.3943 19.0547 18.2693 19.1701C17.9179 19.4916 17.9104 19.9253 18.2469 20.3142C18.361 20.4473 18.5268 20.525 18.7021 20.5274L21.0959 20.5609L23.3962 20.5932C23.6195 20.5963 23.8187 20.7343 23.9001 20.9423C24.1843 21.7125 24.7377 22.2659 25.6051 22.6772C26.0612 22.894 26.1659 22.9165 26.8165 22.909C27.3698 22.909 27.6241 22.8716 27.9606 22.737C28.7607 22.4229 29.501 21.6826 29.7852 20.9124C29.8615 20.7015 30.0617 20.5609 30.2861 20.5609H32.4398C35.2739 20.5609 35.3337 20.5535 35.5356 20.0599C35.6852 19.7159 35.6104 19.4168 35.3263 19.1775C35.1813 19.0567 34.9986 18.9906 34.8099 18.9906H32.537H30.5668C30.1995 18.9906 29.8655 18.7777 29.7104 18.4447C29.1122 17.151 27.8335 16.4481 26.3903 16.6126ZM27.6989 18.4148C29.0075 19.2747 28.4093 21.3162 26.8464 21.3162C25.1265 21.3162 24.6255 19.0429 26.1809 18.3026C26.6146 18.1007 27.2951 18.1456 27.6989 18.4148Z" fill="white"/>
</svg>