<?xml version="1.0" encoding="UTF-8"?>
<svg width="1000px" height="229px" viewBox="0 0 1000 229" version="1.1" xmlns="http://www.w3.org/2000/svg" xmlns:xlink="http://www.w3.org/1999/xlink">
    <title>编组备份 6</title>
    <defs>
        <polygon id="path-1" points="-1.68750626e-14 0 1000 0 1000 229 -1.68750626e-14 229"></polygon>
    </defs>
    <g id="换色" stroke="none" stroke-width="1" fill="none" fill-rule="evenodd">
        <g id="SVG" transform="translate(-1755.000000, -3250.000000)">
            <g id="编组备份-6" transform="translate(1755.000000, 3250.000000)">
                <mask id="mask-2" fill="white">
                    <use xlink:href="#path-1"></use>
                </mask>
                <g id="Clip-2"></g>
                <path d="M827.868089,68.0558109 L856.267788,68.0558109 L856.267788,39.6495354 L827.868089,39.6495354 L827.868089,68.0558109 Z M676.918393,115.361595 C682.345163,100.968417 696.241018,90.7204934 712.535577,90.7204934 C728.827761,90.7204934 742.723616,100.968417 748.152761,115.361595 L676.918393,115.361595 Z M712.535577,64.3096412 C676.937392,64.3096412 648.069827,93.17914 648.069827,128.792694 C648.069827,164.406249 676.937392,193.270996 712.535577,193.270996 C736.964353,193.270996 758.215441,179.68549 769.154478,159.659992 L745.333691,148.10079 C738.714694,159.325046 726.507431,166.860144 712.535577,166.860144 C694.882544,166.860144 680.043832,154.840094 675.738041,138.537011 L749.330738,138.537011 C749.325988,138.548889 749.323613,138.565517 749.321238,138.57977 L776.27459,138.57977 C776.761456,135.387093 777.013201,132.1184 777.013201,128.792694 C777.013201,93.17914 748.145636,64.3096412 712.535577,64.3096412 L712.535577,64.3096412 Z M784.499056,189.833642 L812.898755,189.833642 L812.898755,161.427367 L784.499056,161.427367 L784.499056,189.833642 Z M827.868089,189.833642 L856.267788,189.833642 L856.267788,80.5438348 L827.868089,80.5438348 L827.868089,189.833642 Z M935.534251,166.860144 C914.513533,166.860144 897.473239,149.815904 897.473239,128.792694 C897.473239,107.764734 914.513533,90.7204934 935.534251,90.7204934 C956.554968,90.7204934 973.595262,107.764734 973.595262,128.792694 C973.595262,149.815904 956.554968,166.860144 935.534251,166.860144 L935.534251,166.860144 Z M935.522376,64.3096412 C899.924191,64.3096412 871.056627,93.17914 871.056627,128.792694 C871.056627,164.406249 899.924191,193.270996 935.522376,193.270996 C971.132435,193.270996 1000,164.406249 1000,128.792694 C1000,93.17914 971.132435,64.3096412 935.522376,64.3096412 L935.522376,64.3096412 Z M341.75302,105.023402 L341.75302,134.394132 L381.46225,134.394132 C379.388915,142.786788 375.289744,150.307633 369.411733,156.315282 C360.54603,165.37783 348.253269,170.371139 334.794405,170.371139 C306.867322,170.371139 284.143763,147.644693 284.143763,119.708767 C284.143763,91.7728417 306.867322,69.0440205 334.794405,69.0440205 C349.75424,69.0440205 363.505223,75.448379 373.038288,86.494472 L395.773722,67.9132806 C380.699889,50.2442827 358.334948,39.6709149 334.794405,39.6709149 C290.674886,39.6709149 254.779832,75.5766562 254.779832,119.708767 C254.779832,163.840879 290.674886,199.744244 334.794405,199.744244 C356.216489,199.744244 375.964231,192.023857 390.401576,177.267227 C402.516216,164.881349 410.545935,147.60431 412.089655,130.296388 C412.842516,121.853847 412.91139,113.468319 412.467273,105.023402 L341.75302,105.023402 Z M486.406714,166.867271 C465.385997,166.867271 448.343327,149.818279 448.343327,128.792694 C448.343327,107.762358 465.385997,90.7181179 486.406714,90.7181179 C507.429806,90.7181179 524.472475,107.762358 524.472475,128.792694 C524.472475,149.818279 507.429806,166.867271 486.406714,166.867271 L486.406714,166.867271 Z M524.477225,76.8760568 C513.806557,69.051147 500.649312,64.4189144 486.406714,64.4189144 C450.808529,64.4189144 421.950464,93.2860376 421.950464,128.892465 C421.950464,164.503644 450.808529,193.366016 486.406714,193.366016 C500.649312,193.366016 513.806557,188.736159 524.477225,180.91125 L524.477225,189.833642 L550.865338,189.833642 L550.865338,67.9536642 L524.477225,67.9536642 L524.477225,76.8760568 Z M607.512739,39.6519109 L581.122251,39.6519109 L581.122251,68.0558109 L565.305058,68.0558109 L565.305058,92.9677201 L581.122251,92.9677201 L581.122251,158.161049 C581.122251,164.893227 581.967735,170.556428 583.644452,175.000996 C585.29742,179.398054 587.824371,182.840159 590.828688,185.529229 C593.873379,188.258683 597.44531,190.384759 601.679852,191.591515 C605.983269,192.803022 610.730802,193.270996 615.749079,193.270996 C620.943104,193.270996 625.574264,192.731757 629.526187,191.665156 C633.195491,190.679321 636.712798,189.284901 639.985484,187.512775 L639.985484,167.439767 C634.779585,169.691745 629.913305,170.506542 624.360662,170.765472 C618.499276,171.041031 615.031843,169.366301 612.146274,166.615467 C609.122958,163.733981 607.512739,159.978309 607.512739,153.678473 L607.512739,92.9677201 L639.985484,92.9677201 L639.985484,68.0558109 L607.512739,68.0558109 L607.512739,39.6519109 Z" id="Fill-1" fill="#FFFFFF" mask="url(#mask-2)"></path>
                <path d="M114.475154,177.475321 C79.7034538,177.475321 51.5151256,149.282841 51.5151256,114.500713 C51.5151256,79.7209602 79.7034538,51.5237291 114.475154,51.5237291 L114.475154,-0.000950201555 C51.2515057,-0.000950201555 -1.68750626e-14,51.2624237 -1.68750626e-14,114.500713 C-1.68750626e-14,177.736626 51.2515057,229 114.475154,229 C177.696428,229 228.950308,177.736626 228.950308,114.500713 L177.435183,114.500713 C177.435183,149.282841 149.246855,177.475321 114.475154,177.475321" id="Fill-3" fill="#2354E6" mask="url(#mask-2)"></path>
                <polygon id="Fill-4" fill="#17E6A1" mask="url(#mask-2)" points="114.474679 114.499287 177.434708 114.499287 177.434708 51.5246793 114.474679 51.5246793"></polygon>
            </g>
        </g>
    </g>
</svg>