<svg width="21" height="21" viewBox="0 0 21 21" fill="none" xmlns="http://www.w3.org/2000/svg">
<path d="M10.6771 2.27247L18.2957 5.31991C18.592 5.43843 18.829 5.79396 18.829 6.10717V8.91761C18.829 9.3832 18.4481 9.76413 17.9825 9.76413H2.7452C2.27961 9.76413 1.89868 9.3832 1.89868 8.91761V6.10717C1.89868 5.79396 2.13571 5.43843 2.43199 5.31991L10.0506 2.27247C10.22 2.20475 10.5078 2.20475 10.6771 2.27247Z" stroke="#E31337" stroke-width="1.26978" stroke-miterlimit="10" stroke-linecap="round" stroke-linejoin="round"/>
<path d="M18.829 19.0755H1.89868V16.536C1.89868 16.0704 2.27961 15.6895 2.7452 15.6895H17.9825C18.4481 15.6895 18.829 16.0704 18.829 16.536V19.0755Z" stroke="#E31337" stroke-width="1.26978" stroke-miterlimit="10" stroke-linecap="round" stroke-linejoin="round"/>
<path d="M3.59155 15.6893V9.76367" stroke="#E31337" stroke-width="1.26978" stroke-miterlimit="10" stroke-linecap="round" stroke-linejoin="round"/>
<path d="M6.97778 15.6893V9.76367" stroke="#E31337" stroke-width="1.26978" stroke-miterlimit="10" stroke-linecap="round" stroke-linejoin="round"/>
<path d="M10.3638 15.6893V9.76367" stroke="#E31337" stroke-width="1.26978" stroke-miterlimit="10" stroke-linecap="round" stroke-linejoin="round"/>
<path d="M13.7498 15.6893V9.76367" stroke="#E31337" stroke-width="1.26978" stroke-miterlimit="10" stroke-linecap="round" stroke-linejoin="round"/>
<path d="M17.136 15.6893V9.76367" stroke="#E31337" stroke-width="1.26978" stroke-miterlimit="10" stroke-linecap="round" stroke-linejoin="round"/>
<path d="M1.052 19.0752H19.6754" stroke="#E31337" stroke-width="1.26978" stroke-miterlimit="10" stroke-linecap="round" stroke-linejoin="round"/>
<path d="M10.3638 7.64795C11.065 7.64795 11.6335 7.07945 11.6335 6.37817C11.6335 5.6769 11.065 5.1084 10.3638 5.1084C9.66249 5.1084 9.09399 5.6769 9.09399 6.37817C9.09399 7.07945 9.66249 7.64795 10.3638 7.64795Z" stroke="#E31337" stroke-width="1.26978" stroke-miterlimit="10" stroke-linecap="round" stroke-linejoin="round"/>
</svg>
