<svg xmlns="http://www.w3.org/2000/svg" width="19" height="19" viewBox="0 0 19 19" fill="none">
  <path d="M9.48306 1.73348L16.2331 4.43346C16.4956 4.53846 16.7056 4.85345 16.7056 5.13095V7.62096C16.7056 8.03346 16.3681 8.37096 15.9556 8.37096H2.45557C2.04307 8.37096 1.70557 8.03346 1.70557 7.62096V5.13095C1.70557 4.85345 1.91557 4.53846 2.17807 4.43346L8.92807 1.73348C9.07807 1.67348 9.33306 1.67348 9.48306 1.73348Z" stroke="white" stroke-width="1.26978" stroke-miterlimit="10" stroke-linecap="round" stroke-linejoin="round"/>
  <path d="M16.7056 16.6211H1.70557V14.3711C1.70557 13.9586 2.04307 13.6211 2.45557 13.6211H15.9556C16.3681 13.6211 16.7056 13.9586 16.7056 14.3711V16.6211Z" stroke="white" stroke-width="1.26978" stroke-miterlimit="10" stroke-linecap="round" stroke-linejoin="round"/>
  <path d="M3.20557 13.6211V8.37109" stroke="white" stroke-width="1.26978" stroke-miterlimit="10" stroke-linecap="round" stroke-linejoin="round"/>
  <path d="M6.20557 13.6211V8.37109" stroke="white" stroke-width="1.26978" stroke-miterlimit="10" stroke-linecap="round" stroke-linejoin="round"/>
  <path d="M9.20557 13.6211V8.37109" stroke="white" stroke-width="1.26978" stroke-miterlimit="10" stroke-linecap="round" stroke-linejoin="round"/>
  <path d="M12.2056 13.6211V8.37109" stroke="white" stroke-width="1.26978" stroke-miterlimit="10" stroke-linecap="round" stroke-linejoin="round"/>
  <path d="M15.2056 13.6211V8.37109" stroke="white" stroke-width="1.26978" stroke-miterlimit="10" stroke-linecap="round" stroke-linejoin="round"/>
  <path d="M0.955566 16.6211H17.4556" stroke="white" stroke-width="1.26978" stroke-miterlimit="10" stroke-linecap="round" stroke-linejoin="round"/>
  <path d="M9.20557 6.49609C9.82689 6.49609 10.3306 5.99241 10.3306 5.37109C10.3306 4.74977 9.82689 4.24609 9.20557 4.24609C8.58425 4.24609 8.08057 4.74977 8.08057 5.37109C8.08057 5.99241 8.58425 6.49609 9.20557 6.49609Z" stroke="white" stroke-width="1.26978" stroke-miterlimit="10" stroke-linecap="round" stroke-linejoin="round"/>
</svg>