<svg xmlns="http://www.w3.org/2000/svg" viewBox="0 0 218.26 189.74"><defs><style>.cls-1{fill:#00960f;}</style></defs><g id="Layer_2" data-name="Layer 2"><g id="Layer_1-2" data-name="Layer 1"><path class="cls-1" d="M157.13,107.34a.36.36,0,0,0-.3-.17H127.54a.35.35,0,0,0-.3.17l-47,81.35a.36.36,0,0,0,.31.53h29.28a.37.37,0,0,0,.31-.18l47-81.35A.36.36,0,0,0,157.13,107.34Z"/><path class="cls-1" d="M128,83.39a.34.34,0,0,0,.3.18h29.29a.35.35,0,0,0,.3-.18.36.36,0,0,0,0-.35L110.14.34a.38.38,0,0,0-.31-.17H80.55a.38.38,0,0,0-.31.17.36.36,0,0,0,0,.35Z"/><path class="cls-1" d="M218.21,94.52,163.94.34a.37.37,0,0,0-.31-.17h-29.2a.35.35,0,0,0-.3.17.32.32,0,0,0,0,.35l54.17,94-54.17,94a.32.32,0,0,0,0,.35.34.34,0,0,0,.3.18h29.2a.35.35,0,0,0,.31-.18l54.27-94.17A.36.36,0,0,0,218.21,94.52Z"/><path class="cls-1" d="M110.62,94.69,55.34.17A.38.38,0,0,0,55,0h0a.36.36,0,0,0-.3.17L.05,94.7a.32.32,0,0,0,0,.35l55.28,94.52a.38.38,0,0,0,.31.17h0a.36.36,0,0,0,.3-.17L110.62,95A.32.32,0,0,0,110.62,94.69Z"/></g></g></svg>