<svg width="16" height="16" viewBox="0 0 16 16" fill="none" xmlns="http://www.w3.org/2000/svg">
<path d="M0.866306 0.181604L0.684651 0.363209V1.86614V3.36908L0.878834 3.5319L1.07302 3.69472H2.50746C3.37815 3.69472 3.99828 3.66967 4.07345 3.63209C4.40544 3.45049 4.45555 2.90567 4.15488 2.62387C4.01081 2.4861 3.92311 2.47358 3.29672 2.44227L2.59516 2.41096L2.93967 2.14794C3.43452 1.77221 4.14861 1.45284 4.74369 1.34012C5.16964 1.25871 5.74592 1.24618 8.27655 1.26497C11.6653 1.29002 11.5275 1.27749 12.4922 1.77221C13.1812 2.12916 13.9016 2.84931 14.2586 3.53816C14.7597 4.51507 14.7472 4.38982 14.7472 8.01566C14.7472 11.6415 14.7597 11.5162 14.2586 12.4932C13.9016 13.182 13.1812 13.9022 12.4922 14.2591C11.515 14.7601 11.6403 14.7476 8.01347 14.7476C4.38664 14.7476 4.51192 14.7601 3.53475 14.2591C2.84571 13.9022 2.12536 13.182 1.76831 12.4932C1.31105 11.6039 1.29225 11.5037 1.2672 9.61252C1.25467 8.59804 1.21709 7.85284 1.17324 7.74638C1.09807 7.55851 0.834986 7.38943 0.622012 7.38943C0.402774 7.38943 0.145952 7.55851 0.0582569 7.7589C0.00188136 7.89667 -0.0106465 8.39765 0.00814531 9.68767C0.0332011 11.3597 0.045729 11.4536 0.202328 11.9796C0.496733 12.9378 0.87257 13.5828 1.55534 14.3029C2.26943 15.0419 3.0211 15.5053 4.04839 15.8247L4.59962 16H8.01347H11.4273L11.9785 15.8247C13.0058 15.5053 13.7575 15.0419 14.4716 14.3029C15.1481 13.589 15.5239 12.9503 15.8246 11.9796L16 11.4286V8.01566V4.60274L15.8246 4.05166C15.2295 2.13542 13.8953 0.801565 11.9785 0.206653L11.4273 0.031311H8.01347H4.59962L4.04839 0.206653C3.39694 0.407044 2.8645 0.663795 2.33207 1.03953L1.93744 1.30881V0.964383C1.93744 0.356947 1.68688 0 1.26093 0C1.1106 0 0.997849 0.0563593 0.866306 0.181604Z" fill="#A5112C"/>
<path d="M7.34576 4.07206C7.01356 4.23248 7.00678 4.30378 7 6.32394C7 7.83905 7.02034 8.24308 7.09492 8.3738C7.14915 8.46292 7.8339 9.08679 8.61356 9.76414C10.0102 10.9822 10.0373 11 10.3153 11C10.722 11 11 10.7564 11 10.3999C11 10.1563 10.9797 10.1325 9.67797 8.98579L8.35593 7.81529V6.13975C8.35593 4.96924 8.32881 4.42261 8.27458 4.31567C8.12542 4.03047 7.67797 3.91163 7.34576 4.07206Z" fill="#A5112C"/>
</svg>
