<svg xmlns="http://www.w3.org/2000/svg" width="18" height="18" viewBox="0 0 18 18" fill="none">
<path d="M0.974594 0.204306L0.770233 0.408611V2.09941V3.79022L0.988688 3.97339L1.20714 4.15656H2.82089C3.80042 4.15656 4.49806 4.12838 4.58263 4.08611C4.95612 3.8818 5.01249 3.26888 4.67424 2.95186C4.51216 2.79687 4.4135 2.78278 3.70881 2.74755L2.91955 2.71233L3.30713 2.41644C3.86384 1.99374 4.66719 1.63444 5.33665 1.50763C5.81584 1.41605 6.46416 1.40196 9.31112 1.42309C13.1235 1.45127 12.9685 1.43718 14.0537 1.99374C14.8289 2.3953 15.6393 3.20548 16.041 3.98043C16.6047 5.07945 16.5906 4.93855 16.5906 9.01761C16.5906 13.0967 16.6047 12.9558 16.041 14.0548C15.6393 14.8297 14.8289 15.6399 14.0537 16.0415C12.9544 16.6051 13.0953 16.591 9.01515 16.591C4.93497 16.591 5.07591 16.6051 3.97659 16.0415C3.20143 15.6399 2.39103 14.8297 1.98935 14.0548C1.47493 13.0544 1.45379 12.9417 1.4256 10.8141C1.4115 9.6728 1.36922 8.83444 1.31989 8.71468C1.23533 8.50333 0.93936 8.31311 0.699764 8.31311C0.453121 8.31311 0.164196 8.50333 0.065539 8.72877C0.00211653 8.88376 -0.0119773 9.44736 0.00916347 10.8986C0.0373512 12.7796 0.0514451 12.8853 0.227619 13.4771C0.558825 14.555 0.981641 15.2806 1.74976 16.0908C2.55311 16.9221 3.39874 17.4434 4.55444 17.8027L5.17457 18H9.01515H12.8557L13.4759 17.8027C14.6316 17.4434 15.4772 16.9221 16.2805 16.0908C17.0416 15.2877 17.4644 14.5691 17.8027 13.4771L18 12.8571V9.01761V5.17808L17.8027 4.55812C17.1332 2.40235 15.6322 0.901762 13.4759 0.232485L12.8557 0.0352249H9.01515H5.17457L4.55444 0.232485C3.82156 0.457926 3.22257 0.746771 2.62358 1.16947L2.17962 1.47241V1.08493C2.17962 0.401566 1.89774 0 1.41855 0C1.24942 0 1.12258 0.063406 0.974594 0.204306Z" fill="white"/>
<path d="M8.26398 4.58107C7.89025 4.76154 7.88263 4.84175 7.875 7.11443C7.875 8.81893 7.89788 9.27347 7.98178 9.42052C8.0428 9.52079 8.81314 10.2226 9.69025 10.9847C11.2614 12.3549 11.2919 12.375 11.6047 12.375C12.0623 12.375 12.375 12.1009 12.375 11.6999C12.375 11.4258 12.3521 11.3991 10.8877 10.109L9.40042 8.7922V6.90721C9.40042 5.5904 9.36992 4.97544 9.3089 4.85512C9.1411 4.53428 8.63771 4.40059 8.26398 4.58107Z" fill="white"/>
</svg>