<svg width="20" height="20" viewBox="0 0 20 20" fill="none" xmlns="http://www.w3.org/2000/svg">
<path d="M10.5379 8.6448V11H10.0739V10.0432H9.02106V11H8.55706V8.6448H9.02106V9.5952H10.0739V8.6448H10.5379ZM11.7302 8.6448C11.9243 8.6448 12.0886 8.67787 12.223 8.744C12.3574 8.808 12.4598 8.89973 12.5302 9.0192C12.6006 9.13653 12.6358 9.27627 12.6358 9.4384C12.6358 9.5344 12.6208 9.63147 12.591 9.7296C12.5632 9.8256 12.5174 9.91307 12.4534 9.992C12.3915 10.0709 12.3072 10.1349 12.2006 10.184C12.096 10.2309 11.967 10.2544 11.8134 10.2544H11.4806V11H11.0166V8.6448H11.7302ZM11.8102 9.8032C11.8806 9.8032 11.9392 9.79147 11.9862 9.768C12.0331 9.7424 12.0694 9.71147 12.095 9.6752C12.1227 9.6368 12.1419 9.59733 12.1526 9.5568C12.1654 9.51627 12.1718 9.48107 12.1718 9.4512C12.1718 9.42773 12.1675 9.3968 12.159 9.3584C12.1526 9.31787 12.1376 9.27733 12.1142 9.2368C12.0907 9.19627 12.0544 9.16213 12.0054 9.1344C11.9584 9.10667 11.8944 9.0928 11.8134 9.0928H11.4806V9.8032H11.8102Z" fill="#A5112C"/>
<rect x="0.30662" y="-0.30662" width="19.3868" height="19.3845" rx="9.69226" transform="matrix(1 0 0 -1 0 19.3848)" stroke="#EDEDED" stroke-width="0.613239"/>
<path d="M14.8482 10.0059C14.8482 12.6786 12.6791 14.8477 10.0064 14.8477C7.33369 14.8477 5.70199 12.1557 5.70199 12.1557M5.70199 12.1557H7.8905M5.70199 12.1557V14.5766M5.16455 10.0059C5.16455 7.3332 7.31432 5.16406 10.0064 5.16406C13.2359 5.16406 14.8482 7.85612 14.8482 7.85612M14.8482 7.85612V5.43521M14.8482 7.85612H12.6984" stroke="black" stroke-width="1.00089" stroke-linecap="round" stroke-linejoin="round"/>
</svg>
