<svg width="6" height="10" viewBox="0 0 6 10" fill="none" xmlns="http://www.w3.org/2000/svg">
<path d="M1.45142 10C1.31792 10 1.18442 9.95149 1.10432 9.85446C1.02422 9.75743 0.99752 9.63614 1.02422 9.53911L1.87861 5.85203L0.249928 5.12432C0.116429 5.0758 0.0363297 4.97878 0.00963 4.85749C-0.0170697 4.7362 0.0096304 4.61492 0.116429 4.51789L4.22819 0.12735C4.38839 -0.04245 4.73548 -0.04245 4.89568 0.12735C4.97578 0.224378 5.00248 0.345664 4.97578 0.442692L4.12139 4.12978L5.75007 4.85749C5.88357 4.906 5.96367 5.00303 5.99037 5.12432C6.01707 5.2456 5.99037 5.36689 5.88357 5.46392L1.77181 9.85446C1.69171 9.92723 1.58491 10 1.45142 10Z" fill="#E3A913"/>
</svg>
