<svg width="72" height="22" viewBox="0 0 72 22" fill="none" xmlns="http://www.w3.org/2000/svg">
<path d="M4.23638 16.6649C4.29111 11.61 9.66565 10.5415 9.06368 5.01713C8.89087 3.42724 8.12184 1.54067 6.5665 0.0343034C6.48586 -0.0434633 6.35049 0.0199022 6.35913 0.135112C6.82861 5.21011 3.24846 7.61512 1.64128 9.72922C-1.93023 14.4183 0.693676 20.4293 5.98181 21.2243C6.0999 21.2416 6.17191 21.1004 6.0855 21.0169C5.00253 19.9426 4.23638 18.5745 4.23638 16.6649Z" fill="#00003E"/>
<path d="M11.1576 8.57339C11.0856 8.5129 10.9762 8.55035 10.9589 8.64251C10.8293 9.29921 10.4232 10.3793 9.11267 12.2774C5.72262 17.1911 7.36148 19.3714 8.84193 21.0161C9.1674 21.4049 9.0061 20.9297 9.70024 20.4487C10.6334 19.8035 11.028 19.7228 11.9123 18.9365C12.9204 17.9256 13.7384 16.3385 13.8161 14.7285C13.9861 11.2261 11.9267 9.2272 11.1576 8.57339Z" fill="#0173E5"/>
<path fill-rule="evenodd" clip-rule="evenodd" d="M26.4401 10.5795L26.4401 4.40137L28.4419 4.40137C28.8682 4.40137 29.2138 4.75564 29.2138 5.19632L29.2138 19.9173L27.2149 19.9173C26.7887 19.9173 26.4401 19.5601 26.4401 19.1223L26.4401 13.0709L20.5097 13.0709L20.5097 19.9173L18.5079 19.9173C18.0817 19.9173 17.7332 19.5601 17.7332 19.1223L17.7332 4.40425L19.7349 4.40425C20.1612 4.40425 20.5097 4.75852 20.5097 5.1992L20.5097 10.5824L26.4401 10.5824L26.4401 10.5795ZM38.3154 15.4154L38.3154 8.05352L40.3662 8.05352C40.8011 8.05352 41.1553 8.41067 41.1553 8.84847L41.1553 15.5422C41.1553 17.9529 39.1997 19.923 36.809 19.923L35.6454 19.923C33.2548 19.923 31.2991 17.9501 31.2991 15.5422L31.2991 8.05352L33.3499 8.05352C33.7848 8.05352 34.1391 8.41067 34.1391 8.84847L34.1391 15.2801C34.1391 16.8181 35.7981 17.9846 37.4024 17.0514C37.9784 16.7173 38.3154 16.0837 38.3154 15.4154ZM69.8196 19.9144L71.8271 19.9144L71.8271 9.47637C71.8271 9.03569 71.4786 8.67854 71.0523 8.67854L69.0448 8.67854L69.0448 19.1166C69.0448 19.5601 69.3904 19.9144 69.8196 19.9144ZM71.9999 5.94806C71.9999 6.8035 71.3058 7.49476 70.4532 7.49476C69.5978 7.49476 68.9065 6.80061 68.9065 5.94806C68.9065 5.09551 69.6007 4.40137 70.4532 4.40137C71.3087 4.40137 71.9999 5.09551 71.9999 5.94806ZM51.1239 14.9949C51.1239 16.4091 49.9833 17.351 48.5893 17.351C47.1952 17.351 46.0546 16.4091 46.0546 14.9949L46.0546 12.9759C46.0546 11.5617 47.1952 10.6198 48.5893 10.6198C49.9833 10.6198 51.1239 11.5617 51.1239 12.9759L51.1239 14.9949ZM48.5893 8.05352C45.6428 8.05352 43.232 10.1935 43.232 13.1832L43.232 14.7991C43.232 17.7888 45.6428 19.9144 48.5893 19.9144C51.5358 19.9144 53.9465 17.7888 53.9465 14.7991L53.9465 13.1832C53.9465 10.1935 51.5358 8.05352 48.5893 8.05352ZM61.4265 17.351C62.8292 17.351 63.9756 16.4091 63.9756 14.9978L63.9756 12.9816C63.9756 11.5674 62.8292 10.6285 61.4265 10.6285C60.0239 10.6285 58.8775 11.5703 58.8775 12.9816L58.8775 14.9978C58.8746 16.412 60.0239 17.351 61.4265 17.351ZM58.8602 8.64973C59.6235 8.27242 60.4991 8.06216 61.4237 8.06216C64.3874 8.06216 66.8155 10.1993 66.8155 13.1861L66.8155 14.8019C66.8155 17.7888 64.3903 19.9144 61.4237 19.9144C58.4599 19.9144 56.0318 17.7888 56.0318 14.8019L56.0318 4.40137L58.071 4.40137C58.506 4.40137 58.8602 4.75564 58.8602 5.19344L58.8602 8.64973Z" fill="#1C242C"/>
</svg>
