<svg id="Layer_1" data-name="Layer 1" xmlns="http://www.w3.org/2000/svg" viewBox="0 0 378.7 156.7"><defs><style>.cls-1,.cls-3{fill:#fff;}.cls-2{fill:#1d94ff;}.cls-3{fill-opacity:0;}</style></defs><path class="cls-1" d="M32,23.56a7.4,7.4,0,0,1-14.8,0A7.56,7.56,0,0,1,24.6,16,7.56,7.56,0,0,1,32,23.56Zm-2.1,81.8H19.1V49.16H29.9Z"/><path class="cls-1" d="M118.2,56.76h.2c3.4-6,10.1-9.2,16.9-9.2,15.8,0,19.9,10.7,19.9,24.4v33.4H144.4V73.16c0-9.6-1.3-16.1-12.4-16.1-13.9,0-13.9,12.2-13.9,22.4v25.9H107.3V49.16h10.8v7.6Z"/><path class="cls-1" d="M220.8,77.36a30,30,0,1,1-30-29.9C207.6,47.56,220.8,60.46,220.8,77.36Zm-49.2,0c0,10.6,8.5,19.6,19.2,19.6S210,88,210,77.36a19.42,19.42,0,0,0-19.2-19.6C180.1,57.76,171.6,66.76,171.6,77.36Z"/><path class="cls-1" d="M236.7,56.26h.2c3.1-4.9,8.8-8.8,14.9-8.8,7.3,0,12.6,3.7,16.2,10a20.34,20.34,0,0,1,17.3-10c14.8,0,18.6,11.5,18.6,24.2v33.7H293.1V73.56c0-7.2-1-16.4-10.4-16.4-11.5,0-12.4,12-12.4,20.6v27.6H259.5V75.56c0-7.3-.4-18.5-10.3-18.5-11.5,0-12.5,11.9-12.5,20.6v27.7H225.9V49.16h10.8Z"/><path class="cls-1" d="M305,49.16h12.6l19,35.6,17.6-35.6h12.1l-45.5,88.3H308.6l22.1-41.8Z"/><circle class="cls-2" cx="70.31" cy="76.8" r="25.59"/><circle class="cls-1" cx="69.93" cy="77.26" r="7.82"/><circle class="cls-1" cx="46.54" cy="77.26" r="7.82"/><circle class="cls-1" cx="81.72" cy="98.09" r="7.82"/><circle class="cls-1" cx="81.72" cy="56.44" r="7.82"/><circle class="cls-3" cx="93.38" cy="77.26" r="7.82"/><path class="cls-1" d="M97,77.26A27.1,27.1,0,1,1,69.93,50.17,27.14,27.14,0,0,1,97,77.26Zm-48.19,0a21.1,21.1,0,1,0,21.1-21.09A21.09,21.09,0,0,0,48.83,77.26Z"/></svg>