<svg width="72" height="25" viewBox="0 0 72 25" fill="none" xmlns="http://www.w3.org/2000/svg">
<path d="M3.04635 1.55611C3.04635 2.3918 2.35887 3.07929 1.52318 3.07929C0.687488 3.07929 4.1616e-08 2.3918 4.33472e-08 1.55611C-0.00020579 0.714658 0.68193 0.0179076 1.52318 3.15533e-09C2.36442 0.0179076 3.04656 0.714658 3.04635 1.55611ZM2.6141 18.3934L0.391086 18.3934L0.391086 6.82548L2.6141 6.82548L2.6141 18.3934Z" fill="#242424"/>
<path d="M20.7687 8.38977L20.8304 8.38977C21.5303 7.15476 22.9094 6.49609 24.309 6.49609C27.5612 6.49609 28.4051 8.69852 28.4051 11.5185L28.4051 18.3933L26.1821 18.3933L26.1821 11.7655C26.1821 9.78945 25.9145 8.45152 23.6298 8.45152C20.7687 8.45152 20.7687 10.9627 20.7687 13.0622L20.7687 18.3933L18.5457 18.3933L18.5457 6.82543L20.7687 6.82543L20.7687 8.38977Z" fill="#242424"/>
<path d="M41.9079 12.63L41.9079 12.6506C41.9079 16.0383 39.1205 18.8257 35.7329 18.8257C32.3455 18.8257 29.5579 16.0383 29.5579 12.6506C29.5579 9.26321 32.3455 6.47559 35.7329 6.47559C39.1909 6.49617 41.9079 9.15144 41.9079 12.63ZM31.7809 12.63C31.7809 14.8119 33.5305 16.6644 35.7329 16.6644C37.9353 16.6644 39.6849 14.8201 39.6849 12.63C39.7053 10.4402 37.9226 8.62038 35.7329 8.59568C33.5305 8.59568 31.7809 10.4482 31.7809 12.63Z" fill="#242424"/>
<path d="M45.1808 8.28693L45.2219 8.28693C45.86 7.27834 47.0333 6.47559 48.2889 6.47559C49.7915 6.47559 50.8824 7.23717 51.6234 8.53393C52.3675 7.2734 53.7207 6.49123 55.1843 6.47559C58.2307 6.47559 59.0129 8.84269 59.0129 11.4568L59.0129 18.3934L56.7899 18.3934L56.7899 11.8479C56.7899 10.3659 56.584 8.47218 54.6492 8.47218C52.2821 8.47218 52.0968 10.9422 52.0968 12.7124L52.0968 18.3934L49.8738 18.3934L49.8738 12.2595C49.8738 10.7569 49.7915 8.4516 47.7537 8.4516C45.3866 8.4516 45.1808 10.901 45.1808 12.6918L45.1808 18.3934L42.9578 18.3934L42.9578 6.82551L45.1808 6.82551L45.1808 8.28693Z" fill="#242424"/>
<path d="M59.2395 6.8252L61.833 6.8252L65.7439 14.1529L69.3666 6.8252L71.8572 6.8252L62.4917 25.0004L59.9805 25.0004L64.5295 16.3965L59.2395 6.8252Z" fill="#242424"/>
<path d="M10.9321 17.7827C13.8412 17.7827 16.1994 15.4244 16.1994 12.5154C16.1994 9.6063 13.8412 7.24805 10.9321 7.24805C8.02305 7.24805 5.66479 9.6063 5.66479 12.5154C5.66479 15.4244 8.02305 17.7827 10.9321 17.7827Z" fill="#1D94FF"/>
<path d="M10.8538 14.2183C11.7427 14.2183 12.4634 13.4976 12.4634 12.6087C12.4634 11.7197 11.7427 10.999 10.8538 10.999C9.9648 10.999 9.24414 11.7197 9.24414 12.6087C9.24414 13.4976 9.9648 14.2183 10.8538 14.2183Z" fill="#242424"/>
<path d="M6.03907 14.2183C6.92804 14.2183 7.6487 13.4976 7.6487 12.6087C7.6487 11.7197 6.92804 10.999 6.03907 10.999C5.1501 10.999 4.42944 11.7197 4.42944 12.6087C4.42944 13.4976 5.1501 14.2183 6.03907 14.2183Z" fill="#242424"/>
<path d="M13.2808 18.5073C14.1697 18.5073 14.8904 17.7867 14.8904 16.8977C14.8904 16.0087 14.1697 15.2881 13.2808 15.2881C12.3918 15.2881 11.6711 16.0087 11.6711 16.8977C11.6711 17.7867 12.3918 18.5073 13.2808 18.5073Z" fill="#242424"/>
<path d="M13.2808 9.9341C14.1697 9.9341 14.8904 9.21344 14.8904 8.32447C14.8904 7.4355 14.1697 6.71484 13.2808 6.71484C12.3918 6.71484 11.6711 7.4355 11.6711 8.32447C11.6711 9.21344 12.3918 9.9341 13.2808 9.9341Z" fill="#242424"/>
<path d="M16.4255 12.6093L16.4255 12.6113C16.4255 15.6715 13.9076 18.1894 10.8474 18.1894C7.78726 18.1894 5.26929 15.6715 5.26929 12.6113C5.26929 9.55118 7.78726 7.0332 10.8474 7.0332L10.8536 7.0332C13.9088 7.04102 16.42 9.55406 16.4255 12.6093ZM6.50635 12.6093L6.50635 12.6113C6.50635 14.9939 8.46693 16.9544 10.8495 16.9544C13.232 16.9544 15.1926 14.9939 15.1926 12.6113C15.1926 10.2288 13.232 8.26821 10.8495 8.26821C8.46878 8.26924 6.51047 10.2286 6.51047 12.6093L6.50635 12.6093Z" fill="#242424"/>
</svg>
