<svg xmlns="http://www.w3.org/2000/svg" width="228" height="53" fill="none" viewBox="0 0 228 53">
  <path fill="#EC1540" d="M28.807 1.722c-4.173 2.027-7.312 5.961-7.988 10.095-.159.794-.556 1.59-.914 1.708-.358.16-4.173 1.391-8.505 2.822-9.1 2.941-9.975 3.339-10.81 4.928-.715 1.352-.795 4.054-.159 5.286 1.073 2.067 4.054 3.577 5.763 2.901.397-.159.914.12 1.43.755.597.756 1.153.994 2.226.994 2.425-.04 3.895-1.788 3.458-4.094-.199-.993-.08-1.47.556-2.026.755-.676 2.424-.597 2.424.159 0 .198.477.874 1.034 1.55.755.914 1.351 1.232 2.345 1.232 1.669 0 3.298-1.352 3.497-2.862.199-1.67.517-1.709 2.067-.358 1.43 1.232 4.57 3.02 4.57 2.623 0-.159-.437-.834-.994-1.59-1.788-2.304-2.702-5.563-2.464-8.782.239-3.3 1.272-5.723 3.498-8.267 3.457-3.895 8.227-5.286 13.87-3.934l.994.238-.915-.994c-.516-.556-1.828-1.51-2.94-2.106C39.1 1.046 38.225.848 35.006.728c-3.577-.159-3.974-.08-6.2.994Z"/>
  <path fill="var(--main-font-color)" d="M65.848 7.048c-.517.397-1.033 3.378-2.464 13.552-.994 7.154-1.709 13.194-1.59 13.393.12.239 1.312.398 2.584.398 2.861 0 2.9-.04 3.576-5.366.279-2.185.636-4.212.795-4.49.16-.358 1.312 1.232 3.18 4.371 1.59 2.703 3.1 5.008 3.338 5.167.238.159 1.749.318 3.338.318 2.305 0 2.862-.12 2.862-.596 0-.358-1.789-3.3-3.974-6.558-2.186-3.259-3.975-6.04-3.975-6.16 0-.12 2.623-3.18 5.803-6.796 3.18-3.617 5.683-6.796 5.603-7.035-.198-.596-3.815-.834-5.166-.318-.596.239-2.901 2.743-5.524 6.002-2.464 3.1-4.531 5.405-4.61 5.206-.08-.239.159-2.305.476-4.61.795-5.286.795-6.399 0-6.717-1.073-.397-3.537-.278-4.252.239Zm22.216.039c-.556.398-1.033 2.862-2.464 12.798-.954 6.716-1.748 12.757-1.748 13.393v1.113h16.294l.397-1.034c.597-1.55.477-3.219-.238-3.497-.358-.12-2.782-.238-5.405-.238h-4.77l.28-2.504c.436-4.133.079-3.855 4.967-3.855h4.332l.397-1.51c.239-.795.437-1.67.437-1.948 0-.914-1.55-1.311-5.206-1.311h-3.656l.278-2.504c.517-4.57 0-4.173 5.802-4.332 2.822-.08 5.207-.239 5.366-.398.159-.119.437-1.033.636-1.947.596-2.623.278-2.742-7.989-2.742-5.087 0-7.193.159-7.71.516Zm17.726 0c-.358.398.238 2.743 2.344 9.22l2.782 8.744-.635 4.252c-.358 2.385-.517 4.452-.398 4.69.358.596 4.809.517 5.286-.12.199-.238.636-2.384.993-4.729l.597-4.252 5.047-8.386c2.742-4.57 4.968-8.664 4.888-9.061-.199-1.033-3.855-1.153-5.007-.199-.438.398-2.226 3.339-3.935 6.518l-3.1 5.842-1.55-5.961c-.834-3.26-1.788-6.2-2.106-6.518-.755-.715-4.61-.755-5.206-.04Zm29.091-.119c-4.372.914-8.545 4.491-10.095 8.664-1.192 3.06-.993 8.068.437 11.009 2.067 4.332 6.518 7.312 11.526 7.67 2.861.199 5.961-.437 6.716-1.311.636-.755.994-6.002.477-6.32-.238-.119-1.272.2-2.345.795-1.589.835-2.305.994-4.332.875-6.994-.438-10.015-8.227-5.166-13.235 3.299-3.457 7.869-3.418 11.486.12 1.43 1.35 1.55 1.43 2.066.755.716-.994 1.192-5.723.636-6.399-.835-.993-5.008-2.583-7.392-2.782-1.312-.119-3.14-.04-4.014.16Zm16.81.08c-.556.397-1.033 3.18-2.503 13.393-.994 7.074-1.709 13.115-1.59 13.433.159.358.954.517 2.583.517 2.901 0 2.941-.04 3.577-5.167.755-6.16.239-5.564 4.809-5.564 3.934 0 3.974 0 3.775.874-.357 1.63-.993 7.114-.993 8.505v1.352h2.543c1.431 0 2.663-.16 2.782-.318.08-.16.994-6.2 2.027-13.394 1.709-12.36 1.789-13.115 1.153-13.592-1.033-.755-3.498-.635-4.451.16-.636.556-.914 1.708-1.431 5.683-.358 2.742-.636 5.087-.636 5.246 0 .198-1.828.318-4.014.318h-4.054l.239-1.71c1.152-8.226 1.232-9.458.675-9.816-.874-.556-3.696-.477-4.491.08Zm30.364.039c-.755.358-2.424 3.537-7.074 13.195-3.338 6.995-6.041 13.036-6.081 13.393 0 .596.398.716 2.544.716 2.981 0 3.1-.12 4.65-3.975l.954-2.424 4.173.12 4.173.119.397 2.583c.238 1.43.556 2.822.715 3.06.199.318 1.272.517 2.902.517 2.503 0 2.543 0 2.543-1.113 0-.596-1.073-6.677-2.424-13.513-2.305-11.803-2.504-12.479-3.418-12.837-1.312-.476-2.901-.437-4.054.16Zm1.709 11.128c.914 5.445 1.073 5.048-1.987 5.048-1.431 0-2.544-.16-2.464-.318.795-2.067 3.696-8.744 3.776-8.704.039.08.357 1.828.675 3.974ZM198.27 7.207c-.516.596-3.894 22.772-3.934 25.673v1.51h2.583c2.345 0 2.623-.079 2.901-.913.199-.477 1.113-6.558 2.067-13.513 1.987-14.188 2.067-13.393-1.232-13.393-1.192 0-2.027.238-2.385.636Zm9.817-.119c-.596.437-1.033 2.822-2.504 13.314-.993 7.034-1.669 13.075-1.55 13.433.159.477.755.556 2.703.477l2.464-.12.278-1.39c.159-.756.676-4.492 1.152-8.307l.915-6.915 1.947 5.325c1.073 2.941 2.424 6.677 3.02 8.307l1.113 2.98 2.862.12c2.662.119 2.901.04 3.259-.795.397-.954 3.576-23.607 3.576-25.436 0-.834-.238-1.152-1.033-1.35-1.113-.28-3.696.039-4.173.516-.159.159-.676 3.457-1.152 7.273-.477 3.815-.994 7.352-1.113 7.869-.239.715-.954-.914-3.219-7.074-3.22-8.744-3.22-8.744-6.359-8.744-.795 0-1.789.239-2.186.517Zm-169.145.477c-.993.318-2.782 1.39-4.053 2.345-4.253 3.378-6.2 9.816-4.531 14.943l.636 1.987-5.763 6.558c-3.18 3.616-6.12 7.153-6.557 7.868-1.47 2.385-.676 5.644 1.828 7.273 1.272.875 4.57.954 5.524.16.358-.319 1.63-.557 2.861-.597 1.789 0 2.345-.198 2.941-.954.994-1.232.954-3.378-.119-4.808-.715-.994-.795-1.312-.397-2.186.516-1.153 1.828-1.312 3.02-.398 1.272.954 2.941.716 4.292-.596 1.034-1.033 1.153-1.43.914-2.504-.476-2.265-.437-2.464.398-2.305.437.08 2.226.16 3.974.199 2.703.04 3.537-.12 5.604-1.073 2.901-1.351 5.286-3.656 6.796-6.637.954-1.947 1.113-2.623 1.113-5.962 0-3.338-.12-4.053-1.113-6.04-1.351-2.743-3.497-4.928-6.32-6.478-1.827-.994-2.622-1.193-5.682-1.272-2.345-.08-4.213.08-5.366.477Zm9.42 6.557c2.781 1.67 3.258 5.405.993 7.63-4.093 4.094-10.73-1.27-7.511-6.08 1.59-2.384 4.173-3.02 6.517-1.55Z"/>
  <path fill="var(--main-font-color)" d="M135.239 16.109c-1.788 1.073-2.623 2.543-2.623 4.57s.835 3.498 2.623 4.57c3.418 2.107 7.83-.476 7.83-4.57 0-4.093-4.412-6.677-7.83-4.57Z"/>
  <path stroke="#EC1540" stroke-linecap="round" stroke-width="1.59" d="M61.794 44.328h30.409"/>
  <path fill="var(--main-font-color)" d="M98.223 38.295c.77 0 1.428.13 1.976.39.547.26.964.63 1.251 1.113.297.482.446 1.066.446 1.752 0 .4-.065.798-.195 1.197a3.09 3.09 0 0 1-.584 1.085c-.26.324-.612.588-1.058.792-.435.195-.973.293-1.613.293h-1.46v3.505h-1.628V38.295h2.865Zm.223 5.05c.352 0 .649-.06.89-.181a1.44 1.44 0 0 0 .556-.46 1.74 1.74 0 0 0 .293-.57c.065-.203.097-.384.097-.542 0-.167-.028-.348-.083-.542a1.729 1.729 0 0 0-.279-.57 1.367 1.367 0 0 0-.542-.446c-.232-.12-.529-.18-.89-.18h-1.503v3.49h1.46Zm4.789.028c0-.705.135-1.368.404-1.99a5.417 5.417 0 0 1 1.113-1.655 5.136 5.136 0 0 1 1.641-1.127 4.943 4.943 0 0 1 2.017-.417c.705 0 1.368.14 1.989.418a5.087 5.087 0 0 1 1.655 1.126 5.285 5.285 0 0 1 1.127 1.655 4.82 4.82 0 0 1 .417 1.99 4.85 4.85 0 0 1-.417 2.003 5.286 5.286 0 0 1-2.782 2.768c-.621.26-1.284.39-1.989.39a5.18 5.18 0 0 1-2.017-.39 5.37 5.37 0 0 1-1.641-1.1 5.247 5.247 0 0 1-1.113-1.64 5.121 5.121 0 0 1-.404-2.031Zm1.67 0c0 .5.088.969.264 1.405.185.435.44.82.765 1.154.325.325.7.58 1.127.765.426.185.89.278 1.391.278a3.29 3.29 0 0 0 1.349-.278c.427-.185.797-.44 1.113-.765.315-.334.561-.719.737-1.154.185-.436.278-.905.278-1.405 0-.51-.093-.983-.278-1.42a3.873 3.873 0 0 0-.751-1.154 3.346 3.346 0 0 0-1.113-.779 3.418 3.418 0 0 0-1.377-.278c-.491 0-.951.093-1.377.278a3.508 3.508 0 0 0-1.127.78 3.63 3.63 0 0 0-.737 1.168 3.716 3.716 0 0 0-.264 1.405Zm9.205-5.022h1.892l2.504 7.178-.264-.112 1.947-4.993.751 2.197-2.782 6.274-4.048-10.544Zm4.966 0h1.6l2.782 7.025-.32-.056 2.309-6.969h1.739l-3.951 10.516-4.159-10.516Zm10.011-.056h6.718v1.558h-5.091v2.699h4.535v1.572h-4.535v2.74H136v1.558h-6.913V38.295Zm12.007 0c.556 0 1.066.075 1.53.223.464.14.858.348 1.182.626.325.278.575.621.751 1.03.186.398.279.857.279 1.376 0 .4-.061.798-.181 1.197-.121.398-.32.76-.598 1.085a2.84 2.84 0 0 1-1.071.779c-.446.194-.997.292-1.656.292h-1.46v3.519h-1.628V38.295h2.852Zm.222 5.05c.362 0 .663-.056.905-.167.241-.12.426-.27.556-.445.139-.176.236-.362.292-.557.065-.204.097-.394.097-.57 0-.167-.027-.348-.083-.543a1.72 1.72 0 0 0-.278-.57 1.459 1.459 0 0 0-.557-.459c-.231-.12-.524-.18-.876-.18h-1.502v3.49h1.446Zm1.753.96 2.587 4.117h-1.878l-2.642-4.076 1.933-.041Zm4.492-6.01h6.718v1.558h-5.091v2.699h4.535v1.572h-4.535v2.74h5.286v1.558h-6.913V38.295Zm9.155 10.127V38.295h2.88c1.011 0 1.868.154 2.573.46.705.296 1.275.7 1.711 1.21.436.5.751 1.061.946 1.683.204.612.306 1.228.306 1.85 0 .76-.135 1.442-.403 2.044a4.803 4.803 0 0 1-1.099 1.558 4.948 4.948 0 0 1-1.614.988 5.536 5.536 0 0 1-1.933.334h-3.367Zm1.628-1.558h1.447a4.64 4.64 0 0 0 1.474-.223 3.47 3.47 0 0 0 1.155-.667c.333-.297.588-.663.765-1.1.185-.435.278-.931.278-1.488 0-.63-.107-1.168-.32-1.613a2.93 2.93 0 0 0-.821-1.099 3.184 3.184 0 0 0-1.099-.626 3.8 3.8 0 0 0-1.182-.195h-1.697v7.011Zm16.178-8.569c1.029 0 1.841.21 2.434.626.603.418.904 1.058.904 1.92 0 .575-.134 1.066-.403 1.474-.26.4-.626.71-1.099.932-.473.214-1.025.33-1.655.348l-.251-.862c.751.009 1.419.13 2.003.361.585.223 1.048.543 1.391.96.343.408.515.895.515 1.46 0 .53-.097.979-.292 1.35a2.579 2.579 0 0 1-.779.89 3.428 3.428 0 0 1-1.099.515 5.26 5.26 0 0 1-1.28.153h-3.157V38.295h2.768Zm.264 4.313c.482 0 .835-.14 1.057-.418.232-.287.348-.621.348-1.001 0-.464-.144-.802-.431-1.016-.288-.213-.677-.32-1.169-.32h-1.21v2.755h1.405Zm.056 4.312c.343 0 .654-.047.932-.14.278-.102.496-.255.654-.459.166-.213.25-.477.25-.792 0-.353-.097-.626-.292-.821a1.562 1.562 0 0 0-.723-.417 3.433 3.433 0 0 0-.932-.126h-1.35v2.755h1.461Zm7.909-1.78-3.741-6.845h1.989l2.851 5.453-.486.028 2.809-5.48h1.989l-3.797 6.843v3.283h-1.614v-3.283Zm19.814-6.845v10.127h-1.627v-4.298h-4.98v4.298h-1.628V38.295h1.628v4.27h4.98v-4.27h1.627Zm2.782 0h1.627v10.127h-1.627V38.295Zm5.472 0 3.185 7.93-.932-.182 2.963-7.748h1.92l-4.535 10.6-4.535-10.6h1.934Zm9.035 0h6.719v1.558h-5.091v2.699h4.535v1.572h-4.535v2.74h5.286v1.558h-6.914V38.295Z"/>
</svg>
