<svg xmlns="http://www.w3.org/2000/svg" width="80" height="80" viewBox="0 0 45 46" fill="none">
<circle cx="22.5" cy="22.6074" r="21.84" fill="#212838" stroke="#E31337" stroke-width="1.32"/>
<path d="M34.7448 15.3146C34.5787 15.1675 34.4053 15.0289 34.2252 14.8994C33.6607 14.4867 33.0369 14.162 32.3751 13.9361L32.3529 13.9286C31.0348 13.481 29.6135 13.4342 28.2688 13.7939C26.924 14.1537 25.716 14.904 24.7975 15.9499C23.8789 16.9959 23.2909 18.2906 23.1078 19.6706C22.9247 21.0506 23.1547 22.4539 23.7687 23.7032L23.3619 24.164L17.6787 30.62C17.3456 30.9976 17.1253 31.4613 17.043 31.9581C16.9607 32.4549 17.0196 32.9649 17.2131 33.4298C17.3697 33.8072 17.6111 34.1435 17.9187 34.4126C18.184 34.6458 18.4926 34.8244 18.8269 34.9382C19.1612 35.0521 19.5147 35.099 19.8671 35.0761C20.2196 35.0533 20.5641 34.9613 20.8809 34.8053C21.1978 34.6492 21.4808 34.4323 21.7137 34.1669C21.7272 34.1522 21.7419 34.1369 21.7542 34.1201C22.0772 34.3858 22.4899 34.5175 22.9071 34.4879C23.3243 34.4583 23.7143 34.2697 23.9965 33.961C24.2787 33.6523 24.4317 33.247 24.4239 32.8288C24.416 32.4106 24.248 32.0114 23.9544 31.7135L23.9064 31.6778C23.8929 31.6679 23.8806 31.6568 23.8695 31.6478C23.8584 31.6388 23.8167 31.5974 23.7921 31.5716C23.6098 31.3826 23.5083 31.1299 23.5094 30.8673C23.5104 30.6047 23.6138 30.3528 23.7977 30.1652C23.9815 29.9777 24.2313 29.8692 24.4938 29.8629C24.7564 29.8567 25.011 29.953 25.2036 30.1316L25.2381 30.1634L25.2456 30.1559C25.5726 30.4251 25.9914 30.5566 26.4136 30.5228C26.8358 30.489 27.2283 30.2925 27.5083 29.9747C27.7882 29.6569 27.9338 29.2428 27.9141 28.8197C27.8945 28.3966 27.7112 27.9977 27.4029 27.7073L27.8058 27.2489C29.3475 27.7796 31.0256 27.7587 32.5535 27.1896C34.0814 26.6206 35.3644 25.5387 36.1832 24.1288C37.0021 22.7189 37.3061 21.0684 37.0432 19.4593C36.7804 17.8502 35.9671 16.3822 34.7421 15.3062L34.7448 15.3146ZM33.2103 21.0518C33.0024 21.2907 32.7526 21.4897 32.4732 21.6389C31.8921 21.9515 31.2149 22.0354 30.575 21.8741C29.9351 21.7127 29.3788 21.3178 29.0153 20.7669C28.6519 20.2161 28.5077 19.5492 28.6111 18.8974C28.7146 18.2456 29.0581 17.6562 29.5742 17.2449C30.0903 16.8336 30.7416 16.6303 31.4 16.6749C32.0584 16.7196 32.6763 17.009 33.1322 17.4862C33.588 17.9634 33.8488 18.5939 33.8633 19.2537C33.8777 19.9134 33.6448 20.5548 33.2103 21.0515V21.0518Z" fill="white"/>
<path d="M18.4557 24.1578C18.859 24.0246 19.1944 23.7392 19.3905 23.3625C19.5866 22.9857 19.6279 22.5473 19.5057 22.1406L20.0832 21.9477C20.8595 22.8446 21.8496 23.5313 22.9617 23.9442C21.8795 22.7852 21.2203 21.2949 21.0907 19.7146C20.9611 18.1343 21.3687 16.5565 22.2476 15.2367C23.1264 13.9169 24.4251 12.9325 25.9331 12.4427C27.4412 11.953 29.0705 11.9866 30.5571 12.5382C29.6217 11.5388 28.4154 10.8338 27.0856 10.5093C25.7558 10.1848 24.3603 10.255 23.0698 10.7112C21.7793 11.1675 20.6497 11.99 19.8194 13.0781C18.989 14.1663 18.4938 15.4729 18.3945 16.8381L17.811 17.031L9.64076 19.7451C9.30567 19.8562 8.99576 20.0323 8.72872 20.2632C8.46168 20.4942 8.24274 20.7754 8.08439 21.091C7.76461 21.7282 7.71107 22.4664 7.93556 23.1432C8.16005 23.8199 8.64419 24.3798 9.28145 24.6995C9.91872 25.0193 10.6569 25.0729 11.3337 24.8484L11.3937 24.8286C11.5405 25.2184 11.8307 25.5373 12.205 25.7201C12.5793 25.9029 13.0093 25.9357 13.4069 25.8118C13.8046 25.688 14.1399 25.4168 14.3442 25.0538C14.5485 24.6908 14.6063 24.2635 14.5059 23.8593C14.4972 23.8422 14.49 23.8224 14.4825 23.8041C14.4758 23.7899 14.4704 23.7751 14.4666 23.76C14.4543 23.7243 14.4456 23.6886 14.4366 23.6544C14.3837 23.4025 14.4291 23.1399 14.5634 22.9203C14.6977 22.7007 14.9107 22.5407 15.159 22.4729C15.4074 22.4052 15.6722 22.4348 15.8994 22.5557C16.1266 22.6767 16.299 22.8798 16.3815 23.1237C16.3842 23.1393 16.3888 23.1546 16.395 23.1693H16.4049C16.5504 23.5688 16.8461 23.8958 17.229 24.0807C17.612 24.2656 18.052 24.2938 18.4554 24.1593L18.4557 24.1578Z" fill="#E31337"/>
</svg>