<svg width="228" height="53" viewBox="0 0 228 53" fill="none" xmlns="http://www.w3.org/2000/svg">
<path d="M28.8074 1.72239C24.6344 3.74926 21.4948 7.68378 20.8191 11.817C20.6602 12.6119 20.2627 13.4067 19.9051 13.526C19.5474 13.6849 15.7321 14.9169 11.4001 16.3477C2.29908 19.2886 1.42474 19.6861 0.590142 21.2758C-0.125225 22.627 -0.204711 25.3295 0.431172 26.5615C1.50422 28.6282 4.48492 30.1384 6.19385 29.4627C6.59128 29.3038 7.10794 29.582 7.62459 30.2179C8.22073 30.973 8.77713 31.2114 9.85018 31.2114C12.2745 31.1717 13.745 29.423 13.3078 27.1179C13.1091 26.1244 13.2283 25.6475 13.8642 25.0911C14.6193 24.4154 16.2885 24.4949 16.2885 25.25C16.2885 25.4487 16.7654 26.1244 17.3218 26.8C18.0769 27.7141 18.673 28.032 19.6666 28.032C21.3358 28.032 22.9653 26.6808 23.164 25.1705C23.3627 23.5014 23.6806 23.4616 25.2306 24.8129C26.6613 26.0449 29.801 27.8333 29.801 27.4359C29.801 27.2769 29.3638 26.6013 28.8074 25.8462C27.019 23.5411 26.1049 20.2822 26.3434 17.063C26.5818 13.7644 27.6151 11.3401 29.8407 8.79658C33.2983 4.9018 38.0675 3.51081 43.7109 4.86206L44.7045 5.10051L43.7904 4.10695C43.2737 3.55055 41.9622 2.59673 40.8494 2.00059C39.1008 1.04676 38.2264 0.848051 35.0073 0.728823C31.4304 0.569853 31.033 0.649338 28.8074 1.72239Z" fill="#EC1540"/>
<path d="M65.848 7.0472C65.3313 7.44463 64.8147 10.4253 63.3839 20.5994C62.3904 27.7531 61.675 33.794 61.7942 33.9927C61.9135 34.2312 63.1057 34.3901 64.3775 34.3901C67.239 34.3901 67.2787 34.3504 67.9543 29.0249C68.2325 26.839 68.5902 24.8122 68.7492 24.534C68.9082 24.1763 70.0607 25.766 71.9286 28.9057C73.5183 31.6082 75.0285 33.9132 75.267 34.0722C75.5054 34.2312 77.0157 34.3901 78.6054 34.3901C80.9104 34.3901 81.4668 34.2709 81.4668 33.794C81.4668 33.4363 79.6784 30.4954 77.4926 27.2365C75.3067 23.9776 73.5183 21.1956 73.5183 21.0764C73.5183 20.9571 76.1413 17.8969 79.3207 14.2804C82.5002 10.6638 85.0039 7.48437 84.9245 7.24591C84.7257 6.64977 81.1092 6.41132 79.7579 6.92797C79.1618 7.16643 76.8567 9.67021 74.2337 12.9291C71.7696 16.029 69.703 18.3341 69.6235 18.1354C69.544 17.8969 69.7825 15.8303 70.1004 13.5252C70.8953 8.23948 70.8953 7.12668 70.1004 6.80874C69.0274 6.41132 66.5634 6.53055 65.848 7.0472Z" fill="#212838"/>
<path d="M88.0643 7.08694C87.5079 7.48437 87.031 9.94841 85.6002 19.8841C84.6464 26.6006 83.8516 32.6415 83.8516 33.2773V34.3901H91.9988H100.146L100.543 33.3568C101.14 31.8069 101.02 30.1377 100.305 29.8595C99.9473 29.7402 97.523 29.621 94.9 29.621H90.1309L90.4091 27.1172C90.8463 22.984 90.4886 23.2622 95.3769 23.2622H99.7089L100.106 21.752C100.345 20.9571 100.543 20.0828 100.543 19.8046C100.543 18.8905 98.9935 18.4931 95.3372 18.4931H91.6809L91.9591 15.9893C92.4757 11.4189 91.9591 11.8163 97.7615 11.6573C100.583 11.5779 102.968 11.4189 103.127 11.2599C103.286 11.1407 103.564 10.2266 103.763 9.31253C104.359 6.68952 104.041 6.57029 95.7744 6.57029C90.6873 6.57029 88.5809 6.72926 88.0643 7.08694Z" fill="#212838"/>
<path d="M105.79 7.08776C105.432 7.48519 106.028 9.83001 108.134 16.3081L110.916 25.0514L110.281 29.3039C109.923 31.6885 109.764 33.7551 109.883 33.9935C110.241 34.5897 114.692 34.5102 115.169 33.8743C115.368 33.6359 115.805 31.4897 116.162 29.1449L116.759 24.8925L121.806 16.5068C124.548 11.9364 126.774 7.84288 126.694 7.44545C126.495 6.41214 122.839 6.29291 121.687 7.24674C121.249 7.64416 119.461 10.5851 117.752 13.7645L114.652 19.6067L113.102 13.6453C112.268 10.3864 111.314 7.44545 110.996 7.12751C110.241 6.41214 106.386 6.3724 105.79 7.08776Z" fill="#212838"/>
<path d="M134.881 6.96767C130.509 7.88175 126.336 11.4586 124.786 15.6316C123.594 18.6918 123.793 23.6993 125.223 26.6403C127.29 30.9722 131.741 33.9529 136.749 34.3106C139.61 34.5093 142.71 33.8734 143.465 32.9991C144.101 32.244 144.459 26.998 143.942 26.68C143.704 26.5608 142.67 26.8787 141.597 27.4749C140.008 28.3095 139.292 28.4684 137.265 28.3492C130.271 27.912 127.25 20.1225 132.099 15.1149C135.398 11.6573 139.968 11.697 143.585 15.2341C145.015 16.5854 145.135 16.6649 145.651 15.9893C146.367 14.9957 146.843 10.2663 146.287 9.59069C145.452 8.59712 141.279 7.00742 138.895 6.8087C137.583 6.68947 135.755 6.76896 134.881 6.96767Z" fill="#212838"/>
<path d="M151.691 7.0472C151.135 7.44463 150.658 10.2266 149.188 20.4405C148.194 27.5147 147.479 33.5555 147.598 33.8735C147.757 34.2312 148.552 34.3901 150.181 34.3901C153.082 34.3901 153.122 34.3504 153.758 29.2236C154.513 23.0635 153.997 23.6596 158.567 23.6596C162.501 23.6596 162.541 23.6596 162.342 24.534C161.985 26.1634 161.349 31.6479 161.349 33.0389V34.3901H163.892C165.323 34.3901 166.555 34.2312 166.674 34.0722C166.754 33.9132 167.668 27.8723 168.701 20.6789C170.41 8.31896 170.49 7.56385 169.854 7.08694C168.821 6.33183 166.356 6.45106 165.403 7.24591C164.767 7.80231 164.489 8.95485 163.972 12.9291C163.614 15.6714 163.336 18.0162 163.336 18.1751C163.336 18.3739 161.508 18.4931 159.322 18.4931H155.268L155.507 16.7841C156.659 8.55742 156.739 7.3254 156.182 6.96771C155.308 6.41132 152.486 6.4908 151.691 7.0472Z" fill="#212838"/>
<path d="M182.055 7.08694C181.3 7.44463 179.631 10.624 174.981 20.2815C171.643 27.2762 168.94 33.3171 168.9 33.6748C168.9 34.2709 169.298 34.3901 171.444 34.3901C174.425 34.3901 174.544 34.2709 176.094 30.4159L177.048 27.9916L181.221 28.1108L185.394 28.23L185.791 30.8133C186.029 32.244 186.347 33.635 186.506 33.8735C186.705 34.1914 187.778 34.3901 189.408 34.3901C191.911 34.3901 191.951 34.3901 191.951 33.2773C191.951 32.6812 190.878 26.6006 189.527 19.7648C187.222 7.96128 187.023 7.28566 186.109 6.92797C184.797 6.45106 183.208 6.4908 182.055 7.08694ZM183.764 18.2149C184.678 23.6596 184.837 23.2622 181.777 23.2622C180.346 23.2622 179.233 23.1032 179.313 22.9443C180.108 20.8776 183.009 14.2009 183.089 14.2406C183.128 14.3201 183.446 16.0688 183.764 18.2149Z" fill="#212838"/>
<path d="M198.27 7.20617C197.754 7.80231 194.376 29.9787 194.336 32.8799V34.3901H196.919C199.264 34.3901 199.542 34.3107 199.82 33.4761C200.019 32.9991 200.933 26.9185 201.887 19.9636C203.874 5.77543 203.954 6.57029 200.655 6.57029C199.463 6.57029 198.628 6.80874 198.27 7.20617Z" fill="#212838"/>
<path d="M208.087 7.08828C207.491 7.52545 207.054 9.91001 205.583 20.4021C204.59 27.4365 203.914 33.4774 204.033 33.8351C204.192 34.312 204.788 34.3915 206.736 34.312L209.2 34.1928L209.478 32.8018C209.637 32.0467 210.154 28.3109 210.63 24.4956L211.545 17.5803L213.492 22.9059C214.565 25.8468 215.916 29.5826 216.512 31.2121L217.625 34.1928L220.487 34.312C223.149 34.4312 223.388 34.3517 223.746 33.5171C224.143 32.5633 227.322 9.91001 227.322 8.08185C227.322 7.24725 227.084 6.92931 226.289 6.7306C225.176 6.4524 222.593 6.77034 222.116 7.24725C221.957 7.40622 221.44 10.7049 220.964 14.5202C220.487 18.3354 219.97 21.8725 219.851 22.3892C219.612 23.1046 218.897 21.4751 216.632 15.315C213.412 6.57163 213.412 6.57163 210.273 6.57163C209.478 6.57163 208.484 6.81008 208.087 7.08828Z" fill="#212838"/>
<path d="M38.9424 7.56427C37.9488 7.88222 36.1604 8.95527 34.8886 9.90909C30.6362 13.2872 28.6888 19.7255 30.358 24.8523L30.9939 26.8395L25.2312 33.397C22.0518 37.0136 19.1108 40.5507 18.6737 41.266C17.2032 43.6506 17.998 46.9095 20.5018 48.5389C21.7736 49.4133 25.0722 49.4928 26.026 48.6979C26.3837 48.38 27.6555 48.1415 28.8875 48.1018C30.6759 48.1018 31.2323 47.9031 31.8285 47.1479C32.822 45.9159 32.7823 43.7698 31.7092 42.3391C30.9939 41.3455 30.9144 41.0276 31.3118 40.1532C31.8285 39.0007 33.14 38.8417 34.3323 39.7558C35.604 40.7096 37.2732 40.4712 38.6245 39.1597C39.6578 38.1264 39.777 37.7289 39.5385 36.6559C39.0616 34.3906 39.1014 34.1918 39.936 34.3508C40.3731 34.4303 42.1616 34.5098 43.9102 34.5495C46.6127 34.5893 47.4473 34.4303 49.5139 33.4765C52.4152 32.1252 54.7997 29.8202 56.3099 26.8395C57.2638 24.8921 57.4227 24.2164 57.4227 20.8781C57.4227 17.5397 57.3035 16.8243 56.3099 14.8372C54.9587 12.0949 52.8126 9.90909 49.9909 8.35913C48.1627 7.36556 47.3678 7.16685 44.3077 7.08736C41.9628 7.00788 40.0949 7.16685 38.9424 7.56427ZM48.3614 14.1218C51.1434 15.791 51.6203 19.5268 49.355 21.7524C45.2615 25.8459 38.6245 20.4806 41.8436 15.6718C43.4333 13.2872 46.0166 12.6513 48.3614 14.1218Z" fill="#212838"/>
<path d="M135.239 16.1083C133.451 17.1813 132.616 18.6518 132.616 20.6787C132.616 22.7055 133.451 24.176 135.239 25.2491C138.657 27.3554 143.069 24.7722 143.069 20.6787C143.069 16.5852 138.657 14.0019 135.239 16.1083Z" fill="#212838"/>
<path d="M61.7939 44.3276H92.2029" stroke="#EC1540" stroke-width="1.58971" stroke-linecap="round"/>
<path d="M98.2234 38.2959C98.993 38.2959 99.6514 38.4258 100.199 38.6854C100.746 38.9451 101.163 39.316 101.45 39.7982C101.747 40.2804 101.896 40.8646 101.896 41.5509C101.896 41.9496 101.831 42.3484 101.701 42.7471C101.58 43.1459 101.386 43.5075 101.117 43.8321C100.857 44.1567 100.505 44.4209 100.059 44.625C99.6236 44.8197 99.0858 44.9171 98.4459 44.9171H96.9854V48.4224H95.3579V38.2959H98.2234ZM98.4459 43.3452C98.7983 43.3452 99.095 43.285 99.3361 43.1644C99.5773 43.0439 99.7627 42.8908 99.8925 42.7054C100.032 42.5199 100.129 42.3298 100.185 42.1351C100.25 41.9311 100.282 41.7502 100.282 41.5926C100.282 41.4257 100.254 41.2448 100.199 41.0501C100.143 40.8461 100.05 40.656 99.9204 40.4798C99.7905 40.2943 99.6097 40.146 99.3779 40.0347C99.146 39.9141 98.8493 39.8538 98.4876 39.8538H96.9854V43.3452H98.4459ZM103.235 43.3731C103.235 42.6683 103.37 42.0053 103.639 41.3839C103.908 40.7626 104.279 40.2109 104.752 39.7287C105.225 39.2464 105.772 38.8709 106.393 38.602C107.024 38.3238 107.696 38.1847 108.41 38.1847C109.115 38.1847 109.778 38.3238 110.399 38.602C111.03 38.8709 111.581 39.2464 112.054 39.7287C112.537 40.2109 112.912 40.7626 113.181 41.3839C113.459 42.0053 113.598 42.6683 113.598 43.3731C113.598 44.0871 113.459 44.7548 113.181 45.3761C112.912 45.9974 112.537 46.5492 112.054 47.0314C111.581 47.5043 111.03 47.8752 110.399 48.1442C109.778 48.4038 109.115 48.5336 108.41 48.5336C107.687 48.5336 107.014 48.4038 106.393 48.1442C105.772 47.8752 105.225 47.5089 104.752 47.0453C104.279 46.5723 103.908 46.0252 103.639 45.4039C103.37 44.7733 103.235 44.0964 103.235 43.3731ZM104.905 43.3731C104.905 43.8738 104.993 44.3421 105.169 44.778C105.354 45.2138 105.609 45.5986 105.934 45.9325C106.259 46.2571 106.634 46.5121 107.061 46.6975C107.487 46.883 107.951 46.9757 108.452 46.9757C108.934 46.9757 109.384 46.883 109.801 46.6975C110.228 46.5121 110.598 46.2571 110.914 45.9325C111.229 45.5986 111.475 45.2138 111.651 44.778C111.836 44.3421 111.929 43.8738 111.929 43.3731C111.929 42.863 111.836 42.3901 111.651 41.9542C111.466 41.5184 111.215 41.1336 110.9 40.7997C110.585 40.4659 110.214 40.2062 109.787 40.0208C109.36 39.8353 108.901 39.7426 108.41 39.7426C107.919 39.7426 107.459 39.8353 107.033 40.0208C106.606 40.2062 106.231 40.4659 105.906 40.7997C105.591 41.1336 105.345 41.523 105.169 41.9682C104.993 42.404 104.905 42.8723 104.905 43.3731ZM114.11 38.3516H116.002L118.506 45.5291L118.242 45.4178L120.189 40.4242L120.94 42.6219L118.158 48.8953L114.11 38.3516ZM119.076 38.3516H120.676L123.458 45.3761L123.138 45.3205L125.447 38.3516H127.186L123.235 48.8675L119.076 38.3516ZM129.087 38.2959H135.805V39.8538H130.714V42.5524H135.249V44.1242H130.714V46.8645H136V48.4224H129.087V38.2959ZM141.094 38.2959C141.65 38.2959 142.16 38.3701 142.624 38.5185C143.088 38.6576 143.482 38.8662 143.806 39.1444C144.131 39.4226 144.381 39.7658 144.557 40.1738C144.743 40.5725 144.836 41.0316 144.836 41.5509C144.836 41.9496 144.775 42.3484 144.655 42.7471C144.534 43.1459 144.335 43.5075 144.057 43.8321C143.788 44.1567 143.431 44.4163 142.986 44.611C142.54 44.8058 141.989 44.9032 141.33 44.9032H139.87V48.4224H138.242V38.2959H141.094ZM141.316 43.3452C141.678 43.3452 141.979 43.2896 142.221 43.1783C142.462 43.0578 142.647 42.9094 142.777 42.7332C142.916 42.557 143.013 42.3715 143.069 42.1768C143.134 41.9728 143.166 41.7827 143.166 41.6065C143.166 41.4396 143.139 41.2588 143.083 41.064C143.027 40.86 142.935 40.6699 142.805 40.4937C142.675 40.3082 142.489 40.1552 142.248 40.0347C142.017 39.9141 141.724 39.8538 141.372 39.8538H139.87V43.3452H141.316ZM143.069 44.305L145.656 48.4224H143.778L141.136 44.3468L143.069 44.305ZM147.561 38.2959H154.279V39.8538H149.188V42.5524H153.723V44.1242H149.188V46.8645H154.474V48.4224H147.561V38.2959ZM156.716 48.4224V38.2959H159.596C160.607 38.2959 161.464 38.4489 162.169 38.755C162.874 39.0517 163.444 39.4551 163.88 39.9651C164.316 40.4659 164.631 41.0269 164.826 41.6482C165.03 42.2603 165.132 42.8769 165.132 43.4982C165.132 44.2587 164.997 44.9402 164.729 45.543C164.46 46.1458 164.093 46.6651 163.63 47.1009C163.166 47.5275 162.628 47.8567 162.016 48.0885C161.413 48.3111 160.769 48.4224 160.083 48.4224H156.716ZM158.344 46.8645H159.791C160.328 46.8645 160.82 46.7903 161.265 46.6419C161.71 46.4842 162.095 46.2617 162.42 45.9742C162.753 45.6775 163.008 45.3112 163.185 44.8753C163.37 44.4395 163.463 43.9434 163.463 43.387C163.463 42.7564 163.356 42.2185 163.143 41.7734C162.939 41.319 162.665 40.9527 162.322 40.6745C161.988 40.3871 161.622 40.1784 161.223 40.0486C160.825 39.9188 160.43 39.8538 160.041 39.8538H158.344V46.8645ZM174.522 38.2959C175.551 38.2959 176.363 38.5046 176.956 38.9219C177.559 39.3392 177.86 39.979 177.86 40.8415C177.86 41.4164 177.726 41.9079 177.457 42.3159C177.197 42.7147 176.831 43.0253 176.358 43.2479C175.885 43.4612 175.333 43.5771 174.703 43.5956L174.452 42.7332C175.203 42.7425 175.871 42.863 176.455 43.0949C177.04 43.3174 177.503 43.6373 177.846 44.0546C178.189 44.4627 178.361 44.9495 178.361 45.5152C178.361 46.0438 178.264 46.4935 178.069 46.8645C177.874 47.2261 177.615 47.5229 177.29 47.7547C176.965 47.9865 176.599 48.1581 176.191 48.2694C175.783 48.3714 175.356 48.4224 174.911 48.4224H171.754V38.2959H174.522ZM174.786 42.608C175.268 42.608 175.621 42.4689 175.843 42.1907C176.075 41.9032 176.191 41.5694 176.191 41.1892C176.191 40.7255 176.047 40.3871 175.76 40.1738C175.472 39.9605 175.083 39.8538 174.591 39.8538H173.381V42.608H174.786ZM174.842 46.9201C175.185 46.9201 175.496 46.8737 175.774 46.781C176.052 46.679 176.27 46.526 176.428 46.322C176.594 46.1087 176.678 45.8444 176.678 45.5291C176.678 45.1767 176.581 44.9032 176.386 44.7084C176.2 44.5137 175.959 44.3746 175.663 44.2911C175.366 44.2077 175.055 44.1659 174.731 44.1659H173.381V46.9201H174.842ZM182.751 45.1396L179.01 38.2959H180.999L183.85 43.7486L183.364 43.7764L186.173 38.2959H188.162L184.365 45.1396V48.4224H182.751V45.1396ZM202.565 38.2959V48.4224H200.938V44.1242H195.958V48.4224H194.33V38.2959H195.958V42.5663H200.938V38.2959H202.565ZM205.347 38.2959H206.974V48.4224H205.347V38.2959ZM210.819 38.2959L214.004 46.2246L213.072 46.0438L216.035 38.2959H217.955L213.42 48.8953L208.885 38.2959H210.819ZM219.854 38.2959H226.573V39.8538H221.482V42.5524H226.017V44.1242H221.482V46.8645H226.768V48.4224H219.854V38.2959Z" fill="#212838"/>
</svg>
