<svg width="20" height="20" viewBox="0 0 20 20" fill="none" xmlns="http://www.w3.org/2000/svg">
<path d="M5.83341 6.66699H3.33341C2.41675 6.66699 1.66675 5.91699 1.66675 5.00033V3.33366C1.66675 2.41699 2.41675 1.66699 3.33341 1.66699H5.83341C6.75008 1.66699 7.50008 2.41699 7.50008 3.33366V5.00033C7.50008 5.91699 6.75008 6.66699 5.83341 6.66699Z" stroke="#E31337" stroke-linecap="round" stroke-linejoin="round"/>
<path d="M17.3333 5.83333H14.3333C13.7833 5.83333 13.3333 5.38332 13.3333 4.83332V3.50001C13.3333 2.95001 13.7833 2.5 14.3333 2.5H17.3333C17.8833 2.5 18.3333 2.95001 18.3333 3.50001V4.83332C18.3333 5.38332 17.8833 5.83333 17.3333 5.83333Z" stroke="#E31337" stroke-linecap="round" stroke-linejoin="round"/>
<path d="M17.3333 12.0833H14.3333C13.7833 12.0833 13.3333 11.6333 13.3333 11.0833V9.75001C13.3333 9.20001 13.7833 8.75 14.3333 8.75H17.3333C17.8833 8.75 18.3333 9.20001 18.3333 9.75001V11.0833C18.3333 11.6333 17.8833 12.0833 17.3333 12.0833Z" stroke="#E31337" stroke-linecap="round" stroke-linejoin="round"/>
<path d="M7.5 4.16699H13.3333" stroke="#E31337" stroke-miterlimit="10" stroke-linecap="round" stroke-linejoin="round"/>
<path d="M10.4167 4.16699V15.0003C10.4167 15.917 11.1667 16.667 12.0834 16.667H13.3334" fill="white"/>
<path d="M10.4167 4.16699V15.0003C10.4167 15.917 11.1667 16.667 12.0834 16.667H13.3334" stroke="#E31337" stroke-miterlimit="10" stroke-linecap="round" stroke-linejoin="round"/>
<path d="M10.4167 10.417H13.3334" stroke="#E31337" stroke-miterlimit="10" stroke-linecap="round" stroke-linejoin="round"/>
<path d="M17.3333 18.3333H14.3333C13.7833 18.3333 13.3333 17.8833 13.3333 17.3333V16C13.3333 15.45 13.7833 15 14.3333 15H17.3333C17.8833 15 18.3333 15.45 18.3333 16V17.3333C18.3333 17.8833 17.8833 18.3333 17.3333 18.3333Z" stroke="#E31337" stroke-linecap="round" stroke-linejoin="round"/>
</svg>
