<svg width="50" height="50" viewBox="0 0 50 50" fill="none" xmlns="http://www.w3.org/2000/svg">
<circle cx="25" cy="25" r="24.34" fill="#212838" stroke="#E31337" stroke-width="1.32"/>
<path d="M38.6071 16.8968C38.4225 16.7334 38.2298 16.5794 38.0297 16.4355C37.4025 15.977 36.7094 15.6162 35.9741 15.3652L35.9494 15.3568C34.4848 14.8596 32.9056 14.8075 31.4115 15.2072C29.9173 15.607 28.5751 16.4406 27.5544 17.6028C26.5338 18.765 25.8805 20.2036 25.677 21.7369C25.4736 23.2702 25.7291 24.8294 26.4114 26.2175L25.9594 26.7295L19.6447 33.9028C19.2746 34.3225 19.0298 34.8376 18.9384 35.3897C18.8469 35.9417 18.9124 36.5083 19.1274 37.0248C19.3014 37.4442 19.5696 37.8179 19.9114 38.1168C20.2061 38.3759 20.549 38.5744 20.9205 38.7009C21.2919 38.8274 21.6847 38.8795 22.0763 38.8541C22.4679 38.8288 22.8507 38.7265 23.2027 38.5532C23.5548 38.3798 23.8692 38.1388 24.1281 37.8438C24.1431 37.8275 24.1594 37.8105 24.1731 37.7918C24.5319 38.0871 24.9905 38.2334 25.454 38.2005C25.9176 38.1676 26.3509 37.9581 26.6645 37.6151C26.9781 37.2721 27.148 36.8218 27.1393 36.3571C27.1306 35.8925 26.9439 35.4489 26.6177 35.1178L26.5644 35.0782C26.5494 35.0672 26.5357 35.0548 26.5234 35.0448C26.5111 35.0348 26.4647 34.9888 26.4374 34.9602C26.2348 34.7502 26.1221 34.4694 26.1232 34.1776C26.1244 33.8858 26.2393 33.606 26.4436 33.3976C26.6478 33.1892 26.9253 33.0687 27.2171 33.0617C27.5088 33.0547 27.7917 33.1618 28.0057 33.3602L28.0441 33.3955L28.0524 33.3872C28.4157 33.6863 28.881 33.8325 29.3501 33.7949C29.8192 33.7574 30.2553 33.539 30.5664 33.1859C30.8775 32.8328 31.0392 32.3726 31.0174 31.9025C30.9955 31.4324 30.7919 30.9892 30.4494 30.6665L30.8971 30.1572C32.61 30.7469 34.4746 30.7236 36.1722 30.0914C37.8699 29.4591 39.2954 28.257 40.2053 26.6904C41.1151 25.1239 41.4529 23.29 41.1609 21.5021C40.8688 19.7142 39.9651 18.0831 38.6041 16.8875L38.6071 16.8968ZM36.9021 23.2715C36.6711 23.537 36.3935 23.7581 36.0831 23.9238C35.4373 24.2712 34.685 24.3645 33.974 24.1852C33.263 24.0059 32.6448 23.5671 32.241 22.955C31.8372 22.343 31.677 21.602 31.7919 20.8778C31.9068 20.1536 32.2885 19.4986 32.8619 19.0416C33.4354 18.5846 34.1591 18.3587 34.8906 18.4084C35.6222 18.458 36.3087 18.7795 36.8152 19.3098C37.3217 19.84 37.6115 20.5405 37.6275 21.2736C37.6436 22.0067 37.3848 22.7193 36.9021 23.2712L36.9021 23.2715Z" fill="white"/>
<path d="M20.5077 26.721C20.9558 26.573 21.3285 26.256 21.5464 25.8373C21.7643 25.4187 21.8102 24.9316 21.6743 24.4797L22.316 24.2653C23.1786 25.2619 24.2787 26.0249 25.5143 26.4837C24.312 25.1959 23.5795 23.54 23.4355 21.7841C23.2915 20.0282 23.7444 18.2751 24.7209 16.8087C25.6974 15.3423 27.1403 14.2484 28.816 13.7043C30.4916 13.1601 32.3019 13.1974 33.9537 13.8103C32.9144 12.6999 31.574 11.9165 30.0965 11.556C28.619 11.1955 27.0684 11.2734 25.6345 11.7804C24.2006 12.2873 22.9455 13.2012 22.0229 14.4103C21.1003 15.6193 20.5501 17.0711 20.4397 18.588L19.7913 18.8023L10.7133 21.818C10.341 21.9415 9.99668 22.1371 9.69996 22.3937C9.40325 22.6503 9.15998 22.9628 8.98404 23.3134C8.62872 24.0215 8.56924 24.8417 8.81867 25.5937C9.06811 26.3456 9.60603 26.9676 10.3141 27.323C11.0222 27.6783 11.8424 27.7378 12.5943 27.4883L12.661 27.4663C12.8241 27.8994 13.1466 28.2538 13.5625 28.4569C13.9784 28.66 14.4561 28.6965 14.898 28.5588C15.3399 28.4212 15.7124 28.1199 15.9394 27.7166C16.1664 27.3133 16.2306 26.8385 16.119 26.3893C16.1093 26.3703 16.1013 26.3483 16.093 26.328C16.0856 26.3123 16.0797 26.2958 16.0753 26.279C16.0617 26.2393 16.052 26.1997 16.042 26.1617C15.9833 25.8818 16.0337 25.59 16.1829 25.346C16.3321 25.102 16.5689 24.9242 16.8448 24.8489C17.1207 24.7737 17.4149 24.8066 17.6674 24.941C17.9198 25.0753 18.1114 25.3011 18.203 25.572C18.2061 25.5894 18.2111 25.6064 18.218 25.6227L18.229 25.6227C18.3907 26.0666 18.7193 26.43 19.1448 26.6354C19.5703 26.8408 20.0591 26.8721 20.5073 26.7227L20.5077 26.721Z" fill="#E31337"/>
</svg>
