<svg xmlns="http://www.w3.org/2000/svg" width="45" height="46" viewBox="0 0 45 46" fill="none">
<circle cx="22.5" cy="22.6074" r="21.84" fill="#212838" stroke="#E31337" stroke-width="1.32"/>
<path d="M34.7448 15.3156C34.5787 15.1685 34.4053 15.0299 34.2252 14.9004C33.6607 14.4877 33.0369 14.1629 32.3751 13.9371L32.3529 13.9296C31.0348 13.482 29.6135 13.4351 28.2688 13.7949C26.924 14.1547 25.716 14.905 24.7975 15.9509C23.8789 16.9969 23.2909 18.2916 23.1078 19.6716C22.9247 21.0516 23.1547 22.4548 23.7687 23.7042L23.3619 24.165L17.6787 30.621C17.3456 30.9986 17.1253 31.4623 17.043 31.9591C16.9607 32.4559 17.0196 32.9658 17.2131 33.4307C17.3697 33.8082 17.6111 34.1445 17.9187 34.4135C18.184 34.6467 18.4926 34.8254 18.8269 34.9392C19.1612 35.0531 19.5147 35.0999 19.8671 35.0771C20.2196 35.0543 20.5641 34.9623 20.8809 34.8062C21.1978 34.6502 21.4808 34.4333 21.7137 34.1679C21.7272 34.1532 21.7419 34.1378 21.7542 34.121C22.0772 34.3868 22.4899 34.5185 22.9071 34.4889C23.3243 34.4593 23.7143 34.2707 23.9965 33.962C24.2787 33.6533 24.4317 33.248 24.4239 32.8298C24.416 32.4116 24.248 32.0124 23.9544 31.7145L23.9064 31.6788C23.8929 31.6689 23.8806 31.6578 23.8695 31.6488C23.8584 31.6397 23.8167 31.5984 23.7921 31.5726C23.6098 31.3836 23.5083 31.1309 23.5094 30.8683C23.5104 30.6056 23.6138 30.3538 23.7977 30.1662C23.9815 29.9787 24.2313 29.8702 24.4938 29.8639C24.7564 29.8576 25.011 29.954 25.2036 30.1325L25.2381 30.1644L25.2456 30.1569C25.5726 30.426 25.9914 30.5576 26.4136 30.5238C26.8358 30.49 27.2283 30.2935 27.5083 29.9757C27.7882 29.6579 27.9338 29.2437 27.9141 28.8207C27.8945 28.3976 27.7112 27.9987 27.4029 27.7083L27.8058 27.2499C29.3475 27.7806 31.0256 27.7597 32.5535 27.1906C34.0814 26.6216 35.3644 25.5397 36.1832 24.1298C37.0021 22.7199 37.3061 21.0694 37.0432 19.4603C36.7804 17.8512 35.9671 16.3832 34.7421 15.3072L34.7448 15.3156ZM33.2103 21.0528C33.0024 21.2917 32.7526 21.4907 32.4732 21.6399C31.8921 21.9525 31.2149 22.0364 30.575 21.875C29.9351 21.7137 29.3788 21.3188 29.0153 20.7679C28.6519 20.2171 28.5077 19.5502 28.6111 18.8984C28.7146 18.2466 29.0581 17.6571 29.5742 17.2458C30.0903 16.8346 30.7416 16.6313 31.4 16.6759C32.0584 16.7206 32.6763 17.01 33.1322 17.4872C33.588 17.9644 33.8488 18.5949 33.8633 19.2546C33.8777 19.9144 33.6448 20.5557 33.2103 21.0525V21.0528Z" fill="white"/>
<path d="M18.4557 24.1578C18.859 24.0246 19.1944 23.7392 19.3905 23.3625C19.5866 22.9857 19.6279 22.5473 19.5057 22.1406L20.0832 21.9477C20.8595 22.8446 21.8496 23.5313 22.9617 23.9442C21.8795 22.7852 21.2203 21.2949 21.0907 19.7146C20.9611 18.1343 21.3687 16.5565 22.2476 15.2367C23.1264 13.9169 24.4251 12.9325 25.9331 12.4427C27.4412 11.953 29.0705 11.9866 30.5571 12.5382C29.6217 11.5388 28.4154 10.8338 27.0856 10.5093C25.7558 10.1848 24.3603 10.255 23.0698 10.7112C21.7793 11.1675 20.6497 11.99 19.8194 13.0781C18.989 14.1663 18.4938 15.4729 18.3945 16.8381L17.811 17.031L9.64076 19.7451C9.30567 19.8562 8.99576 20.0323 8.72872 20.2632C8.46168 20.4942 8.24274 20.7754 8.08439 21.091C7.76461 21.7282 7.71107 22.4664 7.93556 23.1432C8.16005 23.8199 8.64419 24.3798 9.28145 24.6995C9.91872 25.0193 10.6569 25.0729 11.3337 24.8484L11.3937 24.8286C11.5405 25.2184 11.8307 25.5373 12.205 25.7201C12.5793 25.9029 13.0093 25.9357 13.4069 25.8118C13.8046 25.688 14.1399 25.4168 14.3442 25.0538C14.5485 24.6908 14.6063 24.2635 14.5059 23.8593C14.4972 23.8422 14.49 23.8224 14.4825 23.8041C14.4758 23.7899 14.4704 23.7751 14.4666 23.76C14.4543 23.7243 14.4456 23.6886 14.4366 23.6544C14.3837 23.4025 14.4291 23.1399 14.5634 22.9203C14.6977 22.7007 14.9107 22.5407 15.159 22.4729C15.4074 22.4052 15.6722 22.4348 15.8994 22.5557C16.1266 22.6767 16.299 22.8798 16.3815 23.1237C16.3842 23.1393 16.3888 23.1546 16.395 23.1693H16.4049C16.5504 23.5688 16.8461 23.8958 17.229 24.0807C17.612 24.2656 18.052 24.2938 18.4554 24.1593L18.4557 24.1578Z" fill="#E31337"/>
</svg>