<svg width="254" height="215" viewBox="0 0 254 215" fill="none" xmlns="http://www.w3.org/2000/svg">
<path d="M132.233 4.84909C113.078 14.1529 98.6659 32.2132 95.5646 51.1857C94.8349 54.8343 93.0106 58.4828 91.3688 59.0301C89.7269 59.7598 72.2138 65.4151 52.3292 71.9825C10.5533 85.4821 6.53987 87.3064 2.70889 94.6035C-0.574813 100.806 -0.939668 113.211 1.97918 118.866C6.90472 128.353 20.5868 135.285 28.4312 132.184C30.2555 131.454 32.627 132.731 34.9986 135.65C37.735 139.116 40.289 140.21 45.2145 140.21C56.3426 140.028 63.0925 132.001 61.0858 121.42C60.1736 116.86 60.7209 114.671 63.6397 112.117C67.1059 109.015 74.7678 109.38 74.7678 112.846C74.7678 113.758 76.957 116.86 79.511 119.961C82.9771 124.157 85.7135 125.616 90.2742 125.616C97.9362 125.616 105.416 119.414 106.328 112.481C107.24 104.819 108.699 104.637 115.814 110.84C122.381 116.495 136.793 124.704 136.793 122.88C136.793 122.15 134.787 119.049 132.233 115.583C124.023 105.002 119.827 90.0428 120.922 75.2662C122.017 60.1247 126.76 48.9966 136.976 37.3212C152.847 19.4433 174.738 13.0583 200.643 19.2609L205.204 20.3554L201.008 15.7948C198.636 13.2408 192.616 8.8625 187.508 6.12609C179.481 1.74782 175.468 0.835683 160.691 0.2884C144.273 -0.441311 142.449 -0.0764554 132.233 4.84909Z" fill="#EC1540"/>
<path d="M168.755 23.6643C164.194 25.1237 155.985 30.0493 150.147 34.4275C130.627 49.9339 121.688 79.4872 129.35 103.02L132.269 112.142L105.817 142.242C91.2229 158.843 77.7232 175.079 75.7165 178.363C68.9667 189.309 72.6152 204.268 84.1082 211.747C89.9459 215.761 105.087 216.126 109.466 212.477C111.107 211.018 116.945 209.923 122.6 209.741C130.81 209.741 133.364 208.828 136.1 205.362C140.661 199.707 140.478 189.856 135.553 183.289C132.269 178.728 131.904 177.268 133.729 173.255C136.1 167.965 142.12 167.235 147.593 171.431C153.431 175.809 161.093 174.714 167.295 168.694C172.038 163.951 172.586 162.127 171.491 157.201C169.302 146.803 169.484 145.891 173.315 146.621C175.322 146.985 183.531 147.35 191.558 147.533C203.963 147.715 207.794 146.985 217.28 142.607C230.598 136.405 241.543 125.824 248.476 112.142C252.854 103.203 253.584 100.102 253.584 84.7776C253.584 69.4537 253.036 66.17 248.476 57.0486C242.273 44.4611 232.422 34.4275 219.47 27.3128C211.078 22.7522 207.429 21.84 193.382 21.4752C182.619 21.1103 174.045 21.84 168.755 23.6643ZM211.99 53.7649C224.76 61.4268 226.949 78.575 216.551 88.791C197.761 107.581 167.295 82.9533 182.072 60.8796C189.369 49.9339 201.227 47.015 211.99 53.7649Z" fill="#212838"/>
</svg>