<svg xmlns="http://www.w3.org/2000/svg" width="18" height="18" viewBox="0 0 18 18" fill="none">
  <path d="M9.11995 8.1525C9.04495 8.145 8.95495 8.145 8.87245 8.1525C7.08745 8.0925 5.66995 6.63 5.66995 4.83C5.66245 2.9925 7.15495 1.5 8.99245 1.5C10.83 1.5 12.3225 2.9925 12.3225 4.83C12.3225 6.63 10.8974 8.0925 9.11995 8.1525Z" stroke="white" stroke-width="1.27" stroke-linecap="round" stroke-linejoin="round"/>
  <path d="M8.99253 16.3573C7.62753 16.3573 6.27003 16.0123 5.23503 15.3223C3.42003 14.1073 3.42003 12.1273 5.23503 10.9198C7.29753 9.53977 10.68 9.53977 12.7425 10.9198" stroke="white" stroke-width="1.27" stroke-linecap="round" stroke-linejoin="round"/>
  <path d="M10.4326 14.1529L10.4326 15.3093C10.4326 15.7341 10.4326 15.7341 10.8334 16.0047L11.9357 16.642C12.1021 16.7382 12.3726 16.7382 12.537 16.642L13.6392 16.0047C14.04 15.7341 14.04 15.7341 14.04 15.3113L14.04 14.1529C14.04 13.73 14.04 13.73 13.6392 13.4595L12.537 12.8221C12.3726 12.726 12.1021 12.726 11.9357 12.8221L10.8334 13.4595C10.4326 13.73 10.4326 13.73 10.4326 14.1529Z" stroke="white" stroke-width="0.75" stroke-linecap="round" stroke-linejoin="round"/>
  <path d="M12.2362 15.3333C12.5683 15.3333 12.8375 15.0642 12.8375 14.7321C12.8375 14.4 12.5683 14.1309 12.2362 14.1309C11.9042 14.1309 11.635 14.4 11.635 14.7321C11.635 15.0642 11.9042 15.3333 12.2362 15.3333Z" stroke="white" stroke-width="0.75" stroke-linecap="round" stroke-linejoin="round"/>
</svg>