<svg xmlns="http://www.w3.org/2000/svg" width="18" height="18" viewBox="0 0 18 18" fill="none">
<path d="M13.5001 5.37C13.4551 5.3625 13.4026 5.3625 13.3576 5.37C12.3226 5.3325 11.4976 4.485 11.4976 3.435C11.4976 2.3625 12.3601 1.5 13.4326 1.5C14.5051 1.5 15.3676 2.37 15.3676 3.435C15.3601 4.485 14.5351 5.3325 13.5001 5.37Z" stroke="#E31337" stroke-width="1.27" stroke-linecap="round" stroke-linejoin="round"/>
<path d="M12.7276 10.8301C13.7551 11.0026 14.8876 10.8226 15.6826 10.2901C16.7401 9.58512 16.7401 8.43012 15.6826 7.72512C14.8801 7.19262 13.7326 7.01262 12.7051 7.19262" stroke="#E31337" stroke-width="1.27" stroke-linecap="round" stroke-linejoin="round"/>
<path d="M4.47761 5.37C4.52261 5.3625 4.57511 5.3625 4.62011 5.37C5.65511 5.3325 6.48011 4.485 6.48011 3.435C6.48011 2.3625 5.61761 1.5 4.54511 1.5C3.47261 1.5 2.61011 2.37 2.61011 3.435C2.61761 4.485 3.44261 5.3325 4.47761 5.37Z" stroke="#E31337" stroke-width="1.27" stroke-linecap="round" stroke-linejoin="round"/>
<path d="M5.25008 10.8301C4.22258 11.0026 3.09008 10.8226 2.29508 10.2901C1.23758 9.58512 1.23758 8.43012 2.29508 7.72512C3.09758 7.19262 4.24508 7.01262 5.27258 7.19262" stroke="#E31337" stroke-width="1.27" stroke-linecap="round" stroke-linejoin="round"/>
<path d="M9.00006 10.9725C8.95506 10.965 8.90256 10.965 8.85756 10.9725C7.82256 10.935 6.99756 10.0875 6.99756 9.03754C6.99756 7.96504 7.86006 7.10254 8.93256 7.10254C10.0051 7.10254 10.8676 7.97254 10.8676 9.03754C10.8601 10.0875 10.0351 10.9425 9.00006 10.9725Z" stroke="#E31337" stroke-width="1.27" stroke-linecap="round" stroke-linejoin="round"/>
<path d="M6.81754 13.3355C5.76004 14.0405 5.76004 15.1955 6.81754 15.9005C8.01754 16.703 9.98254 16.703 11.1825 15.9005C12.24 15.1955 12.24 14.0405 11.1825 13.3355C9.99004 12.5405 8.01754 12.5405 6.81754 13.3355Z" stroke="#E31337" stroke-width="1.27" stroke-linecap="round" stroke-linejoin="round"/>
</svg>