<svg width="20" height="20" viewBox="0 0 20 20" fill="none" xmlns="http://www.w3.org/2000/svg">
<path d="M10.1332 9.05866C10.0498 9.05033 9.94984 9.05033 9.85817 9.05866C7.87484 8.99199 6.29984 7.36699 6.29984 5.36699C6.2915 3.32533 7.94984 1.66699 9.9915 1.66699C12.0332 1.66699 13.6915 3.32533 13.6915 5.36699C13.6915 7.36699 12.1082 8.99199 10.1332 9.05866Z" stroke="#E31337" stroke-width="1.27" stroke-linecap="round" stroke-linejoin="round"/>
<path d="M9.9917 18.1751C8.47503 18.1751 6.9667 17.7917 5.8167 17.0251C3.80003 15.6751 3.80003 13.4751 5.8167 12.1334C8.10837 10.6001 11.8667 10.6001 14.1584 12.1334" stroke="#E31337" stroke-width="1.27" stroke-linecap="round" stroke-linejoin="round"/>
<path d="M11.5918 15.7258L11.5918 17.0106C11.5918 17.4827 11.5918 17.4827 12.0372 17.7833L13.2619 18.4915C13.4467 18.5983 13.7473 18.5983 13.9299 18.4915L15.1547 17.7833C15.6001 17.4827 15.6001 17.4827 15.6001 17.0129L15.6001 15.7258C15.6001 15.2559 15.6001 15.2559 15.1547 14.9553L13.9299 14.2472C13.7473 14.1403 13.4467 14.1403 13.2619 14.2472L12.0372 14.9553C11.5918 15.2559 11.5918 15.2559 11.5918 15.7258Z" stroke="#E31337" stroke-width="0.75" stroke-linecap="round" stroke-linejoin="round"/>
<path d="M13.596 17.0373C13.965 17.0373 14.2641 16.7382 14.2641 16.3692C14.2641 16.0003 13.965 15.7012 13.596 15.7012C13.2271 15.7012 12.928 16.0003 12.928 16.3692C12.928 16.7382 13.2271 17.0373 13.596 17.0373Z" stroke="#E31337" stroke-width="0.75" stroke-linecap="round" stroke-linejoin="round"/>
</svg>
