<svg width="27" height="10" viewBox="0 0 27 10" fill="none" xmlns="http://www.w3.org/2000/svg">
<path d="M9.192 0.445406V9.44141H8.009V2.73341L5.019 9.44141H4.187L1.184 2.72041V9.44141H0.00100009V0.445406H1.275L4.603 7.88141L7.931 0.445406H9.192ZM16.5543 7.42641H12.6023L11.8743 9.44141H10.6263L13.9023 0.432406H15.2673L18.5303 9.44141H17.2823L16.5543 7.42641ZM16.2163 6.46441L14.5783 1.88841L12.9403 6.46441H16.2163ZM23.663 4.91741L26.445 9.44141H25.106L22.935 5.90541L20.868 9.44141H19.555L22.324 4.91741L19.542 0.380406H20.868L23.052 3.92941L25.132 0.380406H26.458L23.663 4.91741Z" fill="#E31337"/>
</svg>
