<svg xmlns="http://www.w3.org/2000/svg" width="45" height="41" fill="none" viewBox="0 0 45 41">
  <rect width="43.37" height="38.948" x=".423" y="-.423" stroke="var(--menu-icon-border-color)" stroke-width="1.4" rx="19.474" transform="matrix(1 0 0 -1 0 38.948)"/>
  <g clip-path="url(#a)">
    <path fill="var(--menu-icon-color)" fill-rule="evenodd" stroke="var(--menu-icon-color)" stroke-width=".3" d="M2.037 7.325h-.526A1.5 1.5 0 0 0 0 8.812v2.211a1.5 1.5 0 0 0 1.511 1.488h.593c.163.758.546 1.46 1.111 2.016a4.124 4.124 0 0 0 2.49 1.161A1.54 1.54 0 0 0 7.237 17h1.95c.854 0 1.547-.682 1.547-1.523v-.369c0-.84-.693-1.522-1.546-1.522h-1.95c-.766 0-1.402.548-1.526 1.268a3.273 3.273 0 0 1-1.9-.914 3.176 3.176 0 0 1-.953-2.264V7.874C2.86 4.54 5.611 1.83 9 1.83c3.39 0 6.14 2.709 6.14 6.044v4.221a.419.419 0 0 0 .477.412.447.447 0 0 0 .055.004h.817A1.5 1.5 0 0 0 18 11.023v-2.21a1.5 1.5 0 0 0-1.511-1.488h-.526C15.678 3.788 12.667 1 9 1 5.333 1 2.322 3.788 2.037 7.325Zm7.854 7.783v.37a.698.698 0 0 1-.703.692h-1.95a.698.698 0 0 1-.704-.693v-.369c0-.382.315-.692.703-.692h1.95c.389 0 .704.31.704.692Zm6.094-3.428h.504a.663.663 0 0 0 .667-.657v-2.21a.663.663 0 0 0-.667-.658h-.504v3.525ZM2.015 8.155h-.504a.663.663 0 0 0-.667.657v2.211c0 .363.299.657.667.657h.504V8.156Z" clip-rule="evenodd"/>
  </g>
  <defs>
    <clipPath id="a">
      <path fill="#fff" d="M0 0h18v18H0z"/>
    </clipPath>
  </defs>
</svg>
