<svg width="132" height="15" viewBox="0 0 132 15" fill="none" xmlns="http://www.w3.org/2000/svg">
<path d="M22.67 9.99803L17.6848 1.35324C16.5917 -0.447538 13.9301 -0.468661 12.874 1.42717L7.64589 10.4152C6.66893 12.0629 7.87825 14.133 9.83217 14.133L20.3147 14.133C22.2845 14.133 23.7631 12.01 22.67 9.99803Z" fill="#3156AA"/>
<path d="M15.4828 10.6673L15.1765 10.1287C14.8914 9.63225 14.2577 8.55495 14.2577 8.55495L10.0383 1.23566C8.9504 -0.390847 6.36277 -0.528149 5.26963 1.52611L0.363699 10.0125C-0.650229 11.7974 0.55381 14.1157 2.76122 14.1316L13.1857 14.1316L17.6322 14.1316L20.2779 14.1316C17.5741 14.1527 16.708 12.7532 15.4828 10.6673Z" fill="#1972E2"/>
<path d="M15.4831 10.6685L15.1768 10.1298C14.8916 9.63343 14.2579 8.55614 14.2579 8.55614L11.5066 3.78223L7.62514 10.4361C6.64818 12.0838 7.8575 14.1539 9.81142 14.1539L13.1648 14.1539L17.6113 14.1539L20.2728 14.1539C17.5532 14.1327 16.7082 12.7544 15.4831 10.6685Z" fill="url(#paint0_linear_851_7823)"/>
<path d="M131.034 13.4457C130.205 13.4457 129.555 13.2661 129.059 12.9546C128.541 12.6166 128.272 12.1255 128.272 11.4495L128.272 1.66406L129.571 1.66406C130.041 1.66406 130.447 2.04429 130.447 2.54069L130.447 11.1591C130.447 11.1802 130.447 11.5868 130.785 11.9195C130.986 12.1202 131.234 12.2311 131.572 12.2311L131.82 12.2311C131.91 12.2311 132 12.3209 132 12.4106L132 13.4668L131.034 13.4457Z" fill="#326AD5"/>
<path d="M102.982 13.4459C101.635 13.4459 100.536 13.0868 99.7074 12.3686C99.2796 12.0095 98.9892 11.6029 98.8096 11.1593C98.6301 10.7104 98.5403 10.0609 98.5403 9.18426C98.5403 8.33404 98.6301 7.65809 98.8096 7.20921C98.968 6.78146 99.2585 6.40124 99.6862 6.04214C100.515 5.32394 101.619 4.96484 102.96 4.96484C104.307 4.96484 105.405 5.32394 106.235 6.04214C106.662 6.40124 106.953 6.80259 107.111 7.20921C107.291 7.67921 107.38 8.33404 107.38 9.18426C107.38 10.0609 107.291 10.7104 107.111 11.1593C106.932 11.6082 106.641 12.0095 106.213 12.3686C105.427 13.0868 104.328 13.4459 102.982 13.4459ZM102.982 6.20057C101.503 6.20057 100.758 7.20922 100.758 9.20539C100.758 11.228 101.498 12.2366 102.982 12.2366C104.465 12.2366 105.205 11.228 105.205 9.23179C105.205 7.20922 104.439 6.20057 102.982 6.20057Z" fill="#326AD5"/>
<path d="M112.276 13.4457C111.109 13.4457 110.032 13.1341 109.113 12.5268C109.023 12.437 108.843 12.3261 108.616 12.1888C108.574 12.1677 108.527 12.0991 108.527 12.0304L108.527 1.66406L109.852 1.66406C110.322 1.66406 110.729 2.07069 110.729 2.54069L110.729 5.57191L111.135 5.34483C111.605 5.09663 112.234 4.98573 113.042 4.98573C114.457 4.98573 115.534 5.41348 116.253 6.24258C116.881 6.9819 117.198 7.96942 117.198 9.18403C117.198 10.3986 116.839 11.3861 116.121 12.0991C115.281 12.9968 113.982 13.4457 112.276 13.4457ZM112.498 6.20033C112.001 6.20033 111.442 6.37988 110.813 6.7601L110.723 6.80763L110.723 11.6766L110.813 11.7452C111.304 12.0568 111.891 12.2152 112.498 12.2152C113.306 12.2152 113.934 11.8773 114.362 11.2066C114.721 10.668 114.922 9.97087 114.922 9.18403C114.922 7.20898 114.093 6.20033 112.498 6.20033Z" fill="#326AD5"/>
<path d="M122.373 13.4248C119.907 13.4248 118.354 11.8089 118.354 9.18426C118.354 6.58079 119.88 4.96484 122.325 4.96484C123.265 4.96484 124.073 5.21304 124.728 5.68304L124.86 5.77282L124.86 5.12327L126.587 5.12327C126.698 5.12327 126.767 5.21304 126.767 5.30282L126.767 13.2717L124.839 13.2717L124.839 12.5535L124.707 12.6644C124.168 13.1555 123.313 13.4248 122.373 13.4248ZM122.822 6.40124C121.275 6.40124 120.356 7.58944 120.356 9.18426C120.356 10.7791 121.275 12.0095 122.822 12.0095C123.313 12.0095 124.168 11.962 124.844 11.2913L124.866 11.2702L124.866 7.18809L124.844 7.16697C124.369 6.62304 123.672 6.40124 122.822 6.40124Z" fill="#326AD5"/>
<path d="M42.6372 13.3335L42.6372 1.6416L52.354 1.6416L52.354 2.38092C52.354 2.9671 51.884 3.4371 51.2978 3.4371L45.0611 3.4371L45.0611 6.57922L51.2978 6.57922L51.2978 8.37472L45.0611 8.37472L45.0611 11.5168L51.2978 11.5168C51.8787 11.5168 52.354 11.9868 52.354 12.573L52.354 13.3123L42.6372 13.3335Z" fill="#151617"/>
<path d="M66.3114 1.6416L64.0248 1.6416C63.5971 1.6416 63.2168 1.82115 62.9475 2.15913L60.1856 5.63922L57.4237 2.18553C57.1544 1.84756 56.7742 1.66801 56.3464 1.66801L54.0598 1.66801L58.707 7.50337L54.0598 13.3387L56.3464 13.3387C56.7742 13.3387 57.1544 13.1592 57.4237 12.8212L60.1856 9.36752L62.9686 12.8476C63.238 13.1592 63.6182 13.3651 64.0459 13.3651L66.3326 13.3651L61.6854 7.52978L66.3114 1.6416Z" fill="#151617"/>
<path d="M35.0271 12.0987L38.2115 6.5327L38.2115 13.3081L40.6354 13.3081L40.6354 1.62149L39.1304 1.62149C38.6604 1.62149 38.2115 1.86969 37.9844 2.29744L34.1716 9.25235L30.3589 2.29216C30.1318 1.86441 29.6829 1.61621 29.2129 1.61621L27.7131 1.61621L27.7131 13.3081L30.1371 13.3081L30.1371 6.5327L33.3214 12.0987L35.0271 12.0987Z" fill="#151617"/>
<path d="M72.6431 13.4657C69.2792 13.5079 66.5385 10.8622 66.5173 7.49831C66.5173 5.65529 67.0771 4.12912 68.1333 3.07822C69.1895 2.04317 70.7156 1.4834 72.5322 1.4834C74.6657 1.4834 76.345 2.22272 77.5596 3.65912L76.7992 4.30867C76.3292 4.71001 75.6321 4.73642 75.1146 4.35619C74.4386 3.83867 73.5884 3.59047 72.622 3.59047C70.2456 3.59047 68.8304 5.02687 68.8304 7.45079C68.8304 9.89583 70.2879 11.4009 72.622 11.4009C73.6095 11.4009 74.4386 11.1316 75.1146 10.6404C75.611 10.2602 76.3028 10.2813 76.7992 10.688L77.5596 11.3375C76.345 12.7475 74.7291 13.4657 72.6431 13.4657Z" fill="#151617"/>
<path d="M87.5666 13.468C83.7961 13.468 81.4619 11.1814 81.4619 7.50059C81.4619 3.81982 83.7961 1.5332 87.5191 1.5332C89.3146 1.5332 90.8196 2.05073 91.9867 3.1069L91.4269 3.73533C91.1787 4.00465 90.8196 4.16308 90.4605 4.16308C90.2598 4.16308 90.0539 4.11555 89.8796 4.02578C89.1825 3.66668 88.3746 3.48713 87.5244 3.48713C85.1004 3.48713 83.5954 5.03442 83.5954 7.52699C83.5954 10.0407 85.1638 11.588 87.6775 11.588C88.8921 11.588 89.8321 11.3609 90.5292 10.8698L90.5714 10.8487L90.5714 8.44587L87.8993 8.44587L87.8993 7.65902C87.8993 7.07812 88.3693 6.60284 88.9555 6.60284L92.256 6.60284C92.3458 6.60284 92.4356 6.69262 92.4356 6.78239L92.4356 11.9682C91.2896 12.9557 89.6525 13.468 87.5666 13.468Z" fill="#326AD5"/>
<path d="M96.766 13.4457C95.9369 13.4457 95.2821 13.2661 94.791 12.9546C94.2735 12.6166 94.0042 12.1255 94.0042 11.4495L94.0042 1.66406L95.3032 1.66406C95.7732 1.66406 96.1799 2.04429 96.1799 2.54069L96.1799 11.1591C96.1799 11.1802 96.1799 11.5868 96.5178 11.9195C96.7185 12.1202 96.9667 12.2311 97.3047 12.2311L97.5529 12.2311C97.6427 12.2311 97.7324 12.3209 97.7324 12.4106L97.7324 13.4668L96.766 13.4457Z" fill="#326AD5"/>
<defs>
<linearGradient id="paint0_linear_851_7823" x1="6.48278" y1="7.42688" x2="17.838" y2="11.885" gradientUnits="userSpaceOnUse">
<stop stop-color="#264CA2" stop-opacity="0"/>
<stop offset="1" stop-color="#234588"/>
</linearGradient>
</defs>
</svg>
