<svg width="168" height="21" viewBox="0 0 168 21" fill="none" xmlns="http://www.w3.org/2000/svg">
<g clip-path="url(#clip0)">
<path d="M32.6678 14.3787L25.4881 1.92467C23.9141 -0.671062 20.0757 -0.698677 18.5569 2.03512L11.0183 14.9862C9.60993 17.361 11.3496 20.3433 14.1663 20.3433H29.2712C32.1155 20.3433 34.2418 17.2781 32.6678 14.3787Z" fill="#00B897"/>
<path d="M22.3124 15.3452L21.8706 14.572C21.4564 13.854 20.5451 12.3076 20.5451 12.3076L14.47 1.75903C12.896 -0.588175 9.16811 -0.781475 7.5941 2.17324L0.524876 14.4063C-0.938674 16.9744 0.801017 20.3157 3.97665 20.3434H18.9987H25.4052H29.216C25.3224 20.371 24.0798 18.3551 22.3124 15.3452Z" fill="#76FCB2"/>
<path d="M22.3124 15.3451L21.8706 14.572C21.4564 13.854 20.5451 12.3076 20.5451 12.3076L16.6239 5.40405L10.9906 15.0138C9.58231 17.3886 11.322 20.3709 14.1387 20.3709H18.9711H25.3776H29.216C25.2948 20.3433 24.0797 18.3551 22.3124 15.3451Z" fill="url(#paint0_linear)"/>
<path d="M165.813 19.3766C164.791 19.3766 163.99 19.1557 163.383 18.7691C162.747 18.3549 162.416 17.7473 162.416 16.9189V4.87915H164.018C164.598 4.87915 165.095 5.34859 165.095 5.9561V16.5599C165.095 16.5876 165.095 17.0846 165.509 17.4988C165.757 17.7473 166.061 17.8854 166.475 17.8854H166.779C166.89 17.8854 167 17.9959 167 18.1063V19.4042L165.813 19.3766Z" fill="#00B897"/>
<path d="M131.295 19.3764C129.638 19.3764 128.285 18.9346 127.263 18.0509C126.739 17.6091 126.38 17.112 126.159 16.5597C125.938 16.0075 125.827 15.2066 125.827 14.1297C125.827 13.0804 125.938 12.2519 126.159 11.6996C126.352 11.175 126.711 10.7055 127.236 10.2637C128.257 9.38006 129.61 8.93823 131.267 8.93823C132.924 8.93823 134.277 9.38006 135.299 10.2637C135.824 10.7055 136.183 11.2026 136.376 11.6996C136.597 12.2795 136.707 13.0804 136.707 14.1297C136.707 15.2066 136.597 16.0075 136.376 16.5597C136.155 17.112 135.796 17.6091 135.271 18.0509C134.305 18.9346 132.952 19.3764 131.295 19.3764ZM131.295 10.457C129.472 10.457 128.561 11.6996 128.561 14.1573C128.561 16.6426 129.472 17.8852 131.295 17.8852C133.117 17.8852 134.029 16.6426 134.029 14.1849C134.029 11.6996 133.09 10.457 131.295 10.457Z" fill="#00B897"/>
<path d="M142.727 19.3766C141.291 19.3766 139.966 18.99 138.834 18.2444C138.723 18.1339 138.502 17.9959 138.226 17.8302C138.171 17.8026 138.116 17.7197 138.116 17.6369V4.87915H139.745C140.325 4.87915 140.822 5.3762 140.822 5.9561V9.68401L141.319 9.40787C141.899 9.10412 142.672 8.96605 143.666 8.96605C145.406 8.96605 146.731 9.49071 147.615 10.5124C148.388 11.4237 148.775 12.6387 148.775 14.1299C148.775 15.6211 148.333 16.8361 147.449 17.7197C146.427 18.8243 144.826 19.3766 142.727 19.3766ZM143.003 10.4572C142.396 10.4572 141.705 10.6781 140.932 11.1476L140.822 11.2028V17.1951L140.932 17.2779C141.54 17.6645 142.258 17.8578 143.003 17.8578C143.997 17.8578 144.771 17.4436 145.295 16.6152C145.737 15.9524 145.986 15.0964 145.986 14.1299C145.986 11.6998 144.964 10.4572 143.003 10.4572Z" fill="#00B897"/>
<path d="M155.154 19.3488C152.116 19.3488 150.211 17.3606 150.211 14.1297C150.211 10.9265 152.088 8.93823 155.098 8.93823C156.258 8.93823 157.252 9.24199 158.053 9.82189L158.219 9.93234V9.13153H160.345C160.483 9.13153 160.566 9.24199 160.566 9.35244V19.1555H158.191V18.2718L158.025 18.4099C157.363 19.0174 156.313 19.3488 155.154 19.3488ZM155.706 10.7055C153.8 10.7055 152.668 12.1691 152.668 14.1297C152.668 16.0903 153.8 17.6091 155.706 17.6091C156.313 17.6091 157.363 17.5539 158.191 16.7254L158.219 16.6978V11.672L158.191 11.6444C157.611 10.9817 156.755 10.7055 155.706 10.7055Z" fill="#00B897"/>
<path d="M57.0404 19.2383V4.85132H68.9973V5.76259C68.9973 6.48055 68.4174 7.06045 67.6995 7.06045H60.0227V10.9264H67.6995V13.1356H60.0227V17.0015H67.6995C68.4174 17.0015 68.9973 17.5814 68.9973 18.2994V19.2107L57.0404 19.2383Z" fill="white"/>
<path d="M86.1734 4.85132H83.3567C82.832 4.85132 82.3626 5.07223 82.0312 5.48644L78.6347 9.76664L75.2381 5.51406C74.9068 5.09985 74.4373 4.87893 73.9127 4.87893H71.096L76.8121 12.0586L71.096 19.2383H73.9127C74.4373 19.2383 74.9068 19.0174 75.2381 18.6032L78.6347 14.3506L82.0588 18.6308C82.3902 19.0174 82.8597 19.2659 83.3843 19.2659H86.201L80.4848 12.0862L86.1734 4.85132Z" fill="white"/>
<path d="M47.6792 17.7205L51.6004 10.8722V19.2117H54.5828V4.82471H52.7326C52.1527 4.82471 51.6004 5.12846 51.3243 5.65313L46.6299 14.2135L41.9355 5.65313C41.6593 5.12846 41.107 4.82471 40.5271 4.82471H38.677V19.2117H41.6593V10.8722L45.5805 17.7205H47.6792Z" fill="white"/>
<path d="M93.9605 19.4042C89.8184 19.4594 86.4495 16.2009 86.4219 12.0588C86.4219 9.79444 87.1122 7.91667 88.4101 6.61881C89.708 5.34856 91.5857 4.6582 93.8225 4.6582C96.4458 4.6582 98.5169 5.56947 100.008 7.33678L99.0692 8.13759C98.4893 8.63464 97.6332 8.66226 96.9981 8.19282C96.1697 7.55769 95.1203 7.25393 93.9329 7.25393C91.0058 7.25393 89.2661 9.02124 89.2661 12.0036C89.2661 15.0135 91.061 16.8637 93.9329 16.8637C95.1479 16.8637 96.1697 16.5323 96.9981 15.9248C97.6056 15.4553 98.4616 15.483 99.0692 15.98L100.008 16.7808C98.5169 18.5205 96.5287 19.4042 93.9605 19.4042Z" fill="white"/>
<path d="M112.324 19.4041C107.685 19.4041 104.813 16.5875 104.813 12.0587C104.813 7.53002 107.685 4.71338 112.269 4.71338C114.478 4.71338 116.328 5.3485 117.764 6.64637L117.074 7.41957C116.77 7.75094 116.328 7.94424 115.886 7.94424C115.638 7.94424 115.389 7.88901 115.168 7.77855C114.312 7.33672 113.318 7.11581 112.269 7.11581C109.286 7.11581 107.436 9.02119 107.436 12.0864C107.436 15.1791 109.369 17.0845 112.462 17.0845C113.953 17.0845 115.113 16.8084 115.969 16.2009L116.024 16.1733V13.2185H112.738V12.252C112.738 11.5341 113.318 10.9542 114.036 10.9542H118.095C118.206 10.9542 118.316 11.0646 118.316 11.1751V17.554C116.908 18.769 114.892 19.4041 112.324 19.4041Z" fill="#00B897"/>
<path d="M123.646 19.3766C122.624 19.3766 121.823 19.1557 121.216 18.7691C120.581 18.3549 120.249 17.7473 120.249 16.9189V4.87915H121.851C122.431 4.87915 122.928 5.34859 122.928 5.9561V16.5599C122.928 16.5876 122.928 17.0846 123.342 17.4988C123.591 17.7473 123.894 17.8854 124.308 17.8854H124.612C124.723 17.8854 124.833 17.9959 124.833 18.1063V19.4042L123.646 19.3766Z" fill="#00B897"/>
</g>
<defs>
<linearGradient id="paint0_linear" x1="8.98574" y1="10.6475" x2="26.4374" y2="17.0964" gradientUnits="userSpaceOnUse">
<stop stop-color="#53E57A" stop-opacity="0"/>
<stop offset="1" stop-color="#00A977"/>
</linearGradient>
<clipPath id="clip0">
<rect width="168" height="21" fill="white"/>
</clipPath>
</defs>
</svg>
