<svg xmlns="http://www.w3.org/2000/svg" width="20" height="20" viewBox="0 0 20 20" fill="none">
  <path d="M2.26909 1.14959C1.7774 1.33992 1.32558 1.80896 1.13953 2.31198C1.03322 2.61787 1 2.85579 1 3.37921C1 4.17453 1.13289 4.62317 1.49833 5.06501C2.04982 5.72438 3.08635 5.92831 3.87039 5.53405C4.29563 5.31652 4.60792 4.99024 4.8139 4.5416C4.9335 4.27649 4.95343 4.09975 4.95343 3.37921C4.95343 2.58389 4.94014 2.50231 4.76739 2.14204C4.31557 1.19717 3.23253 0.768924 2.26909 1.14959ZM3.3189 2.45473C3.57139 2.59068 3.65777 2.8286 3.65777 3.37921C3.65777 3.92981 3.57139 4.16773 3.3189 4.30368C2.97339 4.48722 2.5548 4.35806 2.40862 4.02498C2.30231 3.78706 2.30895 2.91017 2.42191 2.70624C2.59466 2.38675 2.98004 2.27799 3.3189 2.45473Z" fill="#E31337"/>
  <path d="M7.85021 1.09441C7.53792 1.27115 7.43161 1.66541 7.60437 2.01209C7.73061 2.2568 7.96981 2.35876 8.44157 2.35876H8.84023V3.37841V4.39805H8.44157C7.96981 4.39805 7.73061 4.50001 7.60437 4.74473C7.42497 5.0982 7.55121 5.52645 7.87679 5.676C8.14257 5.79835 10.9133 5.79156 11.1591 5.6624C11.4714 5.49246 11.5777 5.0982 11.405 4.74473C11.2787 4.50001 11.0395 4.39805 10.5678 4.39805H10.1691V2.97055C10.1691 1.4139 10.1359 1.23716 9.80367 1.08081C9.55783 0.965255 8.05619 0.97885 7.85021 1.09441Z" fill="#E31337"/>
  <path d="M15.2906 1.14959C14.7989 1.33992 14.3471 1.80896 14.1611 2.31198C14.0548 2.61787 14.0215 2.85579 14.0215 3.37921C14.0215 4.17453 14.1544 4.62317 14.5199 5.06501C15.0714 5.72438 16.1079 5.92831 16.8919 5.53405C17.3172 5.31652 17.6295 4.99024 17.8354 4.5416C17.955 4.27649 17.975 4.09975 17.975 3.37921C17.975 2.58389 17.9617 2.50231 17.7889 2.14204C17.3371 1.19717 16.2541 0.768924 15.2906 1.14959ZM16.3404 2.45473C16.5929 2.59068 16.6793 2.8286 16.6793 3.37921C16.6793 3.92981 16.5929 4.16773 16.3404 4.30368C15.9949 4.48722 15.5763 4.35806 15.4302 4.02498C15.3239 3.78706 15.3305 2.91017 15.4435 2.70624C15.6162 2.38675 16.0016 2.27799 16.3404 2.45473Z" fill="#E31337"/>
  <path d="M1.33758 7.21453C1.02529 7.39126 0.91898 7.78553 1.09173 8.1322C1.21798 8.37692 1.45718 8.47888 1.92893 8.47888H2.3276V9.49852V10.5182H1.92893C1.45718 10.5182 1.21798 10.6201 1.09173 10.8648C0.912336 11.2183 1.03858 11.6466 1.36416 11.7961C1.62993 11.9185 4.40066 11.9117 4.6465 11.7825C4.95879 11.6126 5.0651 11.2183 4.89235 10.8648C4.7661 10.6201 4.5269 10.5182 4.05515 10.5182H3.65648V9.09067C3.65648 7.53401 3.62326 7.35728 3.29104 7.20093C3.0452 7.08537 1.54356 7.09897 1.33758 7.21453Z" fill="#E31337"/>
  <path d="M8.78172 7.26775C8.29003 7.45809 7.83821 7.92712 7.65217 8.43015C7.54586 8.73604 7.51263 8.97395 7.51263 9.49737C7.51263 10.2927 7.64552 10.7413 8.01097 11.1832C8.56245 11.8425 9.59898 12.0465 10.383 11.6522C10.8083 11.4347 11.1206 11.1084 11.3265 10.6598C11.4461 10.3947 11.4661 10.2179 11.4661 9.49737C11.4661 8.70205 11.4528 8.62048 11.28 8.26021C10.8282 7.31534 9.74516 6.88709 8.78172 7.26775ZM9.83154 8.5729C10.084 8.70885 10.1704 8.94676 10.1704 9.49737C10.1704 10.048 10.084 10.2859 9.83154 10.4218C9.48603 10.6054 9.06743 10.4762 8.92125 10.1431C8.81494 9.90523 8.82159 9.02834 8.93454 8.82441C9.1073 8.50492 9.49267 8.39616 9.83154 8.5729Z" fill="#E31337"/>
  <path d="M14.3628 7.21453C14.0505 7.39126 13.9442 7.78553 14.1169 8.1322C14.2432 8.37692 14.4824 8.47888 14.9541 8.47888H15.3528V9.49852V10.5182H14.9541C14.4824 10.5182 14.2432 10.6201 14.1169 10.8648C13.9375 11.2183 14.0638 11.6466 14.3894 11.7961C14.6551 11.9185 17.4259 11.9117 17.6717 11.7825C17.984 11.6126 18.0903 11.2183 17.9176 10.8648C17.7913 10.6201 17.5521 10.5182 17.0804 10.5182H16.6817V9.09067C16.6817 7.53401 16.6485 7.35728 16.3162 7.20093C16.0704 7.08537 14.5688 7.09897 14.3628 7.21453Z" fill="#E31337"/>
  <path d="M2.26909 13.3869C1.7774 13.5772 1.32558 14.0463 1.13953 14.5493C1.03322 14.8552 1 15.0931 1 15.6165C1 16.4118 1.13289 16.8605 1.49833 17.3023C2.04982 17.9617 3.08635 18.1656 3.87039 17.7714C4.29563 17.5538 4.60792 17.2275 4.8139 16.7789C4.9335 16.5138 4.95343 16.3371 4.95343 15.6165C4.95343 14.8212 4.94014 14.7396 4.76739 14.3793C4.31557 13.4345 3.23253 13.0062 2.26909 13.3869ZM3.3189 14.692C3.57139 14.828 3.65777 15.0659 3.65777 15.6165C3.65777 16.1671 3.57139 16.405 3.3189 16.541C2.97339 16.7245 2.5548 16.5954 2.40862 16.2623C2.30231 16.0244 2.30895 15.1475 2.42191 14.9435C2.59466 14.6241 2.98004 14.5153 3.3189 14.692Z" fill="#E31337"/>
  <path d="M7.85021 13.3317C7.53792 13.5085 7.43161 13.9027 7.60437 14.2494C7.73061 14.4941 7.96981 14.5961 8.44157 14.5961H8.84023V15.6157V16.6354H8.44157C7.96981 16.6354 7.73061 16.7373 7.60437 16.982C7.42497 17.3355 7.55121 17.7638 7.87679 17.9133C8.14257 18.0357 10.9133 18.0289 11.1591 17.8997C11.4714 17.7298 11.5777 17.3355 11.405 16.982C11.2787 16.7373 11.0395 16.6354 10.5678 16.6354H10.1691V15.2079C10.1691 13.6512 10.1359 13.4745 9.80367 13.3181C9.55783 13.2026 8.05619 13.2162 7.85021 13.3317Z" fill="#E31337"/>
  <path d="M15.2906 13.3869C14.7989 13.5772 14.3471 14.0463 14.1611 14.5493C14.0548 14.8552 14.0215 15.0931 14.0215 15.6165C14.0215 16.4118 14.1544 16.8605 14.5199 17.3023C15.0714 17.9617 16.1079 18.1656 16.8919 17.7714C17.3172 17.5538 17.6295 17.2275 17.8354 16.7789C17.955 16.5138 17.975 16.3371 17.975 15.6165C17.975 14.8212 17.9617 14.7396 17.7889 14.3793C17.3371 13.4345 16.2541 13.0062 15.2906 13.3869ZM16.3404 14.692C16.5929 14.828 16.6793 15.0659 16.6793 15.6165C16.6793 16.1671 16.5929 16.405 16.3404 16.541C15.9949 16.7245 15.5763 16.5954 15.4302 16.2623C15.3239 16.0244 15.3305 15.1475 15.4435 14.9435C15.6162 14.6241 16.0016 14.5153 16.3404 14.692Z" fill="#E31337"/>
  <path d="M1 1L18 18" stroke="#E31337" stroke-linecap="round"/>
</svg>