<svg width="64" height="64" viewBox="0 0 64 64" fill="none" xmlns="http://www.w3.org/2000/svg">
<path d="M35 42.75H29C23.57 42.75 21.25 40.43 21.25 35V29C21.25 23.57 23.57 21.25 29 21.25H35C40.43 21.25 42.75 23.57 42.75 29V35C42.75 40.43 40.43 42.75 35 42.75ZM29 22.75C24.39 22.75 22.75 24.39 22.75 29V35C22.75 39.61 24.39 41.25 29 41.25H35C39.61 41.25 41.25 39.61 41.25 35V29C41.25 24.39 39.61 22.75 35 22.75H29Z" fill="#8E8E8E"/>
<path d="M29 30.75C27.48 30.75 26.25 29.52 26.25 28C26.25 26.48 27.48 25.25 29 25.25C30.52 25.25 31.75 26.48 31.75 28C31.75 29.52 30.52 30.75 29 30.75ZM29 26.75C28.31 26.75 27.75 27.31 27.75 28C27.75 28.69 28.31 29.25 29 29.25C29.69 29.25 30.25 28.69 30.25 28C30.25 27.31 29.69 26.75 29 26.75Z" fill="#8E8E8E"/>
<path d="M22.6707 39.6996C22.4307 39.6996 22.1907 39.5796 22.0507 39.3696C21.8207 39.0296 21.9107 38.5596 22.2607 38.3296L27.1907 35.0196C28.2707 34.2896 29.7607 34.3796 30.7407 35.2096L31.0707 35.4996C31.5707 35.9296 32.4207 35.9296 32.9107 35.4996L37.0707 31.9296C38.1307 31.0196 39.8007 31.0196 40.8707 31.9296L42.5007 33.3296C42.8107 33.5996 42.8507 34.0696 42.5807 34.3896C42.3107 34.6996 41.8407 34.7396 41.5207 34.4696L39.8907 33.0696C39.3907 32.6396 38.5407 32.6396 38.0407 33.0696L33.8807 36.6396C32.8207 37.5496 31.1507 37.5496 30.0807 36.6396L29.7507 36.3496C29.2907 35.9596 28.5307 35.9196 28.0207 36.2696L23.0907 39.5796C22.9607 39.6596 22.8107 39.6996 22.6707 39.6996Z" fill="#8E8E8E"/>
</svg>
