<svg xmlns="http://www.w3.org/2000/svg" width="19" height="19" viewBox="0 0 19 19" fill="none">
  <path d="M10.8946 10.9267C10.8946 11.7217 10.5496 12.4417 9.99463 12.9367C9.51463 13.3717 8.88461 13.6267 8.19461 13.6267C6.70211 13.6267 5.49463 12.4192 5.49463 10.9267C5.49463 9.68172 6.34215 8.63172 7.48215 8.32422C7.78965 9.10422 8.45712 9.71172 9.28212 9.93672C9.50712 9.99672 9.74713 10.0342 9.99463 10.0342C10.2421 10.0342 10.4821 10.0042 10.7071 9.93672C10.8271 10.2367 10.8946 10.5742 10.8946 10.9267Z" stroke="#E31337" stroke-width="1.27" stroke-linecap="round" stroke-linejoin="round"/>
  <path d="M12.6946 7.32695C12.6946 7.67945 12.6271 8.01695 12.5071 8.32445C12.1996 9.10445 11.5322 9.71195 10.7072 9.93695C10.4822 9.99695 10.2422 10.0345 9.99466 10.0345C9.74716 10.0345 9.50715 10.0045 9.28215 9.93695C8.45715 9.71195 7.78968 9.11195 7.48218 8.32445C7.36218 8.01695 7.29468 7.67945 7.29468 7.32695C7.29468 5.83445 8.50216 4.62695 9.99466 4.62695C11.4872 4.62695 12.6946 5.83445 12.6946 7.32695Z" stroke="#E31337" stroke-width="1.27" stroke-linecap="round" stroke-linejoin="round"/>
  <path d="M14.4946 10.9274C14.4946 12.4199 13.2871 13.6274 11.7946 13.6274C11.1046 13.6274 10.4746 13.3649 9.99463 12.9374C10.5496 12.4499 10.8946 11.7299 10.8946 10.9274C10.8946 10.5749 10.8271 10.2374 10.7071 9.92988C11.5321 9.70488 12.1996 9.10488 12.5071 8.31738C13.6471 8.63238 14.4946 9.68239 14.4946 10.9274Z" stroke="#E31337" stroke-width="1.27" stroke-linecap="round" stroke-linejoin="round"/>
  <path d="M7.74463 16.627H12.2446C15.9946 16.627 17.4946 15.127 17.4946 11.377V6.87695C17.4946 3.12695 15.9946 1.62695 12.2446 1.62695H7.74463C3.99463 1.62695 2.49463 3.12695 2.49463 6.87695V11.377C2.49463 15.127 3.99463 16.627 7.74463 16.627Z" stroke="#E31337" stroke-width="1.27" stroke-linecap="round" stroke-linejoin="round"/>
</svg>