<svg width="22" height="22" viewBox="0 0 22 22" fill="none" xmlns="http://www.w3.org/2000/svg">
<path d="M12.1707 12.8793C12.1707 13.7768 11.7812 14.5896 11.1547 15.1484C10.6128 15.6395 9.90162 15.9273 9.12269 15.9273C7.43782 15.9273 6.07471 14.5642 6.07471 12.8793C6.07471 11.4739 7.03146 10.2885 8.31839 9.94141C8.66553 10.8219 9.41903 11.5077 10.3504 11.7617C10.6044 11.8295 10.8753 11.8718 11.1547 11.8718C11.4341 11.8718 11.7051 11.8379 11.9591 11.7617C12.0945 12.1004 12.1707 12.4814 12.1707 12.8793Z" stroke="#E31337" stroke-width="1.27" stroke-linecap="round" stroke-linejoin="round"/>
<path d="M14.2026 8.81558C14.2026 9.21351 14.1264 9.59451 13.991 9.94165C13.6438 10.8222 12.8903 11.508 11.959 11.762C11.705 11.8297 11.4341 11.872 11.1547 11.872C10.8753 11.872 10.6043 11.8382 10.3503 11.762C9.41899 11.508 8.66549 10.8306 8.31836 9.94165C8.18289 9.59451 8.10669 9.21351 8.10669 8.81558C8.10669 7.13071 9.4698 5.76758 11.1547 5.76758C12.8395 5.76758 14.2026 7.13071 14.2026 8.81558Z" stroke="#E31337" stroke-width="1.27" stroke-linecap="round" stroke-linejoin="round"/>
<path d="M16.2348 12.88C16.2348 14.5649 14.8717 15.928 13.1868 15.928C12.4079 15.928 11.6967 15.6317 11.1548 15.1491C11.7813 14.5987 12.1708 13.7859 12.1708 12.88C12.1708 12.4821 12.0946 12.1011 11.9591 11.7539C12.8905 11.4999 13.644 10.8226 13.9911 9.93359C15.278 10.2892 16.2348 11.4745 16.2348 12.88Z" stroke="#E31337" stroke-width="1.27" stroke-linecap="round" stroke-linejoin="round"/>
<path d="M8.61465 19.3142H13.6947C17.928 19.3142 19.6213 17.6209 19.6213 13.3875V8.30753C19.6213 4.07419 17.928 2.38086 13.6947 2.38086H8.61465C4.38132 2.38086 2.68799 4.07419 2.68799 8.30753V13.3875C2.68799 17.6209 4.38132 19.3142 8.61465 19.3142Z" stroke="#E31337" stroke-width="1.27" stroke-linecap="round" stroke-linejoin="round"/>
</svg>
