<?xml version="1.0" standalone="no"?>
<!DOCTYPE svg PUBLIC "-//W3C//DTD SVG 20010904//EN"
 "http://www.w3.org/TR/2001/REC-SVG-20010904/DTD/svg10.dtd">
<svg version="1.0" xmlns="http://www.w3.org/2000/svg"
 width="551.000000pt" height="127.000000pt" viewBox="0 0 551.000000 127.000000"
 preserveAspectRatio="xMidYMid meet">
<metadata>
Created by potrace 1.16, written by Peter Selinger 2001-2019
</metadata>
<g transform="translate(0.000000,127.000000) scale(0.100000,-0.100000)"
fill="#000000" stroke="none">
<path d="M288 1127 c-136 -79 -256 -151 -267 -162 -20 -18 -21 -28 -21 -330 0
-310 0 -312 23 -332 45 -42 515 -303 544 -303 18 0 115 50 273 141 135 77 255
147 268 155 l22 15 -2 327 -3 327 -265 153 c-187 108 -273 152 -295 151 -20 0
-112 -47 -277 -142z m437 -159 c88 -51 159 -97 159 -103 -1 -11 -302 -193
-321 -194 -7 -1 -63 29 -124 65 -61 36 -117 63 -125 60 -11 -4 -14 -40 -14
-196 0 -104 -4 -190 -9 -190 -4 0 -23 10 -42 23 l-34 23 -2 194 c-2 107 1 200
5 207 7 12 330 203 342 203 3 0 78 -42 165 -92z"/>
<path d="M470 922 c-44 -26 -65 -44 -65 -57 0 -26 118 -95 160 -94 40 1 150
70 150 94 0 23 -118 95 -155 95 -14 0 -54 -17 -90 -38z"/>
<path d="M3173 976 c-104 -34 -176 -98 -222 -196 -21 -46 -26 -70 -26 -145 0
-82 3 -96 33 -157 38 -77 92 -130 171 -167 48 -22 69 -26 151 -26 84 0 102 3
152 28 34 17 77 50 107 82 64 71 91 141 91 240 0 99 -27 169 -91 240 -69 75
-140 107 -244 112 -49 2 -96 -2 -122 -11z m194 -192 c104 -78 104 -220 0 -298
-41 -30 -123 -32 -171 -4 -49 28 -86 95 -86 153 0 58 37 125 86 153 48 28 130
26 171 -4z"/>
<path d="M1500 635 l0 -345 90 0 90 0 0 120 0 120 98 0 c127 0 171 20 220 100
27 46 32 64 32 117 0 103 -42 176 -125 214 -34 16 -66 19 -222 19 l-183 0 0
-345z m321 166 c25 -30 24 -76 -1 -101 -16 -16 -33 -20 -80 -20 l-60 0 0 76 0
76 61 -4 c49 -4 66 -9 80 -27z"/>
<path d="M2220 635 l0 -345 90 0 90 0 0 115 0 115 33 0 c31 0 34 -5 92 -115
l60 -115 102 0 c69 0 103 4 103 11 0 6 -29 66 -64 133 l-65 121 34 33 c53 50
69 88 69 162 0 72 -22 126 -71 172 -54 52 -86 58 -288 58 l-185 0 0 -345z
m318 179 c51 -36 47 -100 -7 -129 -17 -8 -53 -15 -81 -15 l-50 0 0 80 0 80 58
0 c37 0 66 -6 80 -16z"/>
<path d="M3850 634 l0 -345 194 3 194 3 39 31 c54 43 85 107 80 164 -5 62 -33
117 -73 144 l-34 23 21 19 c50 46 67 140 36 200 -20 38 -65 80 -100 93 -16 6
-101 11 -193 11 l-164 0 0 -346z m340 268 c22 -10 42 -32 54 -56 17 -36 18
-43 5 -80 -9 -25 -27 -49 -48 -63 -31 -21 -45 -23 -162 -23 l-129 0 0 120 0
120 123 0 c96 0 129 -4 157 -18z m20 -300 c97 -48 106 -178 17 -232 -28 -17
-51 -20 -174 -20 l-143 0 0 135 0 135 133 0 c106 0 139 -4 167 -18z"/>
<path d="M4650 635 l0 -346 33 3 32 3 0 340 0 340 -32 3 -33 3 0 -346z"/>
<path d="M4980 950 l0 -30 115 0 115 0 2 -312 3 -313 30 0 30 0 3 313 2 312
116 0 115 0 -3 28 -3 27 -262 3 -263 2 0 -30z"/>
</g>
</svg>
