<svg width="21" height="20" viewBox="0 0 21 20" fill="none" xmlns="http://www.w3.org/2000/svg">
<rect x="0.306628" y="-0.306628" width="19.3895" height="19.3873" rx="9.69365" transform="matrix(1 0 0 -1 0 19.3877)" stroke="#EDEDED" stroke-width="0.613257"/>
<path d="M14.8506 10.0076C14.8506 12.6806 12.6811 14.8501 10.008 14.8501C7.33497 14.8501 5.70305 12.1576 5.70305 12.1576M5.70305 12.1576H7.89186M5.70305 12.1576V14.5789M5.16553 10.0076C5.16553 7.33448 7.3156 5.16504 10.008 5.16504C13.238 5.16504 14.8506 7.85748 14.8506 7.85748M14.8506 7.85748V5.43622M14.8506 7.85748H12.7005" stroke="black" stroke-width="1.00091" stroke-linecap="round" stroke-linejoin="round"/>
<path d="M9.40969 8.64473C9.5569 8.64473 9.6881 8.66393 9.80331 8.70234C9.91851 8.7386 10.0145 8.79194 10.0913 8.86234C10.1702 8.93061 10.23 9.01381 10.2705 9.11195C10.3111 9.20795 10.3313 9.31675 10.3313 9.43836C10.3313 9.53436 10.3164 9.63036 10.2865 9.72636C10.2588 9.82237 10.2119 9.90984 10.1457 9.98877C10.0817 10.0677 9.99638 10.1317 9.88971 10.1808C9.78304 10.2277 9.65077 10.2512 9.4929 10.2512H9.16009V11H8.69607V8.64473H9.40969ZM9.4897 9.80317C9.5601 9.80317 9.61877 9.79143 9.6657 9.76797C9.71264 9.7445 9.7489 9.71463 9.7745 9.67836C9.80224 9.6421 9.82144 9.60476 9.83211 9.56636C9.84491 9.52583 9.85131 9.48849 9.85131 9.45436C9.85131 9.42876 9.84704 9.39675 9.83851 9.35835C9.83211 9.31782 9.81717 9.27729 9.79371 9.23675C9.77024 9.19622 9.73397 9.16208 9.6849 9.13435C9.63797 9.10661 9.57397 9.09275 9.4929 9.09275H9.16009V9.80317H9.4897ZM9.92491 10.0912L10.5073 11H9.96651L9.37129 10.104L9.92491 10.0912ZM12.4471 10.8048C12.4215 10.8261 12.3735 10.8549 12.3031 10.8912C12.2348 10.9275 12.1505 10.9595 12.0503 10.9872C11.95 11.0149 11.8391 11.0277 11.7175 11.0256C11.5319 11.0213 11.3654 10.9883 11.2182 10.9264C11.0732 10.8624 10.9494 10.776 10.847 10.6672C10.7468 10.5584 10.67 10.4336 10.6166 10.2928C10.5633 10.152 10.5366 10.0016 10.5366 9.84157C10.5366 9.66236 10.5633 9.49809 10.6166 9.34875C10.6721 9.19942 10.75 9.07035 10.8502 8.96154C10.9526 8.85274 11.0742 8.76847 11.215 8.70874C11.3558 8.649 11.5116 8.61913 11.6823 8.61913C11.8401 8.61913 11.9799 8.64047 12.1015 8.68313C12.2231 8.7258 12.3223 8.77167 12.3991 8.82074L12.2167 9.25915C12.1633 9.21862 12.0919 9.17702 12.0023 9.13435C11.9148 9.08955 11.8135 9.06715 11.6983 9.06715C11.6087 9.06715 11.5223 9.08635 11.4391 9.12475C11.358 9.16102 11.2854 9.21328 11.2214 9.28155C11.1596 9.34982 11.1105 9.42982 11.0742 9.52156C11.038 9.61116 11.0198 9.7093 11.0198 9.81597C11.0198 9.92904 11.0358 10.0325 11.0678 10.1264C11.102 10.2202 11.15 10.3013 11.2118 10.3696C11.2737 10.4357 11.3473 10.4869 11.4327 10.5232C11.5201 10.5595 11.6183 10.5776 11.7271 10.5776C11.8529 10.5776 11.9607 10.5573 12.0503 10.5168C12.1399 10.4763 12.2081 10.4336 12.2551 10.3888L12.4471 10.8048Z" fill="#A5112C"/>
</svg>
