<svg width="21" height="19" viewBox="0 0 21 19" fill="none" xmlns="http://www.w3.org/2000/svg">
<path d="M9.66191 0.963537C5.43153 1.24282 1.6283 4.31498 0.429011 8.41393C-0.425279 11.3629 0.0100803 14.5254 1.61187 17.0143C2.15402 17.8686 2.35938 18.0575 2.72081 18.0575C3.09045 18.0575 3.32045 17.9261 3.47652 17.6304C3.66545 17.2607 3.63259 17.1457 3.13152 16.349C2.35938 15.125 1.95687 14.1147 1.75152 12.825C1.06973 8.65214 3.47652 4.56141 7.46047 3.09926C8.5694 2.69676 8.9144 2.63926 10.4998 2.63926C12.1755 2.64747 12.7341 2.74605 13.9498 3.25533C17.7037 4.85713 19.9052 8.82464 19.248 12.825C19.0427 14.1147 18.6402 15.125 17.868 16.349C17.3669 17.1457 17.3341 17.2607 17.523 17.6304C17.7612 18.0904 18.4019 18.2136 18.7634 17.8686C19.0919 17.5647 19.7902 16.4147 20.1269 15.6343C22.3284 10.5414 20.2337 4.62712 15.338 2.10533C13.5391 1.18533 11.7812 0.823895 9.66191 0.963537Z" fill="white"/>
<path d="M14.7303 6.36866C14.5989 6.4508 13.9007 7.11616 13.1778 7.83902L11.88 9.1451L11.4775 8.99724C10.9189 8.78367 10.0646 8.79188 9.47317 9.01367C8.87352 9.23546 8.19173 9.86796 7.89602 10.4676C7.70709 10.8701 7.67423 11.0426 7.66602 11.6751C7.66602 12.3158 7.69887 12.4719 7.8878 12.8662C8.19173 13.4823 8.70923 13.9915 9.33352 14.2873C9.7771 14.4926 9.95781 14.5337 10.5 14.5337C11.0421 14.5337 11.2228 14.4926 11.6664 14.2873C13.0218 13.6465 13.6625 12.209 13.2189 10.8126L13.0546 10.2787L14.4839 8.83295C15.831 7.48581 15.9214 7.37081 15.9214 7.09152C15.9214 6.69723 15.7325 6.41794 15.4121 6.30294C15.0753 6.17973 15.0178 6.18794 14.7303 6.36866ZM11.075 10.6072C12.0525 11.1165 11.8717 12.554 10.7875 12.858C9.75245 13.1373 8.88173 11.9133 9.47317 11.0015C9.78531 10.5333 10.5492 10.3362 11.075 10.6072Z" fill="white"/>
</svg>
