<svg xmlns="http://www.w3.org/2000/svg" width="20" height="20" viewBox="0 0 20 20" fill="none">
<path d="M8.74172 2.02597C4.91424 2.27672 1.47322 5.03489 0.388152 8.7149C-0.384776 11.3624 0.00912024 14.2017 1.45836 16.4363C1.94887 17.2033 2.13467 17.3729 2.46168 17.3729C2.79612 17.3729 3.00422 17.2549 3.14543 16.9894C3.31636 16.6575 3.28663 16.5543 2.83328 15.8389C2.13467 14.7401 1.7705 13.833 1.5847 12.6752C0.967849 8.92877 3.14543 5.25613 6.74995 3.94342C7.75327 3.58205 8.06541 3.53043 9.49979 3.53043C11.0159 3.5378 11.5213 3.6263 12.6212 4.08354C16.0177 5.52162 18.0094 9.08364 17.4149 12.6752C17.2291 13.833 16.8649 14.7401 16.1663 15.8389C15.7129 16.5543 15.6832 16.6575 15.8541 16.9894C16.0697 17.4024 16.6494 17.513 16.9764 17.2033C17.2737 16.9304 17.9054 15.8979 18.2101 15.1973C20.2019 10.625 18.3067 5.31513 13.8772 3.05107C12.2496 2.22509 10.6592 1.9006 8.74172 2.02597Z" fill="white"/>
<path d="M13.3271 6.87894C13.2082 6.95269 12.5764 7.55004 11.9224 8.19902L10.7482 9.37162L10.384 9.23887C9.87862 9.04712 9.10569 9.0545 8.57059 9.25362C8.02805 9.45274 7.4112 10.0206 7.14364 10.559C6.97271 10.9203 6.94298 11.0752 6.93555 11.643C6.93555 12.2183 6.96527 12.3584 7.13621 12.7124C7.4112 13.2655 7.87941 13.7227 8.44424 13.9882C8.84557 14.1726 9.00908 14.2095 9.49959 14.2095C9.9901 14.2095 10.1536 14.1726 10.5549 13.9882C11.7812 13.413 12.3609 12.1224 11.9596 10.8687L11.8109 10.3893L13.1041 9.09137C14.323 7.88191 14.4047 7.77866 14.4047 7.52792C14.4047 7.17393 14.2338 6.92319 13.9439 6.81994C13.6392 6.70932 13.5872 6.71669 13.3271 6.87894ZM10.0198 10.6843C10.9042 11.1416 10.7407 12.4322 9.75971 12.705C8.82328 12.9558 8.03548 11.8569 8.57059 11.0383C8.853 10.618 9.54418 10.441 10.0198 10.6843Z" fill="white"/>
</svg>