<svg width="22" height="22" viewBox="0 0 22 22" fill="none" xmlns="http://www.w3.org/2000/svg">
<path d="M7.1499 12.6508V8.80078" stroke="#E31337" stroke-linecap="round" stroke-linejoin="round"/>
<path d="M7.28751 16.5008C8.27472 16.5008 9.07502 15.7005 9.07502 14.7133C9.07502 13.7261 8.27472 12.9258 7.28751 12.9258C6.3003 12.9258 5.5 13.7261 5.5 14.7133C5.5 15.7005 6.3003 16.5008 7.28751 16.5008Z" stroke="#E31337" stroke-linecap="round" stroke-linejoin="round"/>
<path d="M7.14999 8.80001C8.06126 8.80001 8.79998 8.06126 8.79998 7.14999C8.79998 6.23872 8.06126 5.5 7.14999 5.5C6.23872 5.5 5.5 6.23872 5.5 7.14999C5.5 8.06126 6.23872 8.80001 7.14999 8.80001Z" stroke="#E31337" stroke-linecap="round" stroke-linejoin="round"/>
<path d="M14.85 8.80001C15.7613 8.80001 16.5 8.06126 16.5 7.14999C16.5 6.23872 15.7613 5.5 14.85 5.5C13.9387 5.5 13.2 6.23872 13.2 7.14999C13.2 8.06126 13.9387 8.80001 14.85 8.80001Z" stroke="#E31337" stroke-linecap="round" stroke-linejoin="round"/>
<path d="M7.22339 12.6496C7.47089 11.6871 8.35088 10.9721 9.38671 10.9813L11.275 10.9904C12.7142 10.9996 13.9426 10.0737 14.3917 8.78125" stroke="#E31337" stroke-linecap="round" stroke-linejoin="round"/>
</svg>
