<svg xmlns="http://www.w3.org/2000/svg" width="18" height="18" viewBox="0 0 18 18" fill="none">
  <path d="M4.24976 10.7519V5.50195" stroke="#E31337" stroke-linecap="round" stroke-linejoin="round"/>
  <path d="M4.43749 16.0019C5.78367 16.0019 6.87498 14.9106 6.87498 13.5644C6.87498 12.2182 5.78367 11.127 4.43749 11.127C3.09131 11.127 2 12.2182 2 13.5644C2 14.9106 3.09131 16.0019 4.43749 16.0019Z" stroke="#E31337" stroke-linecap="round" stroke-linejoin="round"/>
  <path d="M4.24996 5.49996C5.49259 5.49996 6.49992 4.49259 6.49992 3.24996C6.49992 2.00733 5.49259 1 4.24996 1C3.00733 1 2 2.00733 2 3.24996C2 4.49259 3.00733 5.49996 4.24996 5.49996Z" stroke="#E31337" stroke-linecap="round" stroke-linejoin="round"/>
  <path d="M14.75 5.49996C15.9926 5.49996 16.9999 4.49259 16.9999 3.24996C16.9999 2.00733 15.9926 1 14.75 1C13.5073 1 12.5 2.00733 12.5 3.24996C12.5 4.49259 13.5073 5.49996 14.75 5.49996Z" stroke="#E31337" stroke-linecap="round" stroke-linejoin="round"/>
  <path d="M4.3501 10.7496C4.68759 9.43707 5.88756 8.46211 7.30005 8.47461L9.87502 8.48708C11.8375 8.49958 13.5125 7.23709 14.125 5.47461" stroke="#E31337" stroke-linecap="round" stroke-linejoin="round"/>
</svg>