<svg width="20" height="20" viewBox="0 0 20 20" fill="none" xmlns="http://www.w3.org/2000/svg">
<path d="M2.91675 5.83366V14.167C2.91675 16.667 4.14175 18.3337 7.08341 18.3337H12.9167C15.8084 18.3337 17.0834 16.667 17.0834 14.167V13.192C17.0834 12.7503 16.9084 12.3253 16.5917 12.017L15.9001 11.3253C15.5834 11.0087 15.4084 10.592 15.4084 10.1503V8.33366C15.4084 7.87533 15.7834 7.50033 16.2417 7.50033C16.7001 7.50033 17.0751 7.12533 17.0751 6.66699V5.83366C17.0751 3.33366 15.8001 1.66699 12.9084 1.66699H7.07508C4.14175 1.66699 2.91675 3.33366 2.91675 5.83366Z" stroke="#E31337" stroke-width="1.5" stroke-linecap="round" stroke-linejoin="round"/>
<path d="M6.65824 18.3087L6.6499 15.8337C6.6499 14.9087 7.39157 14.167 8.31657 14.167H11.6582C12.5749 14.167 13.3166 14.9087 13.3249 15.8253L13.3499 18.317" stroke="#E31337" stroke-width="1.5" stroke-linecap="round" stroke-linejoin="round"/>
<path d="M11.6417 6.4834H6.64172" stroke="#E31337" stroke-width="1.5" stroke-linecap="round" stroke-linejoin="round"/>
</svg>
