<svg width="13" height="14" viewBox="0 0 13 14" fill="none" xmlns="http://www.w3.org/2000/svg">
<path fill-rule="evenodd" clip-rule="evenodd" d="M4.24657 3.48141C4.6114 2.63755 4.94121 2.27096 5.26209 2.12622C5.49184 2.0226 5.80307 1.99482 6.27929 2.11324L4.98369 5.11994H3.71308C3.66153 5.11994 3.61022 5.1211 3.55919 5.12338L4.14503 3.72407L4.1451 3.7241L4.14851 3.71557L4.16825 3.66622L4.20507 3.58206C4.21204 3.56614 4.21828 3.54991 4.22377 3.53342L4.22856 3.51921C4.23502 3.50684 4.24102 3.49423 4.24657 3.48141ZM4.78934 1.07808C5.51869 0.749121 6.33805 0.87401 7.23277 1.21221L7.23933 1.21436C7.31866 1.2408 7.44095 1.29365 7.49726 1.31799L7.49728 1.318L7.49731 1.31801L7.49736 1.31803C7.51162 1.32419 7.52163 1.32852 7.52562 1.33012L7.53513 1.33392L7.53509 1.334L8.81238 1.87151C9.54851 2.17686 10.1525 2.52746 10.5447 3.00864C10.6128 3.09053 10.6796 3.18001 10.7407 3.28969C10.7659 3.32983 10.7908 3.37289 10.8144 3.41898C11.9789 4.10095 12.7574 5.37958 12.7574 6.82247V8.39995C12.7587 8.43938 12.7594 8.47899 12.7594 8.51876V9.64698C12.7594 9.77715 12.753 9.905 12.7474 10.0169V10.0169V10.0169V10.0169L12.7471 10.0228L12.747 10.0254C12.6866 11.1345 12.3399 12.0583 11.6296 12.6975C10.9244 13.332 9.94863 13.6066 8.79404 13.6066L4.28115 13.6066C4.11806 13.6066 3.95996 13.5936 3.81433 13.5752C2.80936 13.5058 1.96129 13.1955 1.34697 12.5812C0.73266 11.9668 0.422363 11.1188 0.352977 10.1138C0.334563 9.96817 0.321572 9.81007 0.321572 9.64698L0.321572 8.60881C0.316887 8.57926 0.314453 8.54895 0.314453 8.51808L0.314453 6.82285C0.314453 5.01007 1.5305 3.48045 3.19655 3.01106L3.20139 3.00153C3.59254 2.10362 4.06787 1.40349 4.78934 1.07808ZM9.95389 6.34409C9.97384 6.35265 9.99437 6.36011 10.0154 6.36642C10.9342 6.64207 11.6075 7.50376 11.6075 8.5177C11.6075 8.53412 11.6082 8.55038 11.6096 8.56645V9.64698C11.6096 9.74556 11.6047 9.84652 11.5988 9.96406C11.5491 10.8735 11.2768 11.4681 10.8605 11.8427C10.4389 12.2221 9.78018 12.4567 8.79404 12.4567L4.28115 12.4567C4.17339 12.4567 4.06021 12.4477 3.94472 12.4326C3.9326 12.4311 3.92044 12.4299 3.90824 12.4291C3.08129 12.3744 2.52414 12.1322 2.16002 11.7681C1.7959 11.404 1.55369 10.8468 1.49908 10.0199C1.49827 10.0077 1.49708 9.99553 1.4955 9.98341C1.48043 9.86792 1.4714 9.75474 1.4714 9.64698V8.51876C1.4714 7.59551 2.03092 6.79768 2.83344 6.45029C3.11449 6.33364 3.40879 6.27022 3.71993 6.27022L9.36683 6.27022C9.57168 6.27022 9.77102 6.29643 9.95389 6.34409ZM11.42 5.81258C11.3179 5.54794 11.1771 5.30252 11.0046 5.08398C10.9786 5.21626 10.9451 5.35044 10.9048 5.48652C11.0864 5.57985 11.2588 5.68914 11.42 5.81258ZM7.36114 2.50829L6.2361 5.11917L9.36026 5.11917C9.50558 5.11917 9.65343 5.12728 9.80168 5.14535C9.93581 4.69266 9.938 4.38164 9.86593 4.15742C9.86206 4.14538 9.85859 4.13321 9.85552 4.12093C9.85176 4.10589 9.84508 4.08536 9.83583 4.06456C9.82356 4.03694 9.81348 4.0084 9.80569 3.9792C9.80276 3.96819 9.79369 3.94266 9.76188 3.89317C9.75385 3.88069 9.74632 3.8679 9.73929 3.85484C9.72297 3.82455 9.70194 3.79336 9.65918 3.74204L9.6546 3.73655L9.65464 3.73653C9.44531 3.47889 9.05564 3.21711 8.37055 2.93305L8.36776 2.9319L8.36776 2.93189L7.36114 2.50829ZM6.53711 7.24833C6.85462 7.24833 7.11202 7.50573 7.11202 7.82324V8.66044H7.98418C8.3017 8.66044 8.5591 8.91784 8.5591 9.23535C8.5591 9.55287 8.3017 9.81026 7.98418 9.81026H7.11202V10.7161C7.11202 11.0336 6.85462 11.291 6.53711 11.291C6.21959 11.291 5.9622 11.0336 5.9622 10.7161V9.81026L5.09131 9.81026C4.77379 9.81026 4.5164 9.55287 4.5164 9.23535C4.5164 8.91784 4.77379 8.66044 5.09131 8.66044H5.9622V7.82324C5.9622 7.50573 6.21959 7.24833 6.53711 7.24833ZM1.64872 5.81851C1.80758 5.69659 1.97743 5.58836 2.15649 5.49558L2.5207 4.62563C2.13274 4.93573 1.82902 5.34662 1.64872 5.81851Z" fill="white"/>
</svg>
