<svg width="20" height="20" viewBox="0 0 20 20" fill="none" xmlns="http://www.w3.org/2000/svg">
<rect x="0.306611" y="-0.306611" width="19.3862" height="19.384" rx="9.69199" transform="matrix(1 0 0 -1 0 19.3838)" stroke="#EDEDED" stroke-width="0.613222"/>
<path fill-rule="evenodd" clip-rule="evenodd" d="M8.1974 6.78546C8.48926 6.11039 8.75309 5.81712 9.00979 5.70134C9.19359 5.61844 9.44258 5.59622 9.82356 5.69097L8.78711 8.09625H7.77062C7.72938 8.09625 7.68834 8.09717 7.64751 8.099L8.11617 6.97958L8.11622 6.97961L8.11895 6.97278L8.13474 6.93331L8.1642 6.86598C8.16977 6.85324 8.17476 6.84026 8.17916 6.82707L8.18299 6.8157C8.18816 6.8058 8.19296 6.79572 8.1974 6.78546ZM13.4517 6.73555C13.4329 6.69862 13.4129 6.66411 13.3927 6.63195C13.3438 6.5442 13.2904 6.47261 13.2359 6.40709C12.9222 6.02217 12.439 5.7417 11.8501 5.49743L10.8283 5.06744L10.8283 5.06737L10.8207 5.06433L10.798 5.05463C10.753 5.03516 10.6551 4.99288 10.5917 4.97172L10.5833 4.96902C9.8687 4.69932 9.21425 4.60006 8.63161 4.86285C8.05444 5.12317 7.67419 5.68326 7.36128 6.40157L7.35744 6.40913C6.0246 6.7846 5.05176 8.00829 5.05176 9.45849V10.8146C5.05176 10.8398 5.05378 10.8645 5.05766 10.8885V11.7179C5.05766 11.8484 5.06805 11.9748 5.08278 12.0913C5.13829 12.8953 5.38652 13.5737 5.87796 14.0652C6.3694 14.5566 7.04784 14.8048 7.85179 14.8603C7.9683 14.8751 8.09477 14.8855 8.22523 14.8855L11.8354 14.8855C12.7591 14.8855 13.5397 14.6659 14.1038 14.1582C14.672 13.6469 14.9494 12.9078 14.9977 12.0206L14.9978 12.0186L14.9981 12.0138V12.0137V12.0137C15.0025 11.9242 15.0076 11.822 15.0076 11.7179V10.8153C15.0076 10.7853 15.0072 10.7554 15.0062 10.7256L15.0062 9.45835C15.0062 8.30402 14.3834 7.28109 13.4517 6.73555ZM12.7637 9.07575C12.6173 9.03756 12.4577 9.01656 12.2937 9.01656H7.77627C7.52737 9.01656 7.29194 9.06729 7.0671 9.16061C6.4251 9.43851 5.97749 10.0768 5.97749 10.8153V11.7179C5.97749 11.8041 5.98472 11.8946 5.99677 11.987C5.99804 11.9967 5.99899 12.0064 5.99964 12.0162C6.04332 12.6778 6.23709 13.1235 6.52838 13.4147C6.81967 13.706 7.26537 13.8998 7.92692 13.9435C7.93667 13.9441 7.9464 13.9451 7.9561 13.9463C8.04848 13.9584 8.13903 13.9656 8.22523 13.9656L11.8354 13.9656C12.6243 13.9656 13.1513 13.7779 13.4885 13.4744C13.8215 13.1748 14.0394 12.6992 14.0792 11.9717C14.0839 11.8776 14.0878 11.7968 14.0878 11.7179V10.8513C14.0868 10.8392 14.0864 10.8269 14.0864 10.8145C14.0864 10.0034 13.5477 9.31403 12.8127 9.09352C12.7959 9.0885 12.7796 9.08256 12.7637 9.07575ZM13.9364 8.65064C13.8548 8.43886 13.742 8.24247 13.604 8.0676C13.5833 8.17344 13.5564 8.28081 13.5241 8.38969C13.6695 8.46438 13.8074 8.55185 13.9364 8.65064ZM10.0299 9.79877C10.2839 9.79877 10.4898 10.0047 10.4898 10.2587V10.9288H11.1878C11.4418 10.9288 11.6477 11.1347 11.6477 11.3887C11.6477 11.6427 11.4418 11.8486 11.1878 11.8486H10.4898V12.5729C10.4898 12.8269 10.2839 13.0328 10.0299 13.0328C9.7759 13.0328 9.56999 12.8269 9.56999 12.5729V11.8486H8.87354C8.61953 11.8486 8.41362 11.6427 8.41362 11.3887C8.41362 11.1347 8.61953 10.9288 8.87354 10.9288H9.56999V10.2587C9.56999 10.0047 9.7759 9.79877 10.0299 9.79877ZM10.6891 6.00683L9.78907 8.09548L12.2884 8.09548C12.4046 8.09548 12.5229 8.10197 12.6415 8.11643C12.7488 7.75429 12.7505 7.50548 12.6929 7.32611C12.6898 7.31648 12.687 7.30674 12.6846 7.29692C12.6816 7.28489 12.6762 7.26847 12.6688 7.25182C12.659 7.22973 12.6509 7.2069 12.6447 7.18354C12.6424 7.17473 12.6351 7.15431 12.6096 7.11471C12.6032 7.10473 12.5972 7.0945 12.5916 7.08405C12.5785 7.05982 12.5617 7.03487 12.5275 6.99381L12.5238 6.98943L12.5239 6.9894C12.3564 6.7833 12.0447 6.57389 11.4966 6.34664L11.4944 6.34572L11.4944 6.34571L10.6891 6.00683ZM6.11914 8.65504C6.24622 8.55751 6.3821 8.47093 6.52535 8.3967L6.8167 7.70077C6.50635 7.94884 6.26338 8.27754 6.11914 8.65504Z" fill="black"/>
</svg>
