<svg xmlns="http://www.w3.org/2000/svg" width="20" height="20" viewBox="0 0 20 20" fill="none">
<path fill-rule="evenodd" clip-rule="evenodd" d="M8.19727 6.78552C8.48914 6.11043 8.75298 5.81716 9.00969 5.70137C9.19347 5.61848 9.44244 5.59625 9.82338 5.69097L8.78689 8.09634H7.77047C7.72924 8.09634 7.68819 8.09727 7.64737 8.0991L8.11604 6.97965L8.11609 6.97967L8.11882 6.97284L8.13461 6.93337L8.16407 6.86604C8.16964 6.8533 8.17463 6.84032 8.17903 6.82713L8.18286 6.81576C8.18803 6.80586 8.19283 6.79577 8.19727 6.78552ZM8.63149 4.86286C9.21674 4.59889 9.87444 4.70021 10.5928 4.97264C10.6563 4.99395 10.7529 5.03573 10.7976 5.05505L10.8203 5.06475L10.8279 5.06779L10.8279 5.06786L11.8497 5.49786C12.4386 5.74214 12.9219 6.02263 13.2356 6.40757C13.2901 6.47308 13.3435 6.54466 13.3924 6.6324C13.4124 6.66428 13.4322 6.69846 13.4509 6.73503C14.3829 7.28051 15.006 8.30363 15.006 9.45821L15.006 10.7245C15.007 10.7549 15.0075 10.7854 15.0075 10.816V11.7186C15.0075 11.8227 15.0024 11.9249 14.9979 12.0144L14.9979 12.0144V12.0145L14.9976 12.0193L14.9975 12.0213C14.9492 12.9086 14.6719 13.6476 14.1036 14.159C13.5395 14.6666 12.7589 14.8862 11.8352 14.8862L8.22488 14.8862C8.0944 14.8862 7.96793 14.8758 7.85142 14.8611C7.04744 14.8056 6.36899 14.5574 5.87754 14.0659C5.38608 13.5745 5.13785 12.896 5.08234 12.092C5.06761 11.9755 5.05721 11.8491 5.05721 11.7186V10.8891C5.0533 10.865 5.05127 10.8402 5.05127 10.815V9.4588C5.05127 8.00847 6.02425 6.7847 7.35723 6.40929L7.36113 6.40161C7.67405 5.68329 8.05431 5.12318 8.63149 4.86286ZM12.7681 9.07759C12.7825 9.08357 12.7973 9.08884 12.8124 9.09337C13.5474 9.31389 14.0861 10.0032 14.0861 10.8144C14.0861 10.827 14.0866 10.8396 14.0876 10.852V11.7186C14.0876 11.7975 14.0837 11.8783 14.079 11.9724C14.0392 12.6999 13.8213 13.1755 13.4883 13.4752C13.1511 13.7787 12.6241 13.9664 11.8352 13.9664L8.22488 13.9664C8.13867 13.9664 8.04812 13.9592 7.95573 13.9471C7.94604 13.9458 7.93631 13.9449 7.92655 13.9442C7.26499 13.9005 6.81927 13.7068 6.52797 13.4155C6.23668 13.1242 6.0429 12.6785 5.99922 12.0169C5.99857 12.0071 5.99762 11.9974 5.99635 11.9877C5.9843 11.8953 5.97707 11.8048 5.97707 11.7186V10.816C5.97707 10.0774 6.42469 9.43914 7.06671 9.16123C7.29155 9.06791 7.52699 9.01717 7.7759 9.01717H12.2934C12.4592 9.01717 12.6204 9.03862 12.7681 9.07759ZM13.9365 8.65151C13.8549 8.43933 13.742 8.24258 13.6037 8.06742C13.5829 8.17348 13.556 8.28106 13.5237 8.39016C13.6692 8.46495 13.8074 8.55255 13.9365 8.65151ZM10.6888 6.00731L9.78878 8.09599L12.288 8.09599C12.4043 8.09599 12.5226 8.10248 12.6412 8.11694C12.7485 7.75478 12.7502 7.50596 12.6926 7.32659C12.6895 7.31696 12.6867 7.30722 12.6842 7.2974C12.6812 7.28537 12.6759 7.26894 12.6685 7.2523C12.6587 7.23021 12.6506 7.20737 12.6444 7.18401C12.642 7.17521 12.6348 7.15478 12.6093 7.11519C12.6029 7.1052 12.5969 7.09498 12.5912 7.08453C12.5782 7.0603 12.5614 7.03534 12.5272 6.99429L12.5235 6.9899L12.5235 6.98987C12.3561 6.78376 12.0443 6.57435 11.4963 6.3471L11.494 6.34617L11.494 6.34617L10.6888 6.00731ZM10.0297 9.79908C10.2837 9.79908 10.4896 10.005 10.4896 10.259V10.9293H11.1874C11.4414 10.9293 11.6474 11.1353 11.6474 11.3893C11.6474 11.6433 11.4414 11.8492 11.1874 11.8492H10.4896V12.5733C10.4896 12.8273 10.2837 13.0332 10.0297 13.0332C9.7757 13.0332 9.56978 12.8273 9.56978 12.5733V11.8492H8.87312C8.61911 11.8492 8.41319 11.6433 8.41319 11.3893C8.41319 11.1353 8.61911 10.9293 8.87312 10.9293H9.56978V10.259C9.56978 10.005 9.7757 9.79908 10.0297 9.79908ZM6.11868 8.65532C6.24577 8.55779 6.38165 8.4712 6.5249 8.39698L6.81627 7.70102C6.5059 7.9491 6.26292 8.27781 6.11868 8.65532Z" fill="currentColor"/>
</svg>