<svg xmlns="http://www.w3.org/2000/svg" width="20" height="20" viewBox="0 0 20 20" fill="none">
<path d="M1.6665 7.50033V5.83366C1.6665 3.33366 3.33317 1.66699 5.83317 1.66699H14.1665C16.6665 1.66699 18.3332 3.33366 18.3332 5.83366V7.50033" stroke="currentColor" stroke-width="0.85" stroke-miterlimit="10" stroke-linecap="round" stroke-linejoin="round"/>
<path d="M1.6665 12.5V14.1667C1.6665 16.6667 3.33317 18.3333 5.83317 18.3333H14.1665C16.6665 18.3333 18.3332 16.6667 18.3332 14.1667V12.5" stroke="currentColor" stroke-width="0.85" stroke-miterlimit="10" stroke-linecap="round" stroke-linejoin="round"/>
<path d="M5.5835 7.7168L10.0002 10.2751L14.3835 7.73348" stroke="currentColor" stroke-width="0.85" stroke-linecap="round" stroke-linejoin="round"/>
<path d="M10 14.8083V10.2666" stroke="currentColor" stroke-width="0.85" stroke-linecap="round" stroke-linejoin="round"/>
<path d="M8.96685 5.2418L6.30019 6.72516C5.70019 7.05849 5.2002 7.90015 5.2002 8.59181V11.4168C5.2002 12.1085 5.69186 12.9502 6.30019 13.2835L8.96685 14.7668C9.53352 15.0835 10.4669 15.0835 11.0419 14.7668L13.7085 13.2835C14.3085 12.9502 14.8085 12.1085 14.8085 11.4168V8.59181C14.8085 7.90015 14.3169 7.05849 13.7085 6.72516L11.0419 5.2418C10.4669 4.9168 9.53352 4.9168 8.96685 5.2418Z" stroke="currentColor" stroke-width="0.85" stroke-linecap="round" stroke-linejoin="round"/>
</svg>