<svg width="26" height="25" viewBox="0 0 26 25" fill="none" xmlns="http://www.w3.org/2000/svg">
<rect x="0.383275" y="-0.383275" width="24.2363" height="24.2334" rx="12.1167" transform="matrix(1 0 0 -1 0 24.2335)" stroke="#E31337" stroke-width="0.766549"/>
<path d="M5.4165 10.3753V8.95866C5.4165 6.83366 6.83317 5.41699 8.95817 5.41699H16.0415C18.1665 5.41699 19.5832 6.83366 19.5832 8.95866V10.3753" stroke="#E31337" stroke-width="0.85" stroke-miterlimit="10" stroke-linecap="round" stroke-linejoin="round"/>
<path d="M5.4165 14.625V16.0417C5.4165 18.1667 6.83317 19.5833 8.95817 19.5833H16.0415C18.1665 19.5833 19.5832 18.1667 19.5832 16.0417V14.625" stroke="#E31337" stroke-width="0.85" stroke-miterlimit="10" stroke-linecap="round" stroke-linejoin="round"/>
<path d="M8.74561 10.5596L12.4998 12.7342L16.2256 10.5738" stroke="#E31337" stroke-width="0.85" stroke-linecap="round" stroke-linejoin="round"/>
<path d="M12.5 16.588V12.7275" stroke="#E31337" stroke-width="0.85" stroke-linecap="round" stroke-linejoin="round"/>
<path d="M11.6216 8.45523L9.35492 9.71609C8.84492 9.99942 8.41992 10.7148 8.41992 11.3027V13.704C8.41992 14.2919 8.83783 15.0073 9.35492 15.2907L11.6216 16.5515C12.1032 16.8206 12.8966 16.8206 13.3853 16.5515L15.652 15.2907C16.162 15.0073 16.587 14.2919 16.587 13.704V11.3027C16.587 10.7148 16.1691 9.99942 15.652 9.71609L13.3853 8.45523C12.8966 8.17898 12.1032 8.17898 11.6216 8.45523Z" stroke="#E31337" stroke-width="0.85" stroke-linecap="round" stroke-linejoin="round"/>
</svg>
