<svg width="109" height="109" viewBox="0 0 109 109" fill="none" xmlns="http://www.w3.org/2000/svg">
<circle cx="54.6092" cy="54.391" r="54.391" fill="url(#paint0_linear_882_14532)"/>
<path d="M50.5697 69.0853C49.4162 69.0853 48.2628 68.591 47.6037 67.6023L38.3759 55.738C37.0576 54.0902 37.3873 51.7832 39.0351 50.465C40.6829 49.1467 42.9898 49.4763 44.3081 51.1241L50.5697 59.1984L64.4115 41.2372C65.7298 39.5894 68.0367 39.2598 69.6845 40.5781C71.3323 41.8964 71.6619 44.2033 70.3436 45.8511L53.5358 67.6023C52.7119 68.4262 51.7233 69.0853 50.5697 69.0853Z" fill="white"/>
<circle cx="77.7497" cy="62.9221" r="2.02951" fill="white"/>
<circle cx="24.5612" cy="40.5919" r="3.24722" fill="white"/>
<circle cx="72.0658" cy="23.1454" r="1.21771" fill="white"/>
<circle cx="38.3795" cy="80.3785" r="1.62361" fill="white"/>
<circle cx="56.243" cy="41.4153" r="0.811805" fill="white"/>
<defs>
<linearGradient id="paint0_linear_882_14532" x1="0.218262" y1="-6.67959" x2="125.797" y2="12.7769" gradientUnits="userSpaceOnUse">
<stop stop-color="#E31337"/>
<stop offset="1" stop-color="#FF002C"/>
</linearGradient>
</defs>
</svg>
