<svg xmlns="http://www.w3.org/2000/svg" width="18" height="18" viewBox="0 0 18 18" fill="none">
  <path d="M4.625 7.75H5.875C7.125 7.75 7.75 7.125 7.75 5.875V4.625C7.75 3.375 7.125 2.75 5.875 2.75H4.625C3.375 2.75 2.75 3.375 2.75 4.625V5.875C2.75 7.125 3.375 7.75 4.625 7.75Z" stroke="#E31337" stroke-width="1.27" stroke-miterlimit="10" stroke-linecap="round" stroke-linejoin="round"/>
  <path d="M12.125 7.75H13.375C14.625 7.75 15.25 7.125 15.25 5.875V4.625C15.25 3.375 14.625 2.75 13.375 2.75H12.125C10.875 2.75 10.25 3.375 10.25 4.625V5.875C10.25 7.125 10.875 7.75 12.125 7.75Z" stroke="#E31337" stroke-width="1.27" stroke-miterlimit="10" stroke-linecap="round" stroke-linejoin="round"/>
  <path d="M12.125 15.25H13.375C14.625 15.25 15.25 14.625 15.25 13.375V12.125C15.25 10.875 14.625 10.25 13.375 10.25H12.125C10.875 10.25 10.25 10.875 10.25 12.125V13.375C10.25 14.625 10.875 15.25 12.125 15.25Z" stroke="#E31337" stroke-width="1.27" stroke-miterlimit="10" stroke-linecap="round" stroke-linejoin="round"/>
  <path d="M4.625 15.25H5.875C7.125 15.25 7.75 14.625 7.75 13.375V12.125C7.75 10.875 7.125 10.25 5.875 10.25H4.625C3.375 10.25 2.75 10.875 2.75 12.125V13.375C2.75 14.625 3.375 15.25 4.625 15.25Z" stroke="#E31337" stroke-width="1.27" stroke-miterlimit="10" stroke-linecap="round" stroke-linejoin="round"/>
</svg>