<svg width="17" height="15" viewBox="0 0 17 15" fill="none" xmlns="http://www.w3.org/2000/svg">
<path d="M4.25822 13.2399C4.3819 13.4445 4.49249 13.6259 4.58609 13.7774C4.67471 13.6336 4.77906 13.4616 4.89661 13.2654C5.27525 12.6337 5.78545 11.761 6.33586 10.8011L6.33604 10.8008L8.05838 7.80312C8.16549 7.61671 8.16467 7.38725 8.05625 7.20161L6.31982 4.22847L6.31931 4.2276C5.76424 3.27165 5.25151 2.40064 4.87136 1.76708C4.73629 1.54196 4.61849 1.34773 4.52177 1.19074C3.65702 2.67786 2.77782 4.21701 2.09684 5.42885C1.72352 6.0932 1.41051 6.65787 1.19232 7.06119C1.08299 7.2633 0.998823 7.42239 0.943099 7.53238C0.942107 7.53434 0.941126 7.53628 0.940156 7.5382C0.966295 7.58786 0.999022 7.64863 1.03804 7.71994C1.14939 7.92339 1.30672 8.20298 1.49553 8.53393C1.87287 9.19532 2.37251 10.0558 2.87364 10.9094C3.37479 11.7631 3.87659 12.6085 4.25822 13.2399ZM0.877431 7.41333C0.876283 7.41035 0.875555 7.40868 0.875476 7.40859C0.875397 7.4085 0.875972 7.41 0.877431 7.41333Z" stroke="#E73050" stroke-width="0.8" stroke-linejoin="round"/>
<path d="M8.47535 3.48977L8.47535 3.48977L8.47631 3.49143L9.91678 6.00175C10.0237 6.18816 10.2223 6.30312 10.4372 6.30312H11.0047C11.2047 6.30312 11.3647 6.30235 11.4925 6.30053C11.412 6.1563 11.3137 5.98165 11.2011 5.78246C10.8842 5.22204 10.4548 4.46987 9.98782 3.65994L9.98716 3.6588L8.58176 1.2027C8.47489 1.01593 8.27618 0.900689 8.06099 0.900689H7.52079C7.32691 0.900689 7.15543 0.903566 7.01022 0.908708C7.07851 1.03313 7.15878 1.178 7.24933 1.34014C7.56236 1.90069 7.99565 2.663 8.47535 3.48977Z" stroke="#E73050" stroke-width="0.8" stroke-linejoin="round"/>
<path d="M12.5265 13.7671L12.8731 13.9669L12.5265 13.7671L14.1859 10.8877C14.7186 9.96327 15.2048 9.10354 15.5596 8.46345C15.7372 8.14316 15.8811 7.87928 15.9812 7.69034C16.0182 7.62051 16.0485 7.56221 16.0721 7.51581C16.059 7.48583 16.0425 7.44965 16.0222 7.40683C15.9438 7.24167 15.8219 7.0047 15.6576 6.69932C15.3297 6.09004 14.8426 5.22587 14.2217 4.15529L14.2212 4.15441L12.5355 1.23057C12.4308 1.04896 12.2388 0.93517 12.0293 0.930421L11.4206 0.916628C11.2525 0.914328 11.0968 0.913923 10.9595 0.915043C11.2469 1.42008 11.709 2.23046 12.2442 3.16912C12.3723 3.39381 12.5046 3.62586 12.6397 3.86282L14.314 6.79501C14.56 7.22581 14.5596 7.75461 14.3131 8.18507L12.6131 11.153C12.0662 12.1099 11.5681 12.9824 11.2067 13.6177C11.1069 13.7931 11.0177 13.9502 10.9408 14.0859C11.0861 14.0852 11.2485 14.0835 11.4205 14.0811L12.0204 14.0674C12.2299 14.0626 12.4218 13.9488 12.5265 13.7671ZM16.1238 7.40807C16.1237 7.40817 16.1227 7.41058 16.1211 7.41487C16.1232 7.4101 16.1239 7.40797 16.1238 7.40807Z" stroke="#E73050" stroke-width="0.8" stroke-linejoin="round"/>
<path d="M8.44127 11.5443L8.44127 11.5443L8.44061 11.5454C7.97395 12.3548 7.54943 13.1039 7.24193 13.6567C7.15015 13.8216 7.06908 13.9686 7.00058 14.0942C7.14155 14.0981 7.31346 14.1 7.51922 14.1L8.0627 14.0957C8.27632 14.094 8.47293 13.9789 8.57891 13.7934L9.9694 11.3598L9.96983 11.3591C10.432 10.5543 10.8523 9.8093 11.159 9.25825C11.258 9.08033 11.345 8.92293 11.4177 8.79046C11.2857 8.78756 11.1211 8.78617 10.9165 8.78617H10.3674C10.1523 8.78617 9.95354 8.90141 9.84667 9.08818L8.44127 11.5443ZM6.5654 14.0621L6.5654 14.062L6.5654 14.0621Z" stroke="#E73050" stroke-width="0.8" stroke-linejoin="round"/>
</svg>
