<svg width="25" height="25" viewBox="0 0 25 25" fill="none" xmlns="http://www.w3.org/2000/svg">
<path d="M9.41891 11.056H11.4269V11.616H9.99891V12.244H11.2629V12.804H9.99891V13.44H11.4829V14H9.41891V11.056ZM11.723 11.056H13.707V11.616H12.991V14H12.411V11.616H11.723V11.056ZM16.5827 11.056V14H16.0027V12.804H14.6867V14H14.1067V11.056H14.6867V12.244H16.0027V11.056H16.5827Z" fill="#E31337"/>
<rect x="0.383275" y="-0.383275" width="24.2334" height="24.2306" rx="12.1153" transform="matrix(1 0 0 -1 0 24.2315)" stroke="#E31337" stroke-width="0.766549"/>
<path d="M18.5606 12.5074C18.5606 15.8482 15.8492 18.5597 12.5083 18.5597C9.16748 18.5597 7.12786 15.1946 7.12786 15.1946H9.8635M6.45605 12.5074C6.45605 9.16651 9.14327 6.45508 12.5083 6.45508C16.5452 6.45508 18.5606 9.82015 18.5606 9.82015H15.8734" stroke="#E31337" stroke-linecap="round" stroke-linejoin="round"/>
</svg>
