<svg width="27" height="22" viewBox="0 0 27 22" fill="none" xmlns="http://www.w3.org/2000/svg">
<path d="M26.8037 2.55415C25.8488 2.97713 24.8218 3.25911 23.7382 3.39272C24.8397 2.73886 25.6875 1.69589 26.0852 0.463289C25.0546 1.06728 23.9125 1.51118 22.6977 1.74514C21.7274 0.716951 20.3434 0.0791016 18.8103 0.0791016C15.8655 0.0791016 13.4779 2.44518 13.4779 5.36291C13.4779 5.77603 13.5265 6.17807 13.617 6.56842C9.18653 6.34616 5.25662 4.2399 2.62764 1.04326C2.16588 1.82457 1.90606 2.73886 1.90606 3.70425C1.90606 5.53838 2.84498 7.15332 4.27706 8.10455C3.40279 8.07808 2.58024 7.83488 1.85989 7.44454C1.85989 7.46054 1.85989 7.48394 1.85989 7.50672C1.85989 10.0698 3.69832 12.2044 6.1352 12.6902C5.69006 12.8121 5.21906 12.8798 4.7339 12.8798C4.38973 12.8798 4.05419 12.841 3.7291 12.7825C4.40759 14.8771 6.37593 16.4083 8.70815 16.4538C6.88326 17.8687 4.58491 18.7159 2.08584 18.7159C1.65425 18.7159 1.23189 18.6912 0.814453 18.6408C3.17684 20.1363 5.98005 21.0124 8.98951 21.0124C18.7955 21.0124 24.1606 12.9598 24.1606 5.97367C24.1606 5.74463 24.1532 5.51683 24.1427 5.29149C25.1894 4.55205 26.0914 3.6199 26.8037 2.55415Z" fill="white"/>
</svg>
