<svg width="25" height="25" viewBox="0 0 25 25" fill="none" xmlns="http://www.w3.org/2000/svg">
<rect x="0.383275" y="-0.383275" width="24.2334" height="24.2306" rx="12.1153" transform="matrix(1 0 0 -1 0 24.2315)" stroke="#E31337" stroke-width="0.766549"/>
<path d="M8.74561 10.5586L12.4998 12.7332L16.2256 10.5728" stroke="#E31337" stroke-width="0.85" stroke-linecap="round" stroke-linejoin="round"/>
<path d="M12.5 16.587V12.7266" stroke="#E31337" stroke-width="0.85" stroke-linecap="round" stroke-linejoin="round"/>
<path d="M11.6216 8.45515L9.35493 9.71598C8.84493 9.99932 8.41992 10.7147 8.41992 11.3027V13.7039C8.41992 14.2918 8.83784 15.0072 9.35493 15.2906L11.6216 16.5514C12.1033 16.8206 12.8966 16.8206 13.3853 16.5514L15.652 15.2906C16.162 15.0072 16.587 14.2918 16.587 13.7039V11.2956C16.587 10.7077 16.1691 9.99223 15.652 9.7089L13.3853 8.44807C12.8966 8.1789 12.1033 8.1789 11.6216 8.45515Z" stroke="#E31337" stroke-width="0.85" stroke-linecap="round" stroke-linejoin="round"/>
<path d="M19.5833 14.625C19.5833 17.3662 17.3662 19.5833 14.625 19.5833L15.3687 18.3437" stroke="#E31337" stroke-width="0.85" stroke-linecap="round" stroke-linejoin="round"/>
<path d="M5.4165 10.3753C5.4165 7.63408 7.63359 5.41699 10.3748 5.41699L9.6311 6.65658" stroke="#E31337" stroke-width="0.85" stroke-linecap="round" stroke-linejoin="round"/>
</svg>
