<svg width="67" height="16" viewBox="0 0 67 16" fill="none" xmlns="http://www.w3.org/2000/svg">
<path d="M12.5784 0.0311249C8.99274 11.401 8.50805 12.928 8.45612 13.0912L6.0834 13.0912C5.9505 13.0911 5.81951 13.058 5.70121 12.9945C5.58291 12.9311 5.48069 12.8391 5.40295 12.7262C5.32521 12.6133 5.27417 12.4826 5.25404 12.345C5.23391 12.2074 5.24525 12.0668 5.28714 11.9346L5.28714 11.9165C5.33536 11.7663 5.80149 10.3002 9.0694 0.00781252L3.98764 0.00781251L0.148509 12.1755C0.0116864 12.6081 -0.0262156 13.0682 0.0378577 13.5189C0.101931 13.9696 0.266187 14.3982 0.517389 14.7702C0.768591 15.1422 1.09971 15.4472 1.48407 15.6606C1.86842 15.874 2.29526 15.9898 2.73019 15.9987L12.6353 15.9987L16.4398 3.92428L14.391 4.48377L18.4218 0.0311249L12.5784 0.0311249Z" fill="#3564AF"/>
<path d="M30.4806 0.0419922L19.6 0.0627143L20.9007 4.48428L19.1487 3.92608L15.3479 15.9306L20.4012 15.9306L22.0333 10.9236L27.1027 10.9236C28.2962 10.9238 29.4592 10.5287 30.4254 9.79478C31.3917 9.0609 32.1116 8.02582 32.4824 6.83752L33.0104 5.14609C34.5386 0.310083 31.2967 0.0419922 30.4806 0.0419922ZM27.4452 2.86666C27.578 2.86703 27.7088 2.90034 27.827 2.96388C27.9452 3.02742 28.0472 3.11937 28.1249 3.23221C28.2026 3.34505 28.2537 3.47556 28.2739 3.61305C28.2942 3.75054 28.2831 3.8911 28.2415 4.02321L27.3265 6.8984C27.2147 7.24953 27.0002 7.55491 26.7135 7.77131C26.4268 7.98771 26.0824 8.10416 25.729 8.10416L22.8988 8.10416L24.5655 2.86666L27.4452 2.86666Z" fill="#3564AF"/>
<path d="M45.8804 5.1684L40.6305 5.1684L42.2539 0.0371094L37.1054 0.0371094L32.083 15.9749L42.1513 15.9749C43.3762 15.975 44.57 15.5707 45.5631 14.8195C46.5561 14.0683 47.2979 13.0084 47.6831 11.7904L48.4472 9.37497C48.8256 8.19123 49.0172 5.1684 45.8804 5.1684ZM43.436 9.13408L42.5297 11.9704C42.4185 12.3168 42.2063 12.618 41.923 12.8313C41.6397 13.0446 41.2996 13.1594 40.9507 13.1593L38.1069 13.1593L39.739 7.94775L42.7497 7.93997C43.1887 7.93997 43.7513 8.12906 43.436 9.13408Z" fill="#253D83"/>
<path d="M53.5562 0.0478516L58.6738 0.0478516L57.3854 4.1288L52.2678 4.14175L53.5562 0.0478516Z" fill="#253D83"/>
<path d="M51.5582 6.36523L56.6832 6.36523L53.6638 15.9699L48.5388 15.9699L51.5582 6.36523Z" fill="#253D83"/>
<path d="M62.6256 11.639L63.7817 7.98028L66.1049 7.98028L66.9989 5.19834L64.6682 5.19834L66.3287 0.00488283L61.158 0.0515075L57.3868 12.1363C57.2484 12.5809 57.2129 13.0537 57.2832 13.5155C57.3536 13.9773 57.5278 14.415 57.7914 14.7924C58.0551 15.1698 58.4007 15.4761 58.7996 15.686C59.1986 15.8959 59.6395 16.0034 60.086 15.9997L64.8524 15.957L65.7414 13.1323L63.6518 13.1323C63.4802 13.1324 63.3111 13.0897 63.1583 13.0077C63.0056 12.9258 62.8736 12.807 62.7734 12.6611C62.6731 12.5152 62.6074 12.3465 62.5817 12.1687C62.5561 11.991 62.5711 11.8094 62.6256 11.639Z" fill="#253D83"/>
</svg>
