<svg width="22" height="22" viewBox="0 0 22 22" fill="none" xmlns="http://www.w3.org/2000/svg">
<path d="M19.5731 15.8057H13.6475" stroke="#E31337" stroke-width="1.26978" stroke-miterlimit="10" stroke-linecap="round" stroke-linejoin="round"/>
<path d="M5.18237 15.8057H2.64282" stroke="#E31337" stroke-width="1.26978" stroke-miterlimit="10" stroke-linecap="round" stroke-linejoin="round"/>
<path d="M19.573 6.49316H17.0334" stroke="#E31337" stroke-width="1.26978" stroke-miterlimit="10" stroke-linecap="round" stroke-linejoin="round"/>
<path d="M8.56844 6.49316H2.64282" stroke="#E31337" stroke-width="1.26978" stroke-miterlimit="10" stroke-linecap="round" stroke-linejoin="round"/>
<path d="M6.87541 13.2656H11.9545C12.8857 13.2656 13.6475 13.6889 13.6475 14.9587V16.6517C13.6475 17.9215 12.8857 18.3447 11.9545 18.3447H6.87541C5.94424 18.3447 5.18237 17.9215 5.18237 16.6517V14.9587C5.18237 13.6889 5.94424 13.2656 6.87541 13.2656Z" stroke="#E31337" stroke-width="1.26978" stroke-miterlimit="10" stroke-linecap="round" stroke-linejoin="round"/>
<path d="M10.2614 3.9541H15.3405C16.2717 3.9541 17.0335 4.37736 17.0335 5.64714V7.34017C17.0335 8.60995 16.2717 9.03321 15.3405 9.03321H10.2614C9.33023 9.03321 8.56836 8.60995 8.56836 7.34017V5.64714C8.56836 4.37736 9.33023 3.9541 10.2614 3.9541Z" stroke="#E31337" stroke-width="1.26978" stroke-miterlimit="10" stroke-linecap="round" stroke-linejoin="round"/>
</svg>
