<svg xmlns="http://www.w3.org/2000/svg" width="18" height="19" viewBox="0 0 18 19" fill="none">
  <path d="M16.5 13.5283H11.25" stroke="white" stroke-width="1.26978" stroke-miterlimit="10" stroke-linecap="round" stroke-linejoin="round"/>
  <path d="M3.75 13.5283H1.5" stroke="white" stroke-width="1.26978" stroke-miterlimit="10" stroke-linecap="round" stroke-linejoin="round"/>
  <path d="M16.5 5.27832H14.25" stroke="white" stroke-width="1.26978" stroke-miterlimit="10" stroke-linecap="round" stroke-linejoin="round"/>
  <path d="M6.75 5.27832H1.5" stroke="white" stroke-width="1.26978" stroke-miterlimit="10" stroke-linecap="round" stroke-linejoin="round"/>
  <path d="M5.25 11.2783H9.75C10.575 11.2783 11.25 11.6533 11.25 12.7783V14.2783C11.25 15.4033 10.575 15.7783 9.75 15.7783H5.25C4.425 15.7783 3.75 15.4033 3.75 14.2783V12.7783C3.75 11.6533 4.425 11.2783 5.25 11.2783Z" stroke="white" stroke-width="1.26978" stroke-miterlimit="10" stroke-linecap="round" stroke-linejoin="round"/>
  <path d="M8.25 3.02832H12.75C13.575 3.02832 14.25 3.40332 14.25 4.52832V6.02832C14.25 7.15332 13.575 7.52832 12.75 7.52832H8.25C7.425 7.52832 6.75 7.15332 6.75 6.02832V4.52832C6.75 3.40332 7.425 3.02832 8.25 3.02832Z" stroke="white" stroke-width="1.26978" stroke-miterlimit="10" stroke-linecap="round" stroke-linejoin="round"/>
</svg>