<svg xmlns="http://www.w3.org/2000/svg" width="45" height="41" fill="none" viewBox="0 0 45 41">
  <path fill="var(--menu-icon-color)" fill-rule="evenodd" stroke="var(--menu-icon-color)" stroke-width=".3" d="M15.037 19.325h-.526A1.5 1.5 0 0 0 13 20.812v2.211a1.5 1.5 0 0 0 1.511 1.488h.593c.163.758.546 1.46 1.111 2.016a4.124 4.124 0 0 0 2.49 1.161A1.54 1.54 0 0 0 20.237 29h1.95c.854 0 1.547-.682 1.547-1.523v-.369c0-.84-.693-1.522-1.547-1.522h-1.95c-.765 0-1.401.548-1.525 1.268a3.273 3.273 0 0 1-1.9-.914 3.176 3.176 0 0 1-.953-2.264v-3.802c0-3.335 2.752-6.044 6.14-6.044 3.39 0 6.142 2.709 6.142 6.044v4.221a.419.419 0 0 0 .476.412.447.447 0 0 0 .055.004h.817A1.5 1.5 0 0 0 31 23.023v-2.21a1.5 1.5 0 0 0-1.511-1.488h-.526C28.678 15.788 25.667 13 22 13c-3.667 0-6.678 2.787-6.963 6.325Zm7.854 7.783v.37a.698.698 0 0 1-.703.692h-1.95a.698.698 0 0 1-.704-.693v-.369c0-.381.315-.692.703-.692h1.95c.389 0 .704.31.704.692Zm6.094-3.428h.504a.663.663 0 0 0 .667-.657v-2.21a.663.663 0 0 0-.667-.658h-.504v3.525Zm-13.97-3.525h-.504a.662.662 0 0 0-.667.657v2.211c0 .363.299.657.667.657h.504v-3.524Z" clip-rule="evenodd"/>
  <rect width="43.37" height="38.948" x=".423" y="-.423" stroke="var(--menu-icon-border-color)" stroke-width="var(--menu-icon-border-width)" rx="19.474" transform="matrix(1 0 0 -1 0 38.948)"/>
</svg>
