<svg xmlns="http://www.w3.org/2000/svg" width="12" height="12" viewBox="0 0 10 8" fill="none">
<path d="M8.3803 0.123517C8.27052 0.194091 7.1178 1.31544 5.81609 2.61715L3.44009 4.97747L2.52262 4.06C2.01292 3.56598 1.5189 3.11117 1.4248 3.06412C0.962144 2.82887 0.30345 3.08764 0.0995684 3.58166C-0.13568 4.14626 -0.049422 4.28741 1.4248 5.78515C2.16975 6.53795 2.86765 7.19664 2.98528 7.25937C3.25973 7.40052 3.62829 7.40052 3.8949 7.25937C4.01253 7.19664 5.38481 5.86357 6.94529 4.29525C10.0427 1.18997 10.0192 1.2135 9.76042 0.601854C9.5487 0.076467 8.82727 -0.166623 8.3803 0.123517Z" fill="#E31337"/>
</svg>