<svg xmlns="http://www.w3.org/2000/svg" width="20" height="21" viewBox="0 0 20 21" fill="none">
<path d="M8.90414 0.620609C8.30818 0.683212 7.34366 0.910147 6.70849 1.12926C3.35228 2.30305 0.921388 5.08105 0.152911 8.62592C-0.0509704 9.54931 -0.0509704 11.5995 0.152911 12.5386C1.01549 16.5608 4.00314 19.5344 8.04156 20.4109C8.96687 20.6143 11.0292 20.6143 11.9467 20.4187C12.919 20.2074 13.8365 19.8709 14.7226 19.4092C15.6087 18.9475 15.8047 18.7284 15.8047 18.1885C15.8047 17.7503 15.4362 17.3277 14.9971 17.2573C14.7461 17.2181 14.5893 17.2729 13.9149 17.625C12.1192 18.5484 10.4332 18.838 8.66105 18.525C4.25407 17.7581 1.30563 13.6185 2.05058 9.24412C2.84258 4.61935 7.42992 1.6379 11.978 2.78823C15.7028 3.73509 18.267 7.18606 18.0553 10.9735C18.0082 11.8187 18.0867 12.1004 18.4317 12.3664C18.6983 12.5777 19.2864 12.6012 19.553 12.4134C19.9373 12.1473 20 11.8891 20 10.5431C19.9922 8.75113 19.6942 7.51472 18.8787 5.93401C17.028 2.34218 12.9818 0.18239 8.90414 0.620609Z" fill="currentColor"/>
<path d="M13.4521 7.02917C13.3423 7.0996 12.1896 8.21862 10.8879 9.51762L8.51187 11.873L7.5944 10.9575C7.0847 10.4645 6.59068 10.0106 6.49658 9.96367C6.03392 9.72891 5.37523 9.98714 5.17135 10.4801C4.9361 11.0436 5.02236 11.1844 6.49658 12.6791C7.24153 13.4303 7.93943 14.0876 8.05705 14.1502C8.33151 14.2911 8.70007 14.2911 8.96668 14.1502C9.0843 14.0876 10.4566 12.7573 12.0171 11.1922C15.1145 8.09341 15.091 8.11689 14.8322 7.50651C14.6205 6.98222 13.899 6.73963 13.4521 7.02917Z" fill="currentColor"/>
</svg>