<svg xmlns="http://www.w3.org/2000/svg" width="18" height="18" viewBox="0 0 18 18" fill="none">
  <path d="M12 9.675V12.825C12 15.45 10.95 16.5 8.325 16.5H5.175C2.55 16.5 1.5 15.45 1.5 12.825V9.675C1.5 7.05 2.55 6 5.175 6H8.325C10.95 6 12 7.05 12 9.675Z" stroke="currentColor" stroke-width="1.27" stroke-linecap="round" stroke-linejoin="round"/>
  <path d="M16.5 5.175V8.325C16.5 10.95 15.45 12 12.825 12H12V9.675C12 7.05 10.95 6 8.325 6H6V5.175C6 2.55 7.05 1.5 9.675 1.5H12.825C15.45 1.5 16.5 2.55 16.5 5.175Z" stroke="currentColor" stroke-width="1.27" stroke-linecap="round" stroke-linejoin="round"/>
</svg>