<?xml version="1.0" encoding="iso-8859-1"?>
<!-- Generator: Adobe Illustrator 19.0.0, SVG Export Plug-In . SVG Version: 6.00 Build 0)  -->
<svg fill='white' version="1.1" id="Capa_1" xmlns="http://www.w3.org/2000/svg" xmlns:xlink="http://www.w3.org/1999/xlink" x="0px" y="0px"
	 viewBox="0 0 512 512" style="enable-background:new 0 0 512 512;" xml:space="preserve">
<g>
	<g>
		<path d="M437.02,74.981C388.668,26.629,324.38,0,256,0S123.332,26.629,74.98,74.981C26.628,123.333,0,187.62,0,256
			s26.628,132.668,74.98,181.019C123.332,485.37,187.62,512,256,512s132.668-26.629,181.02-74.981
			C485.372,388.667,512,324.38,512,256S485.372,123.332,437.02,74.981z M256,461.752c-113.453,0-205.752-92.3-205.752-205.752
			c0-0.186,0.006-0.37,0.007-0.554c0-0.047-0.007-0.092-0.007-0.139c0-0.079,0.01-0.155,0.012-0.233
			c0.499-112.093,91.086-203.29,202.944-204.79c0.234-0.011,0.466-0.035,0.703-0.035c0.142,0,0.28,0.017,0.421,0.021
			c0.558-0.004,1.114-0.021,1.673-0.021c113.453,0,205.752,92.3,205.752,205.752S369.453,461.752,256,461.752z"/>
	</g>
</g>
<g>
	<g>
		<path d="M412.287,268.36c-8.366,0-15.148-6.782-15.148-15.148c0-8.366,6.782-15.148,15.148-15.148h18.259
			c-8.576-84.076-76.762-150.773-161.492-157.035v15.895c0,8.366-6.782,15.148-15.148,15.148c-8.366,0-15.148-6.782-15.148-15.148
			V81.391c-83.476,8.18-149.969,75.102-157.492,158.766h16.352c8.366,0,15.148,6.782,15.148,15.148
			c0,8.366-6.782,15.148-15.148,15.148H81.142c6.965,85.011,74.791,153.045,159.71,160.342v-19.203
			c0-8.366,6.782-15.148,15.148-15.148c8.366,0,15.148,6.782,15.148,15.148v19.203c85.614-7.357,153.853-76.451,159.867-162.435
			H412.287z M317.32,216.102l-50.608,50.609c-2.841,2.841-6.693,4.437-10.711,4.437c-4.017,0-7.871-1.596-10.711-4.437
			l-88.093-88.093c-5.916-5.915-5.916-15.506,0-21.422c5.915-5.916,15.506-5.916,21.422,0l77.383,77.382L295.9,194.68
			c5.915-5.916,15.506-5.916,21.422,0C323.236,200.595,323.236,210.187,317.32,216.102z"/>
	</g>
</g>
<g>
</g>
<g>
</g>
<g>
</g>
<g>
</g>
<g>
</g>
<g>
</g>
<g>
</g>
<g>
</g>
<g>
</g>
<g>
</g>
<g>
</g>
<g>
</g>
<g>
</g>
<g>
</g>
<g>
</g>
</svg>
