<?xml version="1.0" standalone="no"?><!DOCTYPE svg PUBLIC "-//W3C//DTD SVG 1.1//EN" "http://www.w3.org/Graphics/SVG/1.1/DTD/svg11.dtd"><svg class="icon" height="512" viewBox="0 0 1024 1024" version="1.1" xmlns="http://www.w3.org/2000/svg"><path d="M816.163 690.151H511.751c-10.862 0-19.707 8.73-19.862 19.602l-1.277 89.871-261.764-200.793c-15.07-11.558-6.905-35.665 12.079-35.665h575.236c10.97 0 19.862 8.902 19.862 19.883v87.222c0 10.979-8.892 19.88-19.862 19.88zM490.612 799.627v-0.003l0.003 0.003h-0.003z m304.224-336.792H206.527c-9.142 0-16.555-7.419-16.555-16.571v-93.848c0-9.149 7.413-16.566 16.555-16.566h313.93c9.255 0 16.714-7.596 16.548-16.862l-1.62-92.618 269.517 206.742c12.558 9.634 5.752 29.723-10.066 29.723z" fill="white" /></svg>