<svg xmlns="http://www.w3.org/2000/svg" width="45" height="40" fill="none" viewBox="0 0 45 40">
  <rect width="43.37" height="38.948" x=".423" y="-.423" stroke="var(--menu-icon-border-color)" stroke-width="var(--menu-icon-border-width)" rx="19.474" transform="matrix(1 0 0 -1 0 38.948)"/>
  <path stroke="var(--menu-icon-color)" stroke-linecap="round" stroke-linejoin="round" stroke-width="1.27" d="M26.875 25.625h-3m1.5 1.5v-3m-3.255-4.972a1.363 1.363 0 0 0-.248 0 3.315 3.315 0 0 1-3.202-3.322 3.32 3.32 0 0 1 3.322-3.33 3.332 3.332 0 0 1 3.33 3.33 3.32 3.32 0 0 1-3.202 3.322Zm-.128 8.204c-1.364 0-2.722-.345-3.757-1.035-1.815-1.215-1.815-3.195 0-4.402 2.063-1.38 5.445-1.38 7.508 0"/>
</svg>
