<svg xmlns="http://www.w3.org/2000/svg" width="45" height="40" fill="none" viewBox="0 0 45 40">
  <rect width="43.37" height="38.948" x=".423" y="-.423" stroke="var(--menu-icon-border-color)" stroke-width="var(--menu-icon-border-width)" rx="19.474" transform="matrix(1 0 0 -1 0 38.948)"/>
  <path stroke="var(--menu-icon-color)" stroke-linecap="round" stroke-linejoin="round" stroke-width="1.27" d="M19.87 18.152a1.363 1.363 0 0 0-.248 0 3.315 3.315 0 0 1-3.202-3.322 3.327 3.327 0 0 1 3.33-3.33 3.327 3.327 0 0 1 .12 6.652ZM24.558 13a2.623 2.623 0 0 1 2.625 2.625 2.629 2.629 0 0 1-2.528 2.625.847.847 0 0 0-.195 0m-8.34 2.67c-1.815 1.215-1.815 3.195 0 4.402 2.063 1.38 5.445 1.38 7.508 0 1.814-1.214 1.814-3.194 0-4.402-2.055-1.373-5.438-1.373-7.508 0Zm11.355-.525c-.412-.315-.915-.525-1.447-.645M28 25v-3m1.5 1.5h-3"/>
</svg>
