<svg xmlns="http://www.w3.org/2000/svg" width="45" height="40" fill="none" viewBox="0 0 45 40">
  <rect width="43.37" height="38.948" x=".423" y="-.423" stroke="var(--menu-icon-border-color)" stroke-width="var(--menu-icon-border-width)" rx="19.474" transform="matrix(1 0 0 -1 0 38.948)"/>
  <path stroke="var(--menu-icon-color)" stroke-linecap="round" stroke-linejoin="round" stroke-width="1.27" d="M26.5 16.37a.454.454 0 0 0-.142 0 1.93 1.93 0 0 1-1.86-1.935A1.935 1.935 0 1 1 26.5 16.37Zm-.772 5.46c1.027.173 2.16-.007 2.955-.54 1.057-.705 1.057-1.86 0-2.565-.803-.532-1.95-.712-2.978-.532m-8.227-1.823a.454.454 0 0 1 .142 0 1.93 1.93 0 0 0 1.86-1.935 1.935 1.935 0 1 0-2.003 1.935Zm.772 5.46c-1.027.173-2.16-.007-2.955-.54-1.057-.705-1.057-1.86 0-2.565.803-.532 1.95-.712 2.978-.532M22 21.973a.454.454 0 0 0-.142 0 1.93 1.93 0 0 1-1.86-1.935 1.935 1.935 0 1 1 3.87 0A1.936 1.936 0 0 1 22 21.972Zm-2.183 2.362c-1.057.706-1.057 1.86 0 2.566 1.2.802 3.166.802 4.366 0 1.057-.706 1.057-1.86 0-2.566-1.193-.794-3.166-.794-4.366 0Z"/>
</svg>
