<svg width="45" height="40" viewBox="0 0 45 40" fill="none" xmlns="http://www.w3.org/2000/svg">
<rect x="0.423259" y="-0.423259" width="43.37" height="38.9483" rx="19.4742" stroke="var(--menu-icon-border-color)" stroke-width="var(--menu-icon-border-width)" transform="matrix(1 0 0 -1 0 38.9484)" />
<path fill="var(--menu-icon-color)" d="M23 29V27H25V29H23ZM21 27V22H23V27H21ZM29 24V20H31V24H29ZM27 20V18H29V20H27ZM15 22V20H17V22H15ZM13 20V18H15V20H13ZM22 13V11H24V13H22ZM14.5 15.5H17.5V12.5H14.5V15.5ZM13 17V11H19V17H13ZM14.5 27.5H17.5V24.5H14.5V27.5ZM13 29V23H19V29H13ZM26.5 15.5H29.5V12.5H26.5V15.5ZM25 17V11H31V17H25ZM27 29V26H25V24H29V27H31V29H27ZM23 22V20H27V22H23ZM19 22V20H17V18H23V20H21V22H19ZM20 17V13H22V15H24V17H20ZM15.25 14.75V13.25H16.75V14.75H15.25ZM15.25 26.75V25.25H16.75V26.75H15.25ZM27.25 14.75V13.25H28.75V14.75H27.25Z" />
</svg>
