<svg xmlns="http://www.w3.org/2000/svg" width="30" height="30" fill="none" viewBox="0 0 30 30">
  <path stroke="var(--wallet-icon-color)" stroke-linecap="round" stroke-linejoin="round" stroke-width=".5" d="m8.979 12.646 5.52 3.198 5.48-3.177M14.5 21.51v-5.677"/>
  <path stroke="var(--wallet-icon-color)" stroke-linecap="round" stroke-linejoin="round" stroke-width=".5" d="m13.208 9.552-3.333 1.854c-.75.417-1.375 1.469-1.375 2.334v3.53c0 .865.615 1.918 1.375 2.334l3.333 1.854c.709.396 1.875.396 2.594 0l3.333-1.854c.75-.416 1.375-1.469 1.375-2.333v-3.542c0-.864-.614-1.916-1.375-2.333l-3.333-1.854c-.719-.396-1.885-.396-2.594.01Z"/>
  <path stroke="var(--wallet-icon-color)" stroke-linecap="round" stroke-linejoin="round" stroke-miterlimit="10" stroke-width=".5" d="m24.917 10.128-2.132 2.158-2.132-2.158m2.132-3.884v5.98"/>
</svg>
