<svg width="45" height="40" viewBox="0 0 45 40" fill="none" xmlns="http://www.w3.org/2000/svg">
<path d="M22 18.0002C23.6109 18.0002 24.9167 16.5078 24.9167 14.6668C24.9167 12.8259 23.6109 11.3335 22 11.3335C20.3892 11.3335 19.0834 12.8259 19.0834 14.6668C19.0834 16.5078 20.3892 18.0002 22 18.0002Z" stroke="var(--menu-icon-color)" stroke-linecap="round"/>
<path d="M24.0625 12.6668C24.2933 12.2101 24.6374 11.8418 25.0512 11.6085C25.4652 11.3752 25.9303 11.2875 26.3879 11.3563C26.8453 11.4252 27.2748 11.6475 27.6218 11.9953C27.9687 12.343 28.2177 12.8005 28.3372 13.31C28.4565 13.8194 28.4411 14.3579 28.2928 14.8573C28.1444 15.3568 27.8698 15.7947 27.5037 16.1158C27.1376 16.4368 26.6964 16.6266 26.2359 16.6611C25.7754 16.6956 25.3163 16.5733 24.9166 16.3096" stroke="var(--menu-icon-color)"/>
<path d="M19.9375 12.6668C19.7067 12.2101 19.3626 11.8418 18.9487 11.6085C18.5348 11.3752 18.0697 11.2875 17.6121 11.3563C17.1546 11.4252 16.7252 11.6475 16.3782 11.9953C16.0313 12.343 15.7823 12.8005 15.6629 13.31C15.5434 13.8194 15.5589 14.3579 15.7072 14.8573C15.8555 15.3568 16.1301 15.7947 16.4963 16.1158C16.8624 16.4368 17.3036 16.6266 17.7641 16.6611C18.2246 16.6956 18.6837 16.5733 19.0834 16.3096" stroke="var(--menu-icon-color)"/>
<path d="M22 20.6665C26.7603 20.6665 27.9891 25.0694 28.3063 27.3425C28.4078 28.0697 27.8944 28.6665 27.25 28.6665H16.75C16.1057 28.6665 15.5923 28.0697 15.6938 27.3425C16.0109 25.0694 17.2398 20.6665 22 20.6665Z" stroke="var(--menu-icon-color)" stroke-linecap="round"/>
<path d="M23.2683 20.781L22.8376 20.3316L22.1136 21.2376L23.1726 21.4386L23.2683 20.781ZM28.0449 25.9998L27.4845 26.1852L27.6064 26.6665H28.0449V25.9998ZM26.0833 19.9998C27.2823 19.9998 28.1244 20.6701 28.7414 21.609C29.3707 22.5669 29.7401 23.774 29.9468 24.7168L31.0785 24.3929C30.8555 23.3752 30.4384 21.9714 29.6743 20.8085C28.898 19.6269 27.7402 18.6665 26.0833 18.6665V19.9998ZM23.699 21.2305C24.2828 20.4998 25.0458 19.9998 26.0833 19.9998V18.6665C24.6633 18.6665 23.6025 19.374 22.8376 20.3316L23.699 21.2305ZM23.1726 21.4386C25.8565 21.9484 26.9921 24.24 27.4845 26.1852L28.6052 25.8145C28.0556 23.6433 26.6888 20.7549 23.364 20.1234L23.1726 21.4386ZM29.4608 25.3332H28.0449V26.6665H29.4608V25.3332ZM29.9468 24.7168C30.0095 25.0033 29.8254 25.3332 29.4608 25.3332V26.6665C30.4767 26.6665 31.3511 25.6368 31.0785 24.3929L29.9468 24.7168Z" fill="var(--menu-icon-color)"/>
<path d="M20.7318 20.781L20.8274 21.4386L21.8864 21.2376L21.1625 20.3316L20.7318 20.781ZM15.9552 25.9998V26.6665H16.3937L16.5155 26.1852L15.9552 25.9998ZM17.9167 19.9998C18.9542 19.9998 19.7172 20.4998 20.3009 21.2305L21.1625 20.3316C20.3975 19.374 19.3368 18.6665 17.9167 18.6665V19.9998ZM14.0532 24.7168C14.2598 23.774 14.6294 22.5669 15.2586 21.609C15.8756 20.6701 16.7177 19.9998 17.9167 19.9998V18.6665C16.2598 18.6665 15.102 19.6269 14.3257 20.8085C13.5617 21.9714 13.1445 23.3752 12.9215 24.3929L14.0532 24.7168ZM14.5392 25.3332C14.1746 25.3332 13.9905 25.0033 14.0532 24.7168L12.9215 24.3929C12.6489 25.6368 13.5233 26.6665 14.5392 26.6665V25.3332ZM15.9552 25.3332H14.5392V26.6665H15.9552V25.3332ZM16.5155 26.1852C17.0079 24.24 18.1434 21.9484 20.8274 21.4386L20.6361 20.1234C17.3112 20.7549 15.9445 23.6433 15.3948 25.8145L16.5155 26.1852Z" fill="var(--menu-icon-color)"/>
<rect x="0.423259" y="-0.423259" width="43.37" height="38.9483" rx="19.4742" transform="matrix(1 0 0 -1 0 38.9484)" stroke="var(--menu-icon-border-color)" stroke-width="0.846517"/>
</svg>
