<svg xmlns="http://www.w3.org/2000/svg" width="45" height="40" fill="none" viewBox="0 0 45 40">
  <rect width="43.37" height="38.948" x=".423" y="-.423" stroke="#E3E1E1" stroke-width=".847" rx="19.474" transform="matrix(1 0 0 -1 0 39.154)"/>
  <path stroke="var(--menu-icon-color)" stroke-linecap="round" stroke-linejoin="round" stroke-width="1.27" d="M22.12 19.152a1.363 1.363 0 0 0-.248 0 3.315 3.315 0 0 1-3.202-3.322 3.32 3.32 0 0 1 3.322-3.33 3.332 3.332 0 0 1 3.33 3.33 3.32 3.32 0 0 1-3.202 3.322Zm-.128 8.205c-1.364 0-2.722-.345-3.757-1.035-1.815-1.215-1.815-3.195 0-4.402 2.063-1.38 5.445-1.38 7.508 0"/>
  <path stroke="var(--menu-icon-color)" stroke-linecap="round" stroke-linejoin="round" d="m25.699 24.02.33.666a.408.408 0 0 0 .266.199l.598.1c.383.064.473.344.197.62l-.465.469a.413.413 0 0 0-.097.342l.133.58c.105.46-.137.637-.54.397l-.56-.335a.402.402 0 0 0-.372 0l-.56.335c-.402.24-.646.06-.54-.397l.133-.58a.413.413 0 0 0-.098-.342l-.465-.47c-.274-.275-.185-.555.197-.62l.598-.1a.4.4 0 0 0 .264-.198l.33-.665c.18-.361.473-.361.65 0Z"/>
</svg>
