<svg xmlns="http://www.w3.org/2000/svg" width="45" height="40" fill="none" viewBox="0 0 45 40">
  <rect width="43.37" height="38.948" x=".423" y="-.423" stroke="var(--menu-icon-border-color)" stroke-width=".847" rx="19.474" transform="matrix(1 0 0 -1 0 38.948)"/>
  <path stroke="var(--menu-icon-color)" d="M17.836 17.727a4.19 4.19 0 0 1 8.328 0l.189 1.7c.097.872.38 1.712.832 2.465l.434.722c.193.322.29.483.325.608a1 1 0 0 1-.704 1.245c-.126.033-.314.033-.69.033h-9.1c-.376 0-.564 0-.69-.033a1 1 0 0 1-.704-1.245c.036-.125.132-.286.325-.608l.434-.722a6.099 6.099 0 0 0 .832-2.465l.189-1.7Z"/>
  <path stroke="var(--menu-icon-color)" stroke-linecap="round" d="M19.827 24.804c.128.559.41 1.052.803 1.404.393.351.875.542 1.37.542.495 0 .977-.19 1.37-.542.393-.352.675-.845.803-1.404"/>
</svg>
