<svg xmlns="http://www.w3.org/2000/svg" width="45" height="40" fill="none" viewBox="0 0 45 40">
  <rect width="43.37" height="38.948" x=".423" y="-.423" stroke="var(--menu-icon-border-color)" stroke-width="var(--menu-icon-border-width)" rx="19.474" transform="matrix(1 0 0 -1 0 38.948)"/>
  <path stroke="var(--menu-icon-color)" stroke-linecap="round" stroke-linejoin="round" stroke-width="1.27" d="M28 18.2c0-3-1.2-4.2-4.2-4.2h-3.6c-3 0-4.2 1.2-4.2 4.2v3.6c0 3 1.2 4.2 4.2 4.2"/>
  <path stroke="var(--menu-icon-color)" stroke-linecap="round" stroke-linejoin="round" stroke-width="1.27" d="M25.262 17c-.412-.525-1.102-.75-2.137-.75h-2.25c-1.875 0-2.625.75-2.625 2.625v2.25c0 1.035.225 1.725.742 2.137M19.008 14v-1.5M22 14v-1.5m3 1.5v-1.5m3 4.5h1.5m-10.492 9v1.5M14.5 17H16m-1.5 3H16m-1.5 3H16"/>
  <path stroke="var(--menu-icon-color)" stroke-linecap="round" stroke-linejoin="round" stroke-miterlimit="10" stroke-width="1.27" d="M25.533 24.943a1.192 1.192 0 1 0 0-2.385 1.192 1.192 0 0 0 0 2.385Z"/>
  <path stroke="var(--menu-icon-color)" stroke-linecap="round" stroke-linejoin="round" stroke-miterlimit="10" stroke-width="1.27" d="M21.558 24.095v-.697c0-.413.337-.75.75-.75.72 0 1.012-.51.652-1.133a.75.75 0 0 1 .278-1.027l.682-.398a.664.664 0 0 1 .908.24l.045.075c.36.623.945.623 1.305 0l.045-.075a.67.67 0 0 1 .907-.24l.683.398a.75.75 0 0 1 .277 1.027c-.36.623-.067 1.133.653 1.133.412 0 .75.337.75.75v.697c0 .413-.338.75-.75.75-.72 0-1.013.51-.653 1.133a.75.75 0 0 1-.277 1.027l-.683.398a.664.664 0 0 1-.907-.24l-.045-.075c-.36-.623-.945-.623-1.305 0l-.045.075a.67.67 0 0 1-.908.24l-.682-.398a.751.751 0 0 1-.278-1.027c.36-.623.068-1.133-.652-1.133a.743.743 0 0 1-.75-.75Z"/>
</svg>
