<svg xmlns="http://www.w3.org/2000/svg" width="45" height="40" fill="none" viewBox="0 0 45 40">
  <rect width="43.37" height="38.948" x=".423" y="-.423" stroke="var(--menu-icon-border-color)" stroke-width=".847" rx="19.474" transform="matrix(1 0 0 -1 0 39.154)"/>
  <path stroke="var(--menu-icon-color)" stroke-linecap="round" stroke-linejoin="round" stroke-miterlimit="10" stroke-width="1.27" d="M17.625 18.75h1.25c1.25 0 1.875-.625 1.875-1.875v-1.25c0-1.25-.625-1.875-1.875-1.875h-1.25c-1.25 0-1.875.625-1.875 1.875v1.25c0 1.25.625 1.875 1.875 1.875Zm7.5 0h1.25c1.25 0 1.875-.625 1.875-1.875v-1.25c0-1.25-.625-1.875-1.875-1.875h-1.25c-1.25 0-1.875.625-1.875 1.875v1.25c0 1.25.625 1.875 1.875 1.875Zm0 7.5h1.25c1.25 0 1.875-.625 1.875-1.875v-1.25c0-1.25-.625-1.875-1.875-1.875h-1.25c-1.25 0-1.875.625-1.875 1.875v1.25c0 1.25.625 1.875 1.875 1.875Zm-7.5 0h1.25c1.25 0 1.875-.625 1.875-1.875v-1.25c0-1.25-.625-1.875-1.875-1.875h-1.25c-1.25 0-1.875.625-1.875 1.875v1.25c0 1.25.625 1.875 1.875 1.875Z"/>
</svg>
