<svg xmlns="http://www.w3.org/2000/svg" width="20" height="20" viewBox="0 0 20 20" fill="none">
<path d="M7.53737 0.0463924C6.32544 0.2421 4.98059 0.758766 3.90159 1.46331C3.2448 1.89387 1.91559 3.22467 1.48555 3.88225C-0.265878 6.583 -0.484807 9.87088 0.914773 12.6891C2.14234 15.1706 4.34726 16.8615 7.10733 17.4408C8.18634 17.6678 10.0316 17.6052 11.095 17.3156C12.2209 16.9946 13.1826 16.5093 14.3476 15.6638C14.4336 15.6012 14.9653 16.0944 16.6307 17.7618C18.6558 19.7893 18.8278 19.9459 19.1328 19.985C19.4299 20.0242 19.4846 20.0007 19.7426 19.7423C20.0007 19.484 20.0241 19.4292 19.985 19.1317C19.9459 18.8264 19.7896 18.6542 17.7645 16.6267C16.099 14.9593 15.6065 14.4269 15.669 14.3408C16.5134 13.1744 16.9982 12.2115 17.3188 11.0843C17.6081 10.0196 17.6706 8.17215 17.4439 7.09184C16.7011 3.55346 14.0974 0.915333 10.5946 0.155989C9.92213 0.00725174 8.18634 -0.0475464 7.53737 0.0463924ZM10.618 1.8469C12.8855 2.49664 14.6135 4.02316 15.4814 6.15245C16.0052 7.44412 16.1147 9.16634 15.7628 10.5363C15.0982 13.1196 13.1279 15.0923 10.5476 15.7577C9.17933 16.11 7.45918 16.0004 6.16906 15.4759C4.44109 14.7714 2.90859 13.284 2.22835 11.6557C1.77485 10.5754 1.67321 10.0353 1.68102 8.77492C1.68884 7.38932 1.82176 6.77088 2.3769 5.62796C3.33863 3.6474 5.13697 2.24614 7.3419 1.76079C8.23325 1.56508 9.77357 1.60422 10.618 1.8469Z" fill="#929292"/>
</svg>