<svg xmlns="http://www.w3.org/2000/svg" width="45" height="41" fill="none" viewBox="10 10 35 20">
  <path stroke="#929292" stroke-linecap="round" stroke-linejoin="round" stroke-miterlimit="10" stroke-width="1.27" d="M22 22.665a2.25 2.25 0 1 0 0-4.5 2.25 2.25 0 0 0 0 4.5Z"/>
  <path stroke="#929292" stroke-linecap="round" stroke-linejoin="round" stroke-miterlimit="10" stroke-width="1.27" d="M14.5 21.075v-1.32c0-.78.637-1.425 1.425-1.425 1.357 0 1.912-.96 1.23-2.137a1.424 1.424 0 0 1 .525-1.943l1.297-.742a1.252 1.252 0 0 1 1.71.45l.083.142c.675 1.178 1.785 1.178 2.468 0l.082-.142a1.252 1.252 0 0 1 1.71-.45l1.297.742c.683.39.915 1.268.525 1.943-.682 1.177-.127 2.137 1.23 2.137.78 0 1.425.638 1.425 1.425v1.32a1.43 1.43 0 0 1-1.425 1.425c-1.357 0-1.912.96-1.23 2.138.39.682.158 1.552-.524 1.942l-1.298.743a1.252 1.252 0 0 1-1.71-.45l-.082-.143c-.675-1.177-1.785-1.177-2.468 0l-.082.143a1.252 1.252 0 0 1-1.71.45l-1.298-.743a1.424 1.424 0 0 1-.525-1.942c.682-1.178.127-2.138-1.23-2.138a1.43 1.43 0 0 1-1.425-1.425Z"/>
</svg>
