<svg width="333" height="76" viewBox="0 0 333 76" fill="none" xmlns="http://www.w3.org/2000/svg">
<path d="M42.0466 1.54154C35.9558 4.49992 31.3732 10.2426 30.3871 16.2754C30.1551 17.4356 29.575 18.5957 29.0529 18.7697C28.5309 19.0018 22.9622 20.8 16.6394 22.8883C3.35567 27.1808 2.07951 27.7609 0.861357 30.0812C-0.182776 32.0534 -0.298791 35.9979 0.629327 37.7961C2.19553 40.8125 6.54608 43.0168 9.0404 42.0307C9.62047 41.7987 10.3746 42.2047 11.1287 43.1328C11.9988 44.235 12.8109 44.583 14.3771 44.583C17.9155 44.525 20.0618 41.9727 19.4237 38.6082C19.1337 37.1581 19.3077 36.462 20.2358 35.6499C21.338 34.6637 23.7743 34.7798 23.7743 35.8819C23.7743 36.1719 24.4704 37.1581 25.2825 38.1442C26.3846 39.4784 27.2547 39.9424 28.7049 39.9424C31.1412 39.9424 33.5195 37.9702 33.8095 35.7659C34.0996 33.3296 34.5636 33.2716 36.8259 35.2438C38.9142 37.042 43.4968 39.6524 43.4968 39.0723C43.4968 38.8403 42.8587 37.8542 42.0466 36.752C39.4363 33.3876 38.1021 28.631 38.4501 23.9324C38.7982 19.1178 40.3064 15.5793 43.5548 11.8669C48.6014 6.18213 55.5623 4.15187 63.7994 6.12412L65.2495 6.47217L63.9154 5.02198C63.1613 4.20988 61.247 2.8177 59.6228 1.94759C57.0705 0.555416 55.7943 0.265381 51.0957 0.0913582C45.8751 -0.140671 45.295 -0.0246582 42.0466 1.54154Z" fill="#EC1540"/>
<path d="M96.1095 9.31554C95.3554 9.89561 94.6013 14.2462 92.5131 29.0961C91.0629 39.5374 90.0188 48.3545 90.1928 48.6445C90.3668 48.9926 92.107 49.2246 93.9633 49.2246C98.1398 49.2246 98.1978 49.1666 99.1839 41.3936C99.59 38.2032 100.112 35.2448 100.344 34.8388C100.576 34.3167 102.258 36.637 104.985 41.2196C107.305 45.1641 109.509 48.5285 109.857 48.7606C110.205 48.9926 112.41 49.2246 114.73 49.2246C118.094 49.2246 118.906 49.0506 118.906 48.3545C118.906 47.8324 116.296 43.5399 113.106 38.7833C109.915 34.0267 107.305 29.9662 107.305 29.7921C107.305 29.6181 111.133 25.1516 115.774 19.8729C120.415 14.5942 124.069 9.95362 123.953 9.60558C123.663 8.73547 118.384 8.38742 116.412 9.14152C115.542 9.48956 112.178 13.144 108.349 17.9006C104.753 22.4252 101.736 25.7896 101.62 25.4996C101.504 25.1516 101.852 22.1352 102.316 18.7707C103.476 11.0558 103.476 9.43155 102.316 8.96749C100.75 8.38742 97.1537 8.56144 96.1095 9.31554Z" fill="var(--splashscreen-text-color)"/>
<path d="M128.536 9.37355C127.723 9.95362 127.027 13.5501 124.939 28.0519C123.547 37.8552 122.387 46.6723 122.387 47.6004V49.2246H134.278H146.17L146.75 47.7164C147.62 45.4541 147.446 43.0178 146.402 42.6118C145.88 42.4377 142.341 42.2637 138.513 42.2637H131.552L131.958 38.6093C132.596 32.5765 132.074 32.9825 139.209 32.9825H145.532L146.112 30.7783C146.46 29.6181 146.75 28.342 146.75 27.9359C146.75 26.6017 144.488 26.0217 139.151 26.0217H133.814L134.22 22.3672C134.974 15.6964 134.22 16.2764 142.689 16.0444C146.808 15.9284 150.288 15.6964 150.52 15.4643C150.752 15.2903 151.158 13.9561 151.448 12.622C152.319 8.79347 151.854 8.61945 139.789 8.61945C132.364 8.61945 129.29 8.85148 128.536 9.37355Z" fill="var(--splashscreen-text-color)"/>
<path d="M154.407 9.37364C153.884 9.95371 154.755 13.3762 157.829 22.8314L161.889 35.593L160.961 41.7998C160.439 45.2802 160.207 48.2966 160.381 48.6446C160.903 49.5147 167.4 49.3987 168.096 48.4706C168.386 48.1226 169.024 44.9902 169.546 41.5677L170.417 35.3609L177.783 23.1214C181.786 16.4505 185.034 10.4758 184.918 9.89571C184.628 8.38752 179.292 8.21349 177.609 9.60567C176.971 10.1857 174.361 14.4783 171.867 19.1189L167.342 27.646L165.08 18.9449C163.862 14.1883 162.47 9.89571 162.005 9.43165C160.903 8.38752 155.277 8.32951 154.407 9.37364Z" fill="var(--splashscreen-text-color)"/>
<path d="M196.868 9.1987C190.487 10.5329 184.396 15.7535 182.134 21.8443C180.394 26.3109 180.684 33.6198 182.772 37.9123C185.788 44.2352 192.285 48.5857 199.594 49.1078C203.771 49.3978 208.295 48.4697 209.397 47.1935C210.325 46.0914 210.847 38.4344 210.093 37.9704C209.745 37.7963 208.237 38.2604 206.671 39.1305C204.351 40.3487 203.306 40.5807 200.348 40.4067C190.139 39.7686 185.73 28.3991 192.807 21.0902C197.622 16.0436 204.293 16.1016 209.571 21.2642C211.66 23.2365 211.834 23.3525 212.588 22.3664C213.632 20.9162 214.328 14.0133 213.516 13.0272C212.298 11.577 206.207 9.25671 202.726 8.96667C200.812 8.79265 198.144 8.90867 196.868 9.1987Z" fill="var(--splashscreen-text-color)"/>
<path d="M221.406 9.31554C220.594 9.89561 219.898 13.9561 217.751 28.864C216.301 39.1893 215.257 48.0065 215.431 48.4705C215.663 48.9926 216.823 49.2246 219.202 49.2246C223.436 49.2246 223.494 49.1666 224.422 41.6837C225.524 32.6925 224.77 33.5626 231.441 33.5626C237.184 33.5626 237.242 33.5626 236.952 34.8388C236.43 37.2171 235.502 45.2221 235.502 47.2524V49.2246H239.214C241.302 49.2246 243.101 48.9926 243.275 48.7606C243.391 48.5285 244.725 39.7114 246.233 29.2121C248.727 11.1718 248.843 10.0696 247.915 9.37355C246.407 8.2714 242.811 8.44543 241.418 9.60558C240.49 10.4177 240.084 12.0999 239.33 17.9006C238.808 21.9031 238.402 25.3256 238.402 25.5576C238.402 25.8476 235.734 26.0217 232.543 26.0217H226.626L226.975 23.5273C228.657 11.5198 228.773 9.72159 227.961 9.19952C226.684 8.38742 222.566 8.50344 221.406 9.31554Z" fill="var(--splashscreen-text-color)"/>
<path d="M265.723 9.37355C264.621 9.89562 262.184 14.5362 255.398 28.632C250.525 38.8413 246.58 47.6584 246.522 48.1805C246.522 49.0506 247.103 49.2246 250.235 49.2246C254.585 49.2246 254.76 49.0506 257.022 43.4239L258.414 39.8854L264.505 40.0594L270.596 40.2335L271.176 44.0039C271.524 46.0922 271.988 48.1225 272.22 48.4705C272.51 48.9346 274.076 49.2246 276.454 49.2246C280.109 49.2246 280.167 49.2246 280.167 47.6004C280.167 46.7303 278.601 37.8552 276.628 27.8779C273.264 10.6497 272.974 9.66359 271.64 9.14152C269.725 8.44543 267.405 8.50344 265.723 9.37355ZM268.217 25.6156C269.551 33.5626 269.783 32.9825 265.317 32.9825C263.229 32.9825 261.604 32.7505 261.72 32.5185C262.881 29.5021 267.115 19.7569 267.231 19.8149C267.289 19.9309 267.753 22.4832 268.217 25.6156Z" fill="var(--splashscreen-text-color)"/>
<path d="M289.39 9.54757C288.636 10.4177 283.705 42.7858 283.647 47.0203V49.2246H287.418C290.84 49.2246 291.246 49.1086 291.652 47.8904C291.943 47.1944 293.277 38.3192 294.669 28.1679C297.569 7.4593 297.685 8.61945 292.871 8.61945C291.13 8.61945 289.912 8.96749 289.39 9.54757Z" fill="var(--splashscreen-text-color)"/>
<path d="M303.718 9.37265C302.848 10.0107 302.21 13.4912 300.063 28.8051C298.613 39.0724 297.627 47.8895 297.801 48.4116C298.033 49.1077 298.903 49.2237 301.746 49.1077L305.342 48.9337L305.748 46.9034C305.98 45.8013 306.734 40.3486 307.43 34.7799L308.765 24.6866L311.607 32.4596C313.173 36.7521 315.145 42.2048 316.015 44.5831L317.64 48.9337L321.816 49.1077C325.703 49.2817 326.051 49.1657 326.573 47.9476C327.153 46.5554 331.793 13.4912 331.793 10.8228C331.793 9.60468 331.445 9.14062 330.285 8.85059C328.661 8.44453 324.891 8.9086 324.194 9.60468C323.962 9.83671 323.208 14.6513 322.512 20.22C321.816 25.7887 321.062 30.9514 320.888 31.7055C320.54 32.7496 319.496 30.3713 316.189 21.3802C311.491 8.61856 311.491 8.61856 306.908 8.61856C305.748 8.61856 304.298 8.9666 303.718 9.37265Z" fill="var(--splashscreen-text-color)"/>
<path d="M56.8389 10.0693C55.3887 10.5333 52.7784 12.0996 50.9221 13.4917C44.7154 18.4224 41.873 27.8195 44.3093 35.3025L45.2374 38.2029L36.8263 47.7741C32.1858 53.0528 27.8932 58.2154 27.2551 59.2595C25.1089 62.74 26.269 67.4966 29.9235 69.8749C31.7797 71.1511 36.5943 71.2671 37.9865 70.1069C38.5086 69.6429 40.3648 69.2948 42.163 69.2368C44.7734 69.2368 45.5855 68.9468 46.4556 67.8446C47.9058 66.0464 47.8477 62.914 46.2815 60.8257C45.2374 59.3756 45.1214 58.9115 45.7015 57.6353C46.4556 55.9531 48.3698 55.7211 50.11 57.0553C51.9663 58.4474 54.4026 58.0994 56.3748 56.1852C57.883 54.677 58.057 54.0969 57.709 52.5307C57.0129 49.2243 57.0709 48.9342 58.2891 49.1663C58.9272 49.2823 61.5375 49.3983 64.0898 49.4563C68.0343 49.5143 69.2525 49.2823 72.2689 47.8901C76.5034 45.9178 79.9838 42.5534 82.1881 38.2029C83.5803 35.3605 83.8123 34.3744 83.8123 29.5018C83.8123 24.6291 83.6383 23.585 82.1881 20.6846C80.2159 16.6821 77.0835 13.4917 72.9649 11.2294C70.2966 9.77925 69.1365 9.48922 64.6699 9.3732C61.2475 9.25719 58.5211 9.48922 56.8389 10.0693ZM70.5866 19.6405C74.6472 22.0768 75.3432 27.5295 72.0368 30.7779C66.0621 36.7527 56.3748 28.9217 61.0734 21.9028C63.3937 18.4224 67.1642 17.4942 70.5866 19.6405Z" fill="var(--splashscreen-text-color)"/>
<path d="M197.391 22.5405C194.781 24.1067 193.562 26.253 193.562 29.2114C193.562 32.1697 194.781 34.316 197.391 35.8822C202.38 38.9566 208.818 35.1861 208.818 29.2114C208.818 23.2366 202.38 19.4661 197.391 22.5405Z" fill="var(--splashscreen-text-color)"/>
<path d="M90.1934 63.7256H134.577" stroke="#EC1540" stroke-width="2.32029" stroke-linecap="round"/>
<path d="M143.572 55.3271C144.696 55.3271 145.657 55.5166 146.455 55.8956C147.254 56.2746 147.863 56.816 148.283 57.5198C148.716 58.2236 148.932 59.0764 148.932 60.0779C148.932 60.66 148.838 61.242 148.648 61.824C148.472 62.406 148.188 62.9338 147.795 63.4076C147.416 63.8813 146.902 64.267 146.252 64.5648C145.616 64.8491 144.831 64.9912 143.897 64.9912H141.765V70.1074H139.39V55.3271H143.572ZM143.897 62.697C144.412 62.697 144.845 62.609 145.197 62.433C145.549 62.2571 145.819 62.0338 146.009 61.7631C146.212 61.4924 146.354 61.2149 146.435 60.9307C146.53 60.6329 146.577 60.369 146.577 60.1389C146.577 59.8952 146.537 59.6313 146.455 59.3471C146.374 59.0493 146.239 58.7718 146.049 58.5146C145.86 58.2439 145.596 58.0274 145.258 57.865C144.919 57.689 144.486 57.601 143.958 57.601H141.765V62.697H143.897ZM150.888 62.7376C150.888 61.7089 151.084 60.7412 151.477 59.8343C151.869 58.9275 152.411 58.1221 153.101 57.4183C153.791 56.7145 154.59 56.1663 155.497 55.7738C156.417 55.3677 157.398 55.1647 158.441 55.1647C159.469 55.1647 160.437 55.3677 161.344 55.7738C162.264 56.1663 163.07 56.7145 163.76 57.4183C164.464 58.1221 165.012 58.9275 165.404 59.8343C165.81 60.7412 166.013 61.7089 166.013 62.7376C166.013 63.7798 165.81 64.7543 165.404 65.6612C165.012 66.568 164.464 67.3733 163.76 68.0772C163.07 68.7675 162.264 69.3089 161.344 69.7014C160.437 70.0804 159.469 70.2698 158.441 70.2698C157.385 70.2698 156.404 70.0804 155.497 69.7014C154.59 69.3089 153.791 68.7742 153.101 68.0975C152.411 67.4072 151.869 66.6086 151.477 65.7018C151.084 64.7814 150.888 63.7933 150.888 62.7376ZM153.324 62.7376C153.324 63.4685 153.453 64.152 153.71 64.7881C153.981 65.4243 154.353 65.986 154.827 66.4733C155.3 66.947 155.849 67.3192 156.471 67.5899C157.094 67.8606 157.771 67.996 158.501 67.996C159.205 67.996 159.862 67.8606 160.471 67.5899C161.093 67.3192 161.635 66.947 162.095 66.4733C162.555 65.986 162.914 65.4243 163.171 64.7881C163.442 64.152 163.577 63.4685 163.577 62.7376C163.577 61.9932 163.442 61.3029 163.171 60.6667C162.9 60.0306 162.535 59.4689 162.075 58.9816C161.615 58.4943 161.073 58.1154 160.451 57.8447C159.828 57.574 159.158 57.4386 158.441 57.4386C157.723 57.4386 157.053 57.574 156.431 57.8447C155.808 58.1154 155.26 58.4943 154.786 58.9816C154.326 59.4689 153.967 60.0373 153.71 60.687C153.453 61.3232 153.324 62.0067 153.324 62.7376ZM166.761 55.4084H169.522L173.176 65.8845L172.791 65.7221L175.633 58.4334L176.729 61.6412L172.669 70.7977L166.761 55.4084ZM174.009 55.4084H176.343L180.404 65.6612L179.937 65.5799L183.307 55.4084H185.845L180.079 70.7571L174.009 55.4084ZM188.62 55.3271H198.426V57.601H190.995V61.5397H197.614V63.8339H190.995V67.8335H198.71V70.1074H188.62V55.3271ZM206.145 55.3271C206.957 55.3271 207.702 55.4354 208.378 55.652C209.055 55.855 209.63 56.1596 210.104 56.5656C210.578 56.9717 210.943 57.4725 211.2 58.068C211.471 58.65 211.607 59.32 211.607 60.0779C211.607 60.66 211.519 61.242 211.343 61.824C211.167 62.406 210.876 62.9338 210.47 63.4076C210.077 63.8813 209.556 64.2603 208.906 64.5445C208.257 64.8288 207.451 64.9709 206.49 64.9709H204.358V70.1074H201.983V55.3271H206.145ZM206.47 62.697C206.998 62.697 207.438 62.6158 207.79 62.4533C208.142 62.2774 208.412 62.0608 208.602 61.8037C208.805 61.5465 208.947 61.2758 209.028 60.9916C209.123 60.6938 209.17 60.4163 209.17 60.1592C209.17 59.9155 209.13 59.6516 209.048 59.3674C208.967 59.0696 208.832 58.7921 208.642 58.535C208.453 58.2643 208.182 58.0409 207.83 57.865C207.492 57.689 207.066 57.601 206.551 57.601H204.358V62.697H206.47ZM209.028 64.0979L212.804 70.1074H210.064L206.206 64.1588L209.028 64.0979ZM215.584 55.3271H225.39V57.601H217.96V61.5397H224.578V63.8339H217.96V67.8335H225.675V70.1074H215.584V55.3271ZM228.947 70.1074V55.3271H233.15C234.625 55.3271 235.877 55.5505 236.906 55.9971C237.935 56.4303 238.767 57.019 239.403 57.7635C240.039 58.4943 240.5 59.3132 240.784 60.2201C241.082 61.1134 241.231 62.0135 241.231 62.9203C241.231 64.0302 241.034 65.025 240.642 65.9048C240.249 66.7846 239.715 67.5425 239.038 68.1787C238.361 68.8013 237.576 69.2818 236.683 69.6202C235.803 69.945 234.862 70.1074 233.861 70.1074H228.947ZM231.323 67.8335H233.434C234.219 67.8335 234.937 67.7253 235.586 67.5087C236.236 67.2786 236.798 66.9538 237.272 66.5342C237.759 66.101 238.131 65.5664 238.388 64.9303C238.659 64.2941 238.794 63.57 238.794 62.7579C238.794 61.8375 238.639 61.0525 238.327 60.4028C238.029 59.7396 237.63 59.2049 237.129 58.7989C236.642 58.3793 236.107 58.0748 235.525 57.8853C234.943 57.6958 234.368 57.601 233.8 57.601H231.323V67.8335ZM254.936 55.3271C256.438 55.3271 257.623 55.6317 258.489 56.2408C259.369 56.8498 259.808 57.7838 259.808 59.0425C259.808 59.8817 259.612 60.599 259.22 61.1946C258.841 61.7766 258.306 62.23 257.616 62.5549C256.926 62.8662 256.12 63.0354 255.2 63.0624L254.834 61.8037C255.931 61.8172 256.905 61.9932 257.758 62.3315C258.611 62.6564 259.287 63.1233 259.788 63.7324C260.289 64.328 260.539 65.0385 260.539 65.8642C260.539 66.6357 260.397 67.2921 260.113 67.8335C259.829 68.3614 259.45 68.7945 258.976 69.1329C258.502 69.4713 257.968 69.7217 257.372 69.8841C256.777 70.033 256.154 70.1074 255.504 70.1074H250.896V55.3271H254.936ZM255.322 61.6209C256.025 61.6209 256.54 61.4179 256.865 61.0119C257.203 60.5923 257.372 60.105 257.372 59.5501C257.372 58.8733 257.162 58.3793 256.743 58.068C256.323 57.7567 255.755 57.601 255.037 57.601H253.271V61.6209H255.322ZM255.403 67.9147C255.904 67.9147 256.357 67.8471 256.763 67.7117C257.169 67.5628 257.487 67.3395 257.717 67.0417C257.961 66.7304 258.083 66.3447 258.083 65.8845C258.083 65.3702 257.941 64.9709 257.656 64.6866C257.386 64.4024 257.034 64.1994 256.601 64.0776C256.168 63.9557 255.714 63.8948 255.24 63.8948H253.271V67.9147H255.403ZM266.948 65.316L261.486 55.3271H264.389L268.551 63.2858L267.841 63.3264L271.942 55.3271H274.845L269.303 65.316V70.1074H266.948V65.316ZM295.867 55.3271V70.1074H293.491V63.8339H286.223V70.1074H283.848V55.3271H286.223V61.56H293.491V55.3271H295.867ZM299.927 55.3271H302.303V70.1074H299.927V55.3271ZM307.914 55.3271L312.563 66.8996L311.203 66.6357L315.527 55.3271H318.329L311.71 70.7977L305.092 55.3271H307.914ZM321.102 55.3271H330.908V57.601H323.478V61.5397H330.096V63.8339H323.478V67.8335H331.193V70.1074H321.102V55.3271Z" fill="var(--splashscreen-text-color)"/>
</svg>
