<svg xmlns="http://www.w3.org/2000/svg" width="37" height="36" fill="none" viewBox="0 0 37 36">
  <path fill="currentColor" d="m9.975 9.204-.205.205v3.381l.219.183.218.184h1.614c.98 0 1.677-.029 1.762-.07.373-.205.43-.818.091-1.135-.162-.155-.26-.17-.965-.204l-.79-.036.388-.296a5.273 5.273 0 0 1 2.03-.908c.479-.092 1.127-.106 3.974-.085 3.813.028 3.657.014 4.743.57.775.402 1.585 1.213 1.987 1.987.564 1.1.55.959.55 5.038 0 4.079.014 3.938-.55 5.037-.402.775-1.212 1.585-1.987 1.986-1.1.564-.959.55-5.039.55s-3.94.014-5.038-.55c-.776-.401-1.586-1.211-1.988-1.986-.514-1-.535-1.113-.563-3.24-.014-1.142-.057-1.98-.106-2.1-.085-.212-.38-.402-.62-.402a.761.761 0 0 0-.634.416c-.064.155-.078.718-.057 2.17.028 1.88.042 1.986.219 2.578.33 1.078.754 1.804 1.522 2.614.803.831 1.649 1.352 2.804 1.712l.62.197h7.681l.62-.197c1.157-.36 2.002-.88 2.805-1.712.762-.803 1.184-1.522 1.523-2.614l.197-.62v-7.679l-.197-.62c-.67-2.156-2.17-3.656-4.327-4.326l-.62-.197h-7.681l-.62.197a6.552 6.552 0 0 0-1.931.938l-.444.302v-.387c0-.683-.282-1.085-.761-1.085-.17 0-.296.063-.444.204Z"/>
  <path fill="currentColor" d="M17.264 13.581c-.374.18-.381.26-.389 2.533 0 1.705.023 2.16.107 2.306.06.1.831.803 1.708 1.565 1.571 1.37 1.602 1.39 1.915 1.39.457 0 .77-.274.77-.675 0-.274-.023-.3-1.487-1.591L18.4 17.792v-1.885c0-1.317-.03-1.932-.091-2.052-.168-.32-.671-.454-1.045-.274Z"/>
</svg>
