<svg xmlns="http://www.w3.org/2000/svg" width="30" height="30" fill="none" viewBox="0 0 24 24">
  <path fill="var(--wallet-icon-color)" fill-rule="evenodd" d="M9.05 7.312c.426-.963.833-1.437 1.278-1.633.365-.16.843-.172 1.544.034l-1.64 3.713h-1.61c-.166 0-.331.011-.492.032l.802-1.87a.458.458 0 0 0 .011-.029l.015-.036.044-.098a.46.46 0 0 0 .015-.04l.009-.023.003-.009a.46.46 0 0 0 .02-.041ZM4.9 14.355v-1.188a.464.464 0 0 1-.008-.088v-1.917c0-2.003 1.398-3.676 3.283-4.152a.903.903 0 0 1 .043-.091c.45-1.01.975-1.745 1.74-2.081.773-.34 1.663-.218 2.695.167.079.027.179.069.246.097l.06.025.008.003 1.48.608c.843.342 1.505.723 1.928 1.229.075.088.145.18.21.294.036.056.07.117.102.182a4.257 4.257 0 0 1 2.208 3.718v1.787l.002.131v1.276c0 .143-.007.283-.014.41v.008c-.068 1.224-.459 2.215-1.23 2.894-.767.672-1.839.975-3.144.975H9.281c-.18 0-.355-.014-.52-.034-1.13-.076-2.061-.414-2.73-1.066-.668-.653-1.017-1.566-1.095-2.677a3.956 3.956 0 0 1-.036-.51Zm11.039-3.908a.444.444 0 0 0 .047.017c1.155.338 1.989 1.389 1.989 2.613 0 .016 0 .032.002.047v1.231c0 .117-.006.236-.012.368-.06 1.058-.387 1.784-.92 2.252-.539.474-1.36.747-2.536.747H9.281a3.346 3.346 0 0 1-.446-.032c-.994-.064-1.694-.35-2.16-.806-.466-.454-.757-1.132-.822-2.096l-.003-.03a3.07 3.07 0 0 1-.03-.403v-1.276c0-1.117.694-2.088 1.7-2.512.35-.142.72-.22 1.111-.22h6.534a2.974 2.974 0 0 1 .773.1Zm1.992.179a3.331 3.331 0 0 0-1.004-1.878 4.28 4.28 0 0 1-.218 1c.465.208.88.508 1.222.878Zm-10.948-.83L7.68 8.17a3.378 3.378 0 0 0-1.825 2.462c.317-.344.7-.629 1.128-.835Zm8.515-.356a3.99 3.99 0 0 0-.325-.013h-3.934l1.5-3.396 1.36.559h.002c.804.326 1.294.638 1.569.968l.003.004a.932.932 0 0 1 .134.19.538.538 0 0 1 .074.15.45.45 0 0 0 .025.069.59.59 0 0 1 .042.123c.109.33.086.769-.125 1.386a3.798 3.798 0 0 0-.325-.04Zm-3.603 2.393a.46.46 0 0 1 .46.46v1.136h1.216a.46.46 0 1 1 0 .92h-1.217v1.215a.46.46 0 1 1-.92 0v-1.215H10.22a.46.46 0 1 1 0-.92h1.215v-1.136a.46.46 0 0 1 .46-.46Z" clip-rule="evenodd"/>
</svg>
