<svg xmlns="http://www.w3.org/2000/svg" width="20" height="20" fill="none" viewBox="0 0 20 20">
  <path stroke="#E31337" stroke-linecap="round" stroke-linejoin="round" stroke-miterlimit="10" stroke-width="1.27" d="M16.641 8.334H3.308v6.667c0 2.5.833 3.333 3.333 3.333h6.667c2.5 0 3.333-.833 3.333-3.333V8.334Zm1.276-2.501v.833c0 .917-.442 1.667-1.667 1.667H3.75c-1.275 0-1.667-.75-1.667-1.667v-.833c0-.917.392-1.667 1.667-1.667h12.5c1.225 0 1.667.75 1.667 1.667ZM9.7 4.166H5.1a.78.78 0 0 1 .025-1.083l1.183-1.184a.8.8 0 0 1 1.125 0L9.7 4.166Zm5.192 0h-4.6l2.266-2.267a.8.8 0 0 1 1.125 0l1.184 1.184c.3.3.308.775.024 1.083Z"/>
  <path stroke="#E31337" stroke-linecap="round" stroke-linejoin="round" stroke-miterlimit="10" stroke-width="1.27" d="M7.45 8.334v4.283a.835.835 0 0 0 1.292.7l.783-.516a.832.832 0 0 1 .917 0l.742.5a.83.83 0 0 0 1.291-.692V8.334H7.45Z"/>
</svg>
