<svg width="20" height="16" viewBox="0 0 20 16" fill="none" xmlns="http://www.w3.org/2000/svg">
<path d="M19.9195 4.6998C19.8122 4.59246 19.6382 4.59246 19.5309 4.6998L17.8192 6.41147C17.7747 6.45603 17.7468 6.51454 17.7403 6.57724C17.604 7.88103 17.0185 9.10957 16.0915 10.0365L15.6848 10.4433L12.7294 7.48782C12.9163 7.53196 13.0993 7.55428 13.277 7.55428C13.5376 7.55428 13.787 7.50663 14.0213 7.41075C14.1618 7.3533 14.2291 7.19282 14.1716 7.05238C14.1142 6.91185 13.9536 6.84467 13.8132 6.90208C12.6816 7.36505 11.377 6.13287 11.2126 5.97108L10.4274 5.1858C10.5248 4.77234 10.4407 4.32861 10.19 3.96813C9.90656 3.56067 9.45598 3.32701 8.95184 3.32701L7.0498 3.34062C7.04811 3.34062 7.04641 3.34062 7.04477 3.34062C6.86268 3.34062 6.69146 3.27006 6.56214 3.14163C6.43164 3.01201 6.35977 2.83931 6.35981 2.65529V2.62666C6.35989 2.25747 6.64898 1.95684 7.01792 1.9423L10.4817 1.80583C11.7318 1.75662 12.9778 2.13626 13.9884 2.87478C14.0978 2.95468 14.249 2.94302 14.3448 2.84722L16.164 1.028C16.2713 0.920699 16.2713 0.74669 16.164 0.639394C16.0567 0.532055 15.8827 0.532055 15.7754 0.639394L14.1193 2.29552C13.0456 1.57348 11.7553 1.20572 10.4601 1.25667L6.99628 1.39313C6.98812 1.39347 6.98013 1.39419 6.97205 1.3947L5.65782 0.0805042C5.55052 -0.0268347 5.37651 -0.0268347 5.26921 0.0805042C5.16188 0.187801 5.16188 0.361809 5.26921 0.469106L6.38327 1.58316C6.03754 1.8019 5.81035 2.18725 5.81022 2.62662V2.65524C5.81014 2.98677 5.93967 3.29801 6.17485 3.53163C6.41008 3.76524 6.72195 3.89262 7.05373 3.89021L8.95378 3.8766C9.39147 3.8766 9.63346 4.13055 9.73872 4.28194C9.81892 4.39723 9.87265 4.52532 9.89882 4.65731L9.80463 4.56312C9.69734 4.45578 9.52333 4.45578 9.41603 4.56312C9.30869 4.67042 9.30869 4.84442 9.41603 4.95172L15.6165 11.1522C15.8843 11.4199 15.8843 11.8556 15.6165 12.1233C15.3489 12.391 14.9134 12.391 14.6457 12.1237L10.6963 8.1743C10.5891 8.06696 10.415 8.06696 10.3078 8.1743C10.2004 8.28159 10.2004 8.4556 10.3078 8.5629L14.5617 12.8168C14.8294 13.0846 14.8294 13.5203 14.5617 13.788C14.432 13.9177 14.2596 13.9892 14.0761 13.9892C13.8926 13.9892 13.7202 13.9177 13.5905 13.788L9.55795 9.75542C9.45061 9.64813 9.27665 9.64813 9.16935 9.75542C9.06205 9.86272 9.06201 10.0367 9.16935 10.144L12.4737 13.4484C12.7412 13.7162 12.7411 14.1516 12.4735 14.4193C12.2057 14.6871 11.77 14.687 11.5023 14.4193L7.91354 10.8305C7.80624 10.7232 7.63223 10.7232 7.52494 10.8305C7.4176 10.9378 7.4176 11.1118 7.52494 11.2191L10.1869 13.8811L10.187 13.8812C10.4548 14.1489 10.4548 14.5846 10.187 14.8524C9.91928 15.1201 9.48359 15.1201 9.21585 14.8524L4.39981 10.0365C3.47286 9.10957 2.88734 7.88103 2.75113 6.57724C2.74457 6.51454 2.71671 6.45603 2.67211 6.41147L0.469106 4.20842C0.361809 4.10108 0.187801 4.10108 0.0805042 4.20842C-0.0268347 4.31572 -0.0268347 4.48973 0.0805042 4.59702L2.21553 6.73205C2.38328 8.12437 3.01861 9.43248 4.01121 10.4251L4.41646 10.8303C4.26558 11.0392 4.18395 11.2893 4.18395 11.552C4.18395 11.8822 4.31255 12.1927 4.54604 12.4262C4.78706 12.6672 5.10362 12.7878 5.42022 12.7878C5.45138 12.7878 5.4825 12.7862 5.51357 12.7839C5.50296 12.8495 5.49725 12.9164 5.49725 12.9842C5.49725 13.3144 5.62585 13.6249 5.85935 13.8584C6.10036 14.0994 6.41692 14.2199 6.73353 14.2199C6.79513 14.2199 6.85672 14.2152 6.91777 14.2061C6.86175 14.5809 6.97755 14.9766 7.26545 15.2645C7.49894 15.498 7.80941 15.6266 8.13963 15.6266C8.43396 15.6266 8.71243 15.5242 8.93489 15.3366C9.1587 15.5138 9.42994 15.6027 9.70139 15.6027C10.018 15.6027 10.3346 15.4821 10.5756 15.2411C10.7552 15.0616 10.8677 14.84 10.9135 14.6079L11.1136 14.808C11.3546 15.049 11.6712 15.1695 11.9878 15.1695C12.3044 15.1695 12.6211 15.049 12.8621 14.808C13.0416 14.6284 13.1542 14.4069 13.1999 14.1748L13.2019 14.1767C13.4353 14.4101 13.7458 14.5387 14.0761 14.5387C14.4064 14.5387 14.7168 14.4101 14.9503 14.1767C15.3033 13.8237 15.3975 13.3087 15.2335 12.869C15.5151 12.8457 15.7902 12.7269 16.0051 12.5119C16.4642 12.0529 16.4857 11.32 16.0705 10.8348L16.4801 10.4251C17.4727 9.43248 18.1081 8.12433 18.2759 6.73201L19.9195 5.08836C20.0268 4.98106 20.0268 4.80709 19.9195 4.6998ZM4.93468 12.0376C4.80498 11.9079 4.73353 11.7355 4.73353 11.552C4.73353 11.4372 4.76156 11.3267 4.81432 11.2282L5.74406 12.1579C5.64564 12.2107 5.53509 12.2387 5.42022 12.2387C5.23683 12.2388 5.06439 12.1674 4.93468 12.0376ZM6.24799 13.4698C6.11829 13.3401 6.04684 13.1676 6.04684 12.9842C6.04684 12.8399 6.09161 12.7028 6.17363 12.5876L7.13008 13.544C6.86218 13.7339 6.48786 13.7096 6.24799 13.4698ZM7.65409 14.8759C7.41422 14.636 7.38995 14.2618 7.57985 13.9938L8.53631 14.9503C8.42106 15.0322 8.28392 15.077 8.13963 15.077C7.95624 15.077 7.78379 15.0056 7.65409 14.8759Z"  fill="#E31337" stroke="#E31337" stroke-width="0.3"/>
</svg>
