<svg xmlns="http://www.w3.org/2000/svg" width="24" height="24" fill="none" viewBox="0 0 24 24">
  <path stroke="#E31337" stroke-linecap="round" stroke-linejoin="round"  d="M19 12c0 3.864-3.136 7-7 7s-6.223-3.892-6.223-3.892m0 0h3.164m-3.164 0v3.5M5 12c0-3.864 3.108-7 7-7 4.67 0 7 3.892 7 3.892m0 0v-3.5m0 3.5h-3.107"/>
  <path fill="#E31337" d="M12.06 10.32V14h-.725v-1.495H9.69V14h-.725v-3.68h.725v1.485h1.645V10.32h.725Zm1.863 0c.303 0 .56.052.77.155.21.1.37.243.48.43.11.183.165.402.165.655 0 .15-.024.302-.07.455-.044.15-.115.287-.215.41a1.045 1.045 0 0 1-.395.3c-.164.073-.365.11-.605.11h-.52V14h-.725v-3.68h1.115Zm.125 1.81a.61.61 0 0 0 .275-.055.49.49 0 0 0 .17-.145.557.557 0 0 0 .09-.185.56.56 0 0 0 .03-.165.698.698 0 0 0-.02-.145.55.55 0 0 0-.07-.19.439.439 0 0 0-.17-.16.59.59 0 0 0-.3-.065h-.52v1.11h.515Z"/>
</svg>
