<svg xmlns="http://www.w3.org/2000/svg" width="21" height="20" fill="none" viewBox="0 0 21 20">
  <path stroke="#E31337" stroke-linecap="round" stroke-linejoin="round" stroke-width="1.5" d="M3.417 5.835v8.333c0 2.5 1.225 4.167 4.166 4.167h5.834c2.891 0 4.166-1.667 4.166-4.167v-.975a1.64 1.64 0 0 0-.491-1.175l-.692-.692a1.652 1.652 0 0 1-.492-1.175V8.335c0-.459.375-.834.834-.834a.836.836 0 0 0 .833-.833v-.833c0-2.5-1.275-4.167-4.167-4.167H7.575c-2.933 0-4.158 1.667-4.158 4.167Z"/>
  <path stroke="#E31337" stroke-linecap="round" stroke-linejoin="round" stroke-width="1.5" d="m7.158 18.31-.008-2.475a1.66 1.66 0 0 1 1.667-1.667h3.341a1.67 1.67 0 0 1 1.667 1.658l.025 2.492M12.142 6.482h-5"/>
</svg>
