<svg xmlns="http://www.w3.org/2000/svg" width="109" height="109" fill="none" viewBox="0 0 109 109">
  <circle cx="54.563" cy="54.465" r="54.391" fill="url(#a)"/>
  <path fill="#fff" d="M50.523 69.159c-1.154 0-2.307-.495-2.966-1.484l-9.228-11.864c-1.318-1.648-.989-3.955.66-5.273 1.647-1.318 3.954-.988 5.272.66l6.262 8.074L64.365 41.31c1.318-1.647 3.625-1.977 5.273-.659 1.647 1.319 1.977 3.625.659 5.273L53.489 67.676c-.824.823-1.813 1.483-2.966 1.483Z"/>
  <circle cx="77.703" cy="62.996" r="2.03" fill="#fff"/>
  <circle cx="24.515" cy="40.665" r="3.247" fill="#fff"/>
  <circle cx="72.019" cy="23.22" r="1.218" fill="#fff"/>
  <circle cx="38.334" cy="80.452" r="1.624" fill="#fff"/>
  <circle cx="56.197" cy="41.489" r=".812" fill="#fff"/>
  <defs>
    <linearGradient id="a" x1=".172" x2="125.75" y1="-6.605" y2="12.851" gradientUnits="userSpaceOnUse">
      <stop stop-color="#E31337"/>
      <stop offset="1" stop-color="#FF002C"/>
    </linearGradient>
  </defs>
</svg>
