<svg xmlns="http://www.w3.org/2000/svg" width="109" height="109" viewBox="0 0 109 109" fill="none">
  <circle cx="54.3856" cy="54.391" r="54.391" fill="url(#paint0_linear_4131_26691)"/>
  <path d="M58 61.4466C58 63.6545 56.2101 65.4444 54.0021 65.4444V65.4444C51.7959 65.4444 50.0068 63.6646 50.0052 61.4583C50.0012 56.0772 49.9962 46.0052 50.0046 35.993C50.0064 33.7869 51.7957 32 54.0019 32V32C56.21 32 58 33.79 58 35.9981V61.4466Z" fill="white"/>
  <path d="M58 72.3148C58 70.2795 56.3501 68.6296 54.3148 68.6296H53.6939C51.6586 68.6296 50.0087 70.2795 50.0087 72.3148V72.3148C50.0087 74.3501 51.6586 76 53.6939 76H54.3148C56.3501 76 58 74.3501 58 72.3148V72.3148Z" fill="white"/>
  <circle cx="77.5261" cy="62.9221" r="2.02951" fill="white"/>
  <circle cx="24.3376" cy="40.5919" r="3.24722" fill="white"/>
  <circle cx="71.8422" cy="23.1454" r="1.21771" fill="white"/>
  <circle cx="38.1558" cy="80.3785" r="1.62361" fill="white"/>
  <circle cx="56.0193" cy="41.4153" r="0.811805" fill="white"/>
  <defs>
    <linearGradient id="paint0_linear_4131_26691" x1="-0.00537125" y1="-6.67959" x2="125.573" y2="12.7769" gradientUnits="userSpaceOnUse">
      <stop stop-color="#E31337"/>
      <stop offset="1" stop-color="#FF002C"/>
    </linearGradient>
  </defs>
</svg>