<svg xmlns="http://www.w3.org/2000/svg" width="30" height="30" fill="none" viewBox="0 0 24 24">
  <path stroke="var(--wallet-icon-color)" stroke-linecap="round" stroke-linejoin="round" stroke-width="1.001" d="M19 12c0 3.864-3.136 7-7 7s-6.223-3.892-6.223-3.892m0 0h3.164m-3.164 0v3.5M5 12c0-3.864 3.108-7 7-7 4.67 0 7 3.892 7 3.892m0 0v-3.5m0 3.5h-3.107"/>
  <path fill="var(--wallet-icon-secondary-color)" d="M10.296 10.32c.23 0 .435.03.615.09.18.057.33.14.45.25.124.107.217.237.28.39.064.15.095.32.095.51 0 .15-.023.3-.07.45a1.113 1.113 0 0 1-.62.71 1.54 1.54 0 0 1-.62.11h-.52V14h-.725v-3.68h1.115Zm.125 1.81c.11 0 .202-.018.275-.055a.513.513 0 0 0 .26-.315.585.585 0 0 0 .03-.175c0-.04-.006-.09-.02-.15a.55.55 0 0 0-.07-.19.439.439 0 0 0-.17-.16.59.59 0 0 0-.3-.065h-.52v1.11h.515Zm.68.45.91 1.42h-.845l-.93-1.4.865-.02Zm3.941 1.115a1.958 1.958 0 0 1-.62.285c-.156.043-.33.063-.52.06a2.124 2.124 0 0 1-.78-.155 1.77 1.77 0 0 1-.58-.405 1.793 1.793 0 0 1-.36-.585 1.974 1.974 0 0 1-.125-.705c0-.28.042-.537.125-.77.087-.233.209-.435.365-.605.16-.17.35-.302.57-.395.22-.093.464-.14.73-.14.247 0 .465.033.655.1s.345.138.465.215l-.285.685a1.944 1.944 0 0 0-.335-.195 1.028 1.028 0 0 0-.475-.105c-.14 0-.275.03-.405.09a1.06 1.06 0 0 0-.34.245 1.223 1.223 0 0 0-.23.375c-.056.14-.085.293-.085.46 0 .177.025.338.075.485.054.147.129.273.225.38.097.103.212.183.345.24.137.057.29.085.46.085a1.22 1.22 0 0 0 .825-.295l.3.65Z"/>
</svg>
