<svg width="45" height="40" viewBox="0 0 45 40" fill="none" xmlns="http://www.w3.org/2000/svg">
<path d="M25.1523 25.2716L24.8047 25.631L25.1523 25.2716ZM25.6167 25.7401L25.2141 26.0366L25.6167 25.7401ZM24.9779 27.3192L24.8947 26.8262L24.9779 27.3192ZM25.1523 14.7281L25.4999 15.0875L25.1523 14.7281ZM25.6167 14.2596L25.2141 13.963L25.6167 14.2596ZM24.9779 12.6804L25.0612 12.1874L24.9779 12.6804ZM23.4167 19.9998C23.4167 18.0715 24.2148 16.3305 25.4999 15.0875L24.8047 14.3687C23.3328 15.7923 22.4167 17.7895 22.4167 19.9998H23.4167ZM25.4999 24.9122C24.2148 23.6692 23.4167 21.9281 23.4167 19.9998H22.4167C22.4167 22.2102 23.3328 24.2074 24.8047 25.631L25.4999 24.9122ZM24.75 26.8332C20.9761 26.8332 17.9167 23.7738 17.9167 19.9998H16.9167C16.9167 24.3261 20.4238 27.8332 24.75 27.8332V26.8332ZM17.9167 19.9998C17.9167 16.2259 20.9761 13.1665 24.75 13.1665V12.1665C20.4238 12.1665 16.9167 15.6736 16.9167 19.9998H17.9167ZM24.8047 25.631C24.9443 25.766 25.0444 25.8628 25.1161 25.9345C25.1953 26.0136 25.2152 26.0381 25.2141 26.0366L26.0192 25.4436C25.9684 25.3746 25.8944 25.2985 25.823 25.2271C25.744 25.1483 25.6368 25.0446 25.4999 24.9122L24.8047 25.631ZM24.75 27.8332C24.8482 27.8332 24.9335 27.8338 25.0612 27.8123L24.8947 26.8262C24.8572 26.8325 24.8456 26.8332 24.75 26.8332V27.8332ZM25.2141 26.0366C25.4349 26.3364 25.2619 26.7642 24.8947 26.8262L25.0612 27.8123C26.1631 27.6263 26.682 26.3433 26.0192 25.4436L25.2141 26.0366ZM25.4999 15.0875C25.6368 14.9551 25.744 14.8514 25.823 14.7725C25.8944 14.7011 25.9684 14.6251 26.0192 14.5561L25.2141 13.963C25.2152 13.9615 25.1953 13.9861 25.1161 14.0652C25.0444 14.1369 24.9443 14.2337 24.8047 14.3687L25.4999 15.0875ZM24.75 13.1665C24.8456 13.1665 24.8572 13.1671 24.8947 13.1735L25.0612 12.1874C24.9335 12.1659 24.8482 12.1665 24.75 12.1665V13.1665ZM26.0192 14.5561C26.682 13.6564 26.1631 12.3734 25.0612 12.1874L24.8947 13.1735C25.2619 13.2354 25.4349 13.6632 25.2141 13.963L26.0192 14.5561Z" fill="#E31337"/>
<rect x="0.423259" y="-0.423259" width="43.37" height="38.9483" rx="19.4742" transform="matrix(1 0 0 -1 0 38.9484)" stroke="var(--menu-icon-border-color)" stroke-width="0.846517"/>
</svg>
