<svg width="45" height="40" viewBox="0 0 45 40" fill="none" xmlns="http://www.w3.org/2000/svg">
<rect x="0.423259" y="-0.423259" width="43.37" height="38.9483" rx="19.4742" transform="matrix(1 0 0 -1 0 38.9484)" stroke="var(--main-font-color)" stroke-width="0.846517"/>
<path fill-rule="evenodd" clip-rule="evenodd" d="M24.75 12.6665C24.8468 12.6665 24.8953 12.6665 24.9779 12.6804C25.7124 12.8044 26.0584 13.6598 25.6166 14.2596C25.5669 14.327 25.4287 14.4607 25.1523 14.7281C23.7737 16.0614 22.9166 17.9305 22.9166 19.9998C22.9166 22.0691 23.7737 23.9383 25.1523 25.2716C25.4287 25.5389 25.5669 25.6726 25.6166 25.7401C26.0584 26.3399 25.7124 27.1952 24.9779 27.3192C24.8953 27.3332 24.8468 27.3332 24.75 27.3332V27.3332C20.6999 27.3332 17.4166 24.0499 17.4166 19.9998C17.4166 15.9497 20.6999 12.6665 24.75 12.6665V12.6665Z" fill="var(--main-font-color)"/>
</svg>
