<svg xmlns="http://www.w3.org/2000/svg" width="24" height="24" fill="none" viewBox="0 0 24 24">
  <path fill="#fff" d="M10.49 2.432c-4.593.3-8.722 3.61-10.024 8.026-.928 3.177-.455 6.585 1.284 9.266.589.92.812 1.124 1.204 1.124.401 0 .651-.142.82-.46.206-.399.17-.523-.374-1.38-.838-1.32-1.275-2.408-1.498-3.797-.74-4.496 1.873-8.903 6.198-10.479 1.204-.433 1.578-.495 3.3-.495 1.82.009 2.426.115 3.745.664 4.076 1.725 6.466 6 5.753 10.31-.223 1.389-.66 2.478-1.498 3.796-.544.858-.58.982-.375 1.38.259.496.954.629 1.347.257.356-.327 1.114-1.566 1.48-2.407 2.39-5.487.116-11.858-5.2-14.575-1.952-.991-3.861-1.38-6.162-1.23Z"/>
  <path fill="#fff" d="M15.993 8.254c-.143.089-.901.805-1.686 1.584l-1.41 1.407-.436-.159c-.607-.23-1.534-.221-2.176.018-.651.239-1.391.92-1.713 1.566-.205.434-.24.62-.25 1.301 0 .69.036.858.242 1.283.33.664.891 1.213 1.57 1.531.48.221.677.266 1.266.266.588 0 .784-.044 1.266-.266 1.472-.69 2.167-2.239 1.686-3.743l-.179-.575 1.552-1.558c1.463-1.451 1.56-1.575 1.56-1.876 0-.425-.204-.726-.552-.85-.366-.132-.428-.124-.74.071Zm-3.97 4.567c1.062.548.866 2.097-.311 2.424-1.124.301-2.07-1.017-1.427-2 .339-.504 1.168-.716 1.739-.424Z"/>
</svg>
