<svg xmlns="http://www.w3.org/2000/svg" width="20" height="20" fill="none" viewBox="0 0 20 20">
  <path stroke="#fff" stroke-linecap="round" stroke-linejoin="round" stroke-width="1.5" d="M15.033 11.292c-.35.342-.55.834-.5 1.359.075.9.9 1.558 1.8 1.558h1.583v.992a3.14 3.14 0 0 1-3.133 3.133H5.216a3.14 3.14 0 0 1-3.133-3.133V9.592A3.14 3.14 0 0 1 5.216 6.46h9.567a3.14 3.14 0 0 1 3.133 3.133v1.2h-1.683a1.66 1.66 0 0 0-1.2.5Z"/>
  <path stroke="#fff" stroke-linecap="round" stroke-linejoin="round" stroke-width="1.5" d="M2.083 10.342V6.534c0-.992.608-1.875 1.533-2.225l6.617-2.5a1.584 1.584 0 0 1 2.142 1.483V6.46m6.424 5.181v1.717a.856.856 0 0 1-.834.85h-1.633c-.9 0-1.725-.659-1.8-1.559-.05-.525.15-1.016.5-1.358a1.66 1.66 0 0 1 1.2-.5h1.733a.856.856 0 0 1 .834.85ZM5.833 10h5.833"/>
</svg>
