<svg xmlns="http://www.w3.org/2000/svg" width="30px" height="30px" fill="none" viewBox="0 0 21 20">
  <rect width="19.236" height="19.234" x=".383" y="-.383" stroke="var(--favorite-account-btn-border)" stroke-width=".767" rx="9.617" transform="matrix(1 0 0 -1 0 19.233)"/>
  <path stroke="var(--favorite-account-btn-icon)" stroke-linecap="round" stroke-linejoin="round" stroke-miterlimit="10" d="M13.454 9.135H6.52V12.6c0 1.3.433 1.734 1.733 1.734h3.467c1.3 0 1.733-.433 1.733-1.734V9.136Z"/>
  <path stroke="var(--favorite-account-btn-icon)" stroke-linecap="round" stroke-linejoin="round" stroke-miterlimit="10" d="M14.116 7.837v.434c0 .476-.23.866-.866.866h-6.5c-.664 0-.867-.39-.867-.866v-.434c0-.476.203-.866.867-.866h6.5c.637 0 .866.39.866.866ZM8.483 6.754l.03-.962c.16-.16 2.626-.16 2.787 0v.962"/>
  <path stroke="var(--favorite-account-btn-icon)" stroke-linecap="round" stroke-width=".5" d="m10.867 10.87-1.733 1.3m0-1.3 1.733 1.3"/>
</svg>
