<svg xmlns="http://www.w3.org/2000/svg" width="18" height="19" fill="none" viewBox="0 0 18 19">
  <path stroke="#e31337" stroke-linecap="round" stroke-linejoin="round" stroke-width="1.27" d="M9.12 9.152a1.363 1.363 0 0 0-.248 0A3.315 3.315 0 0 1 5.67 5.83 3.327 3.327 0 0 1 9 2.5a3.327 3.327 0 0 1 .12 6.652ZM5.37 11.92c-1.815 1.215-1.815 3.195 0 4.403 2.063 1.38 5.445 1.38 7.507 0 1.816-1.216 1.816-3.196 0-4.403-2.055-1.373-5.437-1.373-7.507 0Z"/>
  <path stroke="#e31337" d="m1.626 18.668 16-18"/>
</svg>
