<svg height="35px" width="45px" viewBox="0 0 58 50" fill="none" xmlns="http://www.w3.org/2000/svg">
<path d="M28.8074 1.72239C24.6344 3.74926 21.4948 7.68378 20.8191 11.817C20.6602 12.6119 20.2627 13.4067 19.9051 13.526C19.5474 13.6849 15.7321 14.9169 11.4001 16.3477C2.29908 19.2886 1.42474 19.6861 0.590142 21.2758C-0.125225 22.627 -0.204711 25.3295 0.431172 26.5615C1.50422 28.6282 4.48492 30.1384 6.19385 29.4627C6.59128 29.3038 7.10794 29.582 7.62459 30.2179C8.22073 30.973 8.77713 31.2114 9.85018 31.2114C12.2745 31.1717 13.745 29.423 13.3078 27.1179C13.1091 26.1244 13.2283 25.6475 13.8642 25.0911C14.6193 24.4154 16.2885 24.4949 16.2885 25.25C16.2885 25.4487 16.7654 26.1244 17.3218 26.8C18.0769 27.7141 18.673 28.032 19.6666 28.032C21.3358 28.032 22.9653 26.6808 23.164 25.1705C23.3627 23.5014 23.6806 23.4616 25.2306 24.8129C26.6613 26.0449 29.801 27.8333 29.801 27.4359C29.801 27.2769 29.3638 26.6013 28.8074 25.8462C27.019 23.5411 26.1049 20.2822 26.3434 17.063C26.5818 13.7644 27.6151 11.3401 29.8407 8.79658C33.2983 4.9018 38.0675 3.51081 43.7109 4.86206L44.7045 5.10051L43.7904 4.10695C43.2737 3.55055 41.9622 2.59673 40.8494 2.00059C39.1008 1.04676 38.2264 0.848051 35.0073 0.728823C31.4304 0.569852 31.033 0.649338 28.8074 1.72239Z" fill="#EC1540"/>
<path d="M38.9424 7.56428C37.9488 7.88222 36.1604 8.95527 34.8886 9.90909C30.6362 13.2872 28.6888 19.7255 30.358 24.8523L30.9939 26.8395L25.2312 33.397C22.0518 37.0136 19.1108 40.5507 18.6737 41.266C17.2032 43.6506 17.998 46.9095 20.5018 48.5389C21.7736 49.4133 25.0722 49.4928 26.026 48.6979C26.3837 48.38 27.6555 48.1415 28.8875 48.1018C30.6759 48.1018 31.2323 47.9031 31.8285 47.1479C32.822 45.9159 32.7823 43.7698 31.7092 42.3391C30.9939 41.3455 30.9144 41.0276 31.3118 40.1532C31.8285 39.0007 33.14 38.8417 34.3323 39.7558C35.604 40.7096 37.2732 40.4712 38.6245 39.1597C39.6578 38.1264 39.777 37.7289 39.5385 36.6559C39.0616 34.3906 39.1014 34.1918 39.936 34.3508C40.3731 34.4303 42.1616 34.5098 43.9102 34.5495C46.6127 34.5893 47.4473 34.4303 49.5139 33.4765C52.4152 32.1252 54.7997 29.8202 56.3099 26.8395C57.2638 24.8921 57.4227 24.2164 57.4227 20.8781C57.4227 17.5397 57.3035 16.8243 56.3099 14.8372C54.9587 12.0949 52.8126 9.90909 49.9909 8.35913C48.1627 7.36556 47.3678 7.16685 44.3077 7.08736C41.9628 7.00788 40.0949 7.16685 38.9424 7.56428ZM48.3614 14.1218C51.1434 15.791 51.6203 19.5268 49.355 21.7524C45.2615 25.8459 38.6245 20.4806 41.8436 15.6718C43.4333 13.2872 46.0166 12.6513 48.3614 14.1218Z" fill="var(--keychain-logo-color)"/>
</svg>