<svg width="35" height="35" viewBox="0 0 35 35" fill="none" xmlns="http://www.w3.org/2000/svg">
<circle cx="17.5" cy="17.5" r="17.125" fill="var(--notification-background-color)" stroke="var(--notification-border-color)" stroke-width="0.75"/>
<path stroke-width="1.27" d="M12.8359 15.7271C13.0716 13.6052 14.8651 12 17 12V12C19.1349 12 20.9284 13.6052 21.1641 15.7271L21.353 17.4267C21.4498 18.2986 21.7336 19.1394 22.185 19.8917L22.6185 20.6142C22.8117 20.9361 22.9082 21.0971 22.9444 21.2221C23.1004 21.7612 22.7823 22.3231 22.2397 22.4667C22.1139 22.5 21.9262 22.5 21.5508 22.5H12.4492C12.0738 22.5 11.8861 22.5 11.7603 22.4667C11.2177 22.3231 10.8996 21.7612 11.0556 21.2221C11.0918 21.0971 11.1883 20.9361 11.3815 20.6142L11.815 19.8917C12.2664 19.1394 12.5502 18.2986 12.647 17.4267L12.8359 15.7271Z" stroke="var(--notification-color)"/>
<path stroke-width="1.27" d="M14.8267 22.8044C14.9549 23.3626 15.2373 23.8558 15.6303 24.2076C16.0232 24.5593 16.5047 24.75 17 24.75C17.4953 24.75 17.9768 24.5593 18.3697 24.2076C18.7627 23.8558 19.0451 23.3626 19.1733 22.8044" stroke="var(--notification-color)" stroke-linecap="round"/>
</svg>
