<svg xmlns="http://www.w3.org/2000/svg" width="20" height="20" viewBox="0 0 20 20" fill="none">
<path d="M16.6419 8.33203H3.30859V14.9987C3.30859 17.4987 4.14193 18.332 6.64193 18.332H13.3086C15.8086 18.332 16.6419 17.4987 16.6419 14.9987V8.33203Z" stroke="#E31337" stroke-width="1.5" stroke-miterlimit="10" stroke-linecap="round" stroke-linejoin="round"/>
<path d="M17.9163 5.83464V6.66797C17.9163 7.58464 17.4747 8.33464 16.2497 8.33464H3.74967C2.47467 8.33464 2.08301 7.58464 2.08301 6.66797V5.83464C2.08301 4.91797 2.47467 4.16797 3.74967 4.16797H16.2497C17.4747 4.16797 17.9163 4.91797 17.9163 5.83464Z" stroke="#E31337" stroke-width="1.5" stroke-miterlimit="10" stroke-linecap="round" stroke-linejoin="round"/>
<path d="M7.08301 3.75081L7.14136 1.90117C7.44969 1.59284 12.1913 1.59284 12.4997 1.90117V3.75081" stroke="#E31337" stroke-width="1.5" stroke-miterlimit="10" stroke-linecap="round" stroke-linejoin="round"/>
<path d="M11.6678 11.666L8.33447 14.166" stroke="#E31337" stroke-width="1.27" stroke-linecap="round"/>
<path d="M8.33447 11.666L11.6678 14.166" stroke="#E31337" stroke-width="1.27" stroke-linecap="round"/>
</svg>