
<svg xmlns="http://www.w3.org/2000/svg" width="30px" height="30px" fill="none" viewBox="0 0 21 19">
  <rect width="19.236" height="18.233" x=".383" y="-.383" stroke="#E31337" stroke-width="1.27" rx="9.117" transform="matrix(1 0 0 -1 0 18.233)"/>
  <path stroke="#E31337" stroke-width="1.27" stroke-linecap="round" stroke-linejoin="round" stroke-miterlimit="10" d="M10.546 6.042 6.99 9.619a1.23 1.23 0 0 0-.29.589l-.161 1.333c-.056.482.308.811.81.73l1.396-.227c.195-.033.468-.169.602-.309l3.558-3.577c.615-.618.893-1.322-.065-2.182-.954-.852-1.677-.552-2.293.066Z"/>
  <path stroke="#E31337" stroke-width="1.27" stroke-linecap="round" stroke-linejoin="round" stroke-miterlimit="10" d="M9.953 6.639c.186 1.136 1.157 2.004 2.361 2.12M6.1 13.617h7.8"/>
</svg>
