<svg xmlns="http://www.w3.org/2000/svg" width="20" height="20" fill="none" viewBox="0 0 20 20">
  <path fill="#E31337" d="M8.905.057c-.596.063-1.56.29-2.196.509C3.353 1.74.922 4.518.153 8.062c-.203.924-.203 2.974 0 3.913.863 4.022 3.85 6.996 7.889 7.872.925.204 2.988.204 3.905.008a11 11 0 0 0 2.776-1.01c.886-.46 1.082-.68 1.082-1.22 0-.438-.368-.86-.807-.931-.251-.04-.408.015-1.083.368-1.795.923-3.481 1.212-5.253.9-4.407-.767-7.356-4.907-6.61-9.281.791-4.625 5.378-7.607 9.927-6.456 3.724.947 6.288 4.398 6.077 8.185-.047.845.031 1.127.376 1.393.267.211.855.235 1.122.047.384-.266.447-.524.447-1.87-.008-1.792-.306-3.029-1.122-4.61C17.03 1.78 12.982-.38 8.905.058Z"/>
  <path fill="#E31337" d="M10.22 8.712s2.12-2.469 2.236-2.557c.471-.364 1.232-.06 1.455.6.273.767.104.575-3.163 4.472l-3.165 3.772s-1.582 0-1.582-1.257l4.22-5.03Z"/>
  <path fill="#E31337" d="M11.788 10.721s2.469 2.12 2.557 2.236c.364.471.06 1.232-.6 1.455-.767.273-.575.104-4.472-3.163L5.501 8.084s0-1.582 1.257-1.582l5.03 4.22Z"/>
</svg>
