<svg width="20" height="20" viewBox="0 0 20 20" fill="none" xmlns="http://www.w3.org/2000/svg">
<g clip-path="url(#clip0_29_3)">
<path d="M11.2715 1.49986C11.1516 1.26585 10.9695 1.06947 10.7451 0.932345C10.5208 0.795215 10.263 0.722655 10.0001 0.722655C9.73713 0.722655 9.4793 0.795215 9.25497 0.932345C9.03064 1.06947 8.8485 1.26585 8.72863 1.49986L0.871479 17.2141C0.761893 17.4316 0.709719 17.6734 0.71991 17.9169C0.730102 18.1601 0.802322 18.3967 0.929712 18.6043C1.0571 18.8119 1.23543 18.9834 1.44777 19.1026C1.6601 19.2219 1.89938 19.2849 2.14291 19.2856H17.8572C18.1007 19.2849 18.34 19.2219 18.5523 19.1026C18.7647 18.9834 18.943 18.8119 19.0704 18.6043C19.1977 18.3967 19.27 18.1601 19.2802 17.9169C19.2904 17.6734 19.2382 17.4316 19.1286 17.2141L11.2715 1.49986Z" stroke="var(--warning-color)" stroke-linecap="round" stroke-linejoin="round"/>
<path d="M10 7.14286V11.7857" stroke="var(--warning-color)" stroke-linecap="round" stroke-linejoin="round"/>
<path d="M10 15.7143C9.80278 15.7143 9.64288 15.5544 9.64288 15.3571C9.64288 15.1599 9.80278 15 10 15" stroke="var(--warning-color)" stroke-linecap="round" stroke-linejoin="round"/>
<path d="M10 15.7143C10.1973 15.7143 10.3572 15.5544 10.3572 15.3571C10.3572 15.1599 10.1973 15 10 15" stroke="var(--warning-color)" stroke-linecap="round" stroke-linejoin="round"/>
</g>
<defs>
<clipPath id="clip0_29_3">
<rect width="20" height="20" fill="white"/>
</clipPath>
</defs>
</svg>
